<?xml version="1.0" encoding="utf-8" standalone="no"?>
<!DOCTYPE svg PUBLIC "-//W3C//DTD SVG 1.1//EN"
  "http://www.w3.org/Graphics/SVG/1.1/DTD/svg11.dtd">
<svg xmlns:xlink="http://www.w3.org/1999/xlink" width="360pt" height="216pt" viewBox="0 0 360 216" xmlns="http://www.w3.org/2000/svg" version="1.1">
 <metadata>
  <rdf:RDF xmlns:dc="http://purl.org/dc/elements/1.1/" xmlns:cc="http://creativecommons.org/ns#" xmlns:rdf="http://www.w3.org/1999/02/22-rdf-syntax-ns#">
   <cc:Work>
    <dc:type rdf:resource="http://purl.org/dc/dcmitype/StillImage"/>
    <dc:date>1980-01-01T00:00:00+00:00</dc:date>
    <dc:format>image/svg+xml</dc:format>
    <dc:creator>
     <cc:Agent>
      <dc:title>Matplotlib v3.8.4, https://matplotlib.org/</dc:title>
     </cc:Agent>
    </dc:creator>
   </cc:Work>
  </rdf:RDF>
 </metadata>
 <defs>
  <style type="text/css">*{stroke-linejoin: round; stroke-linecap: butt}</style>
 </defs>
 <g id="figure_1">
  <g id="patch_1">
   <path d="M 0 216 
L 360 216 
L 360 0 
L 0 0 
z
" style="fill: #ffffff"/>
  </g>
  <g id="axes_1">
   <g id="patch_2">
    <path d="M 55.01 169.72 
L 340.155 169.72 
L 340.155 14.4 
L 55.01 14.4 
z
" style="fill: #eff1f5"/>
   </g>
   <g id="matplotlib.axis_1">
    <g id="xtick_1">
     <g id="line2d_1">
      <path d="M 55.01 169.72 
L 55.01 14.4 
" clip-path="url(#pdfca9efac1)" style="fill: none; stroke: #ffffff; stroke-width: 0.8; stroke-linecap: round"/>
     </g>
     <g id="text_1">
      <!-- 0.0 -->
      <g style="fill: #4c4f69" transform="translate(46.01 184.02) scale(0.1 -0.1)">
       <defs>
        <path id="JetBrainsMonoNFM-Regular-30" d="M 1920 -64 
Q 1274 -64 893 310 
Q 512 685 512 1312 
L 512 3360 
Q 512 3987 893 4361 
Q 1274 4736 1920 4736 
Q 2566 4736 2947 4361 
Q 3328 3987 3328 3360 
L 3328 1312 
Q 3328 896 3155 585 
Q 2982 275 2665 105 
Q 2349 -64 1920 -64 
z
M 1920 429 
Q 2304 429 2537 675 
Q 2771 922 2771 1312 
L 2771 3360 
Q 2771 3750 2537 3996 
Q 2304 4243 1920 4243 
Q 1536 4243 1302 3996 
Q 1069 3750 1069 3360 
L 1069 1312 
Q 1069 922 1302 675 
Q 1536 429 1920 429 
z
M 1920 1984 
Q 1747 1984 1641 2080 
Q 1536 2176 1536 2355 
Q 1536 2528 1641 2621 
Q 1747 2714 1920 2714 
Q 2093 2714 2198 2621 
Q 2304 2528 2304 2355 
Q 2304 2176 2198 2080 
Q 2093 1984 1920 1984 
z
" transform="scale(0.015625)"/>
        <path id="JetBrainsMonoNFM-Regular-2e" d="M 1920 -64 
Q 1683 -64 1539 77 
Q 1395 218 1395 442 
Q 1395 678 1539 825 
Q 1683 973 1920 973 
Q 2157 973 2301 825 
Q 2445 678 2445 442 
Q 2445 218 2301 77 
Q 2157 -64 1920 -64 
z
" transform="scale(0.015625)"/>
       </defs>
       <use xlink:href="#JetBrainsMonoNFM-Regular-30"/>
       <use xlink:href="#JetBrainsMonoNFM-Regular-2e" x="59.999985"/>
       <use xlink:href="#JetBrainsMonoNFM-Regular-30" x="119.999969"/>
      </g>
     </g>
    </g>
    <g id="xtick_2">
     <g id="line2d_2">
      <path d="M 90.653125 169.72 
L 90.653125 14.4 
" clip-path="url(#pdfca9efac1)" style="fill: none; stroke: #ffffff; stroke-width: 0.8; stroke-linecap: round"/>
     </g>
     <g id="text_2">
      <!-- 1.0 -->
      <g style="fill: #4c4f69" transform="translate(81.653125 184.02) scale(0.1 -0.1)">
       <defs>
        <path id="JetBrainsMonoNFM-Regular-31" d="M 576 0 
L 576 525 
L 1843 525 
L 1843 4173 
L 576 3226 
L 576 3885 
L 1632 4672 
L 2419 4672 
L 2419 525 
L 3456 525 
L 3456 0 
L 576 0 
z
" transform="scale(0.015625)"/>
       </defs>
       <use xlink:href="#JetBrainsMonoNFM-Regular-31"/>
       <use xlink:href="#JetBrainsMonoNFM-Regular-2e" x="59.999985"/>
       <use xlink:href="#JetBrainsMonoNFM-Regular-30" x="119.999969"/>
      </g>
     </g>
    </g>
    <g id="xtick_3">
     <g id="line2d_3">
      <path d="M 126.29625 169.72 
L 126.29625 14.4 
" clip-path="url(#pdfca9efac1)" style="fill: none; stroke: #ffffff; stroke-width: 0.8; stroke-linecap: round"/>
     </g>
     <g id="text_3">
      <!-- 2.0 -->
      <g style="fill: #4c4f69" transform="translate(117.29625 184.02) scale(0.1 -0.1)">
       <defs>
        <path id="JetBrainsMonoNFM-Regular-32" d="M 550 0 
L 550 531 
L 2106 2195 
Q 2445 2554 2585 2835 
Q 2726 3117 2726 3386 
Q 2726 3770 2505 3997 
Q 2285 4224 1907 4224 
Q 1517 4224 1289 3990 
Q 1062 3757 1062 3360 
L 486 3360 
Q 506 3994 890 4365 
Q 1274 4736 1907 4736 
Q 2554 4736 2934 4371 
Q 3315 4006 3315 3379 
Q 3315 3046 3132 2675 
Q 2950 2304 2509 1843 
L 1248 525 
L 3373 525 
L 3373 0 
L 550 0 
z
" transform="scale(0.015625)"/>
       </defs>
       <use xlink:href="#JetBrainsMonoNFM-Regular-32"/>
       <use xlink:href="#JetBrainsMonoNFM-Regular-2e" x="59.999985"/>
       <use xlink:href="#JetBrainsMonoNFM-Regular-30" x="119.999969"/>
      </g>
     </g>
    </g>
    <g id="xtick_4">
     <g id="line2d_4">
      <path d="M 161.939375 169.72 
L 161.939375 14.4 
" clip-path="url(#pdfca9efac1)" style="fill: none; stroke: #ffffff; stroke-width: 0.8; stroke-linecap: round"/>
     </g>
     <g id="text_4">
      <!-- 3.0 -->
      <g style="fill: #4c4f69" transform="translate(152.939375 184.02) scale(0.1 -0.1)">
       <defs>
        <path id="JetBrainsMonoNFM-Regular-33" d="M 1850 -64 
Q 1203 -64 825 297 
Q 448 659 448 1280 
L 1024 1280 
Q 1024 896 1248 672 
Q 1472 448 1856 448 
Q 2240 448 2464 672 
Q 2688 896 2688 1280 
L 2688 1600 
Q 2688 1984 2464 2208 
Q 2240 2432 1856 2432 
L 1350 2432 
L 1350 2931 
L 2496 4147 
L 576 4147 
L 576 4672 
L 3149 4672 
L 3149 4134 
L 2022 2938 
Q 2598 2893 2931 2537 
Q 3264 2182 3264 1600 
L 3264 1280 
Q 3264 659 2883 297 
Q 2502 -64 1850 -64 
z
" transform="scale(0.015625)"/>
       </defs>
       <use xlink:href="#JetBrainsMonoNFM-Regular-33"/>
       <use xlink:href="#JetBrainsMonoNFM-Regular-2e" x="59.999985"/>
       <use xlink:href="#JetBrainsMonoNFM-Regular-30" x="119.999969"/>
      </g>
     </g>
    </g>
    <g id="xtick_5">
     <g id="line2d_5">
      <path d="M 197.5825 169.72 
L 197.5825 14.4 
" clip-path="url(#pdfca9efac1)" style="fill: none; stroke: #ffffff; stroke-width: 0.8; stroke-linecap: round"/>
     </g>
     <g id="text_5">
      <!-- 4.0 -->
      <g style="fill: #4c4f69" transform="translate(188.5825 184.02) scale(0.1 -0.1)">
       <defs>
        <path id="JetBrainsMonoNFM-Regular-34" d="M 2560 0 
L 2560 1024 
L 448 1024 
L 448 1926 
L 2150 4672 
L 2803 4672 
L 1024 1798 
L 1024 1549 
L 2560 1549 
L 2560 2688 
L 3136 2688 
L 3136 0 
L 2560 0 
z
" transform="scale(0.015625)"/>
       </defs>
       <use xlink:href="#JetBrainsMonoNFM-Regular-34"/>
       <use xlink:href="#JetBrainsMonoNFM-Regular-2e" x="59.999985"/>
       <use xlink:href="#JetBrainsMonoNFM-Regular-30" x="119.999969"/>
      </g>
     </g>
    </g>
    <g id="xtick_6">
     <g id="line2d_6">
      <path d="M 233.225625 169.72 
L 233.225625 14.4 
" clip-path="url(#pdfca9efac1)" style="fill: none; stroke: #ffffff; stroke-width: 0.8; stroke-linecap: round"/>
     </g>
     <g id="text_6">
      <!-- 5.0 -->
      <g style="fill: #4c4f69" transform="translate(224.225625 184.02) scale(0.1 -0.1)">
       <defs>
        <path id="JetBrainsMonoNFM-Regular-35" d="M 1882 -64 
Q 1235 -64 857 297 
Q 480 659 480 1280 
L 1056 1280 
Q 1056 896 1280 672 
Q 1504 448 1888 448 
Q 2272 448 2496 672 
Q 2720 896 2720 1280 
L 2720 1568 
Q 2720 1952 2502 2176 
Q 2285 2400 1914 2400 
L 640 2400 
L 640 4672 
L 3130 4672 
L 3130 4147 
L 1178 4147 
L 1190 2925 
L 1946 2925 
Q 2592 2925 2944 2569 
Q 3296 2214 3296 1568 
L 3296 1280 
Q 3296 659 2915 297 
Q 2534 -64 1882 -64 
z
" transform="scale(0.015625)"/>
       </defs>
       <use xlink:href="#JetBrainsMonoNFM-Regular-35"/>
       <use xlink:href="#JetBrainsMonoNFM-Regular-2e" x="59.999985"/>
       <use xlink:href="#JetBrainsMonoNFM-Regular-30" x="119.999969"/>
      </g>
     </g>
    </g>
    <g id="xtick_7">
     <g id="line2d_7">
      <path d="M 268.86875 169.72 
L 268.86875 14.4 
" clip-path="url(#pdfca9efac1)" style="fill: none; stroke: #ffffff; stroke-width: 0.8; stroke-linecap: round"/>
     </g>
     <g id="text_7">
      <!-- 6.0 -->
      <g style="fill: #4c4f69" transform="translate(259.86875 184.02) scale(0.1 -0.1)">
       <defs>
        <path id="JetBrainsMonoNFM-Regular-36" d="M 1926 -64 
Q 1478 -64 1136 125 
Q 794 314 602 650 
Q 410 986 410 1427 
Q 410 1734 525 2057 
Q 640 2381 838 2733 
L 1920 4672 
L 2560 4672 
L 1408 2669 
L 1427 2656 
Q 1510 2765 1676 2822 
Q 1843 2880 2042 2880 
Q 2458 2880 2768 2697 
Q 3078 2515 3254 2195 
Q 3430 1875 3430 1453 
Q 3430 1005 3238 662 
Q 3046 320 2710 128 
Q 2374 -64 1926 -64 
z
M 1920 448 
Q 2336 448 2595 723 
Q 2854 998 2854 1440 
Q 2854 1882 2595 2157 
Q 2336 2432 1920 2432 
Q 1504 2432 1245 2157 
Q 986 1882 986 1440 
Q 986 998 1245 723 
Q 1504 448 1920 448 
z
" transform="scale(0.015625)"/>
       </defs>
       <use xlink:href="#JetBrainsMonoNFM-Regular-36"/>
       <use xlink:href="#JetBrainsMonoNFM-Regular-2e" x="59.999985"/>
       <use xlink:href="#JetBrainsMonoNFM-Regular-30" x="119.999969"/>
      </g>
     </g>
    </g>
    <g id="xtick_8">
     <g id="line2d_8">
      <path d="M 304.511875 169.72 
L 304.511875 14.4 
" clip-path="url(#pdfca9efac1)" style="fill: none; stroke: #ffffff; stroke-width: 0.8; stroke-linecap: round"/>
     </g>
     <g id="text_8">
      <!-- 7.0 -->
      <g style="fill: #4c4f69" transform="translate(295.511875 184.02) scale(0.1 -0.1)">
       <defs>
        <path id="JetBrainsMonoNFM-Regular-37" d="M 1216 0 
L 2880 4147 
L 1101 4147 
L 1101 3392 
L 525 3392 
L 525 4672 
L 3494 4672 
L 3494 4134 
L 1843 0 
L 1216 0 
z
" transform="scale(0.015625)"/>
       </defs>
       <use xlink:href="#JetBrainsMonoNFM-Regular-37"/>
       <use xlink:href="#JetBrainsMonoNFM-Regular-2e" x="59.999985"/>
       <use xlink:href="#JetBrainsMonoNFM-Regular-30" x="119.999969"/>
      </g>
     </g>
    </g>
    <g id="xtick_9">
     <g id="line2d_9">
      <path d="M 340.155 169.72 
L 340.155 14.4 
" clip-path="url(#pdfca9efac1)" style="fill: none; stroke: #ffffff; stroke-width: 0.8; stroke-linecap: round"/>
     </g>
     <g id="text_9">
      <!-- 8.0 -->
      <g style="fill: #4c4f69" transform="translate(331.155 184.02) scale(0.1 -0.1)">
       <defs>
        <path id="JetBrainsMonoNFM-Regular-38" d="M 1920 -64 
Q 1478 -64 1139 109 
Q 800 282 611 592 
Q 422 902 422 1306 
Q 422 1747 675 2067 
Q 928 2387 1350 2458 
L 1350 2477 
Q 986 2560 768 2845 
Q 550 3130 550 3501 
Q 550 3866 723 4144 
Q 896 4422 1206 4579 
Q 1517 4736 1920 4736 
Q 2330 4736 2637 4579 
Q 2944 4422 3117 4144 
Q 3290 3866 3290 3501 
Q 3290 3130 3072 2845 
Q 2854 2560 2490 2477 
L 2490 2458 
Q 2912 2387 3165 2067 
Q 3418 1747 3418 1306 
Q 3418 902 3229 592 
Q 3040 282 2704 109 
Q 2368 -64 1920 -64 
z
M 1920 2701 
Q 2278 2701 2496 2912 
Q 2714 3123 2714 3462 
Q 2714 3802 2496 4013 
Q 2278 4224 1920 4224 
Q 1568 4224 1347 4013 
Q 1126 3802 1126 3462 
Q 1126 3123 1347 2912 
Q 1568 2701 1920 2701 
z
M 1920 454 
Q 2330 454 2586 694 
Q 2842 934 2842 1318 
Q 2842 1709 2586 1949 
Q 2330 2189 1920 2189 
Q 1510 2189 1254 1949 
Q 998 1709 998 1318 
Q 998 934 1254 694 
Q 1510 454 1920 454 
z
" transform="scale(0.015625)"/>
       </defs>
       <use xlink:href="#JetBrainsMonoNFM-Regular-38"/>
       <use xlink:href="#JetBrainsMonoNFM-Regular-2e" x="59.999985"/>
       <use xlink:href="#JetBrainsMonoNFM-Regular-30" x="119.999969"/>
      </g>
     </g>
    </g>
    <g id="text_10">
     <!-- Input Flowrate $Q_{in}$ [robots/s] -->
     <g style="fill: #262626" transform="translate(124.0225 198.7) scale(0.12 -0.12)">
      <defs>
       <path id="STIXTwoText-49" d="M 2061 0 
L 218 0 
L 218 192 
Q 506 192 640 240 
Q 774 288 812 425 
Q 851 563 851 838 
L 851 3360 
Q 851 3610 819 3754 
Q 787 3898 656 3955 
Q 525 4013 218 4013 
L 218 4205 
L 2061 4205 
L 2061 4013 
Q 1760 4013 1625 3955 
Q 1491 3898 1462 3754 
Q 1434 3610 1434 3360 
L 1434 838 
Q 1434 563 1472 425 
Q 1510 288 1644 240 
Q 1779 192 2061 192 
L 2061 0 
z
" transform="scale(0.015625)"/>
       <path id="STIXTwoText-6e" d="M 3552 0 
L 2074 0 
L 2074 179 
Q 2304 179 2403 220 
Q 2502 262 2524 364 
Q 2547 467 2547 646 
L 2547 1805 
Q 2547 2189 2460 2381 
Q 2374 2573 2240 2633 
Q 2106 2694 1958 2694 
Q 1773 2694 1625 2620 
Q 1478 2547 1360 2444 
Q 1242 2342 1139 2253 
L 1094 2566 
L 1190 2566 
Q 1453 2797 1686 2950 
Q 1920 3104 2221 3104 
Q 2656 3104 2867 2809 
Q 3078 2515 3078 1965 
L 3078 646 
Q 3078 467 3107 364 
Q 3136 262 3238 220 
Q 3341 179 3552 179 
L 3552 0 
z
M 1670 0 
L 205 0 
L 205 179 
Q 422 179 515 220 
Q 608 262 630 364 
Q 653 467 653 646 
L 653 2445 
Q 653 2618 582 2672 
Q 512 2726 384 2726 
Q 301 2726 256 2720 
Q 211 2714 211 2714 
L 211 2899 
L 1024 3085 
L 1171 3085 
L 1165 2496 
L 1184 2362 
L 1184 646 
Q 1184 467 1209 364 
Q 1235 262 1337 220 
Q 1440 179 1670 179 
L 1670 0 
z
" transform="scale(0.015625)"/>
       <path id="STIXTwoText-70" d="M 1760 -1408 
L 141 -1408 
L 141 -1229 
Q 442 -1229 525 -1129 
Q 608 -1030 608 -762 
L 608 2406 
Q 608 2592 566 2662 
Q 525 2733 365 2733 
Q 301 2733 230 2726 
Q 160 2720 160 2720 
L 160 2906 
L 966 3085 
L 1126 3085 
L 1126 2547 
L 1146 2547 
Q 1376 2816 1616 2960 
Q 1856 3104 2138 3104 
Q 2458 3104 2698 2921 
Q 2938 2739 3075 2416 
Q 3213 2093 3213 1670 
Q 3213 1126 3024 739 
Q 2835 352 2515 144 
Q 2195 -64 1811 -64 
Q 1632 -64 1469 -22 
Q 1306 19 1165 115 
L 1139 115 
L 1139 -723 
Q 1139 -928 1190 -1037 
Q 1242 -1146 1376 -1184 
Q 1510 -1222 1760 -1222 
L 1760 -1408 
z
M 1843 186 
Q 2182 186 2406 506 
Q 2630 826 2630 1491 
Q 2630 2099 2432 2384 
Q 2234 2669 1875 2669 
Q 1619 2669 1424 2534 
Q 1229 2400 1139 2278 
L 1139 608 
Q 1203 544 1299 441 
Q 1395 339 1529 262 
Q 1664 186 1843 186 
z
" transform="scale(0.015625)"/>
       <path id="STIXTwoText-75" d="M 1421 -64 
Q 1024 -64 803 195 
Q 582 454 582 1107 
L 582 2406 
Q 582 2579 547 2659 
Q 512 2739 416 2761 
Q 320 2784 147 2784 
L 147 2963 
L 973 3059 
L 1114 3059 
L 1114 1190 
Q 1114 864 1187 681 
Q 1261 499 1392 422 
Q 1523 346 1690 346 
Q 1933 346 2109 454 
Q 2285 563 2477 730 
L 2477 2413 
Q 2477 2586 2432 2662 
Q 2387 2739 2275 2761 
Q 2163 2784 1958 2784 
L 1958 2963 
L 2854 3059 
L 3008 3059 
L 3008 710 
Q 3008 429 3085 358 
Q 3162 288 3392 288 
L 3456 288 
L 3456 115 
L 2643 -32 
L 2502 -32 
L 2502 461 
L 2470 461 
Q 2304 294 2141 176 
Q 1978 58 1802 -3 
Q 1626 -64 1421 -64 
z
" transform="scale(0.015625)"/>
       <path id="STIXTwoText-74" d="M 1875 576 
L 1997 474 
Q 1875 301 1769 182 
Q 1664 64 1536 0 
Q 1408 -64 1203 -64 
Q 883 -64 736 125 
Q 589 314 589 742 
L 589 2726 
L 237 2726 
L 237 2874 
Q 461 3014 624 3254 
Q 787 3494 960 3904 
L 1120 3904 
L 1120 2995 
L 1843 2995 
L 1843 2726 
L 1120 2726 
L 1120 922 
Q 1120 582 1181 448 
Q 1242 314 1427 314 
Q 1581 314 1667 378 
Q 1754 442 1875 576 
z
" transform="scale(0.015625)"/>
       <path id="STIXTwoText-20" transform="scale(0.015625)"/>
       <path id="STIXTwoText-46" d="M 2106 0 
L 230 0 
L 230 192 
Q 493 192 624 230 
Q 755 269 803 387 
Q 851 506 851 742 
L 851 3482 
Q 851 3706 793 3818 
Q 736 3930 598 3971 
Q 461 4013 230 4013 
L 230 4205 
L 3635 4205 
L 3674 3155 
L 3469 3155 
Q 3424 3386 3376 3533 
Q 3328 3680 3232 3763 
Q 3136 3846 2953 3881 
Q 2771 3917 2458 3917 
L 1440 3917 
L 1440 2298 
L 2195 2298 
Q 2470 2298 2617 2349 
Q 2765 2400 2819 2537 
Q 2874 2675 2874 2931 
L 3091 2931 
L 3091 1446 
L 2874 1446 
Q 2874 1709 2819 1837 
Q 2765 1965 2617 2006 
Q 2470 2048 2195 2048 
L 1440 2048 
L 1440 704 
Q 1440 486 1501 377 
Q 1562 269 1709 230 
Q 1856 192 2106 192 
L 2106 0 
z
" transform="scale(0.015625)"/>
       <path id="STIXTwoText-6c" d="M 1664 0 
L 192 0 
L 192 186 
Q 403 186 499 227 
Q 595 269 617 368 
Q 640 467 640 646 
L 640 3859 
Q 640 4058 566 4096 
Q 493 4134 371 4134 
Q 288 4134 227 4128 
Q 166 4122 166 4122 
L 166 4294 
L 1011 4518 
L 1171 4518 
L 1171 646 
Q 1171 461 1200 361 
Q 1229 262 1331 224 
Q 1434 186 1664 186 
L 1664 0 
z
" transform="scale(0.015625)"/>
       <path id="STIXTwoText-6f" d="M 1651 -64 
Q 979 -64 598 355 
Q 218 774 218 1549 
Q 218 2016 397 2365 
Q 576 2714 899 2909 
Q 1222 3104 1651 3104 
Q 2310 3104 2691 2694 
Q 3072 2285 3072 1574 
Q 3072 1037 2889 672 
Q 2707 307 2387 121 
Q 2067 -64 1651 -64 
z
M 1677 192 
Q 1939 192 2118 313 
Q 2298 435 2390 729 
Q 2483 1024 2483 1542 
Q 2483 2131 2268 2496 
Q 2054 2861 1626 2861 
Q 1261 2861 1037 2553 
Q 813 2246 813 1632 
Q 813 870 1040 528 
Q 1267 186 1677 192 
z
" transform="scale(0.015625)"/>
       <path id="STIXTwoText-77" d="M 3450 -38 
L 3142 -38 
L 2432 1914 
L 2342 2093 
L 2240 2374 
Q 2163 2586 2096 2685 
Q 2029 2784 1939 2813 
Q 1850 2842 1709 2842 
L 1709 3027 
L 3046 3027 
L 3046 2842 
Q 2867 2842 2796 2800 
Q 2726 2758 2726 2682 
Q 2726 2624 2742 2557 
Q 2758 2490 2784 2419 
L 3302 1018 
L 3418 646 
L 3456 646 
L 3584 1018 
L 4090 2451 
Q 4096 2477 4112 2537 
Q 4128 2598 4128 2682 
Q 4128 2771 4038 2806 
Q 3949 2842 3770 2842 
L 3770 3027 
L 4877 3027 
L 4877 2842 
Q 4691 2842 4595 2755 
Q 4499 2669 4403 2419 
L 3450 -38 
z
M 1690 -38 
L 1395 -38 
L 435 2374 
Q 352 2573 281 2672 
Q 211 2771 121 2806 
Q 32 2842 -109 2842 
L -109 3027 
L 1267 3027 
L 1267 2842 
Q 1075 2842 1001 2800 
Q 928 2758 928 2682 
Q 928 2618 950 2560 
Q 973 2502 998 2432 
L 1555 1018 
L 1670 646 
L 1715 646 
L 1850 1018 
L 2336 2246 
L 2547 1824 
L 2438 1824 
L 1690 -38 
z
" transform="scale(0.015625)"/>
       <path id="STIXTwoText-72" d="M 1786 0 
L 186 0 
L 186 186 
Q 397 186 496 221 
Q 595 256 624 349 
Q 653 442 653 621 
L 653 2381 
Q 653 2554 624 2640 
Q 595 2726 422 2726 
Q 326 2726 275 2720 
Q 224 2714 224 2714 
L 224 2893 
L 1018 3085 
L 1171 3085 
L 1171 2426 
L 1190 2426 
Q 1357 2662 1485 2816 
Q 1613 2970 1737 3046 
Q 1862 3123 2016 3123 
Q 2202 3123 2294 3027 
Q 2387 2931 2387 2765 
Q 2387 2586 2300 2502 
Q 2214 2419 2106 2419 
Q 2003 2419 1923 2473 
Q 1843 2528 1785 2582 
Q 1728 2637 1690 2637 
Q 1581 2637 1440 2470 
Q 1299 2304 1184 2112 
L 1184 653 
Q 1184 454 1235 352 
Q 1286 250 1417 218 
Q 1549 186 1786 186 
L 1786 0 
z
" transform="scale(0.015625)"/>
       <path id="STIXTwoText-61" d="M 1005 -45 
Q 634 -45 438 160 
Q 243 365 243 672 
Q 243 928 361 1104 
Q 480 1280 675 1401 
Q 870 1523 1097 1606 
Q 1325 1690 1542 1747 
Q 1760 1805 1926 1856 
L 1926 2138 
Q 1926 2554 1782 2730 
Q 1638 2906 1350 2906 
Q 1075 2906 998 2790 
Q 922 2675 922 2387 
Q 922 2240 848 2166 
Q 774 2093 640 2093 
Q 544 2093 457 2166 
Q 371 2240 371 2400 
Q 371 2579 508 2739 
Q 646 2899 899 3001 
Q 1152 3104 1498 3104 
Q 2022 3104 2240 2861 
Q 2458 2618 2458 2118 
L 2458 666 
Q 2458 467 2502 409 
Q 2547 352 2650 352 
Q 2739 352 2812 397 
Q 2886 442 2950 512 
L 3046 410 
Q 2886 179 2742 73 
Q 2598 -32 2355 -32 
Q 2131 -32 2064 96 
Q 1997 224 1965 461 
L 1926 538 
L 1926 1645 
Q 1638 1574 1382 1478 
Q 1126 1382 966 1228 
Q 806 1075 806 826 
Q 806 589 934 448 
Q 1062 307 1267 307 
Q 1434 307 1616 390 
Q 1798 474 1971 627 
L 2022 397 
L 1946 397 
Q 1798 269 1660 166 
Q 1523 64 1366 9 
Q 1210 -45 1005 -45 
z
" transform="scale(0.015625)"/>
       <path id="STIXTwoText-65" d="M 1581 -64 
Q 1197 -64 886 118 
Q 576 301 397 656 
Q 218 1011 218 1523 
Q 218 2061 400 2409 
Q 582 2758 889 2931 
Q 1197 3104 1568 3104 
Q 2093 3104 2413 2739 
Q 2733 2374 2758 1702 
L 678 1702 
L 672 1939 
L 2157 1939 
Q 2150 2176 2073 2384 
Q 1997 2592 1849 2720 
Q 1702 2848 1472 2848 
Q 1101 2848 915 2557 
Q 730 2266 730 1734 
Q 730 1293 870 998 
Q 1011 704 1241 560 
Q 1472 416 1734 416 
Q 1997 416 2160 486 
Q 2323 557 2438 669 
Q 2554 781 2656 915 
L 2778 826 
Q 2694 646 2585 483 
Q 2477 320 2339 198 
Q 2202 77 2016 6 
Q 1830 -64 1581 -64 
z
" transform="scale(0.015625)"/>
       <path id="STIXGeneral-Italic-51" d="M 442 -1082 
L 378 -979 
Q 749 -717 912 -589 
Q 1075 -461 1510 -77 
Q 966 32 675 425 
Q 384 819 384 1440 
Q 384 2035 678 2624 
Q 973 3213 1491 3661 
Q 2202 4262 3034 4262 
Q 3680 4262 4077 3833 
Q 4474 3405 4474 2746 
Q 4474 1997 4019 1277 
Q 3565 557 2835 173 
Q 2400 -64 1786 -102 
L 1440 -467 
L 1600 -467 
Q 1824 -467 2387 -595 
Q 2938 -730 3098 -730 
Q 3443 -730 3673 -624 
Q 3904 -518 4173 -237 
L 4275 -307 
Q 4122 -525 3942 -685 
Q 3411 -1165 2720 -1165 
Q 2298 -1165 1773 -998 
Q 1421 -883 1178 -883 
Q 800 -883 442 -1082 
z
M 3802 3072 
Q 3802 3526 3581 3788 
Q 3360 4051 2976 4051 
Q 2272 4051 1734 3251 
Q 1446 2822 1251 2230 
Q 1056 1638 1056 1171 
Q 1056 691 1273 400 
Q 1491 109 1850 109 
Q 2579 109 3117 902 
Q 3411 1350 3606 1964 
Q 3802 2579 3802 3072 
z
" transform="scale(0.015625)"/>
       <path id="STIXGeneral-Italic-69" d="M 1690 3834 
Q 1690 3699 1597 3603 
Q 1504 3507 1376 3507 
Q 1235 3507 1152 3600 
Q 1069 3693 1069 3846 
Q 1069 3994 1155 4090 
Q 1242 4186 1370 4186 
Q 1498 4186 1594 4080 
Q 1690 3974 1690 3834 
z
M 1421 730 
L 1504 659 
Q 1235 243 1049 86 
Q 864 -70 627 -70 
Q 314 -70 314 282 
Q 314 467 454 992 
L 762 2125 
Q 819 2330 819 2406 
Q 819 2502 745 2528 
Q 672 2554 410 2560 
L 410 2662 
Q 704 2688 1434 2822 
L 1459 2803 
L 858 608 
Q 794 390 794 326 
Q 794 230 883 230 
Q 1043 230 1421 730 
z
" transform="scale(0.015625)"/>
       <path id="STIXGeneral-Italic-6e" d="M 2944 749 
L 3034 666 
Q 2707 218 2534 80 
Q 2362 -58 2138 -58 
Q 2010 -58 1923 28 
Q 1837 115 1837 288 
Q 1837 390 1939 768 
L 2221 1805 
Q 2310 2150 2310 2310 
Q 2310 2496 2157 2496 
Q 1971 2496 1750 2275 
Q 1530 2054 1210 1587 
Q 998 1274 899 1024 
Q 800 774 570 0 
L 90 0 
L 704 2240 
Q 717 2304 717 2349 
Q 717 2445 630 2480 
Q 544 2515 301 2522 
L 301 2624 
Q 550 2675 857 2729 
Q 1165 2784 1338 2822 
L 1363 2810 
L 934 1414 
Q 1408 2170 1753 2496 
Q 2099 2822 2413 2822 
Q 2611 2822 2720 2716 
Q 2829 2611 2829 2432 
Q 2829 2272 2765 2048 
L 2406 749 
Q 2317 429 2317 358 
Q 2317 243 2419 243 
Q 2541 243 2810 582 
Q 2854 634 2944 749 
z
" transform="scale(0.015625)"/>
       <path id="STIXTwoText-5b" d="M 1920 -1190 
L 582 -1190 
L 582 4685 
L 1920 4685 
L 1920 4493 
L 1088 4493 
L 1088 -998 
L 1920 -998 
L 1920 -1190 
z
" transform="scale(0.015625)"/>
       <path id="STIXTwoText-62" d="M 877 4518 
L 1043 4518 
L 1043 2560 
L 1062 2560 
Q 1229 2765 1478 2934 
Q 1728 3104 2048 3104 
Q 2368 3104 2608 2921 
Q 2848 2739 2982 2419 
Q 3117 2099 3117 1683 
Q 3117 1114 2918 723 
Q 2720 333 2374 134 
Q 2029 -64 1581 -64 
Q 1171 -64 899 32 
Q 627 128 512 192 
L 512 3789 
Q 512 4006 464 4067 
Q 416 4128 230 4128 
Q 154 4128 102 4121 
Q 51 4115 51 4115 
L 51 4294 
L 877 4518 
z
M 1043 2278 
L 1043 499 
Q 1133 390 1286 294 
Q 1440 198 1696 198 
Q 2003 198 2185 371 
Q 2368 544 2451 835 
Q 2534 1126 2534 1478 
Q 2534 1786 2470 2058 
Q 2406 2330 2240 2499 
Q 2074 2669 1766 2669 
Q 1523 2669 1328 2531 
Q 1133 2394 1043 2278 
z
" transform="scale(0.015625)"/>
       <path id="STIXTwoText-73" d="M 269 -51 
L 250 1050 
L 416 1050 
Q 518 557 716 361 
Q 915 166 1267 166 
Q 1510 166 1664 265 
Q 1818 365 1818 589 
Q 1818 742 1763 844 
Q 1709 947 1555 1052 
Q 1402 1158 1101 1306 
Q 806 1453 620 1590 
Q 435 1728 345 1894 
Q 256 2061 256 2298 
Q 256 2694 541 2899 
Q 826 3104 1235 3104 
Q 1478 3104 1632 3049 
Q 1786 2995 1907 2938 
L 1914 2938 
L 2022 3072 
L 2150 3072 
L 2170 2093 
L 1997 2093 
Q 1894 2547 1708 2716 
Q 1523 2886 1229 2886 
Q 1011 2886 860 2784 
Q 710 2682 710 2464 
Q 710 2278 883 2131 
Q 1056 1984 1459 1779 
Q 1754 1626 1952 1482 
Q 2150 1338 2252 1168 
Q 2355 998 2355 762 
Q 2355 461 2208 278 
Q 2061 96 1814 13 
Q 1568 -70 1280 -70 
Q 1005 -70 841 -12 
Q 678 45 550 96 
L 538 96 
L 403 -51 
L 269 -51 
z
" transform="scale(0.015625)"/>
       <path id="STIXTwoText-2f" d="M 589 -570 
L 230 -570 
L 1901 4538 
L 2253 4538 
L 589 -570 
z
" transform="scale(0.015625)"/>
       <path id="STIXTwoText-5d" d="M 1638 -1190 
L 301 -1190 
L 301 -998 
L 1133 -998 
L 1133 4493 
L 301 4493 
L 301 4685 
L 1638 4685 
L 1638 -1190 
z
" transform="scale(0.015625)"/>
      </defs>
      <use xlink:href="#STIXTwoText-49" transform="translate(0 0.796875)"/>
      <use xlink:href="#STIXTwoText-6e" transform="translate(35.699997 0.796875)"/>
      <use xlink:href="#STIXTwoText-70" transform="translate(93.299988 0.796875)"/>
      <use xlink:href="#STIXTwoText-75" transform="translate(146.999985 0.796875)"/>
      <use xlink:href="#STIXTwoText-74" transform="translate(203.999969 0.796875)"/>
      <use xlink:href="#STIXTwoText-20" transform="translate(235.499954 0.796875)"/>
      <use xlink:href="#STIXTwoText-46" transform="translate(258.999939 0.796875)"/>
      <use xlink:href="#STIXTwoText-6c" transform="translate(317.799927 0.796875)"/>
      <use xlink:href="#STIXTwoText-6f" transform="translate(346.099915 0.796875)"/>
      <use xlink:href="#STIXTwoText-77" transform="translate(397.499908 0.796875)"/>
      <use xlink:href="#STIXTwoText-72" transform="translate(472.399902 0.796875)"/>
      <use xlink:href="#STIXTwoText-61" transform="translate(510.399887 0.796875)"/>
      <use xlink:href="#STIXTwoText-74" transform="translate(558.399872 0.796875)"/>
      <use xlink:href="#STIXTwoText-65" transform="translate(589.899857 0.796875)"/>
      <use xlink:href="#STIXTwoText-20" transform="translate(636.29985 0.796875)"/>
      <use xlink:href="#STIXGeneral-Italic-51" transform="translate(659.799835 0.796875)"/>
      <use xlink:href="#STIXGeneral-Italic-69" transform="translate(731.999817 -12.43125) scale(0.7)"/>
      <use xlink:href="#STIXGeneral-Italic-6e" transform="translate(751.459808 -12.43125) scale(0.7)"/>
      <use xlink:href="#STIXTwoText-20" transform="translate(790.869173 0.796875)"/>
      <use xlink:href="#STIXTwoText-5b" transform="translate(814.369157 0.796875)"/>
      <use xlink:href="#STIXTwoText-72" transform="translate(849.069154 0.796875)"/>
      <use xlink:href="#STIXTwoText-6f" transform="translate(887.069139 0.796875)"/>
      <use xlink:href="#STIXTwoText-62" transform="translate(938.469133 0.796875)"/>
      <use xlink:href="#STIXTwoText-6f" transform="translate(990.66913 0.796875)"/>
      <use xlink:href="#STIXTwoText-74" transform="translate(1042.069124 0.796875)"/>
      <use xlink:href="#STIXTwoText-73" transform="translate(1073.569109 0.796875)"/>
      <use xlink:href="#STIXTwoText-2f" transform="translate(1113.069093 0.796875)"/>
      <use xlink:href="#STIXTwoText-73" transform="translate(1151.76909 0.796875)"/>
      <use xlink:href="#STIXTwoText-5d" transform="translate(1191.269075 0.796875)"/>
     </g>
    </g>
   </g>
   <g id="matplotlib.axis_2">
    <g id="ytick_1">
     <g id="line2d_10">
      <path d="M 55.01 169.72 
L 340.155 169.72 
" clip-path="url(#pdfca9efac1)" style="fill: none; stroke: #ffffff; stroke-width: 0.8; stroke-linecap: round"/>
     </g>
     <g id="text_11">
      <!-- 0.0 -->
      <g style="fill: #4c4f69" transform="translate(30.01 173.37) scale(0.1 -0.1)">
       <use xlink:href="#JetBrainsMonoNFM-Regular-30"/>
       <use xlink:href="#JetBrainsMonoNFM-Regular-2e" x="59.999985"/>
       <use xlink:href="#JetBrainsMonoNFM-Regular-30" x="119.999969"/>
      </g>
     </g>
    </g>
    <g id="ytick_2">
     <g id="line2d_11">
      <path d="M 55.01 150.305 
L 340.155 150.305 
" clip-path="url(#pdfca9efac1)" style="fill: none; stroke: #ffffff; stroke-width: 0.8; stroke-linecap: round"/>
     </g>
     <g id="text_12">
      <!-- 1.0 -->
      <g style="fill: #4c4f69" transform="translate(30.01 153.955) scale(0.1 -0.1)">
       <use xlink:href="#JetBrainsMonoNFM-Regular-31"/>
       <use xlink:href="#JetBrainsMonoNFM-Regular-2e" x="59.999985"/>
       <use xlink:href="#JetBrainsMonoNFM-Regular-30" x="119.999969"/>
      </g>
     </g>
    </g>
    <g id="ytick_3">
     <g id="line2d_12">
      <path d="M 55.01 130.89 
L 340.155 130.89 
" clip-path="url(#pdfca9efac1)" style="fill: none; stroke: #ffffff; stroke-width: 0.8; stroke-linecap: round"/>
     </g>
     <g id="text_13">
      <!-- 2.0 -->
      <g style="fill: #4c4f69" transform="translate(30.01 134.54) scale(0.1 -0.1)">
       <use xlink:href="#JetBrainsMonoNFM-Regular-32"/>
       <use xlink:href="#JetBrainsMonoNFM-Regular-2e" x="59.999985"/>
       <use xlink:href="#JetBrainsMonoNFM-Regular-30" x="119.999969"/>
      </g>
     </g>
    </g>
    <g id="ytick_4">
     <g id="line2d_13">
      <path d="M 55.01 111.475 
L 340.155 111.475 
" clip-path="url(#pdfca9efac1)" style="fill: none; stroke: #ffffff; stroke-width: 0.8; stroke-linecap: round"/>
     </g>
     <g id="text_14">
      <!-- 3.0 -->
      <g style="fill: #4c4f69" transform="translate(30.01 115.125) scale(0.1 -0.1)">
       <use xlink:href="#JetBrainsMonoNFM-Regular-33"/>
       <use xlink:href="#JetBrainsMonoNFM-Regular-2e" x="59.999985"/>
       <use xlink:href="#JetBrainsMonoNFM-Regular-30" x="119.999969"/>
      </g>
     </g>
    </g>
    <g id="ytick_5">
     <g id="line2d_14">
      <path d="M 55.01 92.06 
L 340.155 92.06 
" clip-path="url(#pdfca9efac1)" style="fill: none; stroke: #ffffff; stroke-width: 0.8; stroke-linecap: round"/>
     </g>
     <g id="text_15">
      <!-- 4.0 -->
      <g style="fill: #4c4f69" transform="translate(30.01 95.71) scale(0.1 -0.1)">
       <use xlink:href="#JetBrainsMonoNFM-Regular-34"/>
       <use xlink:href="#JetBrainsMonoNFM-Regular-2e" x="59.999985"/>
       <use xlink:href="#JetBrainsMonoNFM-Regular-30" x="119.999969"/>
      </g>
     </g>
    </g>
    <g id="ytick_6">
     <g id="line2d_15">
      <path d="M 55.01 72.645 
L 340.155 72.645 
" clip-path="url(#pdfca9efac1)" style="fill: none; stroke: #ffffff; stroke-width: 0.8; stroke-linecap: round"/>
     </g>
     <g id="text_16">
      <!-- 5.0 -->
      <g style="fill: #4c4f69" transform="translate(30.01 76.295) scale(0.1 -0.1)">
       <use xlink:href="#JetBrainsMonoNFM-Regular-35"/>
       <use xlink:href="#JetBrainsMonoNFM-Regular-2e" x="59.999985"/>
       <use xlink:href="#JetBrainsMonoNFM-Regular-30" x="119.999969"/>
      </g>
     </g>
    </g>
    <g id="ytick_7">
     <g id="line2d_16">
      <path d="M 55.01 53.23 
L 340.155 53.23 
" clip-path="url(#pdfca9efac1)" style="fill: none; stroke: #ffffff; stroke-width: 0.8; stroke-linecap: round"/>
     </g>
     <g id="text_17">
      <!-- 6.0 -->
      <g style="fill: #4c4f69" transform="translate(30.01 56.88) scale(0.1 -0.1)">
       <use xlink:href="#JetBrainsMonoNFM-Regular-36"/>
       <use xlink:href="#JetBrainsMonoNFM-Regular-2e" x="59.999985"/>
       <use xlink:href="#JetBrainsMonoNFM-Regular-30" x="119.999969"/>
      </g>
     </g>
    </g>
    <g id="ytick_8">
     <g id="line2d_17">
      <path d="M 55.01 33.815 
L 340.155 33.815 
" clip-path="url(#pdfca9efac1)" style="fill: none; stroke: #ffffff; stroke-width: 0.8; stroke-linecap: round"/>
     </g>
     <g id="text_18">
      <!-- 7.0 -->
      <g style="fill: #4c4f69" transform="translate(30.01 37.465) scale(0.1 -0.1)">
       <use xlink:href="#JetBrainsMonoNFM-Regular-37"/>
       <use xlink:href="#JetBrainsMonoNFM-Regular-2e" x="59.999985"/>
       <use xlink:href="#JetBrainsMonoNFM-Regular-30" x="119.999969"/>
      </g>
     </g>
    </g>
    <g id="ytick_9">
     <g id="line2d_18">
      <path d="M 55.01 14.4 
L 340.155 14.4 
" clip-path="url(#pdfca9efac1)" style="fill: none; stroke: #ffffff; stroke-width: 0.8; stroke-linecap: round"/>
     </g>
     <g id="text_19">
      <!-- 8.0 -->
      <g style="fill: #4c4f69" transform="translate(30.01 18.05) scale(0.1 -0.1)">
       <use xlink:href="#JetBrainsMonoNFM-Regular-38"/>
       <use xlink:href="#JetBrainsMonoNFM-Regular-2e" x="59.999985"/>
       <use xlink:href="#JetBrainsMonoNFM-Regular-30" x="119.999969"/>
      </g>
     </g>
    </g>
    <g id="text_20">
     <!-- Output Flowrate $Q_{out}$ [robots/s] -->
     <g style="fill: #262626" transform="translate(23.37 171.86) rotate(-90) scale(0.12 -0.12)">
      <defs>
       <path id="STIXTwoText-4f" d="M 2362 -77 
Q 1728 -77 1270 185 
Q 813 448 566 937 
Q 320 1427 320 2106 
Q 320 2758 566 3248 
Q 813 3738 1270 4010 
Q 1728 4282 2362 4282 
Q 3002 4282 3456 4016 
Q 3910 3750 4153 3273 
Q 4397 2797 4397 2163 
Q 4397 1491 4150 988 
Q 3904 486 3449 204 
Q 2995 -77 2362 -77 
z
M 2368 192 
Q 3053 192 3389 685 
Q 3725 1178 3725 2144 
Q 3725 2720 3552 3139 
Q 3379 3558 3068 3785 
Q 2758 4013 2342 4013 
Q 1722 4013 1357 3517 
Q 992 3021 992 2144 
Q 992 1242 1334 717 
Q 1677 192 2368 192 
z
" transform="scale(0.015625)"/>
       <path id="STIXGeneral-Italic-6f" d="M 2995 1926 
Q 2995 1562 2812 1168 
Q 2630 774 2317 461 
Q 1786 -70 1114 -70 
Q 666 -70 419 163 
Q 173 397 173 819 
Q 173 1350 496 1856 
Q 819 2362 1325 2630 
Q 1683 2822 2093 2822 
Q 2490 2822 2742 2582 
Q 2995 2342 2995 1926 
z
M 2458 2086 
Q 2458 2374 2336 2531 
Q 2214 2688 2003 2688 
Q 1574 2688 1184 2106 
Q 710 1382 710 646 
Q 710 365 844 214 
Q 979 64 1210 64 
Q 1600 64 1984 595 
Q 2202 890 2330 1302 
Q 2458 1715 2458 2086 
z
" transform="scale(0.015625)"/>
       <path id="STIXGeneral-Italic-75" d="M 2950 762 
L 3040 704 
Q 2733 237 2560 89 
Q 2387 -58 2157 -58 
Q 1850 -58 1850 250 
Q 1850 538 2138 1510 
Q 1568 576 1257 253 
Q 947 -70 608 -70 
Q 269 -70 269 269 
Q 269 384 442 1088 
L 666 1978 
Q 755 2349 755 2406 
Q 755 2483 684 2521 
Q 614 2560 365 2560 
L 365 2650 
Q 806 2701 1325 2822 
L 1350 2803 
L 781 531 
Q 762 474 762 429 
Q 762 269 890 269 
Q 1178 269 1798 1210 
Q 2010 1530 2128 1795 
Q 2246 2061 2502 2765 
L 2976 2765 
L 2470 851 
Q 2349 390 2349 352 
Q 2349 243 2419 243 
Q 2496 243 2605 345 
Q 2714 448 2950 762 
z
" transform="scale(0.015625)"/>
       <path id="STIXGeneral-Italic-74" d="M 1894 2739 
L 1862 2534 
L 1325 2534 
L 768 435 
Q 755 384 755 346 
Q 755 243 851 243 
Q 928 243 1030 342 
Q 1133 442 1370 749 
L 1453 704 
Q 1158 256 969 93 
Q 781 -70 538 -70 
Q 243 -70 243 166 
Q 243 230 346 640 
L 845 2534 
L 365 2534 
L 358 2573 
Q 358 2688 570 2733 
Q 730 2771 992 2979 
Q 1254 3187 1421 3437 
Q 1459 3494 1510 3494 
Q 1568 3494 1568 3443 
Q 1568 3411 1562 3398 
L 1382 2739 
L 1894 2739 
z
" transform="scale(0.015625)"/>
      </defs>
      <use xlink:href="#STIXTwoText-4f" transform="translate(0 0.796875)"/>
      <use xlink:href="#STIXTwoText-75" transform="translate(73.699982 0.796875)"/>
      <use xlink:href="#STIXTwoText-74" transform="translate(130.699966 0.796875)"/>
      <use xlink:href="#STIXTwoText-70" transform="translate(162.199951 0.796875)"/>
      <use xlink:href="#STIXTwoText-75" transform="translate(215.899948 0.796875)"/>
      <use xlink:href="#STIXTwoText-74" transform="translate(272.899933 0.796875)"/>
      <use xlink:href="#STIXTwoText-20" transform="translate(304.399918 0.796875)"/>
      <use xlink:href="#STIXTwoText-46" transform="translate(327.899902 0.796875)"/>
      <use xlink:href="#STIXTwoText-6c" transform="translate(386.69989 0.796875)"/>
      <use xlink:href="#STIXTwoText-6f" transform="translate(414.999878 0.796875)"/>
      <use xlink:href="#STIXTwoText-77" transform="translate(466.399872 0.796875)"/>
      <use xlink:href="#STIXTwoText-72" transform="translate(541.299866 0.796875)"/>
      <use xlink:href="#STIXTwoText-61" transform="translate(579.29985 0.796875)"/>
      <use xlink:href="#STIXTwoText-74" transform="translate(627.299835 0.796875)"/>
      <use xlink:href="#STIXTwoText-65" transform="translate(658.79982 0.796875)"/>
      <use xlink:href="#STIXTwoText-20" transform="translate(705.199814 0.796875)"/>
      <use xlink:href="#STIXGeneral-Italic-51" transform="translate(728.699799 0.796875)"/>
      <use xlink:href="#STIXGeneral-Italic-6f" transform="translate(800.89978 -12.43125) scale(0.7)"/>
      <use xlink:href="#STIXGeneral-Italic-75" transform="translate(835.89977 -12.43125) scale(0.7)"/>
      <use xlink:href="#STIXGeneral-Italic-74" transform="translate(870.899759 -12.43125) scale(0.7)"/>
      <use xlink:href="#STIXTwoText-20" transform="translate(894.769125 0.796875)"/>
      <use xlink:href="#STIXTwoText-5b" transform="translate(918.26911 0.796875)"/>
      <use xlink:href="#STIXTwoText-72" transform="translate(952.969107 0.796875)"/>
      <use xlink:href="#STIXTwoText-6f" transform="translate(990.969092 0.796875)"/>
      <use xlink:href="#STIXTwoText-62" transform="translate(1042.369086 0.796875)"/>
      <use xlink:href="#STIXTwoText-6f" transform="translate(1094.569083 0.796875)"/>
      <use xlink:href="#STIXTwoText-74" transform="translate(1145.969077 0.796875)"/>
      <use xlink:href="#STIXTwoText-73" transform="translate(1177.469061 0.796875)"/>
      <use xlink:href="#STIXTwoText-2f" transform="translate(1216.969046 0.796875)"/>
      <use xlink:href="#STIXTwoText-73" transform="translate(1255.669043 0.796875)"/>
      <use xlink:href="#STIXTwoText-5d" transform="translate(1295.169028 0.796875)"/>
     </g>
    </g>
   </g>
   <g id="line2d_19">
    <path d="M 55.01 169.72 
L 340.155 14.4 
" clip-path="url(#pdfca9efac1)" style="fill: none; stroke-dasharray: 1.5,1.5; stroke-dashoffset: 0; stroke: #8c8fa1; stroke-width: 1.5"/>
   </g>
   <g id="line2d_20">
    <path d="M 55.01 169.72 
L 72.831563 159.85718 
L 90.653125 150.305 
L 108.474688 140.2092 
L 126.29625 130.89 
L 144.117813 121.1825 
L 161.939375 111.475 
L 179.760938 101.7675 
L 197.5825 92.52596 
L 215.404063 82.81846 
L 233.225625 73.65458 
L 251.047188 63.86942 
L 268.86875 53.92894 
L 286.690313 45.30868 
" clip-path="url(#pdfca9efac1)" style="fill: none; stroke: #7287fd; stroke-width: 1.5; stroke-linecap: round"/>
    <defs>
     <path id="mdfb89e7d95" d="M 0 3 
C 0.795609 3 1.55874 2.683901 2.12132 2.12132 
C 2.683901 1.55874 3 0.795609 3 0 
C 3 -0.795609 2.683901 -1.55874 2.12132 -2.12132 
C 1.55874 -2.683901 0.795609 -3 0 -3 
C -0.795609 -3 -1.55874 -2.683901 -2.12132 -2.12132 
C -2.683901 -1.55874 -3 -0.795609 -3 0 
C -3 0.795609 -2.683901 1.55874 -2.12132 2.12132 
C -1.55874 2.683901 -0.795609 3 0 3 
z
" style="stroke: #7287fd"/>
    </defs>
    <g clip-path="url(#pdfca9efac1)">
     <use xlink:href="#mdfb89e7d95" x="55.01" y="169.72" style="fill: #7287fd; stroke: #7287fd"/>
     <use xlink:href="#mdfb89e7d95" x="72.831563" y="159.85718" style="fill: #7287fd; stroke: #7287fd"/>
     <use xlink:href="#mdfb89e7d95" x="90.653125" y="150.305" style="fill: #7287fd; stroke: #7287fd"/>
     <use xlink:href="#mdfb89e7d95" x="108.474688" y="140.2092" style="fill: #7287fd; stroke: #7287fd"/>
     <use xlink:href="#mdfb89e7d95" x="126.29625" y="130.89" style="fill: #7287fd; stroke: #7287fd"/>
     <use xlink:href="#mdfb89e7d95" x="144.117813" y="121.1825" style="fill: #7287fd; stroke: #7287fd"/>
     <use xlink:href="#mdfb89e7d95" x="161.939375" y="111.475" style="fill: #7287fd; stroke: #7287fd"/>
     <use xlink:href="#mdfb89e7d95" x="179.760938" y="101.7675" style="fill: #7287fd; stroke: #7287fd"/>
     <use xlink:href="#mdfb89e7d95" x="197.5825" y="92.52596" style="fill: #7287fd; stroke: #7287fd"/>
     <use xlink:href="#mdfb89e7d95" x="215.404063" y="82.81846" style="fill: #7287fd; stroke: #7287fd"/>
     <use xlink:href="#mdfb89e7d95" x="233.225625" y="73.65458" style="fill: #7287fd; stroke: #7287fd"/>
     <use xlink:href="#mdfb89e7d95" x="251.047188" y="63.86942" style="fill: #7287fd; stroke: #7287fd"/>
     <use xlink:href="#mdfb89e7d95" x="268.86875" y="53.92894" style="fill: #7287fd; stroke: #7287fd"/>
     <use xlink:href="#mdfb89e7d95" x="286.690313" y="45.30868" style="fill: #7287fd; stroke: #7287fd"/>
    </g>
   </g>
   <g id="line2d_21">
    <path d="M 286.690313 45.30868 
L 304.511875 42.43526 
" clip-path="url(#pdfca9efac1)" style="fill: none; stroke-dasharray: 5.55,2.4; stroke-dashoffset: 0; stroke: #7287fd; stroke-width: 1.5"/>
   </g>
   <g id="line2d_22">
    <path d="M 304.511875 42.43526 
" clip-path="url(#pdfca9efac1)" style="fill: none; stroke-dasharray: 5.55,2.4; stroke-dashoffset: 0; stroke: #7287fd; stroke-width: 1.5"/>
    <defs>
     <path id="m88a911d60b" d="M -3 3 
L 3 -3 
M -3 -3 
L 3 3 
" style="stroke: #7287fd"/>
    </defs>
    <g clip-path="url(#pdfca9efac1)">
     <use xlink:href="#m88a911d60b" x="304.511875" y="42.43526" style="fill: #7287fd; stroke: #7287fd"/>
    </g>
   </g>
   <g id="patch_3">
    <path d="M 55.01 169.72 
L 55.01 14.4 
" style="fill: none; stroke: #ffffff; stroke-width: 0.8; stroke-linejoin: miter; stroke-linecap: square"/>
   </g>
   <g id="patch_4">
    <path d="M 340.155 169.72 
L 340.155 14.4 
" style="fill: none; stroke: #ffffff; stroke-width: 0.8; stroke-linejoin: miter; stroke-linecap: square"/>
   </g>
   <g id="patch_5">
    <path d="M 55.01 169.72 
L 340.155 169.72 
" style="fill: none; stroke: #ffffff; stroke-width: 0.8; stroke-linejoin: miter; stroke-linecap: square"/>
   </g>
   <g id="patch_6">
    <path d="M 55.01 14.4 
L 340.155 14.4 
" style="fill: none; stroke: #ffffff; stroke-width: 0.8; stroke-linejoin: miter; stroke-linecap: square"/>
   </g>
  </g>
  <g id="legend_1">
   <g id="patch_7">
    <path d="M 188.4 157.659375 
L 331.4 157.659375 
Q 333.4 157.659375 333.4 155.659375 
L 333.4 125.8 
Q 333.4 123.8 331.4 123.8 
L 188.4 123.8 
Q 186.4 123.8 186.4 125.8 
L 186.4 155.659375 
Q 186.4 157.659375 188.4 157.659375 
z
" style="fill: #ccd0da; opacity: 0.8; stroke: #cccccc; stroke-linejoin: miter"/>
   </g>
   <g id="line2d_23">
    <path d="M 191.4 132.359375 
L 201.4 132.359375 
L 211.4 132.359375 
" style="fill: none; stroke-dasharray: 1.5,1.5; stroke-dashoffset: 0; stroke: #8c8fa1; stroke-width: 1.5"/>
   </g>
   <g id="text_21">
    <!-- $Q_{in} = Q_{out}$ -->
    <g style="fill: #4c4f69" transform="translate(219.4 135.859375) scale(0.1 -0.1)">
     <defs>
      <path id="STIXGeneral-Regular-3d" d="M 4077 2048 
L 307 2048 
L 307 2470 
L 4077 2470 
L 4077 2048 
z
M 4077 768 
L 307 768 
L 307 1190 
L 4077 1190 
L 4077 768 
z
" transform="scale(0.015625)"/>
     </defs>
     <use xlink:href="#STIXGeneral-Italic-51" transform="translate(0 0.40625)"/>
     <use xlink:href="#STIXGeneral-Italic-69" transform="translate(72.199982 -12.821875) scale(0.7)"/>
     <use xlink:href="#STIXGeneral-Italic-6e" transform="translate(91.659973 -12.821875) scale(0.7)"/>
     <use xlink:href="#STIXGeneral-Regular-3d" transform="translate(145.509334 0.40625)"/>
     <use xlink:href="#STIXGeneral-Italic-51" transform="translate(228.449315 0.40625)"/>
     <use xlink:href="#STIXGeneral-Italic-6f" transform="translate(300.649297 -12.821875) scale(0.7)"/>
     <use xlink:href="#STIXGeneral-Italic-75" transform="translate(335.649286 -12.821875) scale(0.7)"/>
     <use xlink:href="#STIXGeneral-Italic-74" transform="translate(370.649275 -12.821875) scale(0.7)"/>
    </g>
   </g>
   <g id="line2d_24">
    <path d="M 191.4 146.759375 
L 201.4 146.759375 
L 211.4 146.759375 
" style="fill: none; stroke: #7287fd; stroke-width: 1.5; stroke-linecap: round"/>
    <g>
     <use xlink:href="#mdfb89e7d95" x="201.4" y="146.759375" style="fill: #7287fd; stroke: #7287fd"/>
    </g>
   </g>
   <g id="text_22">
    <!-- Average flowrate over $50s$ -->
    <g style="fill: #4c4f69" transform="translate(219.4 150.259375) scale(0.1 -0.1)">
     <defs>
      <path id="STIXTwoText-41" d="M 1363 0 
L 19 0 
L 19 192 
Q 198 192 307 249 
Q 416 307 518 483 
Q 621 659 774 1024 
L 2131 4237 
L 2394 4237 
L 3910 762 
Q 4051 448 4182 320 
Q 4314 192 4570 192 
L 4570 0 
L 2848 0 
L 2848 192 
Q 2944 192 3046 205 
Q 3149 218 3219 269 
Q 3290 320 3290 429 
Q 3290 499 3267 592 
Q 3245 685 3181 826 
L 2906 1466 
L 2861 1594 
L 2131 3450 
L 2112 3450 
L 1363 1594 
L 1318 1466 
L 1005 723 
Q 979 646 956 572 
Q 934 499 934 410 
Q 934 275 1036 233 
Q 1139 192 1363 192 
L 1363 0 
z
M 3002 1402 
L 1222 1402 
L 1318 1658 
L 2906 1658 
L 3002 1402 
z
" transform="scale(0.015625)"/>
      <path id="STIXTwoText-76" d="M 1696 -38 
L 1389 -38 
L 435 2374 
Q 352 2573 288 2672 
Q 224 2771 141 2806 
Q 58 2842 -83 2842 
L -83 3027 
L 1267 3027 
L 1267 2842 
Q 1082 2842 1008 2800 
Q 934 2758 934 2682 
Q 934 2618 953 2560 
Q 973 2502 998 2432 
L 1542 1005 
L 1664 621 
L 1702 621 
L 1837 1011 
L 2387 2458 
Q 2394 2483 2413 2537 
Q 2432 2592 2432 2669 
Q 2432 2778 2336 2810 
Q 2240 2842 2067 2842 
L 2067 3027 
L 3187 3027 
L 3187 2842 
Q 3002 2842 2902 2755 
Q 2803 2669 2707 2419 
L 1696 -38 
z
" transform="scale(0.015625)"/>
      <path id="STIXTwoText-67" d="M 1222 -1504 
Q 806 -1504 566 -1401 
Q 326 -1299 230 -1136 
Q 134 -973 134 -800 
Q 134 -640 265 -464 
Q 397 -288 653 -38 
L 653 32 
L 845 -6 
Q 723 -211 678 -342 
Q 634 -474 634 -582 
Q 634 -858 870 -998 
Q 1107 -1139 1594 -1139 
Q 1971 -1139 2204 -1043 
Q 2438 -947 2544 -806 
Q 2650 -666 2650 -531 
Q 2650 -358 2538 -265 
Q 2426 -173 2253 -134 
Q 2080 -96 1888 -86 
Q 1696 -77 1536 -77 
Q 1248 -70 1101 -70 
Q 954 -70 890 -67 
Q 826 -64 774 -64 
L 710 -32 
Q 614 0 518 70 
Q 422 141 358 240 
Q 294 339 294 448 
Q 294 563 361 688 
Q 429 813 550 937 
Q 672 1062 819 1178 
L 819 1235 
L 986 1114 
Q 954 1082 909 998 
Q 864 915 832 822 
Q 800 730 800 666 
Q 800 570 867 515 
Q 934 461 1097 435 
Q 1261 410 1555 410 
Q 1958 410 2281 371 
Q 2605 333 2790 173 
Q 2976 13 2976 -352 
Q 2976 -672 2819 -893 
Q 2662 -1114 2403 -1248 
Q 2144 -1382 1833 -1443 
Q 1523 -1504 1222 -1504 
z
M 1517 998 
Q 1350 998 1206 1030 
Q 1062 1062 928 1107 
L 858 1171 
Q 691 1261 572 1382 
Q 454 1504 390 1673 
Q 326 1843 326 2061 
Q 326 2381 473 2614 
Q 621 2848 883 2976 
Q 1146 3104 1485 3104 
Q 1677 3104 1846 3069 
Q 2016 3034 2163 2963 
Q 2310 2893 2419 2797 
L 2419 2630 
Q 2490 2534 2570 2374 
Q 2650 2214 2650 1971 
Q 2650 1677 2506 1456 
Q 2362 1235 2109 1116 
Q 1856 998 1517 998 
z
M 1523 1222 
Q 1766 1222 1923 1388 
Q 2080 1555 2080 2010 
Q 2080 2400 1913 2637 
Q 1747 2874 1440 2874 
Q 1190 2874 1040 2682 
Q 890 2490 890 2086 
Q 890 1677 1050 1449 
Q 1210 1222 1523 1222 
z
M 3021 2989 
L 3021 2643 
L 2330 2662 
L 2106 2938 
L 3021 2989 
z
" transform="scale(0.015625)"/>
      <path id="STIXTwoText-66" d="M 1837 0 
L 115 0 
L 115 186 
Q 352 186 464 227 
Q 576 269 614 390 
Q 653 512 653 762 
L 653 2797 
Q 653 3162 669 3395 
Q 685 3629 729 3789 
Q 774 3949 858 4096 
Q 986 4320 1181 4441 
Q 1376 4563 1709 4563 
Q 1920 4563 2080 4512 
Q 2240 4461 2333 4361 
Q 2426 4262 2426 4115 
Q 2426 3974 2349 3907 
Q 2272 3840 2163 3840 
Q 2042 3840 1965 3920 
Q 1888 4000 1818 4090 
Q 1754 4179 1680 4252 
Q 1606 4326 1491 4326 
Q 1312 4326 1248 4163 
Q 1184 4000 1184 3597 
L 1184 762 
Q 1184 512 1235 390 
Q 1286 269 1427 227 
Q 1568 186 1837 186 
L 1837 0 
z
M 1965 2726 
L 166 2726 
L 166 2995 
L 1965 2995 
L 1965 2726 
z
" transform="scale(0.015625)"/>
      <path id="STIXGeneral-Regular-35" d="M 2803 4358 
L 2573 3814 
Q 2534 3731 2400 3731 
L 1158 3731 
L 902 3187 
Q 1606 3053 1920 2896 
Q 2234 2739 2502 2368 
Q 2726 2061 2726 1555 
Q 2726 1094 2576 780 
Q 2426 467 2099 224 
Q 1664 -90 1011 -90 
Q 646 -90 422 19 
Q 198 128 198 307 
Q 198 550 486 550 
Q 717 550 960 352 
Q 1210 147 1414 147 
Q 1747 147 2012 480 
Q 2278 813 2278 1229 
Q 2278 1843 1850 2189 
Q 1293 2637 486 2637 
Q 410 2637 410 2688 
L 416 2720 
L 1114 4237 
L 2438 4237 
Q 2547 4237 2608 4269 
Q 2669 4301 2746 4403 
L 2803 4358 
z
" transform="scale(0.015625)"/>
      <path id="STIXGeneral-Regular-30" d="M 3046 2112 
Q 3046 1683 2963 1302 
Q 2880 922 2717 602 
Q 2554 282 2266 96 
Q 1978 -90 1600 -90 
Q 1210 -90 915 108 
Q 621 307 461 640 
Q 301 973 227 1350 
Q 154 1728 154 2150 
Q 154 2746 301 3222 
Q 448 3699 790 4012 
Q 1133 4326 1626 4326 
Q 2253 4326 2649 3712 
Q 3046 3098 3046 2112 
z
M 2432 2080 
Q 2432 3091 2217 3625 
Q 2003 4160 1587 4160 
Q 1190 4160 979 3622 
Q 768 3085 768 2106 
Q 768 1120 979 598 
Q 1190 77 1600 77 
Q 2003 77 2217 598 
Q 2432 1120 2432 2080 
z
" transform="scale(0.015625)"/>
      <path id="STIXGeneral-Italic-73" d="M 2342 2829 
L 2214 1933 
L 2112 1933 
Q 2022 2675 1542 2675 
Q 1370 2675 1267 2579 
Q 1165 2483 1165 2310 
Q 1165 2067 1510 1658 
Q 1946 1152 1946 787 
Q 1946 397 1686 163 
Q 1427 -70 1024 -70 
Q 838 -70 672 -6 
Q 538 51 390 51 
Q 262 51 205 -83 
L 102 -83 
L 230 934 
L 333 934 
Q 461 64 973 64 
Q 1203 64 1331 192 
Q 1459 320 1459 557 
Q 1459 845 1101 1293 
Q 698 1798 698 2131 
Q 698 2451 909 2636 
Q 1120 2822 1472 2822 
Q 1600 2822 1830 2758 
Q 1971 2714 2061 2714 
Q 2189 2714 2253 2829 
L 2342 2829 
z
" transform="scale(0.015625)"/>
     </defs>
     <use xlink:href="#STIXTwoText-41" transform="translate(0 0.703125)"/>
     <use xlink:href="#STIXTwoText-76" transform="translate(71.799988 0.703125)"/>
     <use xlink:href="#STIXTwoText-65" transform="translate(119.899979 0.703125)"/>
     <use xlink:href="#STIXTwoText-72" transform="translate(166.299973 0.703125)"/>
     <use xlink:href="#STIXTwoText-61" transform="translate(204.299957 0.703125)"/>
     <use xlink:href="#STIXTwoText-67" transform="translate(252.299942 0.703125)"/>
     <use xlink:href="#STIXTwoText-65" transform="translate(300.699936 0.703125)"/>
     <use xlink:href="#STIXTwoText-20" transform="translate(347.09993 0.703125)"/>
     <use xlink:href="#STIXTwoText-66" transform="translate(370.599915 0.703125)"/>
     <use xlink:href="#STIXTwoText-6c" transform="translate(401.299911 0.703125)"/>
     <use xlink:href="#STIXTwoText-6f" transform="translate(429.599899 0.703125)"/>
     <use xlink:href="#STIXTwoText-77" transform="translate(480.999893 0.703125)"/>
     <use xlink:href="#STIXTwoText-72" transform="translate(555.899887 0.703125)"/>
     <use xlink:href="#STIXTwoText-61" transform="translate(593.899872 0.703125)"/>
     <use xlink:href="#STIXTwoText-74" transform="translate(641.899857 0.703125)"/>
     <use xlink:href="#STIXTwoText-65" transform="translate(673.399841 0.703125)"/>
     <use xlink:href="#STIXTwoText-20" transform="translate(719.799835 0.703125)"/>
     <use xlink:href="#STIXTwoText-6f" transform="translate(743.29982 0.703125)"/>
     <use xlink:href="#STIXTwoText-76" transform="translate(794.699814 0.703125)"/>
     <use xlink:href="#STIXTwoText-65" transform="translate(842.799805 0.703125)"/>
     <use xlink:href="#STIXTwoText-72" transform="translate(889.199799 0.703125)"/>
     <use xlink:href="#STIXTwoText-20" transform="translate(927.199783 0.703125)"/>
     <use xlink:href="#STIXGeneral-Regular-35" transform="translate(950.699768 0.703125)"/>
     <use xlink:href="#STIXGeneral-Regular-30" transform="translate(1000.699753 0.703125)"/>
     <use xlink:href="#STIXGeneral-Italic-73" transform="translate(1050.699738 0.703125)"/>
    </g>
   </g>
  </g>
 </g>
 <defs>
  <clipPath id="pdfca9efac1">
   <rect x="55.01" y="14.4" width="285.145" height="155.32"/>
  </clipPath>
 </defs>
</svg>
