<?xml version="1.0" encoding="utf-8" standalone="no"?>
<!DOCTYPE svg PUBLIC "-//W3C//DTD SVG 1.1//EN"
  "http://www.w3.org/Graphics/SVG/1.1/DTD/svg11.dtd">
<svg xmlns:xlink="http://www.w3.org/1999/xlink" width="360pt" height="216pt" viewBox="0 0 360 216" xmlns="http://www.w3.org/2000/svg" version="1.1">
 <metadata>
  <rdf:RDF xmlns:dc="http://purl.org/dc/elements/1.1/" xmlns:cc="http://creativecommons.org/ns#" xmlns:rdf="http://www.w3.org/1999/02/22-rdf-syntax-ns#">
   <cc:Work>
    <dc:type rdf:resource="http://purl.org/dc/dcmitype/StillImage"/>
    <dc:date>1980-01-01T00:00:00+00:00</dc:date>
    <dc:format>image/svg+xml</dc:format>
    <dc:creator>
     <cc:Agent>
      <dc:title>Matplotlib v3.8.4, https://matplotlib.org/</dc:title>
     </cc:Agent>
    </dc:creator>
   </cc:Work>
  </rdf:RDF>
 </metadata>
 <defs>
  <style type="text/css">*{stroke-linejoin: round; stroke-linecap: butt}</style>
 </defs>
 <g id="figure_1">
  <g id="patch_1">
   <path d="M 0 216 
L 360 216 
L 360 0 
L 0 0 
L 0 216 
z
" style="fill: none"/>
  </g>
  <g id="axes_1">
   <g id="patch_2">
    <path d="M 54.29 172.528 
L 349.2 172.528 
L 349.2 14.4 
L 54.29 14.4 
z
" style="fill: #eff1f5"/>
   </g>
   <g id="matplotlib.axis_1">
    <g id="xtick_1">
     <g id="line2d_1">
      <path d="M 69.0355 172.528 
L 69.0355 14.4 
" clip-path="url(#pd28cd12111)" style="fill: none; stroke: #ffffff; stroke-width: 1.5; stroke-linecap: round"/>
     </g>
     <g id="text_1">
      <!-- 5 -->
      <g style="fill: #4c4f69" transform="translate(66.0355 186.828) scale(0.1 -0.1)">
       <defs>
        <path id="JetBrainsMonoNFM-Regular-35" d="M 1882 -64 
Q 1235 -64 857 297 
Q 480 659 480 1280 
L 1056 1280 
Q 1056 896 1280 672 
Q 1504 448 1888 448 
Q 2272 448 2496 672 
Q 2720 896 2720 1280 
L 2720 1568 
Q 2720 1952 2502 2176 
Q 2285 2400 1914 2400 
L 640 2400 
L 640 4672 
L 3130 4672 
L 3130 4147 
L 1178 4147 
L 1190 2925 
L 1946 2925 
Q 2592 2925 2944 2569 
Q 3296 2214 3296 1568 
L 3296 1280 
Q 3296 659 2915 297 
Q 2534 -64 1882 -64 
z
" transform="scale(0.015625)"/>
       </defs>
       <use xlink:href="#JetBrainsMonoNFM-Regular-35"/>
      </g>
     </g>
    </g>
    <g id="xtick_2">
     <g id="line2d_2">
      <path d="M 98.5265 172.528 
L 98.5265 14.4 
" clip-path="url(#pd28cd12111)" style="fill: none; stroke: #ffffff; stroke-width: 1.5; stroke-linecap: round"/>
     </g>
     <g id="text_2">
      <!-- 10 -->
      <g style="fill: #4c4f69" transform="translate(92.5265 186.828) scale(0.1 -0.1)">
       <defs>
        <path id="JetBrainsMonoNFM-Regular-31" d="M 576 0 
L 576 525 
L 1843 525 
L 1843 4173 
L 576 3226 
L 576 3885 
L 1632 4672 
L 2419 4672 
L 2419 525 
L 3456 525 
L 3456 0 
L 576 0 
z
" transform="scale(0.015625)"/>
        <path id="JetBrainsMonoNFM-Regular-30" d="M 1920 -64 
Q 1274 -64 893 310 
Q 512 685 512 1312 
L 512 3360 
Q 512 3987 893 4361 
Q 1274 4736 1920 4736 
Q 2566 4736 2947 4361 
Q 3328 3987 3328 3360 
L 3328 1312 
Q 3328 896 3155 585 
Q 2982 275 2665 105 
Q 2349 -64 1920 -64 
z
M 1920 429 
Q 2304 429 2537 675 
Q 2771 922 2771 1312 
L 2771 3360 
Q 2771 3750 2537 3996 
Q 2304 4243 1920 4243 
Q 1536 4243 1302 3996 
Q 1069 3750 1069 3360 
L 1069 1312 
Q 1069 922 1302 675 
Q 1536 429 1920 429 
z
M 1920 1984 
Q 1747 1984 1641 2080 
Q 1536 2176 1536 2355 
Q 1536 2528 1641 2621 
Q 1747 2714 1920 2714 
Q 2093 2714 2198 2621 
Q 2304 2528 2304 2355 
Q 2304 2176 2198 2080 
Q 2093 1984 1920 1984 
z
" transform="scale(0.015625)"/>
       </defs>
       <use xlink:href="#JetBrainsMonoNFM-Regular-31"/>
       <use xlink:href="#JetBrainsMonoNFM-Regular-30" x="59.999985"/>
      </g>
     </g>
    </g>
    <g id="xtick_3">
     <g id="line2d_3">
      <path d="M 128.0175 172.528 
L 128.0175 14.4 
" clip-path="url(#pd28cd12111)" style="fill: none; stroke: #ffffff; stroke-width: 1.5; stroke-linecap: round"/>
     </g>
     <g id="text_3">
      <!-- 15 -->
      <g style="fill: #4c4f69" transform="translate(122.0175 186.828) scale(0.1 -0.1)">
       <use xlink:href="#JetBrainsMonoNFM-Regular-31"/>
       <use xlink:href="#JetBrainsMonoNFM-Regular-35" x="59.999985"/>
      </g>
     </g>
    </g>
    <g id="xtick_4">
     <g id="line2d_4">
      <path d="M 157.5085 172.528 
L 157.5085 14.4 
" clip-path="url(#pd28cd12111)" style="fill: none; stroke: #ffffff; stroke-width: 1.5; stroke-linecap: round"/>
     </g>
     <g id="text_4">
      <!-- 20 -->
      <g style="fill: #4c4f69" transform="translate(151.5085 186.828) scale(0.1 -0.1)">
       <defs>
        <path id="JetBrainsMonoNFM-Regular-32" d="M 550 0 
L 550 531 
L 2106 2195 
Q 2445 2554 2585 2835 
Q 2726 3117 2726 3386 
Q 2726 3770 2505 3997 
Q 2285 4224 1907 4224 
Q 1517 4224 1289 3990 
Q 1062 3757 1062 3360 
L 486 3360 
Q 506 3994 890 4365 
Q 1274 4736 1907 4736 
Q 2554 4736 2934 4371 
Q 3315 4006 3315 3379 
Q 3315 3046 3132 2675 
Q 2950 2304 2509 1843 
L 1248 525 
L 3373 525 
L 3373 0 
L 550 0 
z
" transform="scale(0.015625)"/>
       </defs>
       <use xlink:href="#JetBrainsMonoNFM-Regular-32"/>
       <use xlink:href="#JetBrainsMonoNFM-Regular-30" x="59.999985"/>
      </g>
     </g>
    </g>
    <g id="xtick_5">
     <g id="line2d_5">
      <path d="M 186.9995 172.528 
L 186.9995 14.4 
" clip-path="url(#pd28cd12111)" style="fill: none; stroke: #ffffff; stroke-width: 1.5; stroke-linecap: round"/>
     </g>
     <g id="text_5">
      <!-- 25 -->
      <g style="fill: #4c4f69" transform="translate(180.9995 186.828) scale(0.1 -0.1)">
       <use xlink:href="#JetBrainsMonoNFM-Regular-32"/>
       <use xlink:href="#JetBrainsMonoNFM-Regular-35" x="59.999985"/>
      </g>
     </g>
    </g>
    <g id="xtick_6">
     <g id="line2d_6">
      <path d="M 216.4905 172.528 
L 216.4905 14.4 
" clip-path="url(#pd28cd12111)" style="fill: none; stroke: #ffffff; stroke-width: 1.5; stroke-linecap: round"/>
     </g>
     <g id="text_6">
      <!-- 30 -->
      <g style="fill: #4c4f69" transform="translate(210.4905 186.828) scale(0.1 -0.1)">
       <defs>
        <path id="JetBrainsMonoNFM-Regular-33" d="M 1850 -64 
Q 1203 -64 825 297 
Q 448 659 448 1280 
L 1024 1280 
Q 1024 896 1248 672 
Q 1472 448 1856 448 
Q 2240 448 2464 672 
Q 2688 896 2688 1280 
L 2688 1600 
Q 2688 1984 2464 2208 
Q 2240 2432 1856 2432 
L 1350 2432 
L 1350 2931 
L 2496 4147 
L 576 4147 
L 576 4672 
L 3149 4672 
L 3149 4134 
L 2022 2938 
Q 2598 2893 2931 2537 
Q 3264 2182 3264 1600 
L 3264 1280 
Q 3264 659 2883 297 
Q 2502 -64 1850 -64 
z
" transform="scale(0.015625)"/>
       </defs>
       <use xlink:href="#JetBrainsMonoNFM-Regular-33"/>
       <use xlink:href="#JetBrainsMonoNFM-Regular-30" x="59.999985"/>
      </g>
     </g>
    </g>
    <g id="xtick_7">
     <g id="line2d_7">
      <path d="M 245.9815 172.528 
L 245.9815 14.4 
" clip-path="url(#pd28cd12111)" style="fill: none; stroke: #ffffff; stroke-width: 1.5; stroke-linecap: round"/>
     </g>
     <g id="text_7">
      <!-- 35 -->
      <g style="fill: #4c4f69" transform="translate(239.9815 186.828) scale(0.1 -0.1)">
       <use xlink:href="#JetBrainsMonoNFM-Regular-33"/>
       <use xlink:href="#JetBrainsMonoNFM-Regular-35" x="59.999985"/>
      </g>
     </g>
    </g>
    <g id="xtick_8">
     <g id="line2d_8">
      <path d="M 275.4725 172.528 
L 275.4725 14.4 
" clip-path="url(#pd28cd12111)" style="fill: none; stroke: #ffffff; stroke-width: 1.5; stroke-linecap: round"/>
     </g>
     <g id="text_8">
      <!-- 40 -->
      <g style="fill: #4c4f69" transform="translate(269.4725 186.828) scale(0.1 -0.1)">
       <defs>
        <path id="JetBrainsMonoNFM-Regular-34" d="M 2560 0 
L 2560 1024 
L 448 1024 
L 448 1926 
L 2150 4672 
L 2803 4672 
L 1024 1798 
L 1024 1549 
L 2560 1549 
L 2560 2688 
L 3136 2688 
L 3136 0 
L 2560 0 
z
" transform="scale(0.015625)"/>
       </defs>
       <use xlink:href="#JetBrainsMonoNFM-Regular-34"/>
       <use xlink:href="#JetBrainsMonoNFM-Regular-30" x="59.999985"/>
      </g>
     </g>
    </g>
    <g id="xtick_9">
     <g id="line2d_9">
      <path d="M 304.9635 172.528 
L 304.9635 14.4 
" clip-path="url(#pd28cd12111)" style="fill: none; stroke: #ffffff; stroke-width: 1.5; stroke-linecap: round"/>
     </g>
     <g id="text_9">
      <!-- 45 -->
      <g style="fill: #4c4f69" transform="translate(298.9635 186.828) scale(0.1 -0.1)">
       <use xlink:href="#JetBrainsMonoNFM-Regular-34"/>
       <use xlink:href="#JetBrainsMonoNFM-Regular-35" x="59.999985"/>
      </g>
     </g>
    </g>
    <g id="xtick_10">
     <g id="line2d_10">
      <path d="M 334.4545 172.528 
L 334.4545 14.4 
" clip-path="url(#pd28cd12111)" style="fill: none; stroke: #ffffff; stroke-width: 1.5; stroke-linecap: round"/>
     </g>
     <g id="text_10">
      <!-- 50 -->
      <g style="fill: #4c4f69" transform="translate(328.4545 186.828) scale(0.1 -0.1)">
       <use xlink:href="#JetBrainsMonoNFM-Regular-35"/>
       <use xlink:href="#JetBrainsMonoNFM-Regular-30" x="59.999985"/>
      </g>
     </g>
    </g>
    <g id="text_11">
     <!-- Number of Robots $N_R$ -->
     <g style="fill: #4c4f69" transform="translate(147.025 201.09925) scale(0.12 -0.12)">
      <defs>
       <path id="STIXTwoText-4e" d="M 3994 -51 
L 3782 -51 
L 1133 3373 
L 954 3373 
L 838 3622 
Q 717 3789 624 3872 
Q 531 3955 432 3984 
Q 333 4013 186 4013 
L 186 4205 
L 1274 4205 
L 3642 1114 
L 3674 1114 
L 3674 3187 
Q 3674 3488 3635 3667 
Q 3597 3846 3469 3929 
Q 3341 4013 3066 4013 
L 3066 4205 
L 4576 4205 
L 4576 4013 
Q 4333 4013 4205 3926 
Q 4077 3840 4035 3651 
Q 3994 3462 3994 3155 
L 3994 -51 
z
M 1683 0 
L 186 0 
L 186 192 
Q 442 192 570 246 
Q 698 301 742 467 
Q 787 634 787 954 
L 787 3821 
L 1101 3821 
L 1101 954 
Q 1101 634 1145 470 
Q 1190 307 1318 249 
Q 1446 192 1683 192 
L 1683 0 
z
" transform="scale(0.015625)"/>
       <path id="STIXTwoText-75" d="M 1421 -64 
Q 1024 -64 803 195 
Q 582 454 582 1107 
L 582 2406 
Q 582 2579 547 2659 
Q 512 2739 416 2761 
Q 320 2784 147 2784 
L 147 2963 
L 973 3059 
L 1114 3059 
L 1114 1190 
Q 1114 864 1187 681 
Q 1261 499 1392 422 
Q 1523 346 1690 346 
Q 1933 346 2109 454 
Q 2285 563 2477 730 
L 2477 2413 
Q 2477 2586 2432 2662 
Q 2387 2739 2275 2761 
Q 2163 2784 1958 2784 
L 1958 2963 
L 2854 3059 
L 3008 3059 
L 3008 710 
Q 3008 429 3085 358 
Q 3162 288 3392 288 
L 3456 288 
L 3456 115 
L 2643 -32 
L 2502 -32 
L 2502 461 
L 2470 461 
Q 2304 294 2141 176 
Q 1978 58 1802 -3 
Q 1626 -64 1421 -64 
z
" transform="scale(0.015625)"/>
       <path id="STIXTwoText-6d" d="M 3520 0 
L 2003 0 
L 2003 186 
Q 2234 186 2336 230 
Q 2438 275 2467 396 
Q 2496 518 2496 742 
L 2496 2010 
Q 2496 2419 2352 2556 
Q 2208 2694 1984 2694 
Q 1805 2694 1648 2617 
Q 1491 2541 1363 2438 
Q 1235 2336 1146 2246 
L 1094 2566 
L 1190 2566 
Q 1453 2790 1696 2947 
Q 1939 3104 2266 3104 
Q 2554 3104 2730 2937 
Q 2906 2771 2995 2522 
Q 3008 2502 3014 2480 
Q 3021 2458 3027 2432 
L 3027 742 
Q 3027 525 3056 403 
Q 3085 282 3187 234 
Q 3290 186 3520 186 
L 3520 0 
z
M 1664 0 
L 205 0 
L 205 186 
Q 410 186 502 221 
Q 595 256 624 355 
Q 653 454 653 646 
L 653 2438 
Q 653 2611 585 2668 
Q 518 2726 384 2726 
Q 314 2726 262 2720 
Q 211 2714 211 2714 
L 211 2899 
L 1011 3085 
L 1165 3085 
L 1165 2496 
L 1184 2355 
L 1184 621 
Q 1184 442 1222 349 
Q 1261 256 1363 221 
Q 1466 186 1664 186 
L 1664 0 
z
M 5306 0 
L 3859 0 
L 3859 186 
Q 4077 186 4173 243 
Q 4269 301 4291 425 
Q 4314 550 4314 742 
L 4314 1971 
Q 4314 2266 4240 2419 
Q 4166 2573 4041 2633 
Q 3917 2694 3763 2694 
Q 3552 2694 3347 2544 
Q 3142 2394 2976 2253 
L 2906 2573 
L 3002 2573 
Q 3264 2835 3513 2969 
Q 3763 3104 4019 3104 
Q 4397 3104 4621 2867 
Q 4845 2630 4845 2048 
L 4845 742 
Q 4845 544 4867 419 
Q 4890 294 4989 240 
Q 5088 186 5306 186 
L 5306 0 
z
" transform="scale(0.015625)"/>
       <path id="STIXTwoText-62" d="M 877 4518 
L 1043 4518 
L 1043 2560 
L 1062 2560 
Q 1229 2765 1478 2934 
Q 1728 3104 2048 3104 
Q 2368 3104 2608 2921 
Q 2848 2739 2982 2419 
Q 3117 2099 3117 1683 
Q 3117 1114 2918 723 
Q 2720 333 2374 134 
Q 2029 -64 1581 -64 
Q 1171 -64 899 32 
Q 627 128 512 192 
L 512 3789 
Q 512 4006 464 4067 
Q 416 4128 230 4128 
Q 154 4128 102 4121 
Q 51 4115 51 4115 
L 51 4294 
L 877 4518 
z
M 1043 2278 
L 1043 499 
Q 1133 390 1286 294 
Q 1440 198 1696 198 
Q 2003 198 2185 371 
Q 2368 544 2451 835 
Q 2534 1126 2534 1478 
Q 2534 1786 2470 2058 
Q 2406 2330 2240 2499 
Q 2074 2669 1766 2669 
Q 1523 2669 1328 2531 
Q 1133 2394 1043 2278 
z
" transform="scale(0.015625)"/>
       <path id="STIXTwoText-65" d="M 1581 -64 
Q 1197 -64 886 118 
Q 576 301 397 656 
Q 218 1011 218 1523 
Q 218 2061 400 2409 
Q 582 2758 889 2931 
Q 1197 3104 1568 3104 
Q 2093 3104 2413 2739 
Q 2733 2374 2758 1702 
L 678 1702 
L 672 1939 
L 2157 1939 
Q 2150 2176 2073 2384 
Q 1997 2592 1849 2720 
Q 1702 2848 1472 2848 
Q 1101 2848 915 2557 
Q 730 2266 730 1734 
Q 730 1293 870 998 
Q 1011 704 1241 560 
Q 1472 416 1734 416 
Q 1997 416 2160 486 
Q 2323 557 2438 669 
Q 2554 781 2656 915 
L 2778 826 
Q 2694 646 2585 483 
Q 2477 320 2339 198 
Q 2202 77 2016 6 
Q 1830 -64 1581 -64 
z
" transform="scale(0.015625)"/>
       <path id="STIXTwoText-72" d="M 1786 0 
L 186 0 
L 186 186 
Q 397 186 496 221 
Q 595 256 624 349 
Q 653 442 653 621 
L 653 2381 
Q 653 2554 624 2640 
Q 595 2726 422 2726 
Q 326 2726 275 2720 
Q 224 2714 224 2714 
L 224 2893 
L 1018 3085 
L 1171 3085 
L 1171 2426 
L 1190 2426 
Q 1357 2662 1485 2816 
Q 1613 2970 1737 3046 
Q 1862 3123 2016 3123 
Q 2202 3123 2294 3027 
Q 2387 2931 2387 2765 
Q 2387 2586 2300 2502 
Q 2214 2419 2106 2419 
Q 2003 2419 1923 2473 
Q 1843 2528 1785 2582 
Q 1728 2637 1690 2637 
Q 1581 2637 1440 2470 
Q 1299 2304 1184 2112 
L 1184 653 
Q 1184 454 1235 352 
Q 1286 250 1417 218 
Q 1549 186 1786 186 
L 1786 0 
z
" transform="scale(0.015625)"/>
       <path id="STIXTwoText-20" transform="scale(0.015625)"/>
       <path id="STIXTwoText-6f" d="M 1651 -64 
Q 979 -64 598 355 
Q 218 774 218 1549 
Q 218 2016 397 2365 
Q 576 2714 899 2909 
Q 1222 3104 1651 3104 
Q 2310 3104 2691 2694 
Q 3072 2285 3072 1574 
Q 3072 1037 2889 672 
Q 2707 307 2387 121 
Q 2067 -64 1651 -64 
z
M 1677 192 
Q 1939 192 2118 313 
Q 2298 435 2390 729 
Q 2483 1024 2483 1542 
Q 2483 2131 2268 2496 
Q 2054 2861 1626 2861 
Q 1261 2861 1037 2553 
Q 813 2246 813 1632 
Q 813 870 1040 528 
Q 1267 186 1677 192 
z
" transform="scale(0.015625)"/>
       <path id="STIXTwoText-66" d="M 1837 0 
L 115 0 
L 115 186 
Q 352 186 464 227 
Q 576 269 614 390 
Q 653 512 653 762 
L 653 2797 
Q 653 3162 669 3395 
Q 685 3629 729 3789 
Q 774 3949 858 4096 
Q 986 4320 1181 4441 
Q 1376 4563 1709 4563 
Q 1920 4563 2080 4512 
Q 2240 4461 2333 4361 
Q 2426 4262 2426 4115 
Q 2426 3974 2349 3907 
Q 2272 3840 2163 3840 
Q 2042 3840 1965 3920 
Q 1888 4000 1818 4090 
Q 1754 4179 1680 4252 
Q 1606 4326 1491 4326 
Q 1312 4326 1248 4163 
Q 1184 4000 1184 3597 
L 1184 762 
Q 1184 512 1235 390 
Q 1286 269 1427 227 
Q 1568 186 1837 186 
L 1837 0 
z
M 1965 2726 
L 166 2726 
L 166 2995 
L 1965 2995 
L 1965 2726 
z
" transform="scale(0.015625)"/>
       <path id="STIXTwoText-52" d="M 2074 0 
L 275 0 
L 275 192 
Q 518 192 640 230 
Q 762 269 803 397 
Q 845 525 845 794 
L 845 3539 
Q 845 3718 809 3820 
Q 774 3923 652 3968 
Q 531 4013 275 4013 
L 275 4205 
L 1850 4205 
Q 2330 4205 2704 4112 
Q 3078 4019 3289 3792 
Q 3501 3565 3501 3155 
Q 3501 2797 3337 2573 
Q 3174 2349 2928 2224 
Q 2682 2099 2419 2035 
L 2419 2010 
Q 2528 1946 2665 1789 
Q 2803 1632 3020 1328 
Q 3238 1024 3590 518 
Q 3744 307 3888 249 
Q 4032 192 4250 192 
L 4250 0 
L 3194 0 
Q 2931 397 2755 662 
Q 2579 928 2457 1110 
Q 2336 1293 2240 1433 
Q 2144 1574 2048 1715 
Q 1952 1862 1872 1894 
Q 1792 1926 1619 1926 
L 1440 1926 
L 1440 794 
Q 1440 531 1485 400 
Q 1530 269 1664 230 
Q 1798 192 2074 192 
L 2074 0 
z
M 1440 2176 
L 1683 2170 
Q 2035 2189 2297 2285 
Q 2560 2381 2707 2585 
Q 2854 2790 2854 3130 
Q 2854 3514 2617 3734 
Q 2381 3955 1862 3955 
Q 1760 3955 1651 3952 
Q 1542 3949 1440 3936 
L 1440 2176 
z
" transform="scale(0.015625)"/>
       <path id="STIXTwoText-74" d="M 1875 576 
L 1997 474 
Q 1875 301 1769 182 
Q 1664 64 1536 0 
Q 1408 -64 1203 -64 
Q 883 -64 736 125 
Q 589 314 589 742 
L 589 2726 
L 237 2726 
L 237 2874 
Q 461 3014 624 3254 
Q 787 3494 960 3904 
L 1120 3904 
L 1120 2995 
L 1843 2995 
L 1843 2726 
L 1120 2726 
L 1120 922 
Q 1120 582 1181 448 
Q 1242 314 1427 314 
Q 1581 314 1667 378 
Q 1754 442 1875 576 
z
" transform="scale(0.015625)"/>
       <path id="STIXTwoText-73" d="M 269 -51 
L 250 1050 
L 416 1050 
Q 518 557 716 361 
Q 915 166 1267 166 
Q 1510 166 1664 265 
Q 1818 365 1818 589 
Q 1818 742 1763 844 
Q 1709 947 1555 1052 
Q 1402 1158 1101 1306 
Q 806 1453 620 1590 
Q 435 1728 345 1894 
Q 256 2061 256 2298 
Q 256 2694 541 2899 
Q 826 3104 1235 3104 
Q 1478 3104 1632 3049 
Q 1786 2995 1907 2938 
L 1914 2938 
L 2022 3072 
L 2150 3072 
L 2170 2093 
L 1997 2093 
Q 1894 2547 1708 2716 
Q 1523 2886 1229 2886 
Q 1011 2886 860 2784 
Q 710 2682 710 2464 
Q 710 2278 883 2131 
Q 1056 1984 1459 1779 
Q 1754 1626 1952 1482 
Q 2150 1338 2252 1168 
Q 2355 998 2355 762 
Q 2355 461 2208 278 
Q 2061 96 1814 13 
Q 1568 -70 1280 -70 
Q 1005 -70 841 -12 
Q 678 45 550 96 
L 538 96 
L 403 -51 
L 269 -51 
z
" transform="scale(0.015625)"/>
       <path id="STIXGeneral-Italic-4e" d="M 4653 4179 
L 4653 4077 
Q 4480 4038 4413 4016 
Q 4346 3994 4266 3882 
Q 4186 3770 4144 3635 
Q 4102 3501 4000 3149 
L 3066 -96 
L 2950 -96 
L 1478 3424 
L 749 723 
Q 691 525 691 378 
Q 691 243 790 182 
Q 890 122 1139 102 
L 1139 0 
L -128 0 
L -128 102 
Q 147 141 262 304 
Q 378 467 550 1075 
L 1299 3731 
Q 1152 4077 749 4077 
L 749 4179 
L 1773 4179 
L 3098 986 
L 3776 3469 
Q 3827 3648 3827 3750 
Q 3827 3923 3740 3987 
Q 3654 4051 3386 4077 
L 3386 4179 
L 4653 4179 
z
" transform="scale(0.015625)"/>
       <path id="STIXGeneral-Italic-52" d="M 845 4179 
L 2458 4179 
Q 3078 4179 3420 3936 
Q 3763 3693 3763 3277 
Q 3763 2778 3341 2458 
Q 3091 2266 2502 2131 
L 3072 627 
Q 3181 333 3299 217 
Q 3418 102 3629 102 
L 3629 0 
L 2688 0 
L 1901 2074 
L 1478 2106 
L 1126 806 
Q 1043 512 1043 403 
Q 1043 256 1126 192 
Q 1210 128 1472 102 
L 1472 0 
L -83 0 
L -83 102 
Q 173 134 278 243 
Q 384 352 461 646 
L 1222 3405 
Q 1299 3699 1299 3808 
Q 1299 3923 1210 3987 
Q 1133 4038 845 4077 
L 845 4179 
z
M 1958 3795 
L 1555 2342 
Q 1754 2310 1882 2310 
Q 2451 2310 2771 2566 
Q 3091 2822 3091 3270 
Q 3091 3603 2892 3795 
Q 2694 3987 2323 3987 
Q 2010 3987 1958 3795 
z
" transform="scale(0.015625)"/>
      </defs>
      <use xlink:href="#STIXTwoText-4e" transform="translate(0 0.703125)"/>
      <use xlink:href="#STIXTwoText-75" transform="translate(74.199982 0.703125)"/>
      <use xlink:href="#STIXTwoText-6d" transform="translate(131.199966 0.703125)"/>
      <use xlink:href="#STIXTwoText-62" transform="translate(216.399948 0.703125)"/>
      <use xlink:href="#STIXTwoText-65" transform="translate(268.599945 0.703125)"/>
      <use xlink:href="#STIXTwoText-72" transform="translate(314.999939 0.703125)"/>
      <use xlink:href="#STIXTwoText-20" transform="translate(352.999924 0.703125)"/>
      <use xlink:href="#STIXTwoText-6f" transform="translate(376.499908 0.703125)"/>
      <use xlink:href="#STIXTwoText-66" transform="translate(427.899902 0.703125)"/>
      <use xlink:href="#STIXTwoText-20" transform="translate(458.599899 0.703125)"/>
      <use xlink:href="#STIXTwoText-52" transform="translate(482.099884 0.703125)"/>
      <use xlink:href="#STIXTwoText-6f" transform="translate(547.999878 0.703125)"/>
      <use xlink:href="#STIXTwoText-62" transform="translate(599.399872 0.703125)"/>
      <use xlink:href="#STIXTwoText-6f" transform="translate(651.599869 0.703125)"/>
      <use xlink:href="#STIXTwoText-74" transform="translate(702.999863 0.703125)"/>
      <use xlink:href="#STIXTwoText-73" transform="translate(734.499847 0.703125)"/>
      <use xlink:href="#STIXTwoText-20" transform="translate(773.999832 0.703125)"/>
      <use xlink:href="#STIXGeneral-Italic-4e" transform="translate(797.499817 0.703125)"/>
      <use xlink:href="#STIXGeneral-Italic-52" transform="translate(864.199814 -12.525) scale(0.7)"/>
     </g>
    </g>
   </g>
   <g id="matplotlib.axis_2">
    <g id="ytick_1">
     <g id="line2d_11">
      <path d="M 54.29 172.528 
L 349.2 172.528 
" clip-path="url(#pd28cd12111)" style="fill: none; stroke: #ffffff; stroke-width: 1.5; stroke-linecap: round"/>
     </g>
     <g id="text_12">
      <!-- 0 -->
      <g style="fill: #4c4f69" transform="translate(41.29 176.178) scale(0.1 -0.1)">
       <use xlink:href="#JetBrainsMonoNFM-Regular-30"/>
      </g>
     </g>
    </g>
    <g id="ytick_2">
     <g id="line2d_12">
      <path d="M 54.29 152.762 
L 349.2 152.762 
" clip-path="url(#pd28cd12111)" style="fill: none; stroke: #ffffff; stroke-width: 1.5; stroke-linecap: round"/>
     </g>
     <g id="text_13">
      <!-- 25 -->
      <g style="fill: #4c4f69" transform="translate(35.29 156.412) scale(0.1 -0.1)">
       <use xlink:href="#JetBrainsMonoNFM-Regular-32"/>
       <use xlink:href="#JetBrainsMonoNFM-Regular-35" x="59.999985"/>
      </g>
     </g>
    </g>
    <g id="ytick_3">
     <g id="line2d_13">
      <path d="M 54.29 132.996 
L 349.2 132.996 
" clip-path="url(#pd28cd12111)" style="fill: none; stroke: #ffffff; stroke-width: 1.5; stroke-linecap: round"/>
     </g>
     <g id="text_14">
      <!-- 50 -->
      <g style="fill: #4c4f69" transform="translate(35.29 136.646) scale(0.1 -0.1)">
       <use xlink:href="#JetBrainsMonoNFM-Regular-35"/>
       <use xlink:href="#JetBrainsMonoNFM-Regular-30" x="59.999985"/>
      </g>
     </g>
    </g>
    <g id="ytick_4">
     <g id="line2d_14">
      <path d="M 54.29 113.23 
L 349.2 113.23 
" clip-path="url(#pd28cd12111)" style="fill: none; stroke: #ffffff; stroke-width: 1.5; stroke-linecap: round"/>
     </g>
     <g id="text_15">
      <!-- 75 -->
      <g style="fill: #4c4f69" transform="translate(35.29 116.88) scale(0.1 -0.1)">
       <defs>
        <path id="JetBrainsMonoNFM-Regular-37" d="M 1216 0 
L 2880 4147 
L 1101 4147 
L 1101 3392 
L 525 3392 
L 525 4672 
L 3494 4672 
L 3494 4134 
L 1843 0 
L 1216 0 
z
" transform="scale(0.015625)"/>
       </defs>
       <use xlink:href="#JetBrainsMonoNFM-Regular-37"/>
       <use xlink:href="#JetBrainsMonoNFM-Regular-35" x="59.999985"/>
      </g>
     </g>
    </g>
    <g id="ytick_5">
     <g id="line2d_15">
      <path d="M 54.29 93.464 
L 349.2 93.464 
" clip-path="url(#pd28cd12111)" style="fill: none; stroke: #ffffff; stroke-width: 1.5; stroke-linecap: round"/>
     </g>
     <g id="text_16">
      <!-- 100 -->
      <g style="fill: #4c4f69" transform="translate(29.29 97.114) scale(0.1 -0.1)">
       <use xlink:href="#JetBrainsMonoNFM-Regular-31"/>
       <use xlink:href="#JetBrainsMonoNFM-Regular-30" x="59.999985"/>
       <use xlink:href="#JetBrainsMonoNFM-Regular-30" x="119.999969"/>
      </g>
     </g>
    </g>
    <g id="ytick_6">
     <g id="line2d_16">
      <path d="M 54.29 73.698 
L 349.2 73.698 
" clip-path="url(#pd28cd12111)" style="fill: none; stroke: #ffffff; stroke-width: 1.5; stroke-linecap: round"/>
     </g>
     <g id="text_17">
      <!-- 125 -->
      <g style="fill: #4c4f69" transform="translate(29.29 77.348) scale(0.1 -0.1)">
       <use xlink:href="#JetBrainsMonoNFM-Regular-31"/>
       <use xlink:href="#JetBrainsMonoNFM-Regular-32" x="59.999985"/>
       <use xlink:href="#JetBrainsMonoNFM-Regular-35" x="119.999969"/>
      </g>
     </g>
    </g>
    <g id="ytick_7">
     <g id="line2d_17">
      <path d="M 54.29 53.932 
L 349.2 53.932 
" clip-path="url(#pd28cd12111)" style="fill: none; stroke: #ffffff; stroke-width: 1.5; stroke-linecap: round"/>
     </g>
     <g id="text_18">
      <!-- 150 -->
      <g style="fill: #4c4f69" transform="translate(29.29 57.582) scale(0.1 -0.1)">
       <use xlink:href="#JetBrainsMonoNFM-Regular-31"/>
       <use xlink:href="#JetBrainsMonoNFM-Regular-35" x="59.999985"/>
       <use xlink:href="#JetBrainsMonoNFM-Regular-30" x="119.999969"/>
      </g>
     </g>
    </g>
    <g id="ytick_8">
     <g id="line2d_18">
      <path d="M 54.29 34.166 
L 349.2 34.166 
" clip-path="url(#pd28cd12111)" style="fill: none; stroke: #ffffff; stroke-width: 1.5; stroke-linecap: round"/>
     </g>
     <g id="text_19">
      <!-- 175 -->
      <g style="fill: #4c4f69" transform="translate(29.29 37.816) scale(0.1 -0.1)">
       <use xlink:href="#JetBrainsMonoNFM-Regular-31"/>
       <use xlink:href="#JetBrainsMonoNFM-Regular-37" x="59.999985"/>
       <use xlink:href="#JetBrainsMonoNFM-Regular-35" x="119.999969"/>
      </g>
     </g>
    </g>
    <g id="ytick_9">
     <g id="line2d_19">
      <path d="M 54.29 14.4 
L 349.2 14.4 
" clip-path="url(#pd28cd12111)" style="fill: none; stroke: #ffffff; stroke-width: 1.5; stroke-linecap: round"/>
     </g>
     <g id="text_20">
      <!-- 200 -->
      <g style="fill: #4c4f69" transform="translate(29.29 18.05) scale(0.1 -0.1)">
       <use xlink:href="#JetBrainsMonoNFM-Regular-32"/>
       <use xlink:href="#JetBrainsMonoNFM-Regular-30" x="59.999985"/>
       <use xlink:href="#JetBrainsMonoNFM-Regular-30" x="119.999969"/>
      </g>
     </g>
    </g>
    <g id="text_21">
     <!-- Makespan $[s]$ -->
     <g style="fill: #4c4f69" transform="translate(22.65 127.424) rotate(-90) scale(0.12 -0.12)">
      <defs>
       <path id="STIXTwoText-4d" d="M 1683 0 
L 179 0 
L 179 192 
Q 442 192 570 240 
Q 698 288 742 448 
Q 787 608 787 934 
L 787 3424 
Q 787 3667 742 3792 
Q 698 3917 573 3965 
Q 448 4013 192 4013 
L 192 4205 
L 1498 4205 
L 2848 986 
L 2874 986 
L 4218 4205 
L 5434 4205 
L 5434 4013 
Q 5210 4013 5088 3965 
Q 4966 3917 4921 3792 
Q 4877 3667 4877 3430 
L 4877 762 
Q 4877 531 4921 406 
Q 4966 282 5088 237 
Q 5210 192 5440 192 
L 5440 0 
L 3738 0 
L 3738 192 
Q 3987 192 4108 237 
Q 4230 282 4268 406 
Q 4307 531 4307 762 
L 4307 3520 
L 4282 3520 
L 2790 0 
L 2637 0 
L 1126 3514 
L 1101 3514 
L 1101 934 
Q 1101 608 1145 448 
Q 1190 288 1315 240 
Q 1440 192 1683 192 
L 1683 0 
z
" transform="scale(0.015625)"/>
       <path id="STIXTwoText-61" d="M 1005 -45 
Q 634 -45 438 160 
Q 243 365 243 672 
Q 243 928 361 1104 
Q 480 1280 675 1401 
Q 870 1523 1097 1606 
Q 1325 1690 1542 1747 
Q 1760 1805 1926 1856 
L 1926 2138 
Q 1926 2554 1782 2730 
Q 1638 2906 1350 2906 
Q 1075 2906 998 2790 
Q 922 2675 922 2387 
Q 922 2240 848 2166 
Q 774 2093 640 2093 
Q 544 2093 457 2166 
Q 371 2240 371 2400 
Q 371 2579 508 2739 
Q 646 2899 899 3001 
Q 1152 3104 1498 3104 
Q 2022 3104 2240 2861 
Q 2458 2618 2458 2118 
L 2458 666 
Q 2458 467 2502 409 
Q 2547 352 2650 352 
Q 2739 352 2812 397 
Q 2886 442 2950 512 
L 3046 410 
Q 2886 179 2742 73 
Q 2598 -32 2355 -32 
Q 2131 -32 2064 96 
Q 1997 224 1965 461 
L 1926 538 
L 1926 1645 
Q 1638 1574 1382 1478 
Q 1126 1382 966 1228 
Q 806 1075 806 826 
Q 806 589 934 448 
Q 1062 307 1267 307 
Q 1434 307 1616 390 
Q 1798 474 1971 627 
L 2022 397 
L 1946 397 
Q 1798 269 1660 166 
Q 1523 64 1366 9 
Q 1210 -45 1005 -45 
z
" transform="scale(0.015625)"/>
       <path id="STIXTwoText-6b" d="M 1645 0 
L 192 0 
L 192 186 
Q 480 186 560 266 
Q 640 346 640 608 
L 640 3808 
Q 640 4013 592 4073 
Q 544 4134 384 4134 
Q 320 4134 243 4128 
Q 166 4122 166 4122 
L 166 4294 
L 998 4518 
L 1171 4518 
L 1171 1696 
L 1210 1696 
L 2035 2515 
Q 2054 2534 2102 2588 
Q 2150 2643 2150 2720 
Q 2150 2784 2086 2809 
Q 2022 2835 1837 2835 
L 1837 3027 
L 3219 3027 
L 3219 2835 
Q 3066 2835 2947 2806 
Q 2829 2778 2707 2698 
Q 2586 2618 2410 2470 
Q 2234 2323 1965 2086 
L 1645 1824 
L 2771 557 
Q 2925 384 3024 304 
Q 3123 224 3219 205 
Q 3315 186 3450 186 
L 3450 0 
L 2035 0 
L 2035 186 
Q 2176 186 2230 202 
Q 2285 218 2285 262 
Q 2285 307 2262 348 
Q 2240 390 2214 416 
L 1210 1555 
L 1171 1555 
L 1171 582 
Q 1171 339 1257 262 
Q 1344 186 1645 186 
L 1645 0 
z
" transform="scale(0.015625)"/>
       <path id="STIXTwoText-70" d="M 1760 -1408 
L 141 -1408 
L 141 -1229 
Q 442 -1229 525 -1129 
Q 608 -1030 608 -762 
L 608 2406 
Q 608 2592 566 2662 
Q 525 2733 365 2733 
Q 301 2733 230 2726 
Q 160 2720 160 2720 
L 160 2906 
L 966 3085 
L 1126 3085 
L 1126 2547 
L 1146 2547 
Q 1376 2816 1616 2960 
Q 1856 3104 2138 3104 
Q 2458 3104 2698 2921 
Q 2938 2739 3075 2416 
Q 3213 2093 3213 1670 
Q 3213 1126 3024 739 
Q 2835 352 2515 144 
Q 2195 -64 1811 -64 
Q 1632 -64 1469 -22 
Q 1306 19 1165 115 
L 1139 115 
L 1139 -723 
Q 1139 -928 1190 -1037 
Q 1242 -1146 1376 -1184 
Q 1510 -1222 1760 -1222 
L 1760 -1408 
z
M 1843 186 
Q 2182 186 2406 506 
Q 2630 826 2630 1491 
Q 2630 2099 2432 2384 
Q 2234 2669 1875 2669 
Q 1619 2669 1424 2534 
Q 1229 2400 1139 2278 
L 1139 608 
Q 1203 544 1299 441 
Q 1395 339 1529 262 
Q 1664 186 1843 186 
z
" transform="scale(0.015625)"/>
       <path id="STIXTwoText-6e" d="M 3552 0 
L 2074 0 
L 2074 179 
Q 2304 179 2403 220 
Q 2502 262 2524 364 
Q 2547 467 2547 646 
L 2547 1805 
Q 2547 2189 2460 2381 
Q 2374 2573 2240 2633 
Q 2106 2694 1958 2694 
Q 1773 2694 1625 2620 
Q 1478 2547 1360 2444 
Q 1242 2342 1139 2253 
L 1094 2566 
L 1190 2566 
Q 1453 2797 1686 2950 
Q 1920 3104 2221 3104 
Q 2656 3104 2867 2809 
Q 3078 2515 3078 1965 
L 3078 646 
Q 3078 467 3107 364 
Q 3136 262 3238 220 
Q 3341 179 3552 179 
L 3552 0 
z
M 1670 0 
L 205 0 
L 205 179 
Q 422 179 515 220 
Q 608 262 630 364 
Q 653 467 653 646 
L 653 2445 
Q 653 2618 582 2672 
Q 512 2726 384 2726 
Q 301 2726 256 2720 
Q 211 2714 211 2714 
L 211 2899 
L 1024 3085 
L 1171 3085 
L 1165 2496 
L 1184 2362 
L 1184 646 
Q 1184 467 1209 364 
Q 1235 262 1337 220 
Q 1440 179 1670 179 
L 1670 0 
z
" transform="scale(0.015625)"/>
       <path id="STIXGeneral-Regular-5b" d="M 1914 -998 
L 563 -998 
L 563 4237 
L 1914 4237 
L 1914 4077 
L 1382 4077 
Q 1216 4077 1133 4006 
Q 1050 3936 1050 3770 
L 1050 -493 
Q 1050 -838 1382 -838 
L 1914 -838 
L 1914 -998 
z
" transform="scale(0.015625)"/>
       <path id="STIXGeneral-Italic-73" d="M 2342 2829 
L 2214 1933 
L 2112 1933 
Q 2022 2675 1542 2675 
Q 1370 2675 1267 2579 
Q 1165 2483 1165 2310 
Q 1165 2067 1510 1658 
Q 1946 1152 1946 787 
Q 1946 397 1686 163 
Q 1427 -70 1024 -70 
Q 838 -70 672 -6 
Q 538 51 390 51 
Q 262 51 205 -83 
L 102 -83 
L 230 934 
L 333 934 
Q 461 64 973 64 
Q 1203 64 1331 192 
Q 1459 320 1459 557 
Q 1459 845 1101 1293 
Q 698 1798 698 2131 
Q 698 2451 909 2636 
Q 1120 2822 1472 2822 
Q 1600 2822 1830 2758 
Q 1971 2714 2061 2714 
Q 2189 2714 2253 2829 
L 2342 2829 
z
" transform="scale(0.015625)"/>
       <path id="STIXGeneral-Regular-5d" d="M 1568 -998 
L 218 -998 
L 218 -838 
L 781 -838 
Q 947 -838 1014 -768 
Q 1082 -698 1082 -544 
L 1082 3731 
Q 1082 4077 755 4077 
L 218 4077 
L 218 4237 
L 1568 4237 
L 1568 -998 
z
" transform="scale(0.015625)"/>
      </defs>
      <use xlink:href="#STIXTwoText-4d" transform="translate(0 0.40625)"/>
      <use xlink:href="#STIXTwoText-61" transform="translate(89.499985 0.40625)"/>
      <use xlink:href="#STIXTwoText-6b" transform="translate(137.499969 0.40625)"/>
      <use xlink:href="#STIXTwoText-65" transform="translate(191.699966 0.40625)"/>
      <use xlink:href="#STIXTwoText-73" transform="translate(238.09996 0.40625)"/>
      <use xlink:href="#STIXTwoText-70" transform="translate(277.599945 0.40625)"/>
      <use xlink:href="#STIXTwoText-61" transform="translate(331.299942 0.40625)"/>
      <use xlink:href="#STIXTwoText-6e" transform="translate(379.299927 0.40625)"/>
      <use xlink:href="#STIXTwoText-20" transform="translate(436.899918 0.40625)"/>
      <use xlink:href="#STIXGeneral-Regular-5b" transform="translate(460.399902 0.40625)"/>
      <use xlink:href="#STIXGeneral-Italic-73" transform="translate(493.69989 0.40625)"/>
      <use xlink:href="#STIXGeneral-Regular-5d" transform="translate(532.599884 0.40625)"/>
     </g>
    </g>
   </g>
   <g id="line2d_20">
    <path d="M 69.0355 163.170785 
L 98.5265 160.886089 
L 128.0175 159.758246 
L 157.5085 158.274359 
L 186.9995 155.750635 
L 216.4905 156.710847 
L 245.9815 155.276951 
L 275.4725 154.322533 
L 304.9635 153.934754 
L 334.4545 149.021291 
" clip-path="url(#pd28cd12111)" style="fill: none; stroke-dasharray: 1.5,0; stroke-dashoffset: 0; stroke: #7287fd; stroke-width: 1.5"/>
    <defs>
     <path id="maf36eef2c9" d="M 0 3 
C 0.795609 3 1.55874 2.683901 2.12132 2.12132 
C 2.683901 1.55874 3 0.795609 3 0 
C 3 -0.795609 2.683901 -1.55874 2.12132 -2.12132 
C 1.55874 -2.683901 0.795609 -3 0 -3 
C -0.795609 -3 -1.55874 -2.683901 -2.12132 -2.12132 
C -2.683901 -1.55874 -3 -0.795609 -3 0 
C -3 0.795609 -2.683901 1.55874 -2.12132 2.12132 
C -1.55874 2.683901 -0.795609 3 0 3 
z
" style="stroke: #7287fd"/>
    </defs>
    <g clip-path="url(#pd28cd12111)">
     <use xlink:href="#maf36eef2c9" x="69.0355" y="163.170785" style="fill: #7287fd; stroke: #7287fd"/>
     <use xlink:href="#maf36eef2c9" x="98.5265" y="160.886089" style="fill: #7287fd; stroke: #7287fd"/>
     <use xlink:href="#maf36eef2c9" x="128.0175" y="159.758246" style="fill: #7287fd; stroke: #7287fd"/>
     <use xlink:href="#maf36eef2c9" x="157.5085" y="158.274359" style="fill: #7287fd; stroke: #7287fd"/>
     <use xlink:href="#maf36eef2c9" x="186.9995" y="155.750635" style="fill: #7287fd; stroke: #7287fd"/>
     <use xlink:href="#maf36eef2c9" x="216.4905" y="156.710847" style="fill: #7287fd; stroke: #7287fd"/>
     <use xlink:href="#maf36eef2c9" x="245.9815" y="155.276951" style="fill: #7287fd; stroke: #7287fd"/>
     <use xlink:href="#maf36eef2c9" x="275.4725" y="154.322533" style="fill: #7287fd; stroke: #7287fd"/>
     <use xlink:href="#maf36eef2c9" x="304.9635" y="153.934754" style="fill: #7287fd; stroke: #7287fd"/>
     <use xlink:href="#maf36eef2c9" x="334.4545" y="149.021291" style="fill: #7287fd; stroke: #7287fd"/>
    </g>
   </g>
   <g id="line2d_21">
    <path d="M 69.0355 164.147216 
L 98.5265 163.356576 
L 128.0175 162.486872 
L 157.5085 162.724064 
L 186.9995 161.617168 
L 216.4905 161.300912 
L 245.9815 161.538104 
L 275.4725 159.87776 
L 304.9635 159.87776 
L 334.4545 159.798696 
" clip-path="url(#pd28cd12111)" style="fill: none; stroke-dasharray: 1.5,0; stroke-dashoffset: 0; stroke: #fe640b; stroke-width: 1.5"/>
    <defs>
     <path id="m36ce51df01" d="M 0 3 
C 0.795609 3 1.55874 2.683901 2.12132 2.12132 
C 2.683901 1.55874 3 0.795609 3 0 
C 3 -0.795609 2.683901 -1.55874 2.12132 -2.12132 
C 1.55874 -2.683901 0.795609 -3 0 -3 
C -0.795609 -3 -1.55874 -2.683901 -2.12132 -2.12132 
C -2.683901 -1.55874 -3 -0.795609 -3 0 
C -3 0.795609 -2.683901 1.55874 -2.12132 2.12132 
C -1.55874 2.683901 -0.795609 3 0 3 
z
" style="stroke: #fe640b"/>
    </defs>
    <g clip-path="url(#pd28cd12111)">
     <use xlink:href="#m36ce51df01" x="69.0355" y="164.147216" style="fill: #fe640b; stroke: #fe640b"/>
     <use xlink:href="#m36ce51df01" x="98.5265" y="163.356576" style="fill: #fe640b; stroke: #fe640b"/>
     <use xlink:href="#m36ce51df01" x="128.0175" y="162.486872" style="fill: #fe640b; stroke: #fe640b"/>
     <use xlink:href="#m36ce51df01" x="157.5085" y="162.724064" style="fill: #fe640b; stroke: #fe640b"/>
     <use xlink:href="#m36ce51df01" x="186.9995" y="161.617168" style="fill: #fe640b; stroke: #fe640b"/>
     <use xlink:href="#m36ce51df01" x="216.4905" y="161.300912" style="fill: #fe640b; stroke: #fe640b"/>
     <use xlink:href="#m36ce51df01" x="245.9815" y="161.538104" style="fill: #fe640b; stroke: #fe640b"/>
     <use xlink:href="#m36ce51df01" x="275.4725" y="159.87776" style="fill: #fe640b; stroke: #fe640b"/>
     <use xlink:href="#m36ce51df01" x="304.9635" y="159.87776" style="fill: #fe640b; stroke: #fe640b"/>
     <use xlink:href="#m36ce51df01" x="334.4545" y="159.798696" style="fill: #fe640b; stroke: #fe640b"/>
    </g>
   </g>
   <g id="line2d_22">
    <path d="M 69.0355 149.070926 
L 98.5265 145.829071 
L 128.0175 140.74157 
L 157.5085 138.640566 
L 186.9995 136.029681 
L 216.4905 131.784555 
L 245.9815 128.864761 
L 275.4725 117.494423 
L 304.9635 121.181068 
L 334.4545 117.840039 
" clip-path="url(#pd28cd12111)" style="fill: none; stroke-dasharray: 1.5,0; stroke-dashoffset: 0; stroke: #40a02b; stroke-opacity: 0.5; stroke-width: 1.5"/>
    <defs>
     <path id="m0858302cdb" d="M 0 3 
C 0.795609 3 1.55874 2.683901 2.12132 2.12132 
C 2.683901 1.55874 3 0.795609 3 0 
C 3 -0.795609 2.683901 -1.55874 2.12132 -2.12132 
C 1.55874 -2.683901 0.795609 -3 0 -3 
C -0.795609 -3 -1.55874 -2.683901 -2.12132 -2.12132 
C -2.683901 -1.55874 -3 -0.795609 -3 0 
C -3 0.795609 -2.683901 1.55874 -2.12132 2.12132 
C -1.55874 2.683901 -0.795609 3 0 3 
z
" style="stroke: #40a02b; stroke-opacity: 0.5"/>
    </defs>
    <g clip-path="url(#pd28cd12111)">
     <use xlink:href="#m0858302cdb" x="69.0355" y="149.070926" style="fill: #40a02b; fill-opacity: 0.5; stroke: #40a02b; stroke-opacity: 0.5"/>
     <use xlink:href="#m0858302cdb" x="98.5265" y="145.829071" style="fill: #40a02b; fill-opacity: 0.5; stroke: #40a02b; stroke-opacity: 0.5"/>
     <use xlink:href="#m0858302cdb" x="128.0175" y="140.74157" style="fill: #40a02b; fill-opacity: 0.5; stroke: #40a02b; stroke-opacity: 0.5"/>
     <use xlink:href="#m0858302cdb" x="157.5085" y="138.640566" style="fill: #40a02b; fill-opacity: 0.5; stroke: #40a02b; stroke-opacity: 0.5"/>
     <use xlink:href="#m0858302cdb" x="186.9995" y="136.029681" style="fill: #40a02b; fill-opacity: 0.5; stroke: #40a02b; stroke-opacity: 0.5"/>
     <use xlink:href="#m0858302cdb" x="216.4905" y="131.784555" style="fill: #40a02b; fill-opacity: 0.5; stroke: #40a02b; stroke-opacity: 0.5"/>
     <use xlink:href="#m0858302cdb" x="245.9815" y="128.864761" style="fill: #40a02b; fill-opacity: 0.5; stroke: #40a02b; stroke-opacity: 0.5"/>
     <use xlink:href="#m0858302cdb" x="275.4725" y="117.494423" style="fill: #40a02b; fill-opacity: 0.5; stroke: #40a02b; stroke-opacity: 0.5"/>
     <use xlink:href="#m0858302cdb" x="304.9635" y="121.181068" style="fill: #40a02b; fill-opacity: 0.5; stroke: #40a02b; stroke-opacity: 0.5"/>
     <use xlink:href="#m0858302cdb" x="334.4545" y="117.840039" style="fill: #40a02b; fill-opacity: 0.5; stroke: #40a02b; stroke-opacity: 0.5"/>
    </g>
   </g>
   <g id="line2d_23">
    <path d="M 69.0355 151.57604 
L 98.5265 150.073824 
L 128.0175 143.985894 
L 157.5085 145.329983 
L 186.9995 139.083929 
L 216.4905 127.698711 
L 245.9815 123.350191 
L 275.4725 129.279991 
L 304.9635 112.597486 
L 334.4545 97.100943 
" clip-path="url(#pd28cd12111)" style="fill: none; stroke-dasharray: 1.5,0; stroke-dashoffset: 0; stroke: #df8e1d; stroke-opacity: 0.5; stroke-width: 1.5"/>
    <defs>
     <path id="m2fab2d35f7" d="M 0 3 
C 0.795609 3 1.55874 2.683901 2.12132 2.12132 
C 2.683901 1.55874 3 0.795609 3 0 
C 3 -0.795609 2.683901 -1.55874 2.12132 -2.12132 
C 1.55874 -2.683901 0.795609 -3 0 -3 
C -0.795609 -3 -1.55874 -2.683901 -2.12132 -2.12132 
C -2.683901 -1.55874 -3 -0.795609 -3 0 
C -3 0.795609 -2.683901 1.55874 -2.12132 2.12132 
C -1.55874 2.683901 -0.795609 3 0 3 
z
" style="stroke: #df8e1d; stroke-opacity: 0.5"/>
    </defs>
    <g clip-path="url(#pd28cd12111)">
     <use xlink:href="#m2fab2d35f7" x="69.0355" y="151.57604" style="fill: #df8e1d; fill-opacity: 0.5; stroke: #df8e1d; stroke-opacity: 0.5"/>
     <use xlink:href="#m2fab2d35f7" x="98.5265" y="150.073824" style="fill: #df8e1d; fill-opacity: 0.5; stroke: #df8e1d; stroke-opacity: 0.5"/>
     <use xlink:href="#m2fab2d35f7" x="128.0175" y="143.985894" style="fill: #df8e1d; fill-opacity: 0.5; stroke: #df8e1d; stroke-opacity: 0.5"/>
     <use xlink:href="#m2fab2d35f7" x="157.5085" y="145.329983" style="fill: #df8e1d; fill-opacity: 0.5; stroke: #df8e1d; stroke-opacity: 0.5"/>
     <use xlink:href="#m2fab2d35f7" x="186.9995" y="139.083929" style="fill: #df8e1d; fill-opacity: 0.5; stroke: #df8e1d; stroke-opacity: 0.5"/>
     <use xlink:href="#m2fab2d35f7" x="216.4905" y="127.698711" style="fill: #df8e1d; fill-opacity: 0.5; stroke: #df8e1d; stroke-opacity: 0.5"/>
     <use xlink:href="#m2fab2d35f7" x="245.9815" y="123.350191" style="fill: #df8e1d; fill-opacity: 0.5; stroke: #df8e1d; stroke-opacity: 0.5"/>
     <use xlink:href="#m2fab2d35f7" x="275.4725" y="129.279991" style="fill: #df8e1d; fill-opacity: 0.5; stroke: #df8e1d; stroke-opacity: 0.5"/>
     <use xlink:href="#m2fab2d35f7" x="304.9635" y="112.597486" style="fill: #df8e1d; fill-opacity: 0.5; stroke: #df8e1d; stroke-opacity: 0.5"/>
     <use xlink:href="#m2fab2d35f7" x="334.4545" y="97.100943" style="fill: #df8e1d; fill-opacity: 0.5; stroke: #df8e1d; stroke-opacity: 0.5"/>
    </g>
   </g>
   <g id="line2d_24">
    <path d="M 69.0355 160.155058 
L 98.5265 157.953096 
L 128.0175 156.578564 
L 157.5085 153.195516 
L 186.9995 152.438105 
L 216.4905 150.576304 
L 245.9815 146.997274 
L 275.4725 145.431677 
L 304.9635 144.908161 
L 334.4545 142.251616 
" clip-path="url(#pd28cd12111)" style="fill: none; stroke-dasharray: 3,3; stroke-dashoffset: 0; stroke: #8839ef; stroke-width: 1.5"/>
    <defs>
     <path id="mb889e3bf1f" d="M -3 3 
L 3 -3 
M -3 -3 
L 3 3 
" style="stroke: #8839ef"/>
    </defs>
    <g clip-path="url(#pd28cd12111)">
     <use xlink:href="#mb889e3bf1f" x="69.0355" y="160.155058" style="fill: #8839ef; stroke: #8839ef"/>
     <use xlink:href="#mb889e3bf1f" x="98.5265" y="157.953096" style="fill: #8839ef; stroke: #8839ef"/>
     <use xlink:href="#mb889e3bf1f" x="128.0175" y="156.578564" style="fill: #8839ef; stroke: #8839ef"/>
     <use xlink:href="#mb889e3bf1f" x="157.5085" y="153.195516" style="fill: #8839ef; stroke: #8839ef"/>
     <use xlink:href="#mb889e3bf1f" x="186.9995" y="152.438105" style="fill: #8839ef; stroke: #8839ef"/>
     <use xlink:href="#mb889e3bf1f" x="216.4905" y="150.576304" style="fill: #8839ef; stroke: #8839ef"/>
     <use xlink:href="#mb889e3bf1f" x="245.9815" y="146.997274" style="fill: #8839ef; stroke: #8839ef"/>
     <use xlink:href="#mb889e3bf1f" x="275.4725" y="145.431677" style="fill: #8839ef; stroke: #8839ef"/>
     <use xlink:href="#mb889e3bf1f" x="304.9635" y="144.908161" style="fill: #8839ef; stroke: #8839ef"/>
     <use xlink:href="#mb889e3bf1f" x="334.4545" y="142.251616" style="fill: #8839ef; stroke: #8839ef"/>
    </g>
   </g>
   <g id="line2d_25">
    <path d="M 69.0355 163.514704 
L 98.5265 162.328744 
L 128.0175 159.403376 
L 157.5085 160.352144 
L 186.9995 156.636136 
L 216.4905 155.92456 
L 245.9815 154.264216 
L 275.4725 154.580471 
L 304.9635 153.236384 
L 334.4545 151.813231 
" clip-path="url(#pd28cd12111)" style="fill: none; stroke-dasharray: 3,3; stroke-dashoffset: 0; stroke: #e64553; stroke-width: 1.5"/>
    <defs>
     <path id="me85e6907b5" d="M -3 3 
L 3 -3 
M -3 -3 
L 3 3 
" style="stroke: #e64553"/>
    </defs>
    <g clip-path="url(#pd28cd12111)">
     <use xlink:href="#me85e6907b5" x="69.0355" y="163.514704" style="fill: #e64553; stroke: #e64553"/>
     <use xlink:href="#me85e6907b5" x="98.5265" y="162.328744" style="fill: #e64553; stroke: #e64553"/>
     <use xlink:href="#me85e6907b5" x="128.0175" y="159.403376" style="fill: #e64553; stroke: #e64553"/>
     <use xlink:href="#me85e6907b5" x="157.5085" y="160.352144" style="fill: #e64553; stroke: #e64553"/>
     <use xlink:href="#me85e6907b5" x="186.9995" y="156.636136" style="fill: #e64553; stroke: #e64553"/>
     <use xlink:href="#me85e6907b5" x="216.4905" y="155.92456" style="fill: #e64553; stroke: #e64553"/>
     <use xlink:href="#me85e6907b5" x="245.9815" y="154.264216" style="fill: #e64553; stroke: #e64553"/>
     <use xlink:href="#me85e6907b5" x="275.4725" y="154.580471" style="fill: #e64553; stroke: #e64553"/>
     <use xlink:href="#me85e6907b5" x="304.9635" y="153.236384" style="fill: #e64553; stroke: #e64553"/>
     <use xlink:href="#me85e6907b5" x="334.4545" y="151.813231" style="fill: #e64553; stroke: #e64553"/>
    </g>
   </g>
   <g id="patch_3">
    <path d="M 54.29 172.528 
L 54.29 14.4 
" style="fill: none; stroke: #ffffff; stroke-width: 0.8; stroke-linejoin: miter; stroke-linecap: square"/>
   </g>
   <g id="patch_4">
    <path d="M 349.2 172.528 
L 349.2 14.4 
" style="fill: none; stroke: #ffffff; stroke-width: 0.8; stroke-linejoin: miter; stroke-linecap: square"/>
   </g>
   <g id="patch_5">
    <path d="M 54.29 172.528 
L 349.2 172.528 
" style="fill: none; stroke: #ffffff; stroke-width: 0.8; stroke-linejoin: miter; stroke-linecap: square"/>
   </g>
   <g id="patch_6">
    <path d="M 54.29 14.4 
L 349.2 14.4 
" style="fill: none; stroke: #ffffff; stroke-width: 0.8; stroke-linejoin: miter; stroke-linecap: square"/>
   </g>
  </g>
 </g>
 <defs>
  <clipPath id="pd28cd12111">
   <rect x="54.29" y="14.4" width="294.91" height="158.128"/>
  </clipPath>
 </defs>
</svg>
