<?xml version="1.0" encoding="utf-8" standalone="no"?>
<!DOCTYPE svg PUBLIC "-//W3C//DTD SVG 1.1//EN"
  "http://www.w3.org/Graphics/SVG/1.1/DTD/svg11.dtd">
<svg xmlns:xlink="http://www.w3.org/1999/xlink" width="720pt" height="216pt" viewBox="0 0 720 216" xmlns="http://www.w3.org/2000/svg" version="1.1">
 <metadata>
  <rdf:RDF xmlns:dc="http://purl.org/dc/elements/1.1/" xmlns:cc="http://creativecommons.org/ns#" xmlns:rdf="http://www.w3.org/1999/02/22-rdf-syntax-ns#">
   <cc:Work>
    <dc:type rdf:resource="http://purl.org/dc/dcmitype/StillImage"/>
    <dc:date>1980-01-01T00:00:00+00:00</dc:date>
    <dc:format>image/svg+xml</dc:format>
    <dc:creator>
     <cc:Agent>
      <dc:title>Matplotlib v3.8.4, https://matplotlib.org/</dc:title>
     </cc:Agent>
    </dc:creator>
   </cc:Work>
  </rdf:RDF>
 </metadata>
 <defs>
  <style type="text/css">*{stroke-linejoin: round; stroke-linecap: butt}</style>
 </defs>
 <g id="figure_1">
  <g id="patch_1">
   <path d="M 0 216 
L 720 216 
L 720 0 
L 0 0 
z
" style="fill: #ffffff"/>
  </g>
  <g id="axes_1">
   <g id="patch_2">
    <path d="M 51.974945 174.717548 
L 709.2 174.717548 
L 709.2 14.259249 
L 51.974945 14.259249 
z
" style="fill: #eaeaf2"/>
   </g>
   <g id="matplotlib.axis_1">
    <g id="xtick_1">
     <g id="text_1">
      <!-- 5 -->
      <g style="fill: #262626" transform="translate(93.720579 188.636046) scale(0.1 -0.1)">
       <defs>
        <path id="CMR17-35" d="M 730 3750 
C 794 3724 1056 3641 1325 3641 
C 1920 3641 2246 3961 2432 4140 
C 2432 4191 2432 4224 2394 4224 
C 2387 4224 2374 4224 2323 4198 
C 2099 4102 1837 4032 1517 4032 
C 1325 4032 1037 4055 723 4191 
C 653 4224 640 4224 634 4224 
C 602 4224 595 4217 595 4090 
L 595 2231 
C 595 2113 595 2080 659 2080 
C 691 2080 704 2093 736 2139 
C 941 2435 1222 2560 1542 2560 
C 1766 2560 2246 2415 2246 1293 
C 2246 1087 2246 716 2054 422 
C 1894 159 1645 25 1370 25 
C 947 25 518 319 403 812 
C 429 806 480 793 506 793 
C 589 793 749 838 749 1036 
C 749 1209 627 1280 506 1280 
C 358 1280 262 1190 262 1011 
C 262 454 704 -128 1382 -128 
C 2042 -128 2669 441 2669 1267 
C 2669 2054 2170 2662 1549 2662 
C 1222 2662 947 2540 730 2304 
L 730 3750 
z
" transform="scale(0.015625)"/>
       </defs>
       <use xlink:href="#CMR17-35" transform="scale(0.996264)"/>
      </g>
     </g>
    </g>
    <g id="xtick_2">
     <g id="text_2">
      <!-- 10 -->
      <g style="fill: #262626" transform="translate(154.424628 188.636046) scale(0.1 -0.1)">
       <defs>
        <path id="CMR17-31" d="M 1702 4083 
C 1702 4217 1696 4224 1606 4224 
C 1357 3927 979 3833 621 3820 
C 602 3820 570 3820 563 3808 
C 557 3795 557 3782 557 3648 
C 755 3648 1088 3686 1344 3839 
L 1344 467 
C 1344 243 1331 166 781 166 
L 589 166 
L 589 0 
C 896 6 1216 12 1523 12 
C 1830 12 2150 6 2458 0 
L 2458 166 
L 2266 166 
C 1715 166 1702 236 1702 467 
L 1702 4083 
z
" transform="scale(0.015625)"/>
        <path id="CMR17-30" d="M 2688 2038 
C 2688 2430 2682 3099 2413 3613 
C 2176 4063 1798 4224 1466 4224 
C 1158 4224 768 4082 525 3620 
C 269 3137 243 2539 243 2038 
C 243 1671 250 1112 448 623 
C 723 -39 1216 -128 1466 -128 
C 1760 -128 2208 -7 2470 604 
C 2662 1048 2688 1568 2688 2038 
z
M 1466 -26 
C 1056 -26 813 328 723 816 
C 653 1196 653 1749 653 2109 
C 653 2604 653 3015 736 3407 
C 858 3954 1216 4121 1466 4121 
C 1728 4121 2067 3947 2189 3420 
C 2272 3054 2278 2623 2278 2109 
C 2278 1691 2278 1176 2202 797 
C 2067 96 1690 -26 1466 -26 
z
" transform="scale(0.015625)"/>
       </defs>
       <use xlink:href="#CMR17-31" transform="scale(0.996264)"/>
       <use xlink:href="#CMR17-30" transform="translate(45.690477 0) scale(0.996264)"/>
      </g>
     </g>
    </g>
    <g id="xtick_3">
     <g id="text_3">
      <!-- 15 -->
      <g style="fill: #262626" transform="translate(217.619345 188.636046) scale(0.1 -0.1)">
       <use xlink:href="#CMR17-31" transform="scale(0.996264)"/>
       <use xlink:href="#CMR17-35" transform="translate(45.690477 0) scale(0.996264)"/>
      </g>
     </g>
    </g>
    <g id="xtick_4">
     <g id="text_4">
      <!-- 20 -->
      <g style="fill: #262626" transform="translate(280.814062 188.636046) scale(0.1 -0.1)">
       <defs>
        <path id="CMR17-32" d="M 2669 990 
L 2554 990 
C 2490 537 2438 460 2413 422 
C 2381 371 1920 371 1830 371 
L 602 371 
C 832 620 1280 1073 1824 1596 
C 2214 1966 2669 2400 2669 3033 
C 2669 3788 2067 4224 1395 4224 
C 691 4224 262 3603 262 3027 
C 262 2777 448 2745 525 2745 
C 589 2745 781 2783 781 3007 
C 781 3206 614 3264 525 3264 
C 486 3264 448 3257 422 3244 
C 544 3788 915 4057 1306 4057 
C 1862 4057 2227 3616 2227 3033 
C 2227 2477 1901 1998 1536 1583 
L 262 147 
L 262 0 
L 2515 0 
L 2669 990 
z
" transform="scale(0.015625)"/>
       </defs>
       <use xlink:href="#CMR17-32" transform="scale(0.996264)"/>
       <use xlink:href="#CMR17-30" transform="translate(45.690477 0) scale(0.996264)"/>
      </g>
     </g>
    </g>
    <g id="xtick_5">
     <g id="text_5">
      <!-- 25 -->
      <g style="fill: #262626" transform="translate(344.008779 188.636046) scale(0.1 -0.1)">
       <use xlink:href="#CMR17-32" transform="scale(0.996264)"/>
       <use xlink:href="#CMR17-35" transform="translate(45.690477 0) scale(0.996264)"/>
      </g>
     </g>
    </g>
    <g id="xtick_6">
     <g id="text_6">
      <!-- 30 -->
      <g style="fill: #262626" transform="translate(407.203496 188.636046) scale(0.1 -0.1)">
       <defs>
        <path id="CMR17-33" d="M 1414 2176 
C 1984 2176 2234 1673 2234 1094 
C 2234 322 1824 25 1453 25 
C 1114 25 563 193 390 691 
C 422 678 454 678 486 678 
C 640 678 755 780 755 947 
C 755 1132 614 1216 486 1216 
C 378 1216 211 1164 211 927 
C 211 335 787 -128 1466 -128 
C 2176 -128 2720 432 2720 1087 
C 2720 1718 2208 2176 1600 2246 
C 2086 2347 2554 2776 2554 3353 
C 2554 3856 2048 4224 1472 4224 
C 890 4224 378 3862 378 3347 
C 378 3123 544 3084 627 3084 
C 762 3084 877 3167 877 3334 
C 877 3500 762 3584 627 3584 
C 602 3584 570 3584 544 3571 
C 730 3999 1235 4076 1459 4076 
C 1683 4076 2106 3966 2106 3347 
C 2106 3167 2080 2851 1862 2574 
C 1670 2329 1453 2316 1242 2297 
C 1210 2297 1062 2284 1037 2284 
C 992 2278 966 2272 966 2227 
C 966 2182 973 2176 1101 2176 
L 1414 2176 
z
" transform="scale(0.015625)"/>
       </defs>
       <use xlink:href="#CMR17-33" transform="scale(0.996264)"/>
       <use xlink:href="#CMR17-30" transform="translate(45.690477 0) scale(0.996264)"/>
      </g>
     </g>
    </g>
    <g id="xtick_7">
     <g id="text_7">
      <!-- 35 -->
      <g style="fill: #262626" transform="translate(470.398213 188.636046) scale(0.1 -0.1)">
       <use xlink:href="#CMR17-33" transform="scale(0.996264)"/>
       <use xlink:href="#CMR17-35" transform="translate(45.690477 0) scale(0.996264)"/>
      </g>
     </g>
    </g>
    <g id="xtick_8">
     <g id="text_8">
      <!-- 40 -->
      <g style="fill: #262626" transform="translate(533.592929 188.636046) scale(0.1 -0.1)">
       <defs>
        <path id="CMR17-34" d="M 2150 4147 
C 2150 4281 2144 4288 2029 4288 
L 128 1254 
L 128 1088 
L 1779 1088 
L 1779 460 
C 1779 230 1766 166 1318 166 
L 1197 166 
L 1197 0 
C 1402 12 1747 12 1965 12 
C 2182 12 2528 12 2733 0 
L 2733 166 
L 2611 166 
C 2163 166 2150 230 2150 460 
L 2150 1088 
L 2803 1088 
L 2803 1254 
L 2150 1254 
L 2150 4147 
z
M 1798 3723 
L 1798 1254 
L 256 1254 
L 1798 3723 
z
" transform="scale(0.015625)"/>
       </defs>
       <use xlink:href="#CMR17-34" transform="scale(0.996264)"/>
       <use xlink:href="#CMR17-30" transform="translate(45.690477 0) scale(0.996264)"/>
      </g>
     </g>
    </g>
    <g id="xtick_9">
     <g id="text_9">
      <!-- 45 -->
      <g style="fill: #262626" transform="translate(596.787646 188.636046) scale(0.1 -0.1)">
       <use xlink:href="#CMR17-34" transform="scale(0.996264)"/>
       <use xlink:href="#CMR17-35" transform="translate(45.690477 0) scale(0.996264)"/>
      </g>
     </g>
    </g>
    <g id="xtick_10">
     <g id="text_10">
      <!-- 50 -->
      <g style="fill: #262626" transform="translate(659.982363 188.636046) scale(0.1 -0.1)">
       <use xlink:href="#CMR17-35" transform="scale(0.996264)"/>
       <use xlink:href="#CMR17-30" transform="translate(45.690477 0) scale(0.996264)"/>
      </g>
     </g>
    </g>
    <g id="text_11">
     <!-- Number of Robots $N_R$ -->
     <g style="fill: #262626" transform="translate(323.338252 202.875404) scale(0.12 -0.12)">
      <defs>
       <path id="CMR17-4e" d="M 1312 4275 
C 1267 4345 1261 4352 1139 4352 
L 326 4352 
L 326 4185 
L 448 4185 
C 704 4185 819 4153 838 4147 
L 838 624 
C 838 465 838 166 326 166 
L 326 0 
C 474 12 742 12 902 12 
C 1062 12 1331 12 1478 0 
L 1478 166 
C 966 166 966 465 966 624 
L 966 4057 
C 1011 4019 1011 4007 1056 3943 
L 3430 76 
C 3475 0 3494 0 3526 0 
C 3590 0 3590 19 3590 140 
L 3590 3726 
C 3590 3885 3590 4185 4102 4185 
L 4102 4352 
C 3955 4339 3686 4339 3526 4339 
C 3366 4339 3098 4339 2950 4352 
L 2950 4185 
C 3462 4185 3462 3885 3462 3726 
L 3462 777 
L 1312 4275 
z
" transform="scale(0.015625)"/>
       <path id="CMR17-75" d="M 1882 2745 
L 1882 2579 
C 2259 2579 2317 2540 2317 2229 
L 2317 1053 
C 2317 510 2029 38 1555 38 
C 1030 38 986 355 986 691 
L 986 2816 
L 211 2745 
L 211 2579 
C 467 2579 640 2579 646 2320 
L 646 1079 
C 646 646 646 368 813 187 
C 896 103 1056 -64 1517 -64 
C 2061 -64 2272 400 2323 536 
L 2330 536 
L 2330 -64 
L 3091 -13 
L 3091 154 
C 2714 154 2656 193 2656 503 
L 2656 2816 
L 1882 2745 
z
" transform="scale(0.015625)"/>
       <path id="CMR17-6d" d="M 4326 1954 
C 4326 2276 4269 2816 3507 2816 
C 3072 2816 2771 2520 2656 2173 
L 2650 2173 
C 2573 2700 2195 2816 1837 2816 
C 1331 2816 1069 2424 973 2166 
L 966 2166 
L 966 2816 
L 211 2745 
L 211 2578 
C 589 2578 646 2540 646 2231 
L 646 443 
C 646 198 621 166 211 166 
L 211 0 
C 365 12 646 12 813 12 
C 979 12 1267 12 1421 0 
L 1421 166 
C 1011 166 986 192 986 443 
L 986 1678 
C 986 2269 1344 2713 1792 2713 
C 2266 2713 2317 2289 2317 1980 
L 2317 443 
C 2317 198 2291 166 1882 166 
L 1882 0 
C 2035 12 2317 12 2483 12 
C 2650 12 2938 12 3091 0 
L 3091 166 
C 2682 166 2656 192 2656 443 
L 2656 1678 
C 2656 2269 3014 2713 3462 2713 
C 3936 2713 3987 2289 3987 1980 
L 3987 443 
C 3987 198 3962 166 3552 166 
L 3552 0 
C 3706 12 3987 12 4154 12 
C 4320 12 4608 12 4762 0 
L 4762 166 
C 4352 166 4326 192 4326 443 
L 4326 1954 
z
" transform="scale(0.015625)"/>
       <path id="CMR17-62" d="M 960 4416 
L 198 4345 
L 198 4179 
C 576 4179 634 4141 634 3843 
L 634 -13 
L 749 -13 
L 934 445 
C 1120 141 1395 -64 1766 -64 
C 2406 -64 3053 503 3053 1382 
C 3053 2209 2477 2816 1830 2816 
C 1434 2816 1152 2603 960 2351 
L 960 4416 
z
M 973 2022 
C 973 2138 973 2157 1062 2293 
C 1312 2681 1670 2713 1792 2713 
C 1984 2713 2643 2610 2643 1388 
C 2643 109 1888 38 1734 38 
C 1536 38 1248 115 1043 490 
C 973 613 973 626 973 742 
L 973 2022 
z
" transform="scale(0.015625)"/>
       <path id="CMR17-65" d="M 2438 1503 
C 2464 1529 2464 1542 2464 1606 
C 2464 2251 2118 2816 1389 2816 
C 710 2816 173 2175 173 1394 
C 173 554 781 -64 1459 -64 
C 2176 -64 2458 619 2458 755 
C 2458 800 2419 800 2406 800 
C 2362 800 2355 787 2330 709 
C 2189 270 1837 51 1504 51 
C 1229 51 954 206 781 490 
C 582 819 582 1200 582 1503 
L 2438 1503 
z
M 589 1600 
C 634 2511 1126 2713 1382 2713 
C 1818 2713 2112 2308 2118 1600 
L 589 1600 
z
" transform="scale(0.015625)"/>
       <path id="CMR17-72" d="M 960 1517 
C 960 2134 1222 2713 1702 2713 
C 1747 2713 1792 2707 1837 2687 
C 1837 2687 1696 2642 1696 2475 
C 1696 2321 1818 2257 1914 2257 
C 1990 2257 2131 2302 2131 2482 
C 2131 2687 1926 2816 1709 2816 
C 1222 2816 1011 2340 947 2115 
L 941 2115 
L 941 2816 
L 198 2745 
L 198 2578 
C 576 2578 634 2540 634 2231 
L 634 443 
C 634 198 608 166 198 166 
L 198 0 
C 352 12 646 12 813 12 
C 998 12 1325 12 1498 0 
L 1498 166 
C 1037 166 960 166 960 455 
L 960 1517 
z
" transform="scale(0.015625)"/>
       <path id="CMR17-6f" d="M 2758 1356 
C 2758 2176 2163 2816 1466 2816 
C 768 2816 173 2176 173 1356 
C 173 550 768 -64 1466 -64 
C 2163 -64 2758 550 2758 1356 
z
M 1466 51 
C 1165 51 909 230 762 480 
C 602 768 582 1126 582 1408 
C 582 1676 595 2009 762 2297 
C 890 2508 1139 2713 1466 2713 
C 1754 2713 1997 2553 2150 2329 
C 2349 2028 2349 1606 2349 1408 
C 2349 1158 2336 774 2163 467 
C 1984 172 1709 51 1466 51 
z
" transform="scale(0.015625)"/>
       <path id="CMR17-66" d="M 979 2585 
L 1709 2585 
L 1709 2752 
L 966 2752 
L 966 3539 
C 966 4076 1235 4377 1510 4377 
C 1594 4377 1690 4363 1754 4339 
C 1702 4326 1568 4281 1568 4121 
C 1568 3955 1696 3904 1786 3904 
C 1875 3904 2003 3955 2003 4121 
C 2003 4353 1773 4480 1517 4480 
C 1152 4480 653 4211 653 3526 
L 653 2752 
L 141 2752 
L 141 2585 
L 653 2585 
L 653 441 
C 653 198 627 166 218 166 
L 218 0 
C 371 12 666 12 832 12 
C 1018 12 1344 12 1517 0 
L 1517 166 
C 1056 166 979 166 979 454 
L 979 2585 
z
" transform="scale(0.015625)"/>
       <path id="CMR17-52" d="M 2509 2156 
C 3117 2278 3629 2689 3629 3203 
C 3629 3806 2950 4352 2054 4352 
L 333 4352 
L 333 4185 
C 774 4185 845 4185 845 3896 
L 845 428 
C 845 140 774 140 333 140 
L 333 -26 
C 518 -13 851 -13 1050 -13 
C 1248 -13 1581 -13 1766 -26 
L 1766 140 
C 1325 140 1254 140 1254 428 
L 1254 2112 
L 2003 2112 
C 2368 2112 2573 1964 2662 1881 
C 2918 1632 2918 1459 2918 1024 
C 2918 595 2918 377 3110 160 
C 3354 -103 3680 -128 3821 -128 
C 4294 -128 4365 403 4365 512 
C 4365 550 4365 595 4307 595 
C 4256 595 4250 556 4250 531 
C 4218 115 4032 -26 3834 -26 
C 3482 -26 3443 377 3405 768 
C 3386 902 3373 998 3360 1139 
C 3322 1459 3270 1926 2509 2156 
z
M 1984 2214 
L 1254 2214 
L 1254 3935 
C 1254 4153 1267 4185 1523 4185 
L 1990 4185 
C 2522 4185 3142 3999 3142 3203 
C 3142 2374 2464 2214 1984 2214 
z
" transform="scale(0.015625)"/>
       <path id="CMR17-74" d="M 966 2585 
L 1862 2585 
L 1862 2752 
L 966 2752 
L 966 3968 
L 851 3968 
C 838 3292 614 2700 70 2687 
L 70 2585 
L 627 2585 
L 627 778 
C 627 655 627 -64 1370 -64 
C 1747 -64 1965 308 1965 784 
L 1965 1151 
L 1850 1151 
L 1850 790 
C 1850 347 1677 51 1408 51 
C 1222 51 966 179 966 765 
L 966 2585 
z
" transform="scale(0.015625)"/>
       <path id="CMR17-73" d="M 1978 2688 
C 1978 2803 1971 2809 1933 2809 
C 1907 2809 1901 2803 1824 2707 
C 1805 2681 1747 2617 1728 2592 
C 1523 2809 1235 2816 1126 2816 
C 416 2816 160 2444 160 2073 
C 160 1497 813 1363 998 1324 
C 1402 1241 1542 1216 1677 1100 
C 1760 1024 1901 883 1901 652 
C 1901 384 1747 38 1158 38 
C 602 38 403 460 288 1024 
C 269 1113 269 1120 218 1120 
C 166 1120 160 1113 160 985 
L 160 64 
C 160 -52 166 -58 205 -58 
C 237 -58 243 -52 275 0 
C 314 57 410 211 448 275 
C 576 102 800 -64 1158 -64 
C 1792 -64 2131 281 2131 780 
C 2131 1107 1958 1280 1875 1356 
C 1683 1555 1459 1600 1190 1651 
C 838 1728 390 1817 390 2208 
C 390 2374 480 2726 1126 2726 
C 1811 2726 1850 2086 1862 1881 
C 1869 1849 1901 1843 1920 1843 
C 1978 1843 1978 1862 1978 1971 
L 1978 2688 
z
" transform="scale(0.015625)"/>
       <path id="CMMI12-4e" d="M 4736 3682 
C 4806 3956 4909 4147 5395 4166 
C 5414 4166 5491 4172 5491 4281 
C 5491 4352 5434 4352 5408 4352 
C 5280 4352 4954 4339 4826 4339 
L 4518 4339 
C 4429 4339 4314 4352 4224 4352 
C 4186 4352 4109 4352 4109 4230 
C 4109 4166 4160 4166 4205 4166 
C 4589 4153 4614 4007 4614 3892 
C 4614 3835 4608 3816 4589 3726 
L 3866 854 
L 2496 4243 
C 2451 4345 2445 4352 2304 4352 
L 1523 4352 
C 1395 4352 1338 4352 1338 4230 
C 1338 4166 1382 4166 1504 4166 
C 1536 4166 1914 4166 1914 4109 
C 1914 4096 1901 4045 1894 4026 
L 1043 650 
C 966 338 813 204 390 185 
C 358 185 294 179 294 64 
C 294 0 358 0 378 0 
C 506 0 832 12 960 12 
L 1267 12 
C 1357 12 1466 0 1555 0 
C 1600 0 1670 0 1670 121 
C 1670 179 1606 185 1581 185 
C 1370 191 1165 230 1165 459 
C 1165 510 1178 567 1190 618 
L 2054 4026 
C 2093 3962 2093 3949 2118 3892 
L 3642 115 
C 3674 38 3686 0 3744 0 
C 3808 0 3814 19 3840 128 
L 4736 3682 
z
" transform="scale(0.015625)"/>
       <path id="CMMI12-52" d="M 2355 3917 
C 2413 4153 2438 4166 2688 4166 
L 3149 4166 
C 3699 4166 4109 4000 4109 3503 
C 4109 3177 3942 2240 2656 2240 
L 1933 2240 
L 2355 3917 
z
M 3245 2163 
C 4038 2335 4659 2846 4659 3394 
C 4659 3892 4154 4352 3264 4352 
L 1530 4352 
C 1402 4352 1344 4352 1344 4230 
C 1344 4166 1389 4166 1510 4166 
C 1894 4166 1894 4115 1894 4045 
C 1894 4032 1894 3994 1869 3898 
L 1005 475 
C 947 253 934 190 493 190 
C 346 190 301 190 301 69 
C 301 6 371 6 390 6 
C 506 6 640 19 762 19 
L 1517 19 
C 1632 19 1766 6 1882 6 
C 1933 6 2003 6 2003 126 
C 2003 190 1946 190 1850 190 
C 1459 190 1459 241 1459 304 
C 1459 310 1459 355 1472 405 
L 1901 2112 
L 2669 2112 
C 3277 2112 3392 1731 3392 1522 
C 3392 1426 3328 1179 3283 1014 
C 3213 723 3194 653 3194 532 
C 3194 82 3565 -128 3994 -128 
C 4512 -128 4736 501 4736 589 
C 4736 634 4704 653 4666 653 
C 4614 653 4602 615 4589 564 
C 4435 114 4173 0 4013 0 
C 3853 0 3750 69 3750 355 
C 3750 507 3827 1084 3834 1116 
C 3866 1350 3866 1376 3866 1426 
C 3866 1889 3488 2086 3245 2163 
z
" transform="scale(0.015625)"/>
      </defs>
      <use xlink:href="#CMR17-4e" transform="scale(0.996264)"/>
      <use xlink:href="#CMR17-75" transform="translate(69.07243 0) scale(0.996264)"/>
      <use xlink:href="#CMR17-6d" transform="translate(119.9678 0) scale(0.996264)"/>
      <use xlink:href="#CMR17-62" transform="translate(194.284936 0) scale(0.996264)"/>
      <use xlink:href="#CMR17-65" transform="translate(247.782744 0) scale(0.996264)"/>
      <use xlink:href="#CMR17-72" transform="translate(288.268404 0) scale(0.996264)"/>
      <use xlink:href="#CMR17-6f" transform="translate(353.625139 0) scale(0.996264)"/>
      <use xlink:href="#CMR17-66" transform="translate(399.315616 0) scale(0.996264)"/>
      <use xlink:href="#CMR17-52" transform="translate(456.865095 0) scale(0.996264)"/>
      <use xlink:href="#CMR17-6f" transform="translate(524.656196 0) scale(0.996264)"/>
      <use xlink:href="#CMR17-62" transform="translate(570.346674 0) scale(0.996264)"/>
      <use xlink:href="#CMR17-6f" transform="translate(623.844482 0) scale(0.996264)"/>
      <use xlink:href="#CMR17-74" transform="translate(669.534959 0) scale(0.996264)"/>
      <use xlink:href="#CMR17-73" transform="translate(704.815727 0) scale(0.996264)"/>
      <use xlink:href="#CMMI12-4e" transform="translate(770.693031 0) scale(0.996264)"/>
      <use xlink:href="#CMMI12-52" transform="translate(848.80815 -14.943915) scale(0.697382)"/>
     </g>
    </g>
   </g>
   <g id="matplotlib.axis_2">
    <g id="ytick_1">
     <g id="text_12">
      <!-- $\mathdefault{−25}$ -->
      <g style="fill: #262626" transform="translate(27.263531 178.176797) scale(0.1 -0.1)">
       <defs>
        <path id="CMSY10-0" d="M 4218 1472 
C 4326 1472 4442 1472 4442 1600 
C 4442 1728 4326 1728 4218 1728 
L 755 1728 
C 646 1728 531 1728 531 1600 
C 531 1472 646 1472 755 1472 
L 4218 1472 
z
" transform="scale(0.015625)"/>
       </defs>
       <use xlink:href="#CMSY10-0" transform="scale(0.996264)"/>
       <use xlink:href="#CMR17-32" transform="translate(77.487468 0) scale(0.996264)"/>
       <use xlink:href="#CMR17-35" transform="translate(123.177945 0) scale(0.996264)"/>
      </g>
     </g>
    </g>
    <g id="ytick_2">
     <g id="text_13">
      <!-- $\mathdefault{−20}$ -->
      <g style="fill: #262626" transform="translate(27.263531 146.085137) scale(0.1 -0.1)">
       <use xlink:href="#CMSY10-0" transform="scale(0.996264)"/>
       <use xlink:href="#CMR17-32" transform="translate(77.487468 0) scale(0.996264)"/>
       <use xlink:href="#CMR17-30" transform="translate(123.177945 0) scale(0.996264)"/>
      </g>
     </g>
    </g>
    <g id="ytick_3">
     <g id="text_14">
      <!-- $\mathdefault{−15}$ -->
      <g style="fill: #262626" transform="translate(27.263531 113.993477) scale(0.1 -0.1)">
       <use xlink:href="#CMSY10-0" transform="scale(0.996264)"/>
       <use xlink:href="#CMR17-31" transform="translate(77.487468 0) scale(0.996264)"/>
       <use xlink:href="#CMR17-35" transform="translate(123.177945 0) scale(0.996264)"/>
      </g>
     </g>
    </g>
    <g id="ytick_4">
     <g id="text_15">
      <!-- $\mathdefault{−10}$ -->
      <g style="fill: #262626" transform="translate(27.263531 81.901818) scale(0.1 -0.1)">
       <use xlink:href="#CMSY10-0" transform="scale(0.996264)"/>
       <use xlink:href="#CMR17-31" transform="translate(77.487468 0) scale(0.996264)"/>
       <use xlink:href="#CMR17-30" transform="translate(123.177945 0) scale(0.996264)"/>
      </g>
     </g>
    </g>
    <g id="ytick_5">
     <g id="text_16">
      <!-- $\mathdefault{−5}$ -->
      <g style="fill: #262626" transform="translate(32.244866 49.810158) scale(0.1 -0.1)">
       <use xlink:href="#CMSY10-0" transform="scale(0.996264)"/>
       <use xlink:href="#CMR17-35" transform="translate(77.487468 0) scale(0.996264)"/>
      </g>
     </g>
    </g>
    <g id="ytick_6">
     <g id="text_17">
      <!-- $\mathdefault{0}$ -->
      <g style="fill: #262626" transform="translate(39.99361 17.718498) scale(0.1 -0.1)">
       <use xlink:href="#CMR17-30" transform="scale(0.996264)"/>
      </g>
     </g>
    </g>
    <g id="text_18">
     <!-- Log Dimensionless Jerk $[m/s^3]$ -->
     <g style="fill: #262626" transform="translate(20.274739 173.029236) rotate(-90) scale(0.12 -0.12)">
      <defs>
       <path id="CMR17-4c" d="M 3469 1612 
L 3354 1612 
C 3302 981 3219 166 2125 166 
L 1530 166 
C 1274 166 1261 198 1261 414 
L 1261 3892 
C 1261 4121 1274 4185 1760 4185 
L 1901 4185 
L 1901 4352 
C 1638 4339 1331 4339 1069 4339 
C 870 4339 512 4339 326 4352 
L 326 4185 
C 768 4185 838 4185 838 3898 
L 838 453 
C 838 166 768 166 326 166 
L 326 0 
L 3315 0 
L 3469 1612 
z
" transform="scale(0.015625)"/>
       <path id="CMR17-67" d="M 710 1165 
C 832 1068 1043 960 1299 960 
C 1805 960 2240 1359 2240 1895 
C 2240 2063 2189 2321 1997 2521 
C 2176 2713 2438 2777 2586 2777 
C 2611 2777 2650 2777 2682 2758 
C 2656 2751 2598 2726 2598 2623 
C 2598 2540 2656 2483 2739 2483 
C 2835 2483 2886 2547 2886 2630 
C 2886 2751 2790 2880 2586 2880 
C 2330 2880 2106 2758 1926 2591 
C 1734 2764 1504 2828 1299 2828 
C 794 2828 358 2431 358 1895 
C 358 1527 570 1294 634 1230 
C 442 1004 442 742 442 710 
C 442 544 506 300 723 166 
C 390 82 128 -184 128 -517 
C 128 -996 736 -1344 1466 -1344 
C 2170 -1344 2803 -1009 2803 -510 
C 2803 384 1856 384 1363 384 
C 1216 384 954 384 922 390 
C 723 422 589 601 589 825 
C 589 883 589 1024 710 1165 
z
M 1299 1068 
C 736 1068 736 1766 736 1895 
C 736 2024 736 2719 1299 2719 
C 1862 2719 1862 2024 1862 1895 
C 1862 1766 1862 1068 1299 1068 
z
M 1466 -1236 
C 826 -1236 384 -883 384 -517 
C 384 -311 493 -118 634 -11 
C 794 102 858 102 1293 102 
C 1818 102 2547 102 2547 -517 
C 2547 -883 2106 -1236 1466 -1236 
z
" transform="scale(0.015625)"/>
       <path id="CMR17-44" d="M 333 4352 
L 333 4185 
C 774 4185 845 4185 845 3898 
L 845 453 
C 845 166 774 166 333 166 
L 333 0 
L 2368 0 
C 3398 0 4224 943 4224 2140 
C 4224 3344 3411 4352 2368 4352 
L 333 4352 
z
M 1523 166 
C 1267 166 1254 198 1254 414 
L 1254 3936 
C 1254 4153 1267 4185 1523 4185 
L 2240 4185 
C 2771 4185 3750 3873 3750 2140 
C 3750 1242 3488 879 3366 707 
C 3213 510 2848 166 2240 166 
L 1523 166 
z
" transform="scale(0.015625)"/>
       <path id="CMR17-69" d="M 992 3961 
C 992 4102 877 4224 730 4224 
C 589 4224 467 4108 467 3961 
C 467 3820 582 3699 730 3699 
C 870 3699 992 3814 992 3961 
z
M 243 2745 
L 243 2579 
C 602 2579 653 2540 653 2231 
L 653 443 
C 653 198 627 166 218 166 
L 218 0 
C 371 12 646 12 806 12 
C 960 12 1222 12 1370 0 
L 1370 166 
C 992 166 979 205 979 436 
L 979 2816 
L 243 2745 
z
" transform="scale(0.015625)"/>
       <path id="CMR17-6e" d="M 2656 1954 
C 2656 2282 2592 2816 1837 2816 
C 1331 2816 1069 2424 973 2166 
L 966 2166 
L 966 2816 
L 211 2745 
L 211 2578 
C 589 2578 646 2540 646 2231 
L 646 443 
C 646 198 621 166 211 166 
L 211 0 
C 365 12 646 12 813 12 
C 979 12 1267 12 1421 0 
L 1421 166 
C 1011 166 986 192 986 443 
L 986 1678 
C 986 2269 1344 2713 1792 2713 
C 2266 2713 2317 2289 2317 1980 
L 2317 443 
C 2317 198 2291 166 1882 166 
L 1882 0 
C 2035 12 2317 12 2483 12 
C 2650 12 2938 12 3091 0 
L 3091 166 
C 2682 166 2656 192 2656 443 
L 2656 1954 
z
" transform="scale(0.015625)"/>
       <path id="CMR17-6c" d="M 979 4416 
L 218 4345 
L 218 4179 
C 595 4179 653 4141 653 3835 
L 653 439 
C 653 198 627 166 218 166 
L 218 0 
C 371 12 653 12 813 12 
C 979 12 1261 12 1414 0 
L 1414 166 
C 1005 166 979 191 979 439 
L 979 4416 
z
" transform="scale(0.015625)"/>
       <path id="CMR17-4a" d="M 1888 902 
C 1888 316 1568 -26 1242 -26 
C 1075 -26 691 49 525 428 
C 550 422 582 415 608 415 
C 730 415 883 499 883 691 
C 883 844 774 960 614 960 
C 461 960 339 863 339 678 
C 339 254 730 -128 1254 -128 
C 1754 -128 2214 223 2291 755 
C 2298 799 2298 812 2298 1030 
L 2298 3734 
C 2298 3844 2298 4024 2310 4063 
C 2336 4185 2483 4185 2682 4185 
L 2682 4352 
C 2669 4352 2214 4339 2054 4339 
C 1786 4339 1491 4339 1222 4352 
L 1222 4185 
L 1376 4185 
C 1875 4185 1888 4114 1888 3883 
L 1888 902 
z
" transform="scale(0.015625)"/>
       <path id="CMR17-6b" d="M 1670 1679 
C 1664 1692 1632 1730 1632 1749 
C 1632 1762 2086 2175 2144 2226 
C 2509 2532 2739 2563 2906 2570 
L 2906 2735 
C 2867 2735 2854 2735 2848 2729 
L 2534 2722 
C 2355 2722 2080 2722 1907 2735 
L 1907 2570 
C 1997 2563 2061 2513 2061 2423 
C 2061 2296 1933 2175 1926 2175 
L 960 1298 
L 960 4416 
L 198 4345 
L 198 4179 
C 576 4179 634 4141 634 3835 
L 634 439 
C 634 198 608 166 198 166 
L 198 0 
C 352 12 634 12 794 12 
C 954 12 1235 12 1389 0 
L 1389 166 
C 979 166 954 191 954 439 
L 954 1139 
L 1395 1540 
L 2042 586 
C 2118 471 2182 382 2182 299 
C 2182 185 2067 166 1990 166 
L 1990 0 
C 2144 12 2419 12 2579 12 
C 2694 12 2931 6 3040 0 
L 3040 166 
C 2739 166 2669 223 2477 503 
L 1670 1679 
z
" transform="scale(0.015625)"/>
       <path id="CMR17-5b" d="M 1504 -1600 
L 1504 -1376 
L 902 -1376 
L 902 4575 
L 1504 4575 
L 1504 4800 
L 678 4800 
L 678 -1600 
L 1504 -1600 
z
" transform="scale(0.015625)"/>
       <path id="CMMI12-6d" d="M 1318 1870 
C 1331 1909 1491 2228 1728 2432 
C 1894 2585 2112 2687 2362 2687 
C 2618 2687 2707 2496 2707 2241 
C 2707 2202 2707 2075 2630 1775 
L 2470 1117 
C 2419 925 2298 453 2285 383 
C 2259 287 2221 121 2221 95 
C 2221 6 2291 -64 2387 -64 
C 2579 -64 2611 83 2669 313 
L 3053 1838 
C 3066 1890 3398 2687 4102 2687 
C 4358 2687 4448 2496 4448 2241 
C 4448 1883 4198 1187 4058 804 
C 4000 651 3968 568 3968 453 
C 3968 166 4166 -64 4474 -64 
C 5069 -64 5293 874 5293 913 
C 5293 945 5267 970 5229 970 
C 5171 970 5165 951 5133 842 
C 4986 332 4749 64 4493 64 
C 4429 64 4326 70 4326 274 
C 4326 440 4403 645 4429 715 
C 4544 1021 4832 1775 4832 2145 
C 4832 2528 4608 2816 4122 2816 
C 3693 2816 3347 2573 3091 2196 
C 3072 2541 2861 2816 2381 2816 
C 1811 2816 1510 2413 1395 2253 
C 1376 2617 1114 2816 832 2816 
C 646 2816 499 2726 378 2483 
C 262 2253 173 1864 173 1838 
C 173 1813 198 1781 243 1781 
C 294 1781 301 1787 339 1934 
C 435 2311 557 2687 813 2687 
C 960 2687 1011 2585 1011 2394 
C 1011 2253 947 2004 902 1807 
L 723 1117 
C 698 996 627 708 595 593 
C 550 427 480 127 480 95 
C 480 6 550 -64 646 -64 
C 723 -64 813 -26 864 70 
C 877 102 934 325 966 453 
L 1107 1028 
L 1318 1870 
z
" transform="scale(0.015625)"/>
       <path id="CMMI12-3d" d="M 2746 4563 
C 2746 4569 2784 4665 2784 4678 
C 2784 4755 2720 4800 2669 4800 
C 2637 4800 2579 4800 2528 4659 
L 384 -1364 
C 384 -1370 346 -1466 346 -1479 
C 346 -1556 410 -1600 461 -1600 
C 499 -1600 557 -1594 602 -1460 
L 2746 4563 
z
" transform="scale(0.015625)"/>
       <path id="CMMI12-73" d="M 1459 1290 
C 1568 1271 1741 1233 1779 1227 
C 1862 1201 2150 1099 2150 793 
C 2150 595 1971 64 1229 64 
C 1094 64 614 83 486 447 
C 742 414 870 614 870 755 
C 870 889 781 960 653 960 
C 512 960 326 851 326 563 
C 326 176 710 -64 1222 -64 
C 2195 -64 2483 665 2483 998 
C 2483 1093 2483 1271 2278 1475 
C 2118 1627 1965 1659 1619 1729 
C 1446 1767 1171 1824 1171 2111 
C 1171 2239 1286 2687 1894 2687 
C 2163 2687 2426 2589 2490 2368 
C 2208 2368 2195 2124 2195 2118 
C 2195 1983 2317 1945 2374 1945 
C 2464 1945 2643 2015 2643 2284 
C 2643 2546 2400 2816 1901 2816 
C 1062 2816 838 2169 838 1907 
C 838 1424 1312 1322 1459 1290 
z
" transform="scale(0.015625)"/>
       <path id="CMR17-5d" d="M 915 4800 
L 90 4800 
L 90 4575 
L 691 4575 
L 691 -1376 
L 90 -1376 
L 90 -1600 
L 915 -1600 
L 915 4800 
z
" transform="scale(0.015625)"/>
      </defs>
      <use xlink:href="#CMR17-4c" transform="scale(0.996264)"/>
      <use xlink:href="#CMR17-6f" transform="translate(57.381408 0) scale(0.996264)"/>
      <use xlink:href="#CMR17-67" transform="translate(103.071885 0) scale(0.996264)"/>
      <use xlink:href="#CMR17-44" transform="translate(178.838328 0) scale(0.996264)"/>
      <use xlink:href="#CMR17-69" transform="translate(249.231884 0) scale(0.996264)"/>
      <use xlink:href="#CMR17-6d" transform="translate(274.102943 0) scale(0.996264)"/>
      <use xlink:href="#CMR17-65" transform="translate(351.022533 0) scale(0.996264)"/>
      <use xlink:href="#CMR17-6e" transform="translate(391.508193 0) scale(0.996264)"/>
      <use xlink:href="#CMR17-73" transform="translate(442.403563 0) scale(0.996264)"/>
      <use xlink:href="#CMR17-69" transform="translate(478.204901 0) scale(0.996264)"/>
      <use xlink:href="#CMR17-6f" transform="translate(503.075959 0) scale(0.996264)"/>
      <use xlink:href="#CMR17-6e" transform="translate(548.766436 0) scale(0.996264)"/>
      <use xlink:href="#CMR17-6c" transform="translate(599.661806 0) scale(0.996264)"/>
      <use xlink:href="#CMR17-65" transform="translate(624.532864 0) scale(0.996264)"/>
      <use xlink:href="#CMR17-73" transform="translate(665.018525 0) scale(0.996264)"/>
      <use xlink:href="#CMR17-73" transform="translate(700.819863 0) scale(0.996264)"/>
      <use xlink:href="#CMR17-4a" transform="translate(766.697167 0) scale(0.996264)"/>
      <use xlink:href="#CMR17-65" transform="translate(813.668956 0) scale(0.996264)"/>
      <use xlink:href="#CMR17-72" transform="translate(854.154617 0) scale(0.996264)"/>
      <use xlink:href="#CMR17-6b" transform="translate(889.435385 0) scale(0.996264)"/>
      <use xlink:href="#CMR17-5b" transform="translate(967.804267 0) scale(0.996264)"/>
      <use xlink:href="#CMMI12-6d" transform="translate(992.675325 0) scale(0.996264)"/>
      <use xlink:href="#CMMI12-3d" transform="translate(1078.00255 0) scale(0.996264)"/>
      <use xlink:href="#CMMI12-73" transform="translate(1126.777468 0) scale(0.996264)"/>
      <use xlink:href="#CMR17-33" transform="translate(1172.727516 36.153639) scale(0.697382)"/>
      <use xlink:href="#CMR17-5d" transform="translate(1205.20883 0) scale(0.996264)"/>
     </g>
    </g>
   </g>
   <g id="patch_3">
    <path d="M 78.516726 83.877535 
L 88.627881 83.877535 
L 88.627881 75.617281 
L 78.516726 75.617281 
L 78.516726 83.877535 
z
" clip-path="url(#p87254f2b3a)" style="fill: #df8e1d; opacity: 0.1875; stroke: #df8e1d; stroke-linejoin: miter"/>
   </g>
   <g id="line2d_1">
    <path d="M 83.572304 83.877535 
L 83.572304 92.889363 
" clip-path="url(#p87254f2b3a)" style="fill: none; stroke: #df8e1d; stroke-opacity: 0.25; stroke-linecap: round"/>
   </g>
   <g id="line2d_2">
    <path d="M 83.572304 75.617281 
L 83.572304 66.216287 
" clip-path="url(#p87254f2b3a)" style="fill: none; stroke: #df8e1d; stroke-opacity: 0.25; stroke-linecap: round"/>
   </g>
   <g id="line2d_3">
    <path d="M 81.044515 92.889363 
L 86.100092 92.889363 
" clip-path="url(#p87254f2b3a)" style="fill: none; stroke: #df8e1d; stroke-opacity: 0.25; stroke-linecap: round"/>
   </g>
   <g id="line2d_4">
    <path d="M 81.044515 66.216287 
L 86.100092 66.216287 
" clip-path="url(#p87254f2b3a)" style="fill: none; stroke: #df8e1d; stroke-opacity: 0.25; stroke-linecap: round"/>
   </g>
   <g id="line2d_5">
    <defs>
     <path id="mf933e519bf" d="M -0 4.242641 
L 2.545584 0 
L 0 -4.242641 
L -2.545584 -0 
z
" style="stroke: #df8e1d; stroke-opacity: 0.0625; stroke-linejoin: miter"/>
    </defs>
    <g clip-path="url(#p87254f2b3a)">
     <use xlink:href="#mf933e519bf" x="83.572304" y="97.248683" style="fill: #df8e1d; fill-opacity: 0.0625; stroke: #df8e1d; stroke-opacity: 0.0625; stroke-linejoin: miter"/>
     <use xlink:href="#mf933e519bf" x="83.572304" y="100.796916" style="fill: #df8e1d; fill-opacity: 0.0625; stroke: #df8e1d; stroke-opacity: 0.0625; stroke-linejoin: miter"/>
     <use xlink:href="#mf933e519bf" x="83.572304" y="57.421868" style="fill: #df8e1d; fill-opacity: 0.0625; stroke: #df8e1d; stroke-opacity: 0.0625; stroke-linejoin: miter"/>
     <use xlink:href="#mf933e519bf" x="83.572304" y="49.534491" style="fill: #df8e1d; fill-opacity: 0.0625; stroke: #df8e1d; stroke-opacity: 0.0625; stroke-linejoin: miter"/>
     <use xlink:href="#mf933e519bf" x="83.572304" y="56.547433" style="fill: #df8e1d; fill-opacity: 0.0625; stroke: #df8e1d; stroke-opacity: 0.0625; stroke-linejoin: miter"/>
    </g>
   </g>
   <g id="patch_4">
    <path d="M 141.711443 87.925202 
L 151.822598 87.925202 
L 151.822598 80.870876 
L 141.711443 80.870876 
L 141.711443 87.925202 
z
" clip-path="url(#p87254f2b3a)" style="fill: #df8e1d; opacity: 0.1875; stroke: #df8e1d; stroke-linejoin: miter"/>
   </g>
   <g id="line2d_6">
    <path d="M 146.76702 87.925202 
L 146.76702 98.426221 
" clip-path="url(#p87254f2b3a)" style="fill: none; stroke: #df8e1d; stroke-opacity: 0.25; stroke-linecap: round"/>
   </g>
   <g id="line2d_7">
    <path d="M 146.76702 80.870876 
L 146.76702 71.730924 
" clip-path="url(#p87254f2b3a)" style="fill: none; stroke: #df8e1d; stroke-opacity: 0.25; stroke-linecap: round"/>
   </g>
   <g id="line2d_8">
    <path d="M 144.239232 98.426221 
L 149.294809 98.426221 
" clip-path="url(#p87254f2b3a)" style="fill: none; stroke: #df8e1d; stroke-opacity: 0.25; stroke-linecap: round"/>
   </g>
   <g id="line2d_9">
    <path d="M 144.239232 71.730924 
L 149.294809 71.730924 
" clip-path="url(#p87254f2b3a)" style="fill: none; stroke: #df8e1d; stroke-opacity: 0.25; stroke-linecap: round"/>
   </g>
   <g id="line2d_10">
    <g clip-path="url(#p87254f2b3a)">
     <use xlink:href="#mf933e519bf" x="146.76702" y="98.607008" style="fill: #df8e1d; fill-opacity: 0.0625; stroke: #df8e1d; stroke-opacity: 0.0625; stroke-linejoin: miter"/>
     <use xlink:href="#mf933e519bf" x="146.76702" y="68.577432" style="fill: #df8e1d; fill-opacity: 0.0625; stroke: #df8e1d; stroke-opacity: 0.0625; stroke-linejoin: miter"/>
    </g>
   </g>
   <g id="patch_5">
    <path d="M 204.90616 90.719956 
L 215.017315 90.719956 
L 215.017315 83.765605 
L 204.90616 83.765605 
L 204.90616 90.719956 
z
" clip-path="url(#p87254f2b3a)" style="fill: #df8e1d; opacity: 0.1875; stroke: #df8e1d; stroke-linejoin: miter"/>
   </g>
   <g id="line2d_11">
    <path d="M 209.961737 90.719956 
L 209.961737 101.08457 
" clip-path="url(#p87254f2b3a)" style="fill: none; stroke: #df8e1d; stroke-opacity: 0.25; stroke-linecap: round"/>
   </g>
   <g id="line2d_12">
    <path d="M 209.961737 83.765605 
L 209.961737 74.43976 
" clip-path="url(#p87254f2b3a)" style="fill: none; stroke: #df8e1d; stroke-opacity: 0.25; stroke-linecap: round"/>
   </g>
   <g id="line2d_13">
    <path d="M 207.433949 101.08457 
L 212.489526 101.08457 
" clip-path="url(#p87254f2b3a)" style="fill: none; stroke: #df8e1d; stroke-opacity: 0.25; stroke-linecap: round"/>
   </g>
   <g id="line2d_14">
    <path d="M 207.433949 74.43976 
L 212.489526 74.43976 
" clip-path="url(#p87254f2b3a)" style="fill: none; stroke: #df8e1d; stroke-opacity: 0.25; stroke-linecap: round"/>
   </g>
   <g id="line2d_15">
    <g clip-path="url(#p87254f2b3a)">
     <use xlink:href="#mf933e519bf" x="209.961737" y="102.360168" style="fill: #df8e1d; fill-opacity: 0.0625; stroke: #df8e1d; stroke-opacity: 0.0625; stroke-linejoin: miter"/>
     <use xlink:href="#mf933e519bf" x="209.961737" y="109.540948" style="fill: #df8e1d; fill-opacity: 0.0625; stroke: #df8e1d; stroke-opacity: 0.0625; stroke-linejoin: miter"/>
     <use xlink:href="#mf933e519bf" x="209.961737" y="67.171364" style="fill: #df8e1d; fill-opacity: 0.0625; stroke: #df8e1d; stroke-opacity: 0.0625; stroke-linejoin: miter"/>
    </g>
   </g>
   <g id="patch_6">
    <path d="M 268.100877 94.63797 
L 278.212031 94.63797 
L 278.212031 87.514893 
L 268.100877 87.514893 
L 268.100877 94.63797 
z
" clip-path="url(#p87254f2b3a)" style="fill: #df8e1d; opacity: 0.1875; stroke: #df8e1d; stroke-linejoin: miter"/>
   </g>
   <g id="line2d_16">
    <path d="M 273.156454 94.63797 
L 273.156454 105.203731 
" clip-path="url(#p87254f2b3a)" style="fill: none; stroke: #df8e1d; stroke-opacity: 0.25; stroke-linecap: round"/>
   </g>
   <g id="line2d_17">
    <path d="M 273.156454 87.514893 
L 273.156454 78.65921 
" clip-path="url(#p87254f2b3a)" style="fill: none; stroke: #df8e1d; stroke-opacity: 0.25; stroke-linecap: round"/>
   </g>
   <g id="line2d_18">
    <path d="M 270.628665 105.203731 
L 275.684243 105.203731 
" clip-path="url(#p87254f2b3a)" style="fill: none; stroke: #df8e1d; stroke-opacity: 0.25; stroke-linecap: round"/>
   </g>
   <g id="line2d_19">
    <path d="M 270.628665 78.65921 
L 275.684243 78.65921 
" clip-path="url(#p87254f2b3a)" style="fill: none; stroke: #df8e1d; stroke-opacity: 0.25; stroke-linecap: round"/>
   </g>
   <g id="line2d_20">
    <g clip-path="url(#p87254f2b3a)">
     <use xlink:href="#mf933e519bf" x="273.156454" y="110.245502" style="fill: #df8e1d; fill-opacity: 0.0625; stroke: #df8e1d; stroke-opacity: 0.0625; stroke-linejoin: miter"/>
     <use xlink:href="#mf933e519bf" x="273.156454" y="105.791032" style="fill: #df8e1d; fill-opacity: 0.0625; stroke: #df8e1d; stroke-opacity: 0.0625; stroke-linejoin: miter"/>
     <use xlink:href="#mf933e519bf" x="273.156454" y="74.625027" style="fill: #df8e1d; fill-opacity: 0.0625; stroke: #df8e1d; stroke-opacity: 0.0625; stroke-linejoin: miter"/>
    </g>
   </g>
   <g id="patch_7">
    <path d="M 331.295593 98.029429 
L 341.406748 98.029429 
L 341.406748 90.127845 
L 331.295593 90.127845 
L 331.295593 98.029429 
z
" clip-path="url(#p87254f2b3a)" style="fill: #df8e1d; opacity: 0.1875; stroke: #df8e1d; stroke-linejoin: miter"/>
   </g>
   <g id="line2d_21">
    <path d="M 336.351171 98.029429 
L 336.351171 108.713092 
" clip-path="url(#p87254f2b3a)" style="fill: none; stroke: #df8e1d; stroke-opacity: 0.25; stroke-linecap: round"/>
   </g>
   <g id="line2d_22">
    <path d="M 336.351171 90.127845 
L 336.351171 80.14466 
" clip-path="url(#p87254f2b3a)" style="fill: none; stroke: #df8e1d; stroke-opacity: 0.25; stroke-linecap: round"/>
   </g>
   <g id="line2d_23">
    <path d="M 333.823382 108.713092 
L 338.878959 108.713092 
" clip-path="url(#p87254f2b3a)" style="fill: none; stroke: #df8e1d; stroke-opacity: 0.25; stroke-linecap: round"/>
   </g>
   <g id="line2d_24">
    <path d="M 333.823382 80.14466 
L 338.878959 80.14466 
" clip-path="url(#p87254f2b3a)" style="fill: none; stroke: #df8e1d; stroke-opacity: 0.25; stroke-linecap: round"/>
   </g>
   <g id="line2d_25">
    <g clip-path="url(#p87254f2b3a)">
     <use xlink:href="#mf933e519bf" x="336.351171" y="112.389438" style="fill: #df8e1d; fill-opacity: 0.0625; stroke: #df8e1d; stroke-opacity: 0.0625; stroke-linejoin: miter"/>
    </g>
   </g>
   <g id="patch_8">
    <path d="M 394.49031 100.356137 
L 404.601465 100.356137 
L 404.601465 89.241986 
L 394.49031 89.241986 
L 394.49031 100.356137 
z
" clip-path="url(#p87254f2b3a)" style="fill: #df8e1d; opacity: 0.1875; stroke: #df8e1d; stroke-linejoin: miter"/>
   </g>
   <g id="line2d_26">
    <path d="M 399.545888 100.356137 
L 399.545888 116.688795 
" clip-path="url(#p87254f2b3a)" style="fill: none; stroke: #df8e1d; stroke-opacity: 0.25; stroke-linecap: round"/>
   </g>
   <g id="line2d_27">
    <path d="M 399.545888 89.241986 
L 399.545888 74.618594 
" clip-path="url(#p87254f2b3a)" style="fill: none; stroke: #df8e1d; stroke-opacity: 0.25; stroke-linecap: round"/>
   </g>
   <g id="line2d_28">
    <path d="M 397.018099 116.688795 
L 402.073676 116.688795 
" clip-path="url(#p87254f2b3a)" style="fill: none; stroke: #df8e1d; stroke-opacity: 0.25; stroke-linecap: round"/>
   </g>
   <g id="line2d_29">
    <path d="M 397.018099 74.618594 
L 402.073676 74.618594 
" clip-path="url(#p87254f2b3a)" style="fill: none; stroke: #df8e1d; stroke-opacity: 0.25; stroke-linecap: round"/>
   </g>
   <g id="line2d_30">
    <g clip-path="url(#p87254f2b3a)">
     <use xlink:href="#mf933e519bf" x="399.545888" y="67.297174" style="fill: #df8e1d; fill-opacity: 0.0625; stroke: #df8e1d; stroke-opacity: 0.0625; stroke-linejoin: miter"/>
    </g>
   </g>
   <g id="patch_9">
    <path d="M 457.685027 103.216511 
L 467.796182 103.216511 
L 467.796182 95.121736 
L 457.685027 95.121736 
L 457.685027 103.216511 
z
" clip-path="url(#p87254f2b3a)" style="fill: #df8e1d; opacity: 0.1875; stroke: #df8e1d; stroke-linejoin: miter"/>
   </g>
   <g id="line2d_31">
    <path d="M 462.740604 103.216511 
L 462.740604 114.607745 
" clip-path="url(#p87254f2b3a)" style="fill: none; stroke: #df8e1d; stroke-opacity: 0.25; stroke-linecap: round"/>
   </g>
   <g id="line2d_32">
    <path d="M 462.740604 95.121736 
L 462.740604 85.697731 
" clip-path="url(#p87254f2b3a)" style="fill: none; stroke: #df8e1d; stroke-opacity: 0.25; stroke-linecap: round"/>
   </g>
   <g id="line2d_33">
    <path d="M 460.212816 114.607745 
L 465.268393 114.607745 
" clip-path="url(#p87254f2b3a)" style="fill: none; stroke: #df8e1d; stroke-opacity: 0.25; stroke-linecap: round"/>
   </g>
   <g id="line2d_34">
    <path d="M 460.212816 85.697731 
L 465.268393 85.697731 
" clip-path="url(#p87254f2b3a)" style="fill: none; stroke: #df8e1d; stroke-opacity: 0.25; stroke-linecap: round"/>
   </g>
   <g id="line2d_35">
    <g clip-path="url(#p87254f2b3a)">
     <use xlink:href="#mf933e519bf" x="462.740604" y="82.94" style="fill: #df8e1d; fill-opacity: 0.0625; stroke: #df8e1d; stroke-opacity: 0.0625; stroke-linejoin: miter"/>
    </g>
   </g>
   <g id="patch_10">
    <path d="M 520.879744 107.649257 
L 530.990899 107.649257 
L 530.990899 98.412914 
L 520.879744 98.412914 
L 520.879744 107.649257 
z
" clip-path="url(#p87254f2b3a)" style="fill: #df8e1d; opacity: 0.1875; stroke: #df8e1d; stroke-linejoin: miter"/>
   </g>
   <g id="line2d_36">
    <path d="M 525.935321 107.649257 
L 525.935321 121.186273 
" clip-path="url(#p87254f2b3a)" style="fill: none; stroke: #df8e1d; stroke-opacity: 0.25; stroke-linecap: round"/>
   </g>
   <g id="line2d_37">
    <path d="M 525.935321 98.412914 
L 525.935321 87.869095 
" clip-path="url(#p87254f2b3a)" style="fill: none; stroke: #df8e1d; stroke-opacity: 0.25; stroke-linecap: round"/>
   </g>
   <g id="line2d_38">
    <path d="M 523.407533 121.186273 
L 528.46311 121.186273 
" clip-path="url(#p87254f2b3a)" style="fill: none; stroke: #df8e1d; stroke-opacity: 0.25; stroke-linecap: round"/>
   </g>
   <g id="line2d_39">
    <path d="M 523.407533 87.869095 
L 528.46311 87.869095 
" clip-path="url(#p87254f2b3a)" style="fill: none; stroke: #df8e1d; stroke-opacity: 0.25; stroke-linecap: round"/>
   </g>
   <g id="line2d_40">
    <g clip-path="url(#p87254f2b3a)">
     <use xlink:href="#mf933e519bf" x="525.935321" y="123.482995" style="fill: #df8e1d; fill-opacity: 0.0625; stroke: #df8e1d; stroke-opacity: 0.0625; stroke-linejoin: miter"/>
     <use xlink:href="#mf933e519bf" x="525.935321" y="77.536741" style="fill: #df8e1d; fill-opacity: 0.0625; stroke: #df8e1d; stroke-opacity: 0.0625; stroke-linejoin: miter"/>
     <use xlink:href="#mf933e519bf" x="525.935321" y="82.737228" style="fill: #df8e1d; fill-opacity: 0.0625; stroke: #df8e1d; stroke-opacity: 0.0625; stroke-linejoin: miter"/>
     <use xlink:href="#mf933e519bf" x="525.935321" y="84.443102" style="fill: #df8e1d; fill-opacity: 0.0625; stroke: #df8e1d; stroke-opacity: 0.0625; stroke-linejoin: miter"/>
    </g>
   </g>
   <g id="patch_11">
    <path d="M 584.074461 109.540073 
L 594.185615 109.540073 
L 594.185615 101.236141 
L 584.074461 101.236141 
L 584.074461 109.540073 
z
" clip-path="url(#p87254f2b3a)" style="fill: #df8e1d; opacity: 0.1875; stroke: #df8e1d; stroke-linejoin: miter"/>
   </g>
   <g id="line2d_41">
    <path d="M 589.130038 109.540073 
L 589.130038 120.126466 
" clip-path="url(#p87254f2b3a)" style="fill: none; stroke: #df8e1d; stroke-opacity: 0.25; stroke-linecap: round"/>
   </g>
   <g id="line2d_42">
    <path d="M 589.130038 101.236141 
L 589.130038 91.618507 
" clip-path="url(#p87254f2b3a)" style="fill: none; stroke: #df8e1d; stroke-opacity: 0.25; stroke-linecap: round"/>
   </g>
   <g id="line2d_43">
    <path d="M 586.602249 120.126466 
L 591.657827 120.126466 
" clip-path="url(#p87254f2b3a)" style="fill: none; stroke: #df8e1d; stroke-opacity: 0.25; stroke-linecap: round"/>
   </g>
   <g id="line2d_44">
    <path d="M 586.602249 91.618507 
L 591.657827 91.618507 
" clip-path="url(#p87254f2b3a)" style="fill: none; stroke: #df8e1d; stroke-opacity: 0.25; stroke-linecap: round"/>
   </g>
   <g id="line2d_45">
    <g clip-path="url(#p87254f2b3a)">
     <use xlink:href="#mf933e519bf" x="589.130038" y="122.647149" style="fill: #df8e1d; fill-opacity: 0.0625; stroke: #df8e1d; stroke-opacity: 0.0625; stroke-linejoin: miter"/>
     <use xlink:href="#mf933e519bf" x="589.130038" y="129.722423" style="fill: #df8e1d; fill-opacity: 0.0625; stroke: #df8e1d; stroke-opacity: 0.0625; stroke-linejoin: miter"/>
     <use xlink:href="#mf933e519bf" x="589.130038" y="125.636902" style="fill: #df8e1d; fill-opacity: 0.0625; stroke: #df8e1d; stroke-opacity: 0.0625; stroke-linejoin: miter"/>
    </g>
   </g>
   <g id="patch_12">
    <path d="M 647.269178 113.047529 
L 657.380332 113.047529 
L 657.380332 104.008595 
L 647.269178 104.008595 
L 647.269178 113.047529 
z
" clip-path="url(#p87254f2b3a)" style="fill: #df8e1d; opacity: 0.1875; stroke: #df8e1d; stroke-linejoin: miter"/>
   </g>
   <g id="line2d_46">
    <path d="M 652.324755 113.047529 
L 652.324755 126.495188 
" clip-path="url(#p87254f2b3a)" style="fill: none; stroke: #df8e1d; stroke-opacity: 0.25; stroke-linecap: round"/>
   </g>
   <g id="line2d_47">
    <path d="M 652.324755 104.008595 
L 652.324755 94.061331 
" clip-path="url(#p87254f2b3a)" style="fill: none; stroke: #df8e1d; stroke-opacity: 0.25; stroke-linecap: round"/>
   </g>
   <g id="line2d_48">
    <path d="M 649.796966 126.495188 
L 654.852544 126.495188 
" clip-path="url(#p87254f2b3a)" style="fill: none; stroke: #df8e1d; stroke-opacity: 0.25; stroke-linecap: round"/>
   </g>
   <g id="line2d_49">
    <path d="M 649.796966 94.061331 
L 654.852544 94.061331 
" clip-path="url(#p87254f2b3a)" style="fill: none; stroke: #df8e1d; stroke-opacity: 0.25; stroke-linecap: round"/>
   </g>
   <g id="line2d_50"/>
   <g id="patch_13">
    <path d="M 91.15567 85.740077 
L 101.266824 85.740077 
L 101.266824 77.870767 
L 91.15567 77.870767 
L 91.15567 85.740077 
z
" clip-path="url(#p87254f2b3a)" style="fill: #fe640b; opacity: 0.1875; stroke: #fe640b; stroke-linejoin: miter"/>
   </g>
   <g id="line2d_51">
    <path d="M 96.211247 85.740077 
L 96.211247 88.134591 
" clip-path="url(#p87254f2b3a)" style="fill: none; stroke: #fe640b; stroke-opacity: 0.25; stroke-linecap: round"/>
   </g>
   <g id="line2d_52">
    <path d="M 96.211247 77.870767 
L 96.211247 73.391123 
" clip-path="url(#p87254f2b3a)" style="fill: none; stroke: #fe640b; stroke-opacity: 0.25; stroke-linecap: round"/>
   </g>
   <g id="line2d_53">
    <path d="M 93.683458 88.134591 
L 98.739036 88.134591 
" clip-path="url(#p87254f2b3a)" style="fill: none; stroke: #fe640b; stroke-opacity: 0.25; stroke-linecap: round"/>
   </g>
   <g id="line2d_54">
    <path d="M 93.683458 73.391123 
L 98.739036 73.391123 
" clip-path="url(#p87254f2b3a)" style="fill: none; stroke: #fe640b; stroke-opacity: 0.25; stroke-linecap: round"/>
   </g>
   <g id="line2d_55">
    <defs>
     <path id="m67f946f758" d="M -0 4.242641 
L 2.545584 0 
L 0 -4.242641 
L -2.545584 -0 
z
" style="stroke: #fe640b; stroke-opacity: 0.0625; stroke-linejoin: miter"/>
    </defs>
    <g clip-path="url(#p87254f2b3a)">
     <use xlink:href="#m67f946f758" x="96.211247" y="59.892546" style="fill: #fe640b; fill-opacity: 0.0625; stroke: #fe640b; stroke-opacity: 0.0625; stroke-linejoin: miter"/>
     <use xlink:href="#m67f946f758" x="96.211247" y="58.689443" style="fill: #fe640b; fill-opacity: 0.0625; stroke: #fe640b; stroke-opacity: 0.0625; stroke-linejoin: miter"/>
     <use xlink:href="#m67f946f758" x="96.211247" y="45.488153" style="fill: #fe640b; fill-opacity: 0.0625; stroke: #fe640b; stroke-opacity: 0.0625; stroke-linejoin: miter"/>
    </g>
   </g>
   <g id="patch_14">
    <path d="M 154.350386 87.182949 
L 164.461541 87.182949 
L 164.461541 81.271831 
L 154.350386 81.271831 
L 154.350386 87.182949 
z
" clip-path="url(#p87254f2b3a)" style="fill: #fe640b; opacity: 0.1875; stroke: #fe640b; stroke-linejoin: miter"/>
   </g>
   <g id="line2d_56">
    <path d="M 159.405964 87.182949 
L 159.405964 92.270632 
" clip-path="url(#p87254f2b3a)" style="fill: none; stroke: #fe640b; stroke-opacity: 0.25; stroke-linecap: round"/>
   </g>
   <g id="line2d_57">
    <path d="M 159.405964 81.271831 
L 159.405964 72.808348 
" clip-path="url(#p87254f2b3a)" style="fill: none; stroke: #fe640b; stroke-opacity: 0.25; stroke-linecap: round"/>
   </g>
   <g id="line2d_58">
    <path d="M 156.878175 92.270632 
L 161.933752 92.270632 
" clip-path="url(#p87254f2b3a)" style="fill: none; stroke: #fe640b; stroke-opacity: 0.25; stroke-linecap: round"/>
   </g>
   <g id="line2d_59">
    <path d="M 156.878175 72.808348 
L 161.933752 72.808348 
" clip-path="url(#p87254f2b3a)" style="fill: none; stroke: #fe640b; stroke-opacity: 0.25; stroke-linecap: round"/>
   </g>
   <g id="line2d_60">
    <g clip-path="url(#p87254f2b3a)">
     <use xlink:href="#m67f946f758" x="159.405964" y="97.955" style="fill: #fe640b; fill-opacity: 0.0625; stroke: #fe640b; stroke-opacity: 0.0625; stroke-linejoin: miter"/>
     <use xlink:href="#m67f946f758" x="159.405964" y="67.003171" style="fill: #fe640b; fill-opacity: 0.0625; stroke: #fe640b; stroke-opacity: 0.0625; stroke-linejoin: miter"/>
    </g>
   </g>
   <g id="patch_15">
    <path d="M 217.545103 91.833653 
L 227.656258 91.833653 
L 227.656258 84.412985 
L 217.545103 84.412985 
L 217.545103 91.833653 
z
" clip-path="url(#p87254f2b3a)" style="fill: #fe640b; opacity: 0.1875; stroke: #fe640b; stroke-linejoin: miter"/>
   </g>
   <g id="line2d_61">
    <path d="M 222.600681 91.833653 
L 222.600681 100.352108 
" clip-path="url(#p87254f2b3a)" style="fill: none; stroke: #fe640b; stroke-opacity: 0.25; stroke-linecap: round"/>
   </g>
   <g id="line2d_62">
    <path d="M 222.600681 84.412985 
L 222.600681 77.515901 
" clip-path="url(#p87254f2b3a)" style="fill: none; stroke: #fe640b; stroke-opacity: 0.25; stroke-linecap: round"/>
   </g>
   <g id="line2d_63">
    <path d="M 220.072892 100.352108 
L 225.128469 100.352108 
" clip-path="url(#p87254f2b3a)" style="fill: none; stroke: #fe640b; stroke-opacity: 0.25; stroke-linecap: round"/>
   </g>
   <g id="line2d_64">
    <path d="M 220.072892 77.515901 
L 225.128469 77.515901 
" clip-path="url(#p87254f2b3a)" style="fill: none; stroke: #fe640b; stroke-opacity: 0.25; stroke-linecap: round"/>
   </g>
   <g id="line2d_65">
    <g clip-path="url(#p87254f2b3a)">
     <use xlink:href="#m67f946f758" x="222.600681" y="107.170752" style="fill: #fe640b; fill-opacity: 0.0625; stroke: #fe640b; stroke-opacity: 0.0625; stroke-linejoin: miter"/>
     <use xlink:href="#m67f946f758" x="222.600681" y="103.612762" style="fill: #fe640b; fill-opacity: 0.0625; stroke: #fe640b; stroke-opacity: 0.0625; stroke-linejoin: miter"/>
     <use xlink:href="#m67f946f758" x="222.600681" y="70.212712" style="fill: #fe640b; fill-opacity: 0.0625; stroke: #fe640b; stroke-opacity: 0.0625; stroke-linejoin: miter"/>
     <use xlink:href="#m67f946f758" x="222.600681" y="68.858004" style="fill: #fe640b; fill-opacity: 0.0625; stroke: #fe640b; stroke-opacity: 0.0625; stroke-linejoin: miter"/>
     <use xlink:href="#m67f946f758" x="222.600681" y="57.34847" style="fill: #fe640b; fill-opacity: 0.0625; stroke: #fe640b; stroke-opacity: 0.0625; stroke-linejoin: miter"/>
     <use xlink:href="#m67f946f758" x="222.600681" y="62.116282" style="fill: #fe640b; fill-opacity: 0.0625; stroke: #fe640b; stroke-opacity: 0.0625; stroke-linejoin: miter"/>
    </g>
   </g>
   <g id="patch_16">
    <path d="M 280.73982 93.161278 
L 290.850975 93.161278 
L 290.850975 84.557033 
L 280.73982 84.557033 
L 280.73982 93.161278 
z
" clip-path="url(#p87254f2b3a)" style="fill: #fe640b; opacity: 0.1875; stroke: #fe640b; stroke-linejoin: miter"/>
   </g>
   <g id="line2d_66">
    <path d="M 285.795397 93.161278 
L 285.795397 101.402944 
" clip-path="url(#p87254f2b3a)" style="fill: none; stroke: #fe640b; stroke-opacity: 0.25; stroke-linecap: round"/>
   </g>
   <g id="line2d_67">
    <path d="M 285.795397 84.557033 
L 285.795397 75.614788 
" clip-path="url(#p87254f2b3a)" style="fill: none; stroke: #fe640b; stroke-opacity: 0.25; stroke-linecap: round"/>
   </g>
   <g id="line2d_68">
    <path d="M 283.267609 101.402944 
L 288.323186 101.402944 
" clip-path="url(#p87254f2b3a)" style="fill: none; stroke: #fe640b; stroke-opacity: 0.25; stroke-linecap: round"/>
   </g>
   <g id="line2d_69">
    <path d="M 283.267609 75.614788 
L 288.323186 75.614788 
" clip-path="url(#p87254f2b3a)" style="fill: none; stroke: #fe640b; stroke-opacity: 0.25; stroke-linecap: round"/>
   </g>
   <g id="line2d_70">
    <g clip-path="url(#p87254f2b3a)">
     <use xlink:href="#m67f946f758" x="285.795397" y="107.082712" style="fill: #fe640b; fill-opacity: 0.0625; stroke: #fe640b; stroke-opacity: 0.0625; stroke-linejoin: miter"/>
     <use xlink:href="#m67f946f758" x="285.795397" y="66.342114" style="fill: #fe640b; fill-opacity: 0.0625; stroke: #fe640b; stroke-opacity: 0.0625; stroke-linejoin: miter"/>
     <use xlink:href="#m67f946f758" x="285.795397" y="64.081457" style="fill: #fe640b; fill-opacity: 0.0625; stroke: #fe640b; stroke-opacity: 0.0625; stroke-linejoin: miter"/>
    </g>
   </g>
   <g id="patch_17">
    <path d="M 343.934537 93.12204 
L 354.045692 93.12204 
L 354.045692 85.449844 
L 343.934537 85.449844 
L 343.934537 93.12204 
z
" clip-path="url(#p87254f2b3a)" style="fill: #fe640b; opacity: 0.1875; stroke: #fe640b; stroke-linejoin: miter"/>
   </g>
   <g id="line2d_71">
    <path d="M 348.990114 93.12204 
L 348.990114 102.853152 
" clip-path="url(#p87254f2b3a)" style="fill: none; stroke: #fe640b; stroke-opacity: 0.25; stroke-linecap: round"/>
   </g>
   <g id="line2d_72">
    <path d="M 348.990114 85.449844 
L 348.990114 76.373944 
" clip-path="url(#p87254f2b3a)" style="fill: none; stroke: #fe640b; stroke-opacity: 0.25; stroke-linecap: round"/>
   </g>
   <g id="line2d_73">
    <path d="M 346.462325 102.853152 
L 351.517903 102.853152 
" clip-path="url(#p87254f2b3a)" style="fill: none; stroke: #fe640b; stroke-opacity: 0.25; stroke-linecap: round"/>
   </g>
   <g id="line2d_74">
    <path d="M 346.462325 76.373944 
L 351.517903 76.373944 
" clip-path="url(#p87254f2b3a)" style="fill: none; stroke: #fe640b; stroke-opacity: 0.25; stroke-linecap: round"/>
   </g>
   <g id="line2d_75">
    <g clip-path="url(#p87254f2b3a)">
     <use xlink:href="#m67f946f758" x="348.990114" y="107.25951" style="fill: #fe640b; fill-opacity: 0.0625; stroke: #fe640b; stroke-opacity: 0.0625; stroke-linejoin: miter"/>
     <use xlink:href="#m67f946f758" x="348.990114" y="71.032171" style="fill: #fe640b; fill-opacity: 0.0625; stroke: #fe640b; stroke-opacity: 0.0625; stroke-linejoin: miter"/>
     <use xlink:href="#m67f946f758" x="348.990114" y="70.792022" style="fill: #fe640b; fill-opacity: 0.0625; stroke: #fe640b; stroke-opacity: 0.0625; stroke-linejoin: miter"/>
    </g>
   </g>
   <g id="patch_18">
    <path d="M 407.129254 97.202235 
L 417.240408 97.202235 
L 417.240408 86.233042 
L 407.129254 86.233042 
L 407.129254 97.202235 
z
" clip-path="url(#p87254f2b3a)" style="fill: #fe640b; opacity: 0.1875; stroke: #fe640b; stroke-linejoin: miter"/>
   </g>
   <g id="line2d_76">
    <path d="M 412.184831 97.202235 
L 412.184831 112.833542 
" clip-path="url(#p87254f2b3a)" style="fill: none; stroke: #fe640b; stroke-opacity: 0.25; stroke-linecap: round"/>
   </g>
   <g id="line2d_77">
    <path d="M 412.184831 86.233042 
L 412.184831 76.689523 
" clip-path="url(#p87254f2b3a)" style="fill: none; stroke: #fe640b; stroke-opacity: 0.25; stroke-linecap: round"/>
   </g>
   <g id="line2d_78">
    <path d="M 409.657042 112.833542 
L 414.71262 112.833542 
" clip-path="url(#p87254f2b3a)" style="fill: none; stroke: #fe640b; stroke-opacity: 0.25; stroke-linecap: round"/>
   </g>
   <g id="line2d_79">
    <path d="M 409.657042 76.689523 
L 414.71262 76.689523 
" clip-path="url(#p87254f2b3a)" style="fill: none; stroke: #fe640b; stroke-opacity: 0.25; stroke-linecap: round"/>
   </g>
   <g id="line2d_80">
    <g clip-path="url(#p87254f2b3a)">
     <use xlink:href="#m67f946f758" x="412.184831" y="64.620238" style="fill: #fe640b; fill-opacity: 0.0625; stroke: #fe640b; stroke-opacity: 0.0625; stroke-linejoin: miter"/>
    </g>
   </g>
   <g id="patch_19">
    <path d="M 470.32397 100.646787 
L 480.435125 100.646787 
L 480.435125 89.335535 
L 470.32397 89.335535 
L 470.32397 100.646787 
z
" clip-path="url(#p87254f2b3a)" style="fill: #fe640b; opacity: 0.1875; stroke: #fe640b; stroke-linejoin: miter"/>
   </g>
   <g id="line2d_81">
    <path d="M 475.379548 100.646787 
L 475.379548 114.14604 
" clip-path="url(#p87254f2b3a)" style="fill: none; stroke: #fe640b; stroke-opacity: 0.25; stroke-linecap: round"/>
   </g>
   <g id="line2d_82">
    <path d="M 475.379548 89.335535 
L 475.379548 74.461232 
" clip-path="url(#p87254f2b3a)" style="fill: none; stroke: #fe640b; stroke-opacity: 0.25; stroke-linecap: round"/>
   </g>
   <g id="line2d_83">
    <path d="M 472.851759 114.14604 
L 477.907336 114.14604 
" clip-path="url(#p87254f2b3a)" style="fill: none; stroke: #fe640b; stroke-opacity: 0.25; stroke-linecap: round"/>
   </g>
   <g id="line2d_84">
    <path d="M 472.851759 74.461232 
L 477.907336 74.461232 
" clip-path="url(#p87254f2b3a)" style="fill: none; stroke: #fe640b; stroke-opacity: 0.25; stroke-linecap: round"/>
   </g>
   <g id="line2d_85">
    <g clip-path="url(#p87254f2b3a)">
     <use xlink:href="#m67f946f758" x="475.379548" y="70.913242" style="fill: #fe640b; fill-opacity: 0.0625; stroke: #fe640b; stroke-opacity: 0.0625; stroke-linejoin: miter"/>
    </g>
   </g>
   <g id="patch_20">
    <path d="M 533.518687 99.958893 
L 543.629842 99.958893 
L 543.629842 89.563866 
L 533.518687 89.563866 
L 533.518687 99.958893 
z
" clip-path="url(#p87254f2b3a)" style="fill: #fe640b; opacity: 0.1875; stroke: #fe640b; stroke-linejoin: miter"/>
   </g>
   <g id="line2d_86">
    <path d="M 538.574265 99.958893 
L 538.574265 113.169442 
" clip-path="url(#p87254f2b3a)" style="fill: none; stroke: #fe640b; stroke-opacity: 0.25; stroke-linecap: round"/>
   </g>
   <g id="line2d_87">
    <path d="M 538.574265 89.563866 
L 538.574265 76.089055 
" clip-path="url(#p87254f2b3a)" style="fill: none; stroke: #fe640b; stroke-opacity: 0.25; stroke-linecap: round"/>
   </g>
   <g id="line2d_88">
    <path d="M 536.046476 113.169442 
L 541.102053 113.169442 
" clip-path="url(#p87254f2b3a)" style="fill: none; stroke: #fe640b; stroke-opacity: 0.25; stroke-linecap: round"/>
   </g>
   <g id="line2d_89">
    <path d="M 536.046476 76.089055 
L 541.102053 76.089055 
" clip-path="url(#p87254f2b3a)" style="fill: none; stroke: #fe640b; stroke-opacity: 0.25; stroke-linecap: round"/>
   </g>
   <g id="line2d_90">
    <g clip-path="url(#p87254f2b3a)">
     <use xlink:href="#m67f946f758" x="538.574265" y="124.763364" style="fill: #fe640b; fill-opacity: 0.0625; stroke: #fe640b; stroke-opacity: 0.0625; stroke-linejoin: miter"/>
     <use xlink:href="#m67f946f758" x="538.574265" y="64.426966" style="fill: #fe640b; fill-opacity: 0.0625; stroke: #fe640b; stroke-opacity: 0.0625; stroke-linejoin: miter"/>
    </g>
   </g>
   <g id="patch_21">
    <path d="M 596.713404 102.398591 
L 606.824559 102.398591 
L 606.824559 89.663221 
L 596.713404 89.663221 
L 596.713404 102.398591 
z
" clip-path="url(#p87254f2b3a)" style="fill: #fe640b; opacity: 0.1875; stroke: #fe640b; stroke-linejoin: miter"/>
   </g>
   <g id="line2d_91">
    <path d="M 601.768981 102.398591 
L 601.768981 118.918273 
" clip-path="url(#p87254f2b3a)" style="fill: none; stroke: #fe640b; stroke-opacity: 0.25; stroke-linecap: round"/>
   </g>
   <g id="line2d_92">
    <path d="M 601.768981 89.663221 
L 601.768981 79.16849 
" clip-path="url(#p87254f2b3a)" style="fill: none; stroke: #fe640b; stroke-opacity: 0.25; stroke-linecap: round"/>
   </g>
   <g id="line2d_93">
    <path d="M 599.241193 118.918273 
L 604.29677 118.918273 
" clip-path="url(#p87254f2b3a)" style="fill: none; stroke: #fe640b; stroke-opacity: 0.25; stroke-linecap: round"/>
   </g>
   <g id="line2d_94">
    <path d="M 599.241193 79.16849 
L 604.29677 79.16849 
" clip-path="url(#p87254f2b3a)" style="fill: none; stroke: #fe640b; stroke-opacity: 0.25; stroke-linecap: round"/>
   </g>
   <g id="line2d_95">
    <g clip-path="url(#p87254f2b3a)">
     <use xlink:href="#m67f946f758" x="601.768981" y="123.004798" style="fill: #fe640b; fill-opacity: 0.0625; stroke: #fe640b; stroke-opacity: 0.0625; stroke-linejoin: miter"/>
     <use xlink:href="#m67f946f758" x="601.768981" y="62.886639" style="fill: #fe640b; fill-opacity: 0.0625; stroke: #fe640b; stroke-opacity: 0.0625; stroke-linejoin: miter"/>
    </g>
   </g>
   <g id="patch_22">
    <path d="M 659.908121 105.084472 
L 670.019276 105.084472 
L 670.019276 93.232527 
L 659.908121 93.232527 
L 659.908121 105.084472 
z
" clip-path="url(#p87254f2b3a)" style="fill: #fe640b; opacity: 0.1875; stroke: #fe640b; stroke-linejoin: miter"/>
   </g>
   <g id="line2d_96">
    <path d="M 664.963698 105.084472 
L 664.963698 121.337285 
" clip-path="url(#p87254f2b3a)" style="fill: none; stroke: #fe640b; stroke-opacity: 0.25; stroke-linecap: round"/>
   </g>
   <g id="line2d_97">
    <path d="M 664.963698 93.232527 
L 664.963698 79.09306 
" clip-path="url(#p87254f2b3a)" style="fill: none; stroke: #fe640b; stroke-opacity: 0.25; stroke-linecap: round"/>
   </g>
   <g id="line2d_98">
    <path d="M 662.43591 121.337285 
L 667.491487 121.337285 
" clip-path="url(#p87254f2b3a)" style="fill: none; stroke: #fe640b; stroke-opacity: 0.25; stroke-linecap: round"/>
   </g>
   <g id="line2d_99">
    <path d="M 662.43591 79.09306 
L 667.491487 79.09306 
" clip-path="url(#p87254f2b3a)" style="fill: none; stroke: #fe640b; stroke-opacity: 0.25; stroke-linecap: round"/>
   </g>
   <g id="line2d_100">
    <g clip-path="url(#p87254f2b3a)">
     <use xlink:href="#m67f946f758" x="664.963698" y="67.801926" style="fill: #fe640b; fill-opacity: 0.0625; stroke: #fe640b; stroke-opacity: 0.0625; stroke-linejoin: miter"/>
    </g>
   </g>
   <g id="patch_23">
    <path d="M 103.794613 72.432384 
L 113.905768 72.432384 
L 113.905768 58.999811 
L 103.794613 58.999811 
L 103.794613 72.432384 
z
" clip-path="url(#p87254f2b3a)" style="fill: #7287fd; opacity: 0.75; stroke: #7287fd; stroke-linejoin: miter"/>
   </g>
   <g id="line2d_101">
    <path d="M 108.85019 72.432384 
L 108.85019 80.961984 
" clip-path="url(#p87254f2b3a)" style="fill: none; stroke: #7287fd; stroke-linecap: round"/>
   </g>
   <g id="line2d_102">
    <path d="M 108.85019 58.999811 
L 108.85019 50.570422 
" clip-path="url(#p87254f2b3a)" style="fill: none; stroke: #7287fd; stroke-linecap: round"/>
   </g>
   <g id="line2d_103">
    <path d="M 106.322402 80.961984 
L 111.377979 80.961984 
" clip-path="url(#p87254f2b3a)" style="fill: none; stroke: #7287fd; stroke-linecap: round"/>
   </g>
   <g id="line2d_104">
    <path d="M 106.322402 50.570422 
L 111.377979 50.570422 
" clip-path="url(#p87254f2b3a)" style="fill: none; stroke: #7287fd; stroke-linecap: round"/>
   </g>
   <g id="line2d_105"/>
   <g id="patch_24">
    <path d="M 166.98933 81.510796 
L 177.100484 81.510796 
L 177.100484 72.446472 
L 166.98933 72.446472 
L 166.98933 81.510796 
z
" clip-path="url(#p87254f2b3a)" style="fill: #7287fd; opacity: 0.75; stroke: #7287fd; stroke-linejoin: miter"/>
   </g>
   <g id="line2d_106">
    <path d="M 172.044907 81.510796 
L 172.044907 91.331104 
" clip-path="url(#p87254f2b3a)" style="fill: none; stroke: #7287fd; stroke-linecap: round"/>
   </g>
   <g id="line2d_107">
    <path d="M 172.044907 72.446472 
L 172.044907 63.176148 
" clip-path="url(#p87254f2b3a)" style="fill: none; stroke: #7287fd; stroke-linecap: round"/>
   </g>
   <g id="line2d_108">
    <path d="M 169.517118 91.331104 
L 174.572696 91.331104 
" clip-path="url(#p87254f2b3a)" style="fill: none; stroke: #7287fd; stroke-linecap: round"/>
   </g>
   <g id="line2d_109">
    <path d="M 169.517118 63.176148 
L 174.572696 63.176148 
" clip-path="url(#p87254f2b3a)" style="fill: none; stroke: #7287fd; stroke-linecap: round"/>
   </g>
   <g id="line2d_110"/>
   <g id="patch_25">
    <path d="M 230.184047 87.963711 
L 240.295201 87.963711 
L 240.295201 78.205641 
L 230.184047 78.205641 
L 230.184047 87.963711 
z
" clip-path="url(#p87254f2b3a)" style="fill: #7287fd; opacity: 0.75; stroke: #7287fd; stroke-linejoin: miter"/>
   </g>
   <g id="line2d_111">
    <path d="M 235.239624 87.963711 
L 235.239624 100.937359 
" clip-path="url(#p87254f2b3a)" style="fill: none; stroke: #7287fd; stroke-linecap: round"/>
   </g>
   <g id="line2d_112">
    <path d="M 235.239624 78.205641 
L 235.239624 68.312595 
" clip-path="url(#p87254f2b3a)" style="fill: none; stroke: #7287fd; stroke-linecap: round"/>
   </g>
   <g id="line2d_113">
    <path d="M 232.711835 100.937359 
L 237.767413 100.937359 
" clip-path="url(#p87254f2b3a)" style="fill: none; stroke: #7287fd; stroke-linecap: round"/>
   </g>
   <g id="line2d_114">
    <path d="M 232.711835 68.312595 
L 237.767413 68.312595 
" clip-path="url(#p87254f2b3a)" style="fill: none; stroke: #7287fd; stroke-linecap: round"/>
   </g>
   <g id="line2d_115"/>
   <g id="patch_26">
    <path d="M 293.378763 88.261432 
L 303.489918 88.261432 
L 303.489918 80.282461 
L 293.378763 80.282461 
L 293.378763 88.261432 
z
" clip-path="url(#p87254f2b3a)" style="fill: #7287fd; opacity: 0.75; stroke: #7287fd; stroke-linejoin: miter"/>
   </g>
   <g id="line2d_116">
    <path d="M 298.434341 88.261432 
L 298.434341 99.189585 
" clip-path="url(#p87254f2b3a)" style="fill: none; stroke: #7287fd; stroke-linecap: round"/>
   </g>
   <g id="line2d_117">
    <path d="M 298.434341 80.282461 
L 298.434341 70.541535 
" clip-path="url(#p87254f2b3a)" style="fill: none; stroke: #7287fd; stroke-linecap: round"/>
   </g>
   <g id="line2d_118">
    <path d="M 295.906552 99.189585 
L 300.962129 99.189585 
" clip-path="url(#p87254f2b3a)" style="fill: none; stroke: #7287fd; stroke-linecap: round"/>
   </g>
   <g id="line2d_119">
    <path d="M 295.906552 70.541535 
L 300.962129 70.541535 
" clip-path="url(#p87254f2b3a)" style="fill: none; stroke: #7287fd; stroke-linecap: round"/>
   </g>
   <g id="line2d_120">
    <defs>
     <path id="m06a3fb3efd" d="M -0 4.242641 
L 2.545584 0 
L 0 -4.242641 
L -2.545584 -0 
z
" style="stroke: #7287fd; stroke-opacity: 0.25; stroke-linejoin: miter"/>
    </defs>
    <g clip-path="url(#p87254f2b3a)">
     <use xlink:href="#m06a3fb3efd" x="298.434341" y="104.547946" style="fill: #7287fd; fill-opacity: 0.25; stroke: #7287fd; stroke-opacity: 0.25; stroke-linejoin: miter"/>
    </g>
   </g>
   <g id="patch_27">
    <path d="M 356.57348 92.951856 
L 366.684635 92.951856 
L 366.684635 83.706393 
L 356.57348 83.706393 
L 356.57348 92.951856 
z
" clip-path="url(#p87254f2b3a)" style="fill: #7287fd; opacity: 0.75; stroke: #7287fd; stroke-linejoin: miter"/>
   </g>
   <g id="line2d_121">
    <path d="M 361.629058 92.951856 
L 361.629058 103.028409 
" clip-path="url(#p87254f2b3a)" style="fill: none; stroke: #7287fd; stroke-linecap: round"/>
   </g>
   <g id="line2d_122">
    <path d="M 361.629058 83.706393 
L 361.629058 72.897339 
" clip-path="url(#p87254f2b3a)" style="fill: none; stroke: #7287fd; stroke-linecap: round"/>
   </g>
   <g id="line2d_123">
    <path d="M 359.101269 103.028409 
L 364.156846 103.028409 
" clip-path="url(#p87254f2b3a)" style="fill: none; stroke: #7287fd; stroke-linecap: round"/>
   </g>
   <g id="line2d_124">
    <path d="M 359.101269 72.897339 
L 364.156846 72.897339 
" clip-path="url(#p87254f2b3a)" style="fill: none; stroke: #7287fd; stroke-linecap: round"/>
   </g>
   <g id="line2d_125"/>
   <g id="patch_28">
    <path d="M 419.768197 92.264954 
L 429.879352 92.264954 
L 429.879352 83.253743 
L 419.768197 83.253743 
L 419.768197 92.264954 
z
" clip-path="url(#p87254f2b3a)" style="fill: #7287fd; opacity: 0.75; stroke: #7287fd; stroke-linejoin: miter"/>
   </g>
   <g id="line2d_126">
    <path d="M 424.823774 92.264954 
L 424.823774 102.482622 
" clip-path="url(#p87254f2b3a)" style="fill: none; stroke: #7287fd; stroke-linecap: round"/>
   </g>
   <g id="line2d_127">
    <path d="M 424.823774 83.253743 
L 424.823774 70.58006 
" clip-path="url(#p87254f2b3a)" style="fill: none; stroke: #7287fd; stroke-linecap: round"/>
   </g>
   <g id="line2d_128">
    <path d="M 422.295986 102.482622 
L 427.351563 102.482622 
" clip-path="url(#p87254f2b3a)" style="fill: none; stroke: #7287fd; stroke-linecap: round"/>
   </g>
   <g id="line2d_129">
    <path d="M 422.295986 70.58006 
L 427.351563 70.58006 
" clip-path="url(#p87254f2b3a)" style="fill: none; stroke: #7287fd; stroke-linecap: round"/>
   </g>
   <g id="line2d_130"/>
   <g id="patch_29">
    <path d="M 482.962914 94.623695 
L 493.074069 94.623695 
L 493.074069 86.899249 
L 482.962914 86.899249 
L 482.962914 94.623695 
z
" clip-path="url(#p87254f2b3a)" style="fill: #7287fd; opacity: 0.75; stroke: #7287fd; stroke-linejoin: miter"/>
   </g>
   <g id="line2d_131">
    <path d="M 488.018491 94.623695 
L 488.018491 105.207327 
" clip-path="url(#p87254f2b3a)" style="fill: none; stroke: #7287fd; stroke-linecap: round"/>
   </g>
   <g id="line2d_132">
    <path d="M 488.018491 86.899249 
L 488.018491 77.121963 
" clip-path="url(#p87254f2b3a)" style="fill: none; stroke: #7287fd; stroke-linecap: round"/>
   </g>
   <g id="line2d_133">
    <path d="M 485.490702 105.207327 
L 490.54628 105.207327 
" clip-path="url(#p87254f2b3a)" style="fill: none; stroke: #7287fd; stroke-linecap: round"/>
   </g>
   <g id="line2d_134">
    <path d="M 485.490702 77.121963 
L 490.54628 77.121963 
" clip-path="url(#p87254f2b3a)" style="fill: none; stroke: #7287fd; stroke-linecap: round"/>
   </g>
   <g id="line2d_135">
    <g clip-path="url(#p87254f2b3a)">
     <use xlink:href="#m06a3fb3efd" x="488.018491" y="111.851324" style="fill: #7287fd; fill-opacity: 0.25; stroke: #7287fd; stroke-opacity: 0.25; stroke-linejoin: miter"/>
     <use xlink:href="#m06a3fb3efd" x="488.018491" y="72.93848" style="fill: #7287fd; fill-opacity: 0.25; stroke: #7287fd; stroke-opacity: 0.25; stroke-linejoin: miter"/>
     <use xlink:href="#m06a3fb3efd" x="488.018491" y="73.997568" style="fill: #7287fd; fill-opacity: 0.25; stroke: #7287fd; stroke-opacity: 0.25; stroke-linejoin: miter"/>
    </g>
   </g>
   <g id="patch_30">
    <path d="M 546.157631 97.315167 
L 556.268785 97.315167 
L 556.268785 87.680784 
L 546.157631 87.680784 
L 546.157631 97.315167 
z
" clip-path="url(#p87254f2b3a)" style="fill: #7287fd; opacity: 0.75; stroke: #7287fd; stroke-linejoin: miter"/>
   </g>
   <g id="line2d_136">
    <path d="M 551.213208 97.315167 
L 551.213208 110.849517 
" clip-path="url(#p87254f2b3a)" style="fill: none; stroke: #7287fd; stroke-linecap: round"/>
   </g>
   <g id="line2d_137">
    <path d="M 551.213208 87.680784 
L 551.213208 80.023577 
" clip-path="url(#p87254f2b3a)" style="fill: none; stroke: #7287fd; stroke-linecap: round"/>
   </g>
   <g id="line2d_138">
    <path d="M 548.685419 110.849517 
L 553.740997 110.849517 
" clip-path="url(#p87254f2b3a)" style="fill: none; stroke: #7287fd; stroke-linecap: round"/>
   </g>
   <g id="line2d_139">
    <path d="M 548.685419 80.023577 
L 553.740997 80.023577 
" clip-path="url(#p87254f2b3a)" style="fill: none; stroke: #7287fd; stroke-linecap: round"/>
   </g>
   <g id="line2d_140">
    <g clip-path="url(#p87254f2b3a)">
     <use xlink:href="#m06a3fb3efd" x="551.213208" y="70.563592" style="fill: #7287fd; fill-opacity: 0.25; stroke: #7287fd; stroke-opacity: 0.25; stroke-linejoin: miter"/>
    </g>
   </g>
   <g id="patch_31">
    <path d="M 609.352347 97.886879 
L 619.463502 97.886879 
L 619.463502 88.622352 
L 609.352347 88.622352 
L 609.352347 97.886879 
z
" clip-path="url(#p87254f2b3a)" style="fill: #7287fd; opacity: 0.75; stroke: #7287fd; stroke-linejoin: miter"/>
   </g>
   <g id="line2d_141">
    <path d="M 614.407925 97.886879 
L 614.407925 110.325191 
" clip-path="url(#p87254f2b3a)" style="fill: none; stroke: #7287fd; stroke-linecap: round"/>
   </g>
   <g id="line2d_142">
    <path d="M 614.407925 88.622352 
L 614.407925 78.544518 
" clip-path="url(#p87254f2b3a)" style="fill: none; stroke: #7287fd; stroke-linecap: round"/>
   </g>
   <g id="line2d_143">
    <path d="M 611.880136 110.325191 
L 616.935713 110.325191 
" clip-path="url(#p87254f2b3a)" style="fill: none; stroke: #7287fd; stroke-linecap: round"/>
   </g>
   <g id="line2d_144">
    <path d="M 611.880136 78.544518 
L 616.935713 78.544518 
" clip-path="url(#p87254f2b3a)" style="fill: none; stroke: #7287fd; stroke-linecap: round"/>
   </g>
   <g id="line2d_145"/>
   <g id="patch_32">
    <path d="M 672.547064 102.300293 
L 682.658219 102.300293 
L 682.658219 92.248636 
L 672.547064 92.248636 
L 672.547064 102.300293 
z
" clip-path="url(#p87254f2b3a)" style="fill: #7287fd; opacity: 0.75; stroke: #7287fd; stroke-linejoin: miter"/>
   </g>
   <g id="line2d_146">
    <path d="M 677.602642 102.300293 
L 677.602642 116.675033 
" clip-path="url(#p87254f2b3a)" style="fill: none; stroke: #7287fd; stroke-linecap: round"/>
   </g>
   <g id="line2d_147">
    <path d="M 677.602642 92.248636 
L 677.602642 80.085549 
" clip-path="url(#p87254f2b3a)" style="fill: none; stroke: #7287fd; stroke-linecap: round"/>
   </g>
   <g id="line2d_148">
    <path d="M 675.074853 116.675033 
L 680.13043 116.675033 
" clip-path="url(#p87254f2b3a)" style="fill: none; stroke: #7287fd; stroke-linecap: round"/>
   </g>
   <g id="line2d_149">
    <path d="M 675.074853 80.085549 
L 680.13043 80.085549 
" clip-path="url(#p87254f2b3a)" style="fill: none; stroke: #7287fd; stroke-linecap: round"/>
   </g>
   <g id="line2d_150">
    <g clip-path="url(#p87254f2b3a)">
     <use xlink:href="#m06a3fb3efd" x="677.602642" y="119.840212" style="fill: #7287fd; fill-opacity: 0.25; stroke: #7287fd; stroke-opacity: 0.25; stroke-linejoin: miter"/>
     <use xlink:href="#m06a3fb3efd" x="677.602642" y="117.899871" style="fill: #7287fd; fill-opacity: 0.25; stroke: #7287fd; stroke-opacity: 0.25; stroke-linejoin: miter"/>
     <use xlink:href="#m06a3fb3efd" x="677.602642" y="123.653971" style="fill: #7287fd; fill-opacity: 0.25; stroke: #7287fd; stroke-opacity: 0.25; stroke-linejoin: miter"/>
     <use xlink:href="#m06a3fb3efd" x="677.602642" y="120.085394" style="fill: #7287fd; fill-opacity: 0.25; stroke: #7287fd; stroke-opacity: 0.25; stroke-linejoin: miter"/>
    </g>
   </g>
   <g id="line2d_151">
    <path d="M 127.808605 174.717548 
L 127.808605 14.259249 
" clip-path="url(#p87254f2b3a)" style="fill: none; stroke: #ffffff; stroke-linecap: round"/>
   </g>
   <g id="line2d_152">
    <path d="M 191.003322 174.717548 
L 191.003322 14.259249 
" clip-path="url(#p87254f2b3a)" style="fill: none; stroke: #ffffff; stroke-linecap: round"/>
   </g>
   <g id="line2d_153">
    <path d="M 254.198039 174.717548 
L 254.198039 14.259249 
" clip-path="url(#p87254f2b3a)" style="fill: none; stroke: #ffffff; stroke-linecap: round"/>
   </g>
   <g id="line2d_154">
    <path d="M 317.392756 174.717548 
L 317.392756 14.259249 
" clip-path="url(#p87254f2b3a)" style="fill: none; stroke: #ffffff; stroke-linecap: round"/>
   </g>
   <g id="line2d_155">
    <path d="M 380.587473 174.717548 
L 380.587473 14.259249 
" clip-path="url(#p87254f2b3a)" style="fill: none; stroke: #ffffff; stroke-linecap: round"/>
   </g>
   <g id="line2d_156">
    <path d="M 443.782189 174.717548 
L 443.782189 14.259249 
" clip-path="url(#p87254f2b3a)" style="fill: none; stroke: #ffffff; stroke-linecap: round"/>
   </g>
   <g id="line2d_157">
    <path d="M 506.976906 174.717548 
L 506.976906 14.259249 
" clip-path="url(#p87254f2b3a)" style="fill: none; stroke: #ffffff; stroke-linecap: round"/>
   </g>
   <g id="line2d_158">
    <path d="M 570.171623 174.717548 
L 570.171623 14.259249 
" clip-path="url(#p87254f2b3a)" style="fill: none; stroke: #ffffff; stroke-linecap: round"/>
   </g>
   <g id="line2d_159">
    <path d="M 633.36634 174.717548 
L 633.36634 14.259249 
" clip-path="url(#p87254f2b3a)" style="fill: none; stroke: #ffffff; stroke-linecap: round"/>
   </g>
   <g id="line2d_160">
    <path d="M 78.516726 78.819993 
L 88.627881 78.819993 
" clip-path="url(#p87254f2b3a)" style="fill: none; stroke: #df8e1d; stroke-opacity: 0.25"/>
   </g>
   <g id="line2d_161">
    <path d="M 141.711443 84.770501 
L 151.822598 84.770501 
" clip-path="url(#p87254f2b3a)" style="fill: none; stroke: #df8e1d; stroke-opacity: 0.25"/>
   </g>
   <g id="line2d_162">
    <path d="M 204.90616 87.549555 
L 215.017315 87.549555 
" clip-path="url(#p87254f2b3a)" style="fill: none; stroke: #df8e1d; stroke-opacity: 0.25"/>
   </g>
   <g id="line2d_163">
    <path d="M 268.100877 91.387022 
L 278.212031 91.387022 
" clip-path="url(#p87254f2b3a)" style="fill: none; stroke: #df8e1d; stroke-opacity: 0.25"/>
   </g>
   <g id="line2d_164">
    <path d="M 331.295593 93.711122 
L 341.406748 93.711122 
" clip-path="url(#p87254f2b3a)" style="fill: none; stroke: #df8e1d; stroke-opacity: 0.25"/>
   </g>
   <g id="line2d_165">
    <path d="M 394.49031 95.218892 
L 404.601465 95.218892 
" clip-path="url(#p87254f2b3a)" style="fill: none; stroke: #df8e1d; stroke-opacity: 0.25"/>
   </g>
   <g id="line2d_166">
    <path d="M 457.685027 98.78802 
L 467.796182 98.78802 
" clip-path="url(#p87254f2b3a)" style="fill: none; stroke: #df8e1d; stroke-opacity: 0.25"/>
   </g>
   <g id="line2d_167">
    <path d="M 520.879744 103.676876 
L 530.990899 103.676876 
" clip-path="url(#p87254f2b3a)" style="fill: none; stroke: #df8e1d; stroke-opacity: 0.25"/>
   </g>
   <g id="line2d_168">
    <path d="M 584.074461 106.286355 
L 594.185615 106.286355 
" clip-path="url(#p87254f2b3a)" style="fill: none; stroke: #df8e1d; stroke-opacity: 0.25"/>
   </g>
   <g id="line2d_169">
    <path d="M 647.269178 109.097236 
L 657.380332 109.097236 
" clip-path="url(#p87254f2b3a)" style="fill: none; stroke: #df8e1d; stroke-opacity: 0.25"/>
   </g>
   <g id="line2d_170">
    <path d="M 91.15567 79.824831 
L 101.266824 79.824831 
" clip-path="url(#p87254f2b3a)" style="fill: none; stroke: #fe640b; stroke-opacity: 0.25"/>
   </g>
   <g id="line2d_171">
    <path d="M 154.350386 84.742752 
L 164.461541 84.742752 
" clip-path="url(#p87254f2b3a)" style="fill: none; stroke: #fe640b; stroke-opacity: 0.25"/>
   </g>
   <g id="line2d_172">
    <path d="M 217.545103 88.818833 
L 227.656258 88.818833 
" clip-path="url(#p87254f2b3a)" style="fill: none; stroke: #fe640b; stroke-opacity: 0.25"/>
   </g>
   <g id="line2d_173">
    <path d="M 280.73982 89.249753 
L 290.850975 89.249753 
" clip-path="url(#p87254f2b3a)" style="fill: none; stroke: #fe640b; stroke-opacity: 0.25"/>
   </g>
   <g id="line2d_174">
    <path d="M 343.934537 88.683273 
L 354.045692 88.683273 
" clip-path="url(#p87254f2b3a)" style="fill: none; stroke: #fe640b; stroke-opacity: 0.25"/>
   </g>
   <g id="line2d_175">
    <path d="M 407.129254 90.369006 
L 417.240408 90.369006 
" clip-path="url(#p87254f2b3a)" style="fill: none; stroke: #fe640b; stroke-opacity: 0.25"/>
   </g>
   <g id="line2d_176">
    <path d="M 470.32397 93.504117 
L 480.435125 93.504117 
" clip-path="url(#p87254f2b3a)" style="fill: none; stroke: #fe640b; stroke-opacity: 0.25"/>
   </g>
   <g id="line2d_177">
    <path d="M 533.518687 94.355834 
L 543.629842 94.355834 
" clip-path="url(#p87254f2b3a)" style="fill: none; stroke: #fe640b; stroke-opacity: 0.25"/>
   </g>
   <g id="line2d_178">
    <path d="M 596.713404 95.939251 
L 606.824559 95.939251 
" clip-path="url(#p87254f2b3a)" style="fill: none; stroke: #fe640b; stroke-opacity: 0.25"/>
   </g>
   <g id="line2d_179">
    <path d="M 659.908121 99.928834 
L 670.019276 99.928834 
" clip-path="url(#p87254f2b3a)" style="fill: none; stroke: #fe640b; stroke-opacity: 0.25"/>
   </g>
   <g id="line2d_180">
    <path d="M 103.794613 67.696026 
L 113.905768 67.696026 
" clip-path="url(#p87254f2b3a)" style="fill: none; stroke: #7287fd"/>
   </g>
   <g id="line2d_181">
    <path d="M 166.98933 76.282783 
L 177.100484 76.282783 
" clip-path="url(#p87254f2b3a)" style="fill: none; stroke: #7287fd"/>
   </g>
   <g id="line2d_182">
    <path d="M 230.184047 83.295901 
L 240.295201 83.295901 
" clip-path="url(#p87254f2b3a)" style="fill: none; stroke: #7287fd"/>
   </g>
   <g id="line2d_183">
    <path d="M 293.378763 83.770737 
L 303.489918 83.770737 
" clip-path="url(#p87254f2b3a)" style="fill: none; stroke: #7287fd"/>
   </g>
   <g id="line2d_184">
    <path d="M 356.57348 88.501746 
L 366.684635 88.501746 
" clip-path="url(#p87254f2b3a)" style="fill: none; stroke: #7287fd"/>
   </g>
   <g id="line2d_185">
    <path d="M 419.768197 88.164507 
L 429.879352 88.164507 
" clip-path="url(#p87254f2b3a)" style="fill: none; stroke: #7287fd"/>
   </g>
   <g id="line2d_186">
    <path d="M 482.962914 90.483908 
L 493.074069 90.483908 
" clip-path="url(#p87254f2b3a)" style="fill: none; stroke: #7287fd"/>
   </g>
   <g id="line2d_187">
    <path d="M 546.157631 92.147466 
L 556.268785 92.147466 
" clip-path="url(#p87254f2b3a)" style="fill: none; stroke: #7287fd"/>
   </g>
   <g id="line2d_188">
    <path d="M 609.352347 93.246738 
L 619.463502 93.246738 
" clip-path="url(#p87254f2b3a)" style="fill: none; stroke: #7287fd"/>
   </g>
   <g id="line2d_189">
    <path d="M 672.547064 96.272163 
L 682.658219 96.272163 
" clip-path="url(#p87254f2b3a)" style="fill: none; stroke: #7287fd"/>
   </g>
   <g id="patch_33">
    <path d="M 51.974945 174.717548 
L 51.974945 14.259249 
" style="fill: none; stroke: #ffffff; stroke-width: 0.8; stroke-linejoin: miter; stroke-linecap: square"/>
   </g>
   <g id="patch_34">
    <path d="M 709.2 174.717548 
L 709.2 14.259249 
" style="fill: none; stroke: #ffffff; stroke-width: 0.8; stroke-linejoin: miter; stroke-linecap: square"/>
   </g>
   <g id="patch_35">
    <path d="M 51.974945 174.717548 
L 709.2 174.717548 
" style="fill: none; stroke: #ffffff; stroke-width: 0.8; stroke-linejoin: miter; stroke-linecap: square"/>
   </g>
   <g id="patch_36">
    <path d="M 51.974945 14.259249 
L 709.2 14.259249 
" style="fill: none; stroke: #ffffff; stroke-width: 0.8; stroke-linejoin: miter; stroke-linecap: square"/>
   </g>
  </g>
 </g>
 <defs>
  <clipPath id="p87254f2b3a">
   <rect x="51.974945" y="14.259249" width="657.225055" height="160.458299"/>
  </clipPath>
 </defs>
</svg>
