<?xml version="1.0" encoding="utf-8" standalone="no"?>
<!DOCTYPE svg PUBLIC "-//W3C//DTD SVG 1.1//EN"
  "http://www.w3.org/Graphics/SVG/1.1/DTD/svg11.dtd">
<svg xmlns:xlink="http://www.w3.org/1999/xlink" width="288pt" height="144pt" viewBox="0 0 288 144" xmlns="http://www.w3.org/2000/svg" version="1.1">
 <metadata>
  <rdf:RDF xmlns:dc="http://purl.org/dc/elements/1.1/" xmlns:cc="http://creativecommons.org/ns#" xmlns:rdf="http://www.w3.org/1999/02/22-rdf-syntax-ns#">
   <cc:Work>
    <dc:type rdf:resource="http://purl.org/dc/dcmitype/StillImage"/>
    <dc:date>1980-01-01T00:00:00+00:00</dc:date>
    <dc:format>image/svg+xml</dc:format>
    <dc:creator>
     <cc:Agent>
      <dc:title>Matplotlib v3.8.4, https://matplotlib.org/</dc:title>
     </cc:Agent>
    </dc:creator>
   </cc:Work>
  </rdf:RDF>
 </metadata>
 <defs>
  <style type="text/css">*{stroke-linejoin: round; stroke-linecap: butt}</style>
 </defs>
 <g id="figure_1">
  <g id="patch_1">
   <path d="M 0 144 
L 288 144 
L 288 0 
L 0 0 
z
" style="fill: #ffffff"/>
  </g>
  <g id="axes_1">
   <g id="patch_2">
    <path d="M 49.25 114.104 
L 277.2 114.104 
L 277.2 10.8 
L 49.25 10.8 
z
" style="fill: #eff1f5"/>
   </g>
   <g id="matplotlib.axis_1">
    <g id="xtick_1">
     <g id="line2d_1">
      <path d="M 87.241667 114.104 
L 87.241667 10.8 
" clip-path="url(#p42965702fc)" style="fill: none; stroke: #ffffff; stroke-width: 0.8; stroke-linecap: round"/>
     </g>
     <g id="text_1">
      <!-- No Tracking -->
      <g style="fill: #4c4f69" transform="translate(60.80651 128.163375) scale(0.1 -0.1)">
       <defs>
        <path id="STIXTwoText-4e" d="M 3994 -51 
L 3782 -51 
L 1133 3373 
L 954 3373 
L 838 3622 
Q 717 3789 624 3872 
Q 531 3955 432 3984 
Q 333 4013 186 4013 
L 186 4205 
L 1274 4205 
L 3642 1114 
L 3674 1114 
L 3674 3187 
Q 3674 3488 3635 3667 
Q 3597 3846 3469 3929 
Q 3341 4013 3066 4013 
L 3066 4205 
L 4576 4205 
L 4576 4013 
Q 4333 4013 4205 3926 
Q 4077 3840 4035 3651 
Q 3994 3462 3994 3155 
L 3994 -51 
z
M 1683 0 
L 186 0 
L 186 192 
Q 442 192 570 246 
Q 698 301 742 467 
Q 787 634 787 954 
L 787 3821 
L 1101 3821 
L 1101 954 
Q 1101 634 1145 470 
Q 1190 307 1318 249 
Q 1446 192 1683 192 
L 1683 0 
z
" transform="scale(0.015625)"/>
        <path id="STIXTwoText-6f" d="M 1651 -64 
Q 979 -64 598 355 
Q 218 774 218 1549 
Q 218 2016 397 2365 
Q 576 2714 899 2909 
Q 1222 3104 1651 3104 
Q 2310 3104 2691 2694 
Q 3072 2285 3072 1574 
Q 3072 1037 2889 672 
Q 2707 307 2387 121 
Q 2067 -64 1651 -64 
z
M 1677 192 
Q 1939 192 2118 313 
Q 2298 435 2390 729 
Q 2483 1024 2483 1542 
Q 2483 2131 2268 2496 
Q 2054 2861 1626 2861 
Q 1261 2861 1037 2553 
Q 813 2246 813 1632 
Q 813 870 1040 528 
Q 1267 186 1677 192 
z
" transform="scale(0.015625)"/>
        <path id="STIXTwoText-20" transform="scale(0.015625)"/>
        <path id="STIXTwoText-54" d="M 2861 0 
L 1005 0 
L 1005 192 
Q 1274 192 1408 233 
Q 1542 275 1587 412 
Q 1632 550 1632 838 
L 1632 3917 
L 1222 3917 
Q 870 3917 694 3846 
Q 518 3776 441 3590 
Q 365 3405 294 3053 
L 96 3053 
L 166 4205 
L 3706 4205 
L 3757 3053 
L 3558 3053 
Q 3488 3405 3411 3590 
Q 3334 3776 3161 3846 
Q 2989 3917 2630 3917 
L 2227 3917 
L 2227 838 
Q 2227 550 2272 412 
Q 2317 275 2451 233 
Q 2586 192 2861 192 
L 2861 0 
z
" transform="scale(0.015625)"/>
        <path id="STIXTwoText-72" d="M 1786 0 
L 186 0 
L 186 186 
Q 397 186 496 221 
Q 595 256 624 349 
Q 653 442 653 621 
L 653 2381 
Q 653 2554 624 2640 
Q 595 2726 422 2726 
Q 326 2726 275 2720 
Q 224 2714 224 2714 
L 224 2893 
L 1018 3085 
L 1171 3085 
L 1171 2426 
L 1190 2426 
Q 1357 2662 1485 2816 
Q 1613 2970 1737 3046 
Q 1862 3123 2016 3123 
Q 2202 3123 2294 3027 
Q 2387 2931 2387 2765 
Q 2387 2586 2300 2502 
Q 2214 2419 2106 2419 
Q 2003 2419 1923 2473 
Q 1843 2528 1785 2582 
Q 1728 2637 1690 2637 
Q 1581 2637 1440 2470 
Q 1299 2304 1184 2112 
L 1184 653 
Q 1184 454 1235 352 
Q 1286 250 1417 218 
Q 1549 186 1786 186 
L 1786 0 
z
" transform="scale(0.015625)"/>
        <path id="STIXTwoText-61" d="M 1005 -45 
Q 634 -45 438 160 
Q 243 365 243 672 
Q 243 928 361 1104 
Q 480 1280 675 1401 
Q 870 1523 1097 1606 
Q 1325 1690 1542 1747 
Q 1760 1805 1926 1856 
L 1926 2138 
Q 1926 2554 1782 2730 
Q 1638 2906 1350 2906 
Q 1075 2906 998 2790 
Q 922 2675 922 2387 
Q 922 2240 848 2166 
Q 774 2093 640 2093 
Q 544 2093 457 2166 
Q 371 2240 371 2400 
Q 371 2579 508 2739 
Q 646 2899 899 3001 
Q 1152 3104 1498 3104 
Q 2022 3104 2240 2861 
Q 2458 2618 2458 2118 
L 2458 666 
Q 2458 467 2502 409 
Q 2547 352 2650 352 
Q 2739 352 2812 397 
Q 2886 442 2950 512 
L 3046 410 
Q 2886 179 2742 73 
Q 2598 -32 2355 -32 
Q 2131 -32 2064 96 
Q 1997 224 1965 461 
L 1926 538 
L 1926 1645 
Q 1638 1574 1382 1478 
Q 1126 1382 966 1228 
Q 806 1075 806 826 
Q 806 589 934 448 
Q 1062 307 1267 307 
Q 1434 307 1616 390 
Q 1798 474 1971 627 
L 2022 397 
L 1946 397 
Q 1798 269 1660 166 
Q 1523 64 1366 9 
Q 1210 -45 1005 -45 
z
" transform="scale(0.015625)"/>
        <path id="STIXTwoText-63" d="M 2611 947 
L 2733 858 
Q 2611 602 2454 390 
Q 2298 179 2067 57 
Q 1837 -64 1491 -64 
Q 1094 -64 806 128 
Q 518 320 364 662 
Q 211 1005 211 1446 
Q 211 1952 380 2323 
Q 550 2694 873 2899 
Q 1197 3104 1658 3104 
Q 2112 3104 2371 2905 
Q 2630 2707 2630 2426 
Q 2630 2285 2563 2211 
Q 2496 2138 2362 2138 
Q 2221 2138 2147 2211 
Q 2074 2285 2029 2393 
Q 1984 2502 1936 2611 
Q 1888 2720 1801 2793 
Q 1715 2867 1549 2867 
Q 1158 2867 937 2582 
Q 717 2298 717 1747 
Q 717 1165 957 790 
Q 1197 416 1690 416 
Q 2003 416 2198 544 
Q 2394 672 2611 947 
z
" transform="scale(0.015625)"/>
        <path id="STIXTwoText-6b" d="M 1645 0 
L 192 0 
L 192 186 
Q 480 186 560 266 
Q 640 346 640 608 
L 640 3808 
Q 640 4013 592 4073 
Q 544 4134 384 4134 
Q 320 4134 243 4128 
Q 166 4122 166 4122 
L 166 4294 
L 998 4518 
L 1171 4518 
L 1171 1696 
L 1210 1696 
L 2035 2515 
Q 2054 2534 2102 2588 
Q 2150 2643 2150 2720 
Q 2150 2784 2086 2809 
Q 2022 2835 1837 2835 
L 1837 3027 
L 3219 3027 
L 3219 2835 
Q 3066 2835 2947 2806 
Q 2829 2778 2707 2698 
Q 2586 2618 2410 2470 
Q 2234 2323 1965 2086 
L 1645 1824 
L 2771 557 
Q 2925 384 3024 304 
Q 3123 224 3219 205 
Q 3315 186 3450 186 
L 3450 0 
L 2035 0 
L 2035 186 
Q 2176 186 2230 202 
Q 2285 218 2285 262 
Q 2285 307 2262 348 
Q 2240 390 2214 416 
L 1210 1555 
L 1171 1555 
L 1171 582 
Q 1171 339 1257 262 
Q 1344 186 1645 186 
L 1645 0 
z
" transform="scale(0.015625)"/>
        <path id="STIXTwoText-69" d="M 1645 0 
L 205 0 
L 205 179 
Q 422 179 515 220 
Q 608 262 630 364 
Q 653 467 653 646 
L 653 2432 
Q 653 2637 582 2685 
Q 512 2733 371 2733 
Q 307 2733 259 2726 
Q 211 2720 211 2720 
L 211 2906 
L 1018 3085 
L 1184 3085 
L 1184 646 
Q 1184 461 1209 358 
Q 1235 256 1334 217 
Q 1434 179 1645 179 
L 1645 0 
z
M 928 3584 
Q 768 3584 665 3693 
Q 563 3802 563 3949 
Q 563 4096 662 4201 
Q 762 4307 928 4307 
Q 1094 4307 1193 4201 
Q 1293 4096 1293 3949 
Q 1293 3802 1193 3693 
Q 1094 3584 928 3584 
z
" transform="scale(0.015625)"/>
        <path id="STIXTwoText-6e" d="M 3552 0 
L 2074 0 
L 2074 179 
Q 2304 179 2403 220 
Q 2502 262 2524 364 
Q 2547 467 2547 646 
L 2547 1805 
Q 2547 2189 2460 2381 
Q 2374 2573 2240 2633 
Q 2106 2694 1958 2694 
Q 1773 2694 1625 2620 
Q 1478 2547 1360 2444 
Q 1242 2342 1139 2253 
L 1094 2566 
L 1190 2566 
Q 1453 2797 1686 2950 
Q 1920 3104 2221 3104 
Q 2656 3104 2867 2809 
Q 3078 2515 3078 1965 
L 3078 646 
Q 3078 467 3107 364 
Q 3136 262 3238 220 
Q 3341 179 3552 179 
L 3552 0 
z
M 1670 0 
L 205 0 
L 205 179 
Q 422 179 515 220 
Q 608 262 630 364 
Q 653 467 653 646 
L 653 2445 
Q 653 2618 582 2672 
Q 512 2726 384 2726 
Q 301 2726 256 2720 
Q 211 2714 211 2714 
L 211 2899 
L 1024 3085 
L 1171 3085 
L 1165 2496 
L 1184 2362 
L 1184 646 
Q 1184 467 1209 364 
Q 1235 262 1337 220 
Q 1440 179 1670 179 
L 1670 0 
z
" transform="scale(0.015625)"/>
        <path id="STIXTwoText-67" d="M 1222 -1504 
Q 806 -1504 566 -1401 
Q 326 -1299 230 -1136 
Q 134 -973 134 -800 
Q 134 -640 265 -464 
Q 397 -288 653 -38 
L 653 32 
L 845 -6 
Q 723 -211 678 -342 
Q 634 -474 634 -582 
Q 634 -858 870 -998 
Q 1107 -1139 1594 -1139 
Q 1971 -1139 2204 -1043 
Q 2438 -947 2544 -806 
Q 2650 -666 2650 -531 
Q 2650 -358 2538 -265 
Q 2426 -173 2253 -134 
Q 2080 -96 1888 -86 
Q 1696 -77 1536 -77 
Q 1248 -70 1101 -70 
Q 954 -70 890 -67 
Q 826 -64 774 -64 
L 710 -32 
Q 614 0 518 70 
Q 422 141 358 240 
Q 294 339 294 448 
Q 294 563 361 688 
Q 429 813 550 937 
Q 672 1062 819 1178 
L 819 1235 
L 986 1114 
Q 954 1082 909 998 
Q 864 915 832 822 
Q 800 730 800 666 
Q 800 570 867 515 
Q 934 461 1097 435 
Q 1261 410 1555 410 
Q 1958 410 2281 371 
Q 2605 333 2790 173 
Q 2976 13 2976 -352 
Q 2976 -672 2819 -893 
Q 2662 -1114 2403 -1248 
Q 2144 -1382 1833 -1443 
Q 1523 -1504 1222 -1504 
z
M 1517 998 
Q 1350 998 1206 1030 
Q 1062 1062 928 1107 
L 858 1171 
Q 691 1261 572 1382 
Q 454 1504 390 1673 
Q 326 1843 326 2061 
Q 326 2381 473 2614 
Q 621 2848 883 2976 
Q 1146 3104 1485 3104 
Q 1677 3104 1846 3069 
Q 2016 3034 2163 2963 
Q 2310 2893 2419 2797 
L 2419 2630 
Q 2490 2534 2570 2374 
Q 2650 2214 2650 1971 
Q 2650 1677 2506 1456 
Q 2362 1235 2109 1116 
Q 1856 998 1517 998 
z
M 1523 1222 
Q 1766 1222 1923 1388 
Q 2080 1555 2080 2010 
Q 2080 2400 1913 2637 
Q 1747 2874 1440 2874 
Q 1190 2874 1040 2682 
Q 890 2490 890 2086 
Q 890 1677 1050 1449 
Q 1210 1222 1523 1222 
z
M 3021 2989 
L 3021 2643 
L 2330 2662 
L 2106 2938 
L 3021 2989 
z
" transform="scale(0.015625)"/>
       </defs>
       <use xlink:href="#STIXTwoText-4e"/>
       <use xlink:href="#STIXTwoText-6f" x="74.199982"/>
       <use xlink:href="#STIXTwoText-20" x="125.599976"/>
       <use xlink:href="#STIXTwoText-54" x="149.09996"/>
       <use xlink:href="#STIXTwoText-72" x="209.399948"/>
       <use xlink:href="#STIXTwoText-61" x="247.399933"/>
       <use xlink:href="#STIXTwoText-63" x="295.399918"/>
       <use xlink:href="#STIXTwoText-6b" x="339.999908"/>
       <use xlink:href="#STIXTwoText-69" x="394.199905"/>
       <use xlink:href="#STIXTwoText-6e" x="422.69989"/>
       <use xlink:href="#STIXTwoText-67" x="480.299881"/>
      </g>
     </g>
    </g>
    <g id="xtick_2">
     <g id="line2d_2">
      <path d="M 163.225 114.104 
L 163.225 10.8 
" clip-path="url(#p42965702fc)" style="fill: none; stroke: #ffffff; stroke-width: 0.8; stroke-linecap: round"/>
     </g>
     <g id="text_2">
      <!-- $\sigma_t = 0.15$ -->
      <g style="fill: #4c4f69" transform="translate(145.875 128.163375) scale(0.1 -0.1)">
       <defs>
        <path id="STIXGeneral-Italic-3c3" d="M 3398 2739 
L 3283 2266 
L 2195 2266 
Q 2291 2112 2457 1981 
Q 2624 1850 2717 1725 
Q 2810 1600 2810 1389 
Q 2810 851 2288 390 
Q 1766 -70 1107 -70 
Q 659 -70 416 170 
Q 173 410 173 832 
Q 173 1274 409 1706 
Q 646 2138 1113 2438 
Q 1581 2739 2157 2739 
L 3398 2739 
z
M 2272 1414 
Q 2272 1709 2166 1939 
Q 2061 2170 1901 2266 
Q 1530 2266 1120 1770 
Q 710 1274 710 640 
Q 710 358 844 211 
Q 979 64 1210 64 
Q 1638 64 1955 525 
Q 2272 986 2272 1414 
z
" transform="scale(0.015625)"/>
        <path id="STIXGeneral-Italic-74" d="M 1894 2739 
L 1862 2534 
L 1325 2534 
L 768 435 
Q 755 384 755 346 
Q 755 243 851 243 
Q 928 243 1030 342 
Q 1133 442 1370 749 
L 1453 704 
Q 1158 256 969 93 
Q 781 -70 538 -70 
Q 243 -70 243 166 
Q 243 230 346 640 
L 845 2534 
L 365 2534 
L 358 2573 
Q 358 2688 570 2733 
Q 730 2771 992 2979 
Q 1254 3187 1421 3437 
Q 1459 3494 1510 3494 
Q 1568 3494 1568 3443 
Q 1568 3411 1562 3398 
L 1382 2739 
L 1894 2739 
z
" transform="scale(0.015625)"/>
        <path id="STIXGeneral-Regular-3d" d="M 4077 2048 
L 307 2048 
L 307 2470 
L 4077 2470 
L 4077 2048 
z
M 4077 768 
L 307 768 
L 307 1190 
L 4077 1190 
L 4077 768 
z
" transform="scale(0.015625)"/>
        <path id="STIXGeneral-Regular-30" d="M 3046 2112 
Q 3046 1683 2963 1302 
Q 2880 922 2717 602 
Q 2554 282 2266 96 
Q 1978 -90 1600 -90 
Q 1210 -90 915 108 
Q 621 307 461 640 
Q 301 973 227 1350 
Q 154 1728 154 2150 
Q 154 2746 301 3222 
Q 448 3699 790 4012 
Q 1133 4326 1626 4326 
Q 2253 4326 2649 3712 
Q 3046 3098 3046 2112 
z
M 2432 2080 
Q 2432 3091 2217 3625 
Q 2003 4160 1587 4160 
Q 1190 4160 979 3622 
Q 768 3085 768 2106 
Q 768 1120 979 598 
Q 1190 77 1600 77 
Q 2003 77 2217 598 
Q 2432 1120 2432 2080 
z
" transform="scale(0.015625)"/>
        <path id="STIXGeneral-Regular-2e" d="M 1158 275 
Q 1158 134 1052 32 
Q 947 -70 800 -70 
Q 653 -70 550 32 
Q 448 134 448 281 
Q 448 429 553 534 
Q 659 640 806 640 
Q 947 640 1052 531 
Q 1158 422 1158 275 
z
" transform="scale(0.015625)"/>
        <path id="STIXGeneral-Regular-31" d="M 2522 0 
L 755 0 
L 755 96 
Q 1107 115 1235 227 
Q 1363 339 1363 608 
L 1363 3482 
Q 1363 3795 1171 3795 
Q 1082 3795 883 3718 
L 710 3654 
L 710 3744 
L 1856 4326 
L 1914 4307 
L 1914 486 
Q 1914 275 2042 185 
Q 2170 96 2522 96 
L 2522 0 
z
" transform="scale(0.015625)"/>
        <path id="STIXGeneral-Regular-35" d="M 2803 4358 
L 2573 3814 
Q 2534 3731 2400 3731 
L 1158 3731 
L 902 3187 
Q 1606 3053 1920 2896 
Q 2234 2739 2502 2368 
Q 2726 2061 2726 1555 
Q 2726 1094 2576 780 
Q 2426 467 2099 224 
Q 1664 -90 1011 -90 
Q 646 -90 422 19 
Q 198 128 198 307 
Q 198 550 486 550 
Q 717 550 960 352 
Q 1210 147 1414 147 
Q 1747 147 2012 480 
Q 2278 813 2278 1229 
Q 2278 1843 1850 2189 
Q 1293 2637 486 2637 
Q 410 2637 410 2688 
L 416 2720 
L 1114 4237 
L 2438 4237 
Q 2547 4237 2608 4269 
Q 2669 4301 2746 4403 
L 2803 4358 
z
" transform="scale(0.015625)"/>
       </defs>
       <use xlink:href="#STIXGeneral-Italic-3c3" transform="translate(0 0.203125)"/>
       <use xlink:href="#STIXGeneral-Italic-74" transform="translate(49.799988 -13.025) scale(0.7)"/>
       <use xlink:href="#STIXGeneral-Regular-3d" transform="translate(88.109351 0.203125)"/>
       <use xlink:href="#STIXGeneral-Regular-30" transform="translate(171.049332 0.203125)"/>
       <use xlink:href="#STIXGeneral-Regular-2e" transform="translate(221.049316 0.203125)"/>
       <use xlink:href="#STIXGeneral-Regular-31" transform="translate(246.049301 0.203125)"/>
       <use xlink:href="#STIXGeneral-Regular-35" transform="translate(296.049286 0.203125)"/>
      </g>
     </g>
    </g>
    <g id="xtick_3">
     <g id="line2d_3">
      <path d="M 239.208333 114.104 
L 239.208333 10.8 
" clip-path="url(#p42965702fc)" style="fill: none; stroke: #ffffff; stroke-width: 0.8; stroke-linecap: round"/>
     </g>
     <g id="text_3">
      <!-- $\sigma_t = 0.5$ -->
      <g style="fill: #4c4f69" transform="translate(224.358333 128.163375) scale(0.1 -0.1)">
       <use xlink:href="#STIXGeneral-Italic-3c3" transform="translate(0 0.203125)"/>
       <use xlink:href="#STIXGeneral-Italic-74" transform="translate(49.799988 -13.025) scale(0.7)"/>
       <use xlink:href="#STIXGeneral-Regular-3d" transform="translate(88.109351 0.203125)"/>
       <use xlink:href="#STIXGeneral-Regular-30" transform="translate(171.049332 0.203125)"/>
       <use xlink:href="#STIXGeneral-Regular-2e" transform="translate(221.049316 0.203125)"/>
       <use xlink:href="#STIXGeneral-Regular-35" transform="translate(246.049301 0.203125)"/>
      </g>
     </g>
    </g>
   </g>
   <g id="matplotlib.axis_2">
    <g id="ytick_1">
     <g id="line2d_4">
      <path d="M 49.25 103.229895 
L 277.2 103.229895 
" clip-path="url(#p42965702fc)" style="fill: none; stroke: #ffffff; stroke-width: 0.8; stroke-linecap: round"/>
     </g>
     <g id="text_4">
      <!-- 0.0 -->
      <g style="fill: #4c4f69" transform="translate(24.25 106.879895) scale(0.1 -0.1)">
       <defs>
        <path id="JetBrainsMonoNFM-Regular-30" d="M 1920 -64 
Q 1274 -64 893 310 
Q 512 685 512 1312 
L 512 3360 
Q 512 3987 893 4361 
Q 1274 4736 1920 4736 
Q 2566 4736 2947 4361 
Q 3328 3987 3328 3360 
L 3328 1312 
Q 3328 896 3155 585 
Q 2982 275 2665 105 
Q 2349 -64 1920 -64 
z
M 1920 429 
Q 2304 429 2537 675 
Q 2771 922 2771 1312 
L 2771 3360 
Q 2771 3750 2537 3996 
Q 2304 4243 1920 4243 
Q 1536 4243 1302 3996 
Q 1069 3750 1069 3360 
L 1069 1312 
Q 1069 922 1302 675 
Q 1536 429 1920 429 
z
M 1920 1984 
Q 1747 1984 1641 2080 
Q 1536 2176 1536 2355 
Q 1536 2528 1641 2621 
Q 1747 2714 1920 2714 
Q 2093 2714 2198 2621 
Q 2304 2528 2304 2355 
Q 2304 2176 2198 2080 
Q 2093 1984 1920 1984 
z
" transform="scale(0.015625)"/>
        <path id="JetBrainsMonoNFM-Regular-2e" d="M 1920 -64 
Q 1683 -64 1539 77 
Q 1395 218 1395 442 
Q 1395 678 1539 825 
Q 1683 973 1920 973 
Q 2157 973 2301 825 
Q 2445 678 2445 442 
Q 2445 218 2301 77 
Q 2157 -64 1920 -64 
z
" transform="scale(0.015625)"/>
       </defs>
       <use xlink:href="#JetBrainsMonoNFM-Regular-30"/>
       <use xlink:href="#JetBrainsMonoNFM-Regular-2e" x="59.999985"/>
       <use xlink:href="#JetBrainsMonoNFM-Regular-30" x="119.999969"/>
      </g>
     </g>
    </g>
    <g id="ytick_2">
     <g id="line2d_5">
      <path d="M 49.25 76.044632 
L 277.2 76.044632 
" clip-path="url(#p42965702fc)" style="fill: none; stroke: #ffffff; stroke-width: 0.8; stroke-linecap: round"/>
     </g>
     <g id="text_5">
      <!-- 0.5 -->
      <g style="fill: #4c4f69" transform="translate(24.25 79.694632) scale(0.1 -0.1)">
       <defs>
        <path id="JetBrainsMonoNFM-Regular-35" d="M 1882 -64 
Q 1235 -64 857 297 
Q 480 659 480 1280 
L 1056 1280 
Q 1056 896 1280 672 
Q 1504 448 1888 448 
Q 2272 448 2496 672 
Q 2720 896 2720 1280 
L 2720 1568 
Q 2720 1952 2502 2176 
Q 2285 2400 1914 2400 
L 640 2400 
L 640 4672 
L 3130 4672 
L 3130 4147 
L 1178 4147 
L 1190 2925 
L 1946 2925 
Q 2592 2925 2944 2569 
Q 3296 2214 3296 1568 
L 3296 1280 
Q 3296 659 2915 297 
Q 2534 -64 1882 -64 
z
" transform="scale(0.015625)"/>
       </defs>
       <use xlink:href="#JetBrainsMonoNFM-Regular-30"/>
       <use xlink:href="#JetBrainsMonoNFM-Regular-2e" x="59.999985"/>
       <use xlink:href="#JetBrainsMonoNFM-Regular-35" x="119.999969"/>
      </g>
     </g>
    </g>
    <g id="ytick_3">
     <g id="line2d_6">
      <path d="M 49.25 48.859368 
L 277.2 48.859368 
" clip-path="url(#p42965702fc)" style="fill: none; stroke: #ffffff; stroke-width: 0.8; stroke-linecap: round"/>
     </g>
     <g id="text_6">
      <!-- 1.0 -->
      <g style="fill: #4c4f69" transform="translate(24.25 52.509368) scale(0.1 -0.1)">
       <defs>
        <path id="JetBrainsMonoNFM-Regular-31" d="M 576 0 
L 576 525 
L 1843 525 
L 1843 4173 
L 576 3226 
L 576 3885 
L 1632 4672 
L 2419 4672 
L 2419 525 
L 3456 525 
L 3456 0 
L 576 0 
z
" transform="scale(0.015625)"/>
       </defs>
       <use xlink:href="#JetBrainsMonoNFM-Regular-31"/>
       <use xlink:href="#JetBrainsMonoNFM-Regular-2e" x="59.999985"/>
       <use xlink:href="#JetBrainsMonoNFM-Regular-30" x="119.999969"/>
      </g>
     </g>
    </g>
    <g id="ytick_4">
     <g id="line2d_7">
      <path d="M 49.25 21.674105 
L 277.2 21.674105 
" clip-path="url(#p42965702fc)" style="fill: none; stroke: #ffffff; stroke-width: 0.8; stroke-linecap: round"/>
     </g>
     <g id="text_7">
      <!-- 1.5 -->
      <g style="fill: #4c4f69" transform="translate(24.25 25.324105) scale(0.1 -0.1)">
       <use xlink:href="#JetBrainsMonoNFM-Regular-31"/>
       <use xlink:href="#JetBrainsMonoNFM-Regular-2e" x="59.999985"/>
       <use xlink:href="#JetBrainsMonoNFM-Regular-35" x="119.999969"/>
      </g>
     </g>
    </g>
    <g id="text_8">
     <!-- RMSE -->
     <g style="fill: #4c4f69" transform="translate(18.05 75.872312) rotate(-90) scale(0.1 -0.1)">
      <defs>
       <path id="STIXTwoText-52" d="M 2074 0 
L 275 0 
L 275 192 
Q 518 192 640 230 
Q 762 269 803 397 
Q 845 525 845 794 
L 845 3539 
Q 845 3718 809 3820 
Q 774 3923 652 3968 
Q 531 4013 275 4013 
L 275 4205 
L 1850 4205 
Q 2330 4205 2704 4112 
Q 3078 4019 3289 3792 
Q 3501 3565 3501 3155 
Q 3501 2797 3337 2573 
Q 3174 2349 2928 2224 
Q 2682 2099 2419 2035 
L 2419 2010 
Q 2528 1946 2665 1789 
Q 2803 1632 3020 1328 
Q 3238 1024 3590 518 
Q 3744 307 3888 249 
Q 4032 192 4250 192 
L 4250 0 
L 3194 0 
Q 2931 397 2755 662 
Q 2579 928 2457 1110 
Q 2336 1293 2240 1433 
Q 2144 1574 2048 1715 
Q 1952 1862 1872 1894 
Q 1792 1926 1619 1926 
L 1440 1926 
L 1440 794 
Q 1440 531 1485 400 
Q 1530 269 1664 230 
Q 1798 192 2074 192 
L 2074 0 
z
M 1440 2176 
L 1683 2170 
Q 2035 2189 2297 2285 
Q 2560 2381 2707 2585 
Q 2854 2790 2854 3130 
Q 2854 3514 2617 3734 
Q 2381 3955 1862 3955 
Q 1760 3955 1651 3952 
Q 1542 3949 1440 3936 
L 1440 2176 
z
" transform="scale(0.015625)"/>
       <path id="STIXTwoText-4d" d="M 1683 0 
L 179 0 
L 179 192 
Q 442 192 570 240 
Q 698 288 742 448 
Q 787 608 787 934 
L 787 3424 
Q 787 3667 742 3792 
Q 698 3917 573 3965 
Q 448 4013 192 4013 
L 192 4205 
L 1498 4205 
L 2848 986 
L 2874 986 
L 4218 4205 
L 5434 4205 
L 5434 4013 
Q 5210 4013 5088 3965 
Q 4966 3917 4921 3792 
Q 4877 3667 4877 3430 
L 4877 762 
Q 4877 531 4921 406 
Q 4966 282 5088 237 
Q 5210 192 5440 192 
L 5440 0 
L 3738 0 
L 3738 192 
Q 3987 192 4108 237 
Q 4230 282 4268 406 
Q 4307 531 4307 762 
L 4307 3520 
L 4282 3520 
L 2790 0 
L 2637 0 
L 1126 3514 
L 1101 3514 
L 1101 934 
Q 1101 608 1145 448 
Q 1190 288 1315 240 
Q 1440 192 1683 192 
L 1683 0 
z
" transform="scale(0.015625)"/>
       <path id="STIXTwoText-53" d="M 480 -96 
L 282 -96 
L 224 1286 
L 422 1286 
Q 538 845 691 611 
Q 845 378 1072 291 
Q 1299 205 1626 205 
Q 1869 205 2041 272 
Q 2214 339 2310 489 
Q 2406 640 2406 883 
Q 2406 1165 2249 1350 
Q 2093 1536 1849 1680 
Q 1606 1824 1344 1971 
Q 1088 2118 851 2284 
Q 614 2451 464 2681 
Q 314 2912 314 3245 
Q 314 3584 480 3811 
Q 646 4038 921 4160 
Q 1197 4282 1530 4282 
Q 1824 4282 1984 4234 
Q 2144 4186 2237 4134 
Q 2330 4083 2406 4083 
Q 2483 4083 2531 4124 
Q 2579 4166 2605 4269 
L 2771 4269 
L 2816 2989 
L 2624 2989 
Q 2490 3520 2266 3776 
Q 2042 4032 1555 4026 
Q 1229 4026 1049 3875 
Q 870 3725 870 3424 
Q 870 3187 1004 3017 
Q 1139 2848 1356 2713 
Q 1574 2579 1811 2438 
Q 2022 2317 2236 2195 
Q 2451 2074 2627 1920 
Q 2803 1766 2908 1561 
Q 3014 1357 3014 1069 
Q 3014 698 2844 442 
Q 2675 186 2380 54 
Q 2086 -77 1715 -77 
Q 1382 -77 1174 -29 
Q 966 19 848 67 
Q 730 115 653 115 
Q 589 115 537 57 
Q 486 0 480 -96 
z
" transform="scale(0.015625)"/>
       <path id="STIXTwoText-45" d="M 3648 0 
L 230 0 
L 230 192 
Q 493 192 624 227 
Q 755 262 803 384 
Q 851 506 851 755 
L 851 3424 
Q 851 3667 803 3795 
Q 755 3923 624 3968 
Q 493 4013 230 4013 
L 230 4205 
L 3590 4205 
L 3629 3155 
L 3424 3155 
Q 3379 3475 3286 3638 
Q 3194 3802 2986 3859 
Q 2778 3917 2381 3917 
L 1440 3917 
L 1440 2291 
L 2189 2291 
Q 2483 2291 2636 2342 
Q 2790 2394 2848 2534 
Q 2906 2675 2906 2931 
L 3110 2931 
L 3110 1446 
L 2906 1446 
Q 2906 1709 2848 1837 
Q 2790 1965 2636 2003 
Q 2483 2042 2189 2042 
L 1440 2042 
L 1440 282 
L 2266 282 
Q 2637 282 2864 317 
Q 3091 352 3222 448 
Q 3354 544 3440 723 
Q 3526 902 3622 1190 
L 3827 1190 
L 3648 0 
z
" transform="scale(0.015625)"/>
      </defs>
      <use xlink:href="#STIXTwoText-52"/>
      <use xlink:href="#STIXTwoText-4d" x="65.899994"/>
      <use xlink:href="#STIXTwoText-53" x="155.399979"/>
      <use xlink:href="#STIXTwoText-45" x="205.799973"/>
     </g>
    </g>
   </g>
   <g id="patch_3">
    <path d="M 68.245833 54.393849 
L 106.2375 54.393849 
L 106.2375 40.527702 
L 68.245833 40.527702 
L 68.245833 54.393849 
z
" clip-path="url(#p42965702fc)" style="fill: #7287fd; opacity: 0.75; stroke: #7287fd; stroke-linejoin: miter"/>
   </g>
   <g id="line2d_8">
    <path d="M 87.241667 54.393849 
L 87.241667 74.490316 
" clip-path="url(#p42965702fc)" style="fill: none; stroke: #7287fd; stroke-linecap: round"/>
   </g>
   <g id="line2d_9">
    <path d="M 87.241667 40.527702 
L 87.241667 23.582671 
" clip-path="url(#p42965702fc)" style="fill: none; stroke: #7287fd; stroke-linecap: round"/>
   </g>
   <g id="line2d_10">
    <path d="M 77.74375 74.490316 
L 96.739583 74.490316 
" clip-path="url(#p42965702fc)" style="fill: none; stroke: #7287fd; stroke-linecap: round"/>
   </g>
   <g id="line2d_11">
    <path d="M 77.74375 23.582671 
L 96.739583 23.582671 
" clip-path="url(#p42965702fc)" style="fill: none; stroke: #7287fd; stroke-linecap: round"/>
   </g>
   <g id="line2d_12">
    <defs>
     <path id="mdd4b81de8b" d="M -0 4.242641 
L 2.545584 0 
L 0 -4.242641 
L -2.545584 -0 
z
" style="stroke: #7287fd; stroke-opacity: 0.25; stroke-linejoin: miter"/>
    </defs>
    <g clip-path="url(#p42965702fc)">
     <use xlink:href="#mdd4b81de8b" x="87.241667" y="97.252371" style="fill: #7287fd; fill-opacity: 0.25; stroke: #7287fd; stroke-opacity: 0.25; stroke-linejoin: miter"/>
     <use xlink:href="#mdd4b81de8b" x="87.241667" y="78.787012" style="fill: #7287fd; fill-opacity: 0.25; stroke: #7287fd; stroke-opacity: 0.25; stroke-linejoin: miter"/>
     <use xlink:href="#mdd4b81de8b" x="87.241667" y="77.689923" style="fill: #7287fd; fill-opacity: 0.25; stroke: #7287fd; stroke-opacity: 0.25; stroke-linejoin: miter"/>
     <use xlink:href="#mdd4b81de8b" x="87.241667" y="97.931375" style="fill: #7287fd; fill-opacity: 0.25; stroke: #7287fd; stroke-opacity: 0.25; stroke-linejoin: miter"/>
     <use xlink:href="#mdd4b81de8b" x="87.241667" y="90.324129" style="fill: #7287fd; fill-opacity: 0.25; stroke: #7287fd; stroke-opacity: 0.25; stroke-linejoin: miter"/>
     <use xlink:href="#mdd4b81de8b" x="87.241667" y="82.902493" style="fill: #7287fd; fill-opacity: 0.25; stroke: #7287fd; stroke-opacity: 0.25; stroke-linejoin: miter"/>
     <use xlink:href="#mdd4b81de8b" x="87.241667" y="85.604041" style="fill: #7287fd; fill-opacity: 0.25; stroke: #7287fd; stroke-opacity: 0.25; stroke-linejoin: miter"/>
     <use xlink:href="#mdd4b81de8b" x="87.241667" y="76.93183" style="fill: #7287fd; fill-opacity: 0.25; stroke: #7287fd; stroke-opacity: 0.25; stroke-linejoin: miter"/>
     <use xlink:href="#mdd4b81de8b" x="87.241667" y="101.862315" style="fill: #7287fd; fill-opacity: 0.25; stroke: #7287fd; stroke-opacity: 0.25; stroke-linejoin: miter"/>
     <use xlink:href="#mdd4b81de8b" x="87.241667" y="91.921037" style="fill: #7287fd; fill-opacity: 0.25; stroke: #7287fd; stroke-opacity: 0.25; stroke-linejoin: miter"/>
     <use xlink:href="#mdd4b81de8b" x="87.241667" y="76.133158" style="fill: #7287fd; fill-opacity: 0.25; stroke: #7287fd; stroke-opacity: 0.25; stroke-linejoin: miter"/>
     <use xlink:href="#mdd4b81de8b" x="87.241667" y="90.427676" style="fill: #7287fd; fill-opacity: 0.25; stroke: #7287fd; stroke-opacity: 0.25; stroke-linejoin: miter"/>
     <use xlink:href="#mdd4b81de8b" x="87.241667" y="83.832525" style="fill: #7287fd; fill-opacity: 0.25; stroke: #7287fd; stroke-opacity: 0.25; stroke-linejoin: miter"/>
     <use xlink:href="#mdd4b81de8b" x="87.241667" y="103.229891" style="fill: #7287fd; fill-opacity: 0.25; stroke: #7287fd; stroke-opacity: 0.25; stroke-linejoin: miter"/>
     <use xlink:href="#mdd4b81de8b" x="87.241667" y="93.29494" style="fill: #7287fd; fill-opacity: 0.25; stroke: #7287fd; stroke-opacity: 0.25; stroke-linejoin: miter"/>
     <use xlink:href="#mdd4b81de8b" x="87.241667" y="75.59434" style="fill: #7287fd; fill-opacity: 0.25; stroke: #7287fd; stroke-opacity: 0.25; stroke-linejoin: miter"/>
     <use xlink:href="#mdd4b81de8b" x="87.241667" y="85.786159" style="fill: #7287fd; fill-opacity: 0.25; stroke: #7287fd; stroke-opacity: 0.25; stroke-linejoin: miter"/>
     <use xlink:href="#mdd4b81de8b" x="87.241667" y="103.229891" style="fill: #7287fd; fill-opacity: 0.25; stroke: #7287fd; stroke-opacity: 0.25; stroke-linejoin: miter"/>
     <use xlink:href="#mdd4b81de8b" x="87.241667" y="103.229891" style="fill: #7287fd; fill-opacity: 0.25; stroke: #7287fd; stroke-opacity: 0.25; stroke-linejoin: miter"/>
     <use xlink:href="#mdd4b81de8b" x="87.241667" y="76.347354" style="fill: #7287fd; fill-opacity: 0.25; stroke: #7287fd; stroke-opacity: 0.25; stroke-linejoin: miter"/>
    </g>
   </g>
   <g id="patch_4">
    <path d="M 144.229167 65.436969 
L 182.220833 65.436969 
L 182.220833 46.392763 
L 144.229167 46.392763 
L 144.229167 65.436969 
z
" clip-path="url(#p42965702fc)" style="fill: #179299; opacity: 0.75; stroke: #179299; stroke-linejoin: miter"/>
   </g>
   <g id="line2d_13">
    <path d="M 163.225 65.436969 
L 163.225 93.53197 
" clip-path="url(#p42965702fc)" style="fill: none; stroke: #179299; stroke-linecap: round"/>
   </g>
   <g id="line2d_14">
    <path d="M 163.225 46.392763 
L 163.225 23.582671 
" clip-path="url(#p42965702fc)" style="fill: none; stroke: #179299; stroke-linecap: round"/>
   </g>
   <g id="line2d_15">
    <path d="M 153.727083 93.53197 
L 172.722917 93.53197 
" clip-path="url(#p42965702fc)" style="fill: none; stroke: #179299; stroke-linecap: round"/>
   </g>
   <g id="line2d_16">
    <path d="M 153.727083 23.582671 
L 172.722917 23.582671 
" clip-path="url(#p42965702fc)" style="fill: none; stroke: #179299; stroke-linecap: round"/>
   </g>
   <g id="line2d_17">
    <defs>
     <path id="m544b406f20" d="M -0 4.242641 
L 2.545584 0 
L 0 -4.242641 
L -2.545584 -0 
z
" style="stroke: #179299; stroke-opacity: 0.25; stroke-linejoin: miter"/>
    </defs>
    <g clip-path="url(#p42965702fc)">
     <use xlink:href="#m544b406f20" x="163.225" y="97.252371" style="fill: #179299; fill-opacity: 0.25; stroke: #179299; stroke-opacity: 0.25; stroke-linejoin: miter"/>
     <use xlink:href="#m544b406f20" x="163.225" y="103.229891" style="fill: #179299; fill-opacity: 0.25; stroke: #179299; stroke-opacity: 0.25; stroke-linejoin: miter"/>
     <use xlink:href="#m544b406f20" x="163.225" y="97.931375" style="fill: #179299; fill-opacity: 0.25; stroke: #179299; stroke-opacity: 0.25; stroke-linejoin: miter"/>
     <use xlink:href="#m544b406f20" x="163.225" y="101.862315" style="fill: #179299; fill-opacity: 0.25; stroke: #179299; stroke-opacity: 0.25; stroke-linejoin: miter"/>
     <use xlink:href="#m544b406f20" x="163.225" y="103.229891" style="fill: #179299; fill-opacity: 0.25; stroke: #179299; stroke-opacity: 0.25; stroke-linejoin: miter"/>
     <use xlink:href="#m544b406f20" x="163.225" y="103.229891" style="fill: #179299; fill-opacity: 0.25; stroke: #179299; stroke-opacity: 0.25; stroke-linejoin: miter"/>
     <use xlink:href="#m544b406f20" x="163.225" y="103.229891" style="fill: #179299; fill-opacity: 0.25; stroke: #179299; stroke-opacity: 0.25; stroke-linejoin: miter"/>
    </g>
   </g>
   <g id="patch_5">
    <path d="M 220.2125 54.88268 
L 258.204167 54.88268 
L 258.204167 41.680798 
L 220.2125 41.680798 
L 220.2125 54.88268 
z
" clip-path="url(#p42965702fc)" style="fill: #40a02b; opacity: 0.75; stroke: #40a02b; stroke-linejoin: miter"/>
   </g>
   <g id="line2d_18">
    <path d="M 239.208333 54.88268 
L 239.208333 74.073281 
" clip-path="url(#p42965702fc)" style="fill: none; stroke: #40a02b; stroke-linecap: round"/>
   </g>
   <g id="line2d_19">
    <path d="M 239.208333 41.680798 
L 239.208333 27.202071 
" clip-path="url(#p42965702fc)" style="fill: none; stroke: #40a02b; stroke-linecap: round"/>
   </g>
   <g id="line2d_20">
    <path d="M 229.710417 74.073281 
L 248.70625 74.073281 
" clip-path="url(#p42965702fc)" style="fill: none; stroke: #40a02b; stroke-linecap: round"/>
   </g>
   <g id="line2d_21">
    <path d="M 229.710417 27.202071 
L 248.70625 27.202071 
" clip-path="url(#p42965702fc)" style="fill: none; stroke: #40a02b; stroke-linecap: round"/>
   </g>
   <g id="line2d_22">
    <defs>
     <path id="ma43f80cab7" d="M -0 4.242641 
L 2.545584 0 
L 0 -4.242641 
L -2.545584 -0 
z
" style="stroke: #40a02b; stroke-opacity: 0.25; stroke-linejoin: miter"/>
    </defs>
    <g clip-path="url(#p42965702fc)">
     <use xlink:href="#ma43f80cab7" x="239.208333" y="76.257245" style="fill: #40a02b; fill-opacity: 0.25; stroke: #40a02b; stroke-opacity: 0.25; stroke-linejoin: miter"/>
     <use xlink:href="#ma43f80cab7" x="239.208333" y="78.338013" style="fill: #40a02b; fill-opacity: 0.25; stroke: #40a02b; stroke-opacity: 0.25; stroke-linejoin: miter"/>
     <use xlink:href="#ma43f80cab7" x="239.208333" y="95.550745" style="fill: #40a02b; fill-opacity: 0.25; stroke: #40a02b; stroke-opacity: 0.25; stroke-linejoin: miter"/>
     <use xlink:href="#ma43f80cab7" x="239.208333" y="81.198601" style="fill: #40a02b; fill-opacity: 0.25; stroke: #40a02b; stroke-opacity: 0.25; stroke-linejoin: miter"/>
     <use xlink:href="#ma43f80cab7" x="239.208333" y="84.63656" style="fill: #40a02b; fill-opacity: 0.25; stroke: #40a02b; stroke-opacity: 0.25; stroke-linejoin: miter"/>
     <use xlink:href="#ma43f80cab7" x="239.208333" y="74.705709" style="fill: #40a02b; fill-opacity: 0.25; stroke: #40a02b; stroke-opacity: 0.25; stroke-linejoin: miter"/>
     <use xlink:href="#ma43f80cab7" x="239.208333" y="76.674768" style="fill: #40a02b; fill-opacity: 0.25; stroke: #40a02b; stroke-opacity: 0.25; stroke-linejoin: miter"/>
     <use xlink:href="#ma43f80cab7" x="239.208333" y="74.830103" style="fill: #40a02b; fill-opacity: 0.25; stroke: #40a02b; stroke-opacity: 0.25; stroke-linejoin: miter"/>
     <use xlink:href="#ma43f80cab7" x="239.208333" y="78.241156" style="fill: #40a02b; fill-opacity: 0.25; stroke: #40a02b; stroke-opacity: 0.25; stroke-linejoin: miter"/>
     <use xlink:href="#ma43f80cab7" x="239.208333" y="103.229891" style="fill: #40a02b; fill-opacity: 0.25; stroke: #40a02b; stroke-opacity: 0.25; stroke-linejoin: miter"/>
     <use xlink:href="#ma43f80cab7" x="239.208333" y="93.68102" style="fill: #40a02b; fill-opacity: 0.25; stroke: #40a02b; stroke-opacity: 0.25; stroke-linejoin: miter"/>
     <use xlink:href="#ma43f80cab7" x="239.208333" y="103.229891" style="fill: #40a02b; fill-opacity: 0.25; stroke: #40a02b; stroke-opacity: 0.25; stroke-linejoin: miter"/>
     <use xlink:href="#ma43f80cab7" x="239.208333" y="94.954524" style="fill: #40a02b; fill-opacity: 0.25; stroke: #40a02b; stroke-opacity: 0.25; stroke-linejoin: miter"/>
     <use xlink:href="#ma43f80cab7" x="239.208333" y="76.310902" style="fill: #40a02b; fill-opacity: 0.25; stroke: #40a02b; stroke-opacity: 0.25; stroke-linejoin: miter"/>
     <use xlink:href="#ma43f80cab7" x="239.208333" y="76.967895" style="fill: #40a02b; fill-opacity: 0.25; stroke: #40a02b; stroke-opacity: 0.25; stroke-linejoin: miter"/>
     <use xlink:href="#ma43f80cab7" x="239.208333" y="94.035045" style="fill: #40a02b; fill-opacity: 0.25; stroke: #40a02b; stroke-opacity: 0.25; stroke-linejoin: miter"/>
     <use xlink:href="#ma43f80cab7" x="239.208333" y="103.217454" style="fill: #40a02b; fill-opacity: 0.25; stroke: #40a02b; stroke-opacity: 0.25; stroke-linejoin: miter"/>
     <use xlink:href="#ma43f80cab7" x="239.208333" y="88.540341" style="fill: #40a02b; fill-opacity: 0.25; stroke: #40a02b; stroke-opacity: 0.25; stroke-linejoin: miter"/>
     <use xlink:href="#ma43f80cab7" x="239.208333" y="19.874769" style="fill: #40a02b; fill-opacity: 0.25; stroke: #40a02b; stroke-opacity: 0.25; stroke-linejoin: miter"/>
    </g>
   </g>
   <g id="line2d_23">
    <path d="M 68.245833 46.601266 
L 106.2375 46.601266 
" clip-path="url(#p42965702fc)" style="fill: none; stroke: #7287fd"/>
   </g>
   <g id="line2d_24">
    <path d="M 144.229167 57.401185 
L 182.220833 57.401185 
" clip-path="url(#p42965702fc)" style="fill: none; stroke: #179299"/>
   </g>
   <g id="line2d_25">
    <path d="M 220.2125 48.402017 
L 258.204167 48.402017 
" clip-path="url(#p42965702fc)" style="fill: none; stroke: #40a02b"/>
   </g>
   <g id="patch_6">
    <path d="M 49.25 114.104 
L 49.25 10.8 
" style="fill: none; stroke: #ffffff; stroke-width: 0.8; stroke-linejoin: miter; stroke-linecap: square"/>
   </g>
   <g id="patch_7">
    <path d="M 277.2 114.104 
L 277.2 10.8 
" style="fill: none; stroke: #ffffff; stroke-width: 0.8; stroke-linejoin: miter; stroke-linecap: square"/>
   </g>
   <g id="patch_8">
    <path d="M 49.25 114.104 
L 277.2 114.104 
" style="fill: none; stroke: #ffffff; stroke-width: 0.8; stroke-linejoin: miter; stroke-linecap: square"/>
   </g>
   <g id="patch_9">
    <path d="M 49.25 10.8 
L 277.2 10.8 
" style="fill: none; stroke: #ffffff; stroke-width: 0.8; stroke-linejoin: miter; stroke-linecap: square"/>
   </g>
  </g>
 </g>
 <defs>
  <clipPath id="p42965702fc">
   <rect x="49.25" y="10.8" width="227.95" height="103.304"/>
  </clipPath>
 </defs>
</svg>
