<?xml version="1.0" encoding="utf-8" standalone="no"?>
<!DOCTYPE svg PUBLIC "-//W3C//DTD SVG 1.1//EN"
  "http://www.w3.org/Graphics/SVG/1.1/DTD/svg11.dtd">
<svg xmlns:xlink="http://www.w3.org/1999/xlink" width="432pt" height="288pt" viewBox="0 0 432 288" xmlns="http://www.w3.org/2000/svg" version="1.1">
 <metadata>
  <rdf:RDF xmlns:dc="http://purl.org/dc/elements/1.1/" xmlns:cc="http://creativecommons.org/ns#" xmlns:rdf="http://www.w3.org/1999/02/22-rdf-syntax-ns#">
   <cc:Work>
    <dc:type rdf:resource="http://purl.org/dc/dcmitype/StillImage"/>
    <dc:date>1980-01-01T00:00:00+00:00</dc:date>
    <dc:format>image/svg+xml</dc:format>
    <dc:creator>
     <cc:Agent>
      <dc:title>Matplotlib v3.8.4, https://matplotlib.org/</dc:title>
     </cc:Agent>
    </dc:creator>
   </cc:Work>
  </rdf:RDF>
 </metadata>
 <defs>
  <style type="text/css">*{stroke-linejoin: round; stroke-linecap: butt}</style>
 </defs>
 <g id="figure_1">
  <g id="patch_1">
   <path d="M 0 288
L 432 288
L 432 0
L 0 0
z
" style="fill: #ffffff"/>
  </g>
  <g id="axes_1">
   <g id="patch_2">
    <path d="M 54 256.32
L 388.8 256.32
L 388.8 34.56
L 54 34.56
z
" style="fill: #eff1f5"/>
   </g>
   <g id="matplotlib.axis_1">
    <g id="xtick_1">
     <g id="line2d_1">
      <path d="M 54 256.32
L 54 34.56
" clip-path="url(#pfe754e56da)" style="fill: none; stroke: #ffffff; stroke-width: 0.8; stroke-linecap: round"/>
     </g>
     <g id="text_1">
      <!-- 0 -->
      <g style="fill: #262626" transform="translate(51 270.62) scale(0.1 -0.1)">
       <defs>
        <path id="JetBrainsMonoNFM-Regular-30" d="M 1920 -64
Q 1274 -64 893 310
Q 512 685 512 1312
L 512 3360
Q 512 3987 893 4361
Q 1274 4736 1920 4736
Q 2566 4736 2947 4361
Q 3328 3987 3328 3360
L 3328 1312
Q 3328 896 3155 585
Q 2982 275 2665 105
Q 2349 -64 1920 -64
z
M 1920 429
Q 2304 429 2537 675
Q 2771 922 2771 1312
L 2771 3360
Q 2771 3750 2537 3996
Q 2304 4243 1920 4243
Q 1536 4243 1302 3996
Q 1069 3750 1069 3360
L 1069 1312
Q 1069 922 1302 675
Q 1536 429 1920 429
z
M 1920 1984
Q 1747 1984 1641 2080
Q 1536 2176 1536 2355
Q 1536 2528 1641 2621
Q 1747 2714 1920 2714
Q 2093 2714 2198 2621
Q 2304 2528 2304 2355
Q 2304 2176 2198 2080
Q 2093 1984 1920 1984
z
" transform="scale(0.015625)"/>
       </defs>
       <use xlink:href="#JetBrainsMonoNFM-Regular-30"/>
      </g>
     </g>
    </g>
    <g id="xtick_2">
     <g id="line2d_2">
      <path d="M 101.15493 256.32
L 101.15493 34.56
" clip-path="url(#pfe754e56da)" style="fill: none; stroke: #ffffff; stroke-width: 0.8; stroke-linecap: round"/>
     </g>
     <g id="text_2">
      <!-- 10 -->
      <g style="fill: #262626" transform="translate(95.15493 270.62) scale(0.1 -0.1)">
       <defs>
        <path id="JetBrainsMonoNFM-Regular-31" d="M 576 0
L 576 525
L 1843 525
L 1843 4173
L 576 3226
L 576 3885
L 1632 4672
L 2419 4672
L 2419 525
L 3456 525
L 3456 0
L 576 0
z
" transform="scale(0.015625)"/>
       </defs>
       <use xlink:href="#JetBrainsMonoNFM-Regular-31"/>
       <use xlink:href="#JetBrainsMonoNFM-Regular-30" x="59.999985"/>
      </g>
     </g>
    </g>
    <g id="xtick_3">
     <g id="line2d_3">
      <path d="M 148.309859 256.32
L 148.309859 34.56
" clip-path="url(#pfe754e56da)" style="fill: none; stroke: #ffffff; stroke-width: 0.8; stroke-linecap: round"/>
     </g>
     <g id="text_3">
      <!-- 20 -->
      <g style="fill: #262626" transform="translate(142.309859 270.62) scale(0.1 -0.1)">
       <defs>
        <path id="JetBrainsMonoNFM-Regular-32" d="M 550 0
L 550 531
L 2106 2195
Q 2445 2554 2585 2835
Q 2726 3117 2726 3386
Q 2726 3770 2505 3997
Q 2285 4224 1907 4224
Q 1517 4224 1289 3990
Q 1062 3757 1062 3360
L 486 3360
Q 506 3994 890 4365
Q 1274 4736 1907 4736
Q 2554 4736 2934 4371
Q 3315 4006 3315 3379
Q 3315 3046 3132 2675
Q 2950 2304 2509 1843
L 1248 525
L 3373 525
L 3373 0
L 550 0
z
" transform="scale(0.015625)"/>
       </defs>
       <use xlink:href="#JetBrainsMonoNFM-Regular-32"/>
       <use xlink:href="#JetBrainsMonoNFM-Regular-30" x="59.999985"/>
      </g>
     </g>
    </g>
    <g id="xtick_4">
     <g id="line2d_4">
      <path d="M 195.464789 256.32
L 195.464789 34.56
" clip-path="url(#pfe754e56da)" style="fill: none; stroke: #ffffff; stroke-width: 0.8; stroke-linecap: round"/>
     </g>
     <g id="text_4">
      <!-- 30 -->
      <g style="fill: #262626" transform="translate(189.464789 270.62) scale(0.1 -0.1)">
       <defs>
        <path id="JetBrainsMonoNFM-Regular-33" d="M 1850 -64
Q 1203 -64 825 297
Q 448 659 448 1280
L 1024 1280
Q 1024 896 1248 672
Q 1472 448 1856 448
Q 2240 448 2464 672
Q 2688 896 2688 1280
L 2688 1600
Q 2688 1984 2464 2208
Q 2240 2432 1856 2432
L 1350 2432
L 1350 2931
L 2496 4147
L 576 4147
L 576 4672
L 3149 4672
L 3149 4134
L 2022 2938
Q 2598 2893 2931 2537
Q 3264 2182 3264 1600
L 3264 1280
Q 3264 659 2883 297
Q 2502 -64 1850 -64
z
" transform="scale(0.015625)"/>
       </defs>
       <use xlink:href="#JetBrainsMonoNFM-Regular-33"/>
       <use xlink:href="#JetBrainsMonoNFM-Regular-30" x="59.999985"/>
      </g>
     </g>
    </g>
    <g id="xtick_5">
     <g id="line2d_5">
      <path d="M 242.619718 256.32
L 242.619718 34.56
" clip-path="url(#pfe754e56da)" style="fill: none; stroke: #ffffff; stroke-width: 0.8; stroke-linecap: round"/>
     </g>
     <g id="text_5">
      <!-- 40 -->
      <g style="fill: #262626" transform="translate(236.619718 270.62) scale(0.1 -0.1)">
       <defs>
        <path id="JetBrainsMonoNFM-Regular-34" d="M 2560 0
L 2560 1024
L 448 1024
L 448 1926
L 2150 4672
L 2803 4672
L 1024 1798
L 1024 1549
L 2560 1549
L 2560 2688
L 3136 2688
L 3136 0
L 2560 0
z
" transform="scale(0.015625)"/>
       </defs>
       <use xlink:href="#JetBrainsMonoNFM-Regular-34"/>
       <use xlink:href="#JetBrainsMonoNFM-Regular-30" x="59.999985"/>
      </g>
     </g>
    </g>
    <g id="xtick_6">
     <g id="line2d_6">
      <path d="M 289.774648 256.32
L 289.774648 34.56
" clip-path="url(#pfe754e56da)" style="fill: none; stroke: #ffffff; stroke-width: 0.8; stroke-linecap: round"/>
     </g>
     <g id="text_6">
      <!-- 50 -->
      <g style="fill: #262626" transform="translate(283.774648 270.62) scale(0.1 -0.1)">
       <defs>
        <path id="JetBrainsMonoNFM-Regular-35" d="M 1882 -64
Q 1235 -64 857 297
Q 480 659 480 1280
L 1056 1280
Q 1056 896 1280 672
Q 1504 448 1888 448
Q 2272 448 2496 672
Q 2720 896 2720 1280
L 2720 1568
Q 2720 1952 2502 2176
Q 2285 2400 1914 2400
L 640 2400
L 640 4672
L 3130 4672
L 3130 4147
L 1178 4147
L 1190 2925
L 1946 2925
Q 2592 2925 2944 2569
Q 3296 2214 3296 1568
L 3296 1280
Q 3296 659 2915 297
Q 2534 -64 1882 -64
z
" transform="scale(0.015625)"/>
       </defs>
       <use xlink:href="#JetBrainsMonoNFM-Regular-35"/>
       <use xlink:href="#JetBrainsMonoNFM-Regular-30" x="59.999985"/>
      </g>
     </g>
    </g>
    <g id="xtick_7">
     <g id="line2d_7">
      <path d="M 336.929577 256.32
L 336.929577 34.56
" clip-path="url(#pfe754e56da)" style="fill: none; stroke: #ffffff; stroke-width: 0.8; stroke-linecap: round"/>
     </g>
     <g id="text_7">
      <!-- 60 -->
      <g style="fill: #262626" transform="translate(330.929577 270.62) scale(0.1 -0.1)">
       <defs>
        <path id="JetBrainsMonoNFM-Regular-36" d="M 1926 -64
Q 1478 -64 1136 125
Q 794 314 602 650
Q 410 986 410 1427
Q 410 1734 525 2057
Q 640 2381 838 2733
L 1920 4672
L 2560 4672
L 1408 2669
L 1427 2656
Q 1510 2765 1676 2822
Q 1843 2880 2042 2880
Q 2458 2880 2768 2697
Q 3078 2515 3254 2195
Q 3430 1875 3430 1453
Q 3430 1005 3238 662
Q 3046 320 2710 128
Q 2374 -64 1926 -64
z
M 1920 448
Q 2336 448 2595 723
Q 2854 998 2854 1440
Q 2854 1882 2595 2157
Q 2336 2432 1920 2432
Q 1504 2432 1245 2157
Q 986 1882 986 1440
Q 986 998 1245 723
Q 1504 448 1920 448
z
" transform="scale(0.015625)"/>
       </defs>
       <use xlink:href="#JetBrainsMonoNFM-Regular-36"/>
       <use xlink:href="#JetBrainsMonoNFM-Regular-30" x="59.999985"/>
      </g>
     </g>
    </g>
    <g id="xtick_8">
     <g id="line2d_8">
      <path d="M 384.084507 256.32
L 384.084507 34.56
" clip-path="url(#pfe754e56da)" style="fill: none; stroke: #ffffff; stroke-width: 0.8; stroke-linecap: round"/>
     </g>
     <g id="text_8">
      <!-- 70 -->
      <g style="fill: #262626" transform="translate(378.084507 270.62) scale(0.1 -0.1)">
       <defs>
        <path id="JetBrainsMonoNFM-Regular-37" d="M 1216 0
L 2880 4147
L 1101 4147
L 1101 3392
L 525 3392
L 525 4672
L 3494 4672
L 3494 4134
L 1843 0
L 1216 0
z
" transform="scale(0.015625)"/>
       </defs>
       <use xlink:href="#JetBrainsMonoNFM-Regular-37"/>
       <use xlink:href="#JetBrainsMonoNFM-Regular-30" x="59.999985"/>
      </g>
     </g>
    </g>
    <g id="text_9">
     <!-- Failure Probability $[\%]$ -->
     <g style="fill: #262626" transform="translate(163.92 284.94) scale(0.12 -0.12)">
      <defs>
       <path id="STIXTwoText-46" d="M 2106 0
L 230 0
L 230 192
Q 493 192 624 230
Q 755 269 803 387
Q 851 506 851 742
L 851 3482
Q 851 3706 793 3818
Q 736 3930 598 3971
Q 461 4013 230 4013
L 230 4205
L 3635 4205
L 3674 3155
L 3469 3155
Q 3424 3386 3376 3533
Q 3328 3680 3232 3763
Q 3136 3846 2953 3881
Q 2771 3917 2458 3917
L 1440 3917
L 1440 2298
L 2195 2298
Q 2470 2298 2617 2349
Q 2765 2400 2819 2537
Q 2874 2675 2874 2931
L 3091 2931
L 3091 1446
L 2874 1446
Q 2874 1709 2819 1837
Q 2765 1965 2617 2006
Q 2470 2048 2195 2048
L 1440 2048
L 1440 704
Q 1440 486 1501 377
Q 1562 269 1709 230
Q 1856 192 2106 192
L 2106 0
z
" transform="scale(0.015625)"/>
       <path id="STIXTwoText-61" d="M 1005 -45
Q 634 -45 438 160
Q 243 365 243 672
Q 243 928 361 1104
Q 480 1280 675 1401
Q 870 1523 1097 1606
Q 1325 1690 1542 1747
Q 1760 1805 1926 1856
L 1926 2138
Q 1926 2554 1782 2730
Q 1638 2906 1350 2906
Q 1075 2906 998 2790
Q 922 2675 922 2387
Q 922 2240 848 2166
Q 774 2093 640 2093
Q 544 2093 457 2166
Q 371 2240 371 2400
Q 371 2579 508 2739
Q 646 2899 899 3001
Q 1152 3104 1498 3104
Q 2022 3104 2240 2861
Q 2458 2618 2458 2118
L 2458 666
Q 2458 467 2502 409
Q 2547 352 2650 352
Q 2739 352 2812 397
Q 2886 442 2950 512
L 3046 410
Q 2886 179 2742 73
Q 2598 -32 2355 -32
Q 2131 -32 2064 96
Q 1997 224 1965 461
L 1926 538
L 1926 1645
Q 1638 1574 1382 1478
Q 1126 1382 966 1228
Q 806 1075 806 826
Q 806 589 934 448
Q 1062 307 1267 307
Q 1434 307 1616 390
Q 1798 474 1971 627
L 2022 397
L 1946 397
Q 1798 269 1660 166
Q 1523 64 1366 9
Q 1210 -45 1005 -45
z
" transform="scale(0.015625)"/>
       <path id="STIXTwoText-69" d="M 1645 0
L 205 0
L 205 179
Q 422 179 515 220
Q 608 262 630 364
Q 653 467 653 646
L 653 2432
Q 653 2637 582 2685
Q 512 2733 371 2733
Q 307 2733 259 2726
Q 211 2720 211 2720
L 211 2906
L 1018 3085
L 1184 3085
L 1184 646
Q 1184 461 1209 358
Q 1235 256 1334 217
Q 1434 179 1645 179
L 1645 0
z
M 928 3584
Q 768 3584 665 3693
Q 563 3802 563 3949
Q 563 4096 662 4201
Q 762 4307 928 4307
Q 1094 4307 1193 4201
Q 1293 4096 1293 3949
Q 1293 3802 1193 3693
Q 1094 3584 928 3584
z
" transform="scale(0.015625)"/>
       <path id="STIXTwoText-6c" d="M 1664 0
L 192 0
L 192 186
Q 403 186 499 227
Q 595 269 617 368
Q 640 467 640 646
L 640 3859
Q 640 4058 566 4096
Q 493 4134 371 4134
Q 288 4134 227 4128
Q 166 4122 166 4122
L 166 4294
L 1011 4518
L 1171 4518
L 1171 646
Q 1171 461 1200 361
Q 1229 262 1331 224
Q 1434 186 1664 186
L 1664 0
z
" transform="scale(0.015625)"/>
       <path id="STIXTwoText-75" d="M 1421 -64
Q 1024 -64 803 195
Q 582 454 582 1107
L 582 2406
Q 582 2579 547 2659
Q 512 2739 416 2761
Q 320 2784 147 2784
L 147 2963
L 973 3059
L 1114 3059
L 1114 1190
Q 1114 864 1187 681
Q 1261 499 1392 422
Q 1523 346 1690 346
Q 1933 346 2109 454
Q 2285 563 2477 730
L 2477 2413
Q 2477 2586 2432 2662
Q 2387 2739 2275 2761
Q 2163 2784 1958 2784
L 1958 2963
L 2854 3059
L 3008 3059
L 3008 710
Q 3008 429 3085 358
Q 3162 288 3392 288
L 3456 288
L 3456 115
L 2643 -32
L 2502 -32
L 2502 461
L 2470 461
Q 2304 294 2141 176
Q 1978 58 1802 -3
Q 1626 -64 1421 -64
z
" transform="scale(0.015625)"/>
       <path id="STIXTwoText-72" d="M 1786 0
L 186 0
L 186 186
Q 397 186 496 221
Q 595 256 624 349
Q 653 442 653 621
L 653 2381
Q 653 2554 624 2640
Q 595 2726 422 2726
Q 326 2726 275 2720
Q 224 2714 224 2714
L 224 2893
L 1018 3085
L 1171 3085
L 1171 2426
L 1190 2426
Q 1357 2662 1485 2816
Q 1613 2970 1737 3046
Q 1862 3123 2016 3123
Q 2202 3123 2294 3027
Q 2387 2931 2387 2765
Q 2387 2586 2300 2502
Q 2214 2419 2106 2419
Q 2003 2419 1923 2473
Q 1843 2528 1785 2582
Q 1728 2637 1690 2637
Q 1581 2637 1440 2470
Q 1299 2304 1184 2112
L 1184 653
Q 1184 454 1235 352
Q 1286 250 1417 218
Q 1549 186 1786 186
L 1786 0
z
" transform="scale(0.015625)"/>
       <path id="STIXTwoText-65" d="M 1581 -64
Q 1197 -64 886 118
Q 576 301 397 656
Q 218 1011 218 1523
Q 218 2061 400 2409
Q 582 2758 889 2931
Q 1197 3104 1568 3104
Q 2093 3104 2413 2739
Q 2733 2374 2758 1702
L 678 1702
L 672 1939
L 2157 1939
Q 2150 2176 2073 2384
Q 1997 2592 1849 2720
Q 1702 2848 1472 2848
Q 1101 2848 915 2557
Q 730 2266 730 1734
Q 730 1293 870 998
Q 1011 704 1241 560
Q 1472 416 1734 416
Q 1997 416 2160 486
Q 2323 557 2438 669
Q 2554 781 2656 915
L 2778 826
Q 2694 646 2585 483
Q 2477 320 2339 198
Q 2202 77 2016 6
Q 1830 -64 1581 -64
z
" transform="scale(0.015625)"/>
       <path id="STIXTwoText-20" transform="scale(0.015625)"/>
       <path id="STIXTwoText-50" d="M 2086 0
L 282 0
L 282 192
Q 531 192 652 237
Q 774 282 812 413
Q 851 544 851 813
L 851 3565
Q 851 3846 732 3929
Q 614 4013 307 4013
L 307 4205
L 1901 4205
Q 2208 4205 2493 4157
Q 2778 4109 2998 3993
Q 3219 3878 3350 3670
Q 3482 3462 3482 3142
Q 3482 2771 3341 2518
Q 3200 2266 2960 2112
Q 2720 1958 2419 1894
Q 2118 1830 1805 1830
Q 1709 1830 1600 1843
Q 1491 1856 1440 1882
L 1440 787
Q 1440 525 1494 397
Q 1549 269 1689 230
Q 1830 192 2086 192
L 2086 0
z
M 1786 2093
Q 2131 2093 2368 2179
Q 2605 2266 2726 2474
Q 2848 2682 2848 3053
Q 2848 3488 2595 3721
Q 2342 3955 1824 3955
Q 1728 3955 1635 3948
Q 1542 3942 1440 3930
L 1440 2118
Q 1491 2112 1590 2102
Q 1690 2093 1786 2093
z
" transform="scale(0.015625)"/>
       <path id="STIXTwoText-6f" d="M 1651 -64
Q 979 -64 598 355
Q 218 774 218 1549
Q 218 2016 397 2365
Q 576 2714 899 2909
Q 1222 3104 1651 3104
Q 2310 3104 2691 2694
Q 3072 2285 3072 1574
Q 3072 1037 2889 672
Q 2707 307 2387 121
Q 2067 -64 1651 -64
z
M 1677 192
Q 1939 192 2118 313
Q 2298 435 2390 729
Q 2483 1024 2483 1542
Q 2483 2131 2268 2496
Q 2054 2861 1626 2861
Q 1261 2861 1037 2553
Q 813 2246 813 1632
Q 813 870 1040 528
Q 1267 186 1677 192
z
" transform="scale(0.015625)"/>
       <path id="STIXTwoText-62" d="M 877 4518
L 1043 4518
L 1043 2560
L 1062 2560
Q 1229 2765 1478 2934
Q 1728 3104 2048 3104
Q 2368 3104 2608 2921
Q 2848 2739 2982 2419
Q 3117 2099 3117 1683
Q 3117 1114 2918 723
Q 2720 333 2374 134
Q 2029 -64 1581 -64
Q 1171 -64 899 32
Q 627 128 512 192
L 512 3789
Q 512 4006 464 4067
Q 416 4128 230 4128
Q 154 4128 102 4121
Q 51 4115 51 4115
L 51 4294
L 877 4518
z
M 1043 2278
L 1043 499
Q 1133 390 1286 294
Q 1440 198 1696 198
Q 2003 198 2185 371
Q 2368 544 2451 835
Q 2534 1126 2534 1478
Q 2534 1786 2470 2058
Q 2406 2330 2240 2499
Q 2074 2669 1766 2669
Q 1523 2669 1328 2531
Q 1133 2394 1043 2278
z
" transform="scale(0.015625)"/>
       <path id="STIXTwoText-74" d="M 1875 576
L 1997 474
Q 1875 301 1769 182
Q 1664 64 1536 0
Q 1408 -64 1203 -64
Q 883 -64 736 125
Q 589 314 589 742
L 589 2726
L 237 2726
L 237 2874
Q 461 3014 624 3254
Q 787 3494 960 3904
L 1120 3904
L 1120 2995
L 1843 2995
L 1843 2726
L 1120 2726
L 1120 922
Q 1120 582 1181 448
Q 1242 314 1427 314
Q 1581 314 1667 378
Q 1754 442 1875 576
z
" transform="scale(0.015625)"/>
       <path id="STIXTwoText-79" d="M 493 -1504
Q 294 -1504 166 -1427
Q 38 -1350 38 -1171
Q 38 -1024 124 -960
Q 211 -896 333 -896
Q 499 -896 630 -966
Q 762 -1037 826 -1037
Q 915 -1037 1017 -899
Q 1120 -762 1219 -570
Q 1318 -378 1379 -208
Q 1440 -38 1440 32
Q 1440 96 1373 262
Q 1306 429 1248 557
L 307 2611
Q 262 2720 179 2781
Q 96 2842 -77 2842
L -77 3027
L 1293 3027
L 1293 2835
Q 1075 2835 1001 2793
Q 928 2752 928 2669
Q 928 2605 960 2531
Q 992 2458 1018 2387
L 1645 979
L 1728 666
L 1773 666
L 2394 2522
Q 2406 2554 2416 2602
Q 2426 2650 2426 2682
Q 2426 2778 2326 2810
Q 2227 2842 2067 2842
L 2067 3027
L 3155 3027
L 3155 2842
Q 2963 2842 2873 2755
Q 2784 2669 2714 2483
L 1715 -141
Q 1530 -627 1354 -928
Q 1178 -1229 973 -1366
Q 768 -1504 493 -1504
z
" transform="scale(0.015625)"/>
       <path id="STIXGeneral-Regular-5b" d="M 1914 -998
L 563 -998
L 563 4237
L 1914 4237
L 1914 4077
L 1382 4077
Q 1216 4077 1133 4006
Q 1050 3936 1050 3770
L 1050 -493
Q 1050 -838 1382 -838
L 1914 -838
L 1914 -998
z
" transform="scale(0.015625)"/>
       <path id="STIXGeneral-Regular-25" d="M 4390 1363
Q 4390 781 4070 329
Q 3750 -122 3341 -122
Q 3014 -122 2790 134
Q 2566 390 2566 762
Q 2566 1274 2940 1693
Q 3315 2112 3776 2112
Q 4070 2112 4230 1917
Q 4390 1722 4390 1363
z
M 4243 1376
Q 4243 1626 4131 1779
Q 4019 1933 3840 1933
Q 3654 1933 3526 1786
Q 3315 1562 3171 1187
Q 3027 813 3027 486
Q 3027 301 3129 176
Q 3232 51 3386 51
Q 3718 51 3980 457
Q 4243 864 4243 1376
z
M 3974 4518
L 1222 -115
L 922 -115
L 3443 4096
Q 3264 3891 3094 3811
Q 2925 3731 2669 3731
Q 2445 3731 2182 3821
Q 2208 3674 2208 3539
Q 2208 3206 2067 2873
Q 1926 2541 1696 2323
Q 1453 2086 1146 2086
Q 826 2086 608 2339
Q 390 2592 390 2963
Q 390 3507 761 3916
Q 1133 4326 1626 4326
Q 1792 4326 2010 4147
Q 2310 3898 2624 3898
Q 2918 3898 3084 3994
Q 3251 4090 3693 4518
L 3974 4518
z
M 2054 3642
Q 2054 3782 2025 3833
Q 1997 3885 1894 3936
Q 1747 4006 1613 4154
Q 1414 4058 1331 3984
Q 1248 3910 1152 3750
Q 845 3264 845 2707
Q 845 2509 944 2384
Q 1043 2259 1210 2259
Q 1549 2259 1801 2675
Q 2054 3091 2054 3642
z
" transform="scale(0.015625)"/>
       <path id="STIXGeneral-Regular-5d" d="M 1568 -998
L 218 -998
L 218 -838
L 781 -838
Q 947 -838 1014 -768
Q 1082 -698 1082 -544
L 1082 3731
Q 1082 4077 755 4077
L 218 4077
L 218 4237
L 1568 4237
L 1568 -998
z
" transform="scale(0.015625)"/>
      </defs>
      <use xlink:href="#STIXTwoText-46" transform="translate(0 0.40625)"/>
      <use xlink:href="#STIXTwoText-61" transform="translate(58.799988 0.40625)"/>
      <use xlink:href="#STIXTwoText-69" transform="translate(106.799973 0.40625)"/>
      <use xlink:href="#STIXTwoText-6c" transform="translate(135.299957 0.40625)"/>
      <use xlink:href="#STIXTwoText-75" transform="translate(163.599945 0.40625)"/>
      <use xlink:href="#STIXTwoText-72" transform="translate(220.59993 0.40625)"/>
      <use xlink:href="#STIXTwoText-65" transform="translate(258.599915 0.40625)"/>
      <use xlink:href="#STIXTwoText-20" transform="translate(304.999908 0.40625)"/>
      <use xlink:href="#STIXTwoText-50" transform="translate(328.499893 0.40625)"/>
      <use xlink:href="#STIXTwoText-72" transform="translate(385.399887 0.40625)"/>
      <use xlink:href="#STIXTwoText-6f" transform="translate(423.399872 0.40625)"/>
      <use xlink:href="#STIXTwoText-62" transform="translate(474.799866 0.40625)"/>
      <use xlink:href="#STIXTwoText-61" transform="translate(526.999863 0.40625)"/>
      <use xlink:href="#STIXTwoText-62" transform="translate(574.999847 0.40625)"/>
      <use xlink:href="#STIXTwoText-69" transform="translate(627.199844 0.40625)"/>
      <use xlink:href="#STIXTwoText-6c" transform="translate(655.699829 0.40625)"/>
      <use xlink:href="#STIXTwoText-69" transform="translate(683.999817 0.40625)"/>
      <use xlink:href="#STIXTwoText-74" transform="translate(712.499802 0.40625)"/>
      <use xlink:href="#STIXTwoText-79" transform="translate(743.999786 0.40625)"/>
      <use xlink:href="#STIXTwoText-20" transform="translate(792.299774 0.40625)"/>
      <use xlink:href="#STIXGeneral-Regular-5b" transform="translate(815.799759 0.40625)"/>
      <use xlink:href="#STIXGeneral-Regular-25" transform="translate(849.099747 0.40625)"/>
      <use xlink:href="#STIXGeneral-Regular-5d" transform="translate(923.799728 0.40625)"/>
     </g>
    </g>
   </g>
   <g id="matplotlib.axis_2">
    <g id="ytick_1">
     <g id="line2d_9">
      <path d="M 54 246.24
L 388.8 246.24
" clip-path="url(#pfe754e56da)" style="fill: none; stroke: #ffffff; stroke-width: 0.8; stroke-linecap: round"/>
     </g>
     <g id="text_10">
      <!-- 0 -->
      <g style="fill: #262626" transform="translate(41 249.89) scale(0.1 -0.1)">
       <use xlink:href="#JetBrainsMonoNFM-Regular-30"/>
      </g>
     </g>
    </g>
    <g id="ytick_2">
     <g id="line2d_10">
      <path d="M 54 221.473415
L 388.8 221.473415
" clip-path="url(#pfe754e56da)" style="fill: none; stroke: #ffffff; stroke-width: 0.8; stroke-linecap: round"/>
     </g>
     <g id="text_11">
      <!-- 250 -->
      <g style="fill: #262626" transform="translate(29 225.123415) scale(0.1 -0.1)">
       <use xlink:href="#JetBrainsMonoNFM-Regular-32"/>
       <use xlink:href="#JetBrainsMonoNFM-Regular-35" x="59.999985"/>
       <use xlink:href="#JetBrainsMonoNFM-Regular-30" x="119.999969"/>
      </g>
     </g>
    </g>
    <g id="ytick_3">
     <g id="line2d_11">
      <path d="M 54 196.70683
L 388.8 196.70683
" clip-path="url(#pfe754e56da)" style="fill: none; stroke: #ffffff; stroke-width: 0.8; stroke-linecap: round"/>
     </g>
     <g id="text_12">
      <!-- 500 -->
      <g style="fill: #262626" transform="translate(29 200.35683) scale(0.1 -0.1)">
       <use xlink:href="#JetBrainsMonoNFM-Regular-35"/>
       <use xlink:href="#JetBrainsMonoNFM-Regular-30" x="59.999985"/>
       <use xlink:href="#JetBrainsMonoNFM-Regular-30" x="119.999969"/>
      </g>
     </g>
    </g>
    <g id="ytick_4">
     <g id="line2d_12">
      <path d="M 54 171.940246
L 388.8 171.940246
" clip-path="url(#pfe754e56da)" style="fill: none; stroke: #ffffff; stroke-width: 0.8; stroke-linecap: round"/>
     </g>
     <g id="text_13">
      <!-- 750 -->
      <g style="fill: #262626" transform="translate(29 175.590246) scale(0.1 -0.1)">
       <use xlink:href="#JetBrainsMonoNFM-Regular-37"/>
       <use xlink:href="#JetBrainsMonoNFM-Regular-35" x="59.999985"/>
       <use xlink:href="#JetBrainsMonoNFM-Regular-30" x="119.999969"/>
      </g>
     </g>
    </g>
    <g id="ytick_5">
     <g id="line2d_13">
      <path d="M 54 147.173661
L 388.8 147.173661
" clip-path="url(#pfe754e56da)" style="fill: none; stroke: #ffffff; stroke-width: 0.8; stroke-linecap: round"/>
     </g>
     <g id="text_14">
      <!-- 1000 -->
      <g style="fill: #262626" transform="translate(23 150.823661) scale(0.1 -0.1)">
       <use xlink:href="#JetBrainsMonoNFM-Regular-31"/>
       <use xlink:href="#JetBrainsMonoNFM-Regular-30" x="59.999985"/>
       <use xlink:href="#JetBrainsMonoNFM-Regular-30" x="119.999969"/>
       <use xlink:href="#JetBrainsMonoNFM-Regular-30" x="179.999954"/>
      </g>
     </g>
    </g>
    <g id="ytick_6">
     <g id="line2d_14">
      <path d="M 54 122.407076
L 388.8 122.407076
" clip-path="url(#pfe754e56da)" style="fill: none; stroke: #ffffff; stroke-width: 0.8; stroke-linecap: round"/>
     </g>
     <g id="text_15">
      <!-- 1250 -->
      <g style="fill: #262626" transform="translate(23 126.057076) scale(0.1 -0.1)">
       <use xlink:href="#JetBrainsMonoNFM-Regular-31"/>
       <use xlink:href="#JetBrainsMonoNFM-Regular-32" x="59.999985"/>
       <use xlink:href="#JetBrainsMonoNFM-Regular-35" x="119.999969"/>
       <use xlink:href="#JetBrainsMonoNFM-Regular-30" x="179.999954"/>
      </g>
     </g>
    </g>
    <g id="ytick_7">
     <g id="line2d_15">
      <path d="M 54 97.640491
L 388.8 97.640491
" clip-path="url(#pfe754e56da)" style="fill: none; stroke: #ffffff; stroke-width: 0.8; stroke-linecap: round"/>
     </g>
     <g id="text_16">
      <!-- 1500 -->
      <g style="fill: #262626" transform="translate(23 101.290491) scale(0.1 -0.1)">
       <use xlink:href="#JetBrainsMonoNFM-Regular-31"/>
       <use xlink:href="#JetBrainsMonoNFM-Regular-35" x="59.999985"/>
       <use xlink:href="#JetBrainsMonoNFM-Regular-30" x="119.999969"/>
       <use xlink:href="#JetBrainsMonoNFM-Regular-30" x="179.999954"/>
      </g>
     </g>
    </g>
    <g id="ytick_8">
     <g id="line2d_16">
      <path d="M 54 72.873907
L 388.8 72.873907
" clip-path="url(#pfe754e56da)" style="fill: none; stroke: #ffffff; stroke-width: 0.8; stroke-linecap: round"/>
     </g>
     <g id="text_17">
      <!-- 1750 -->
      <g style="fill: #262626" transform="translate(23 76.523907) scale(0.1 -0.1)">
       <use xlink:href="#JetBrainsMonoNFM-Regular-31"/>
       <use xlink:href="#JetBrainsMonoNFM-Regular-37" x="59.999985"/>
       <use xlink:href="#JetBrainsMonoNFM-Regular-35" x="119.999969"/>
       <use xlink:href="#JetBrainsMonoNFM-Regular-30" x="179.999954"/>
      </g>
     </g>
    </g>
    <g id="ytick_9">
     <g id="line2d_17">
      <path d="M 54 48.107322
L 388.8 48.107322
" clip-path="url(#pfe754e56da)" style="fill: none; stroke: #ffffff; stroke-width: 0.8; stroke-linecap: round"/>
     </g>
     <g id="text_18">
      <!-- 2000 -->
      <g style="fill: #262626" transform="translate(23 51.757322) scale(0.1 -0.1)">
       <use xlink:href="#JetBrainsMonoNFM-Regular-32"/>
       <use xlink:href="#JetBrainsMonoNFM-Regular-30" x="59.999985"/>
       <use xlink:href="#JetBrainsMonoNFM-Regular-30" x="119.999969"/>
       <use xlink:href="#JetBrainsMonoNFM-Regular-30" x="179.999954"/>
      </g>
     </g>
    </g>
    <g id="text_19">
     <!-- Total Collisions -->
     <g style="fill: #262626" transform="translate(16.36 185.22) rotate(-90) scale(0.12 -0.12)">
      <defs>
       <path id="STIXTwoText-54" d="M 2861 0
L 1005 0
L 1005 192
Q 1274 192 1408 233
Q 1542 275 1587 412
Q 1632 550 1632 838
L 1632 3917
L 1222 3917
Q 870 3917 694 3846
Q 518 3776 441 3590
Q 365 3405 294 3053
L 96 3053
L 166 4205
L 3706 4205
L 3757 3053
L 3558 3053
Q 3488 3405 3411 3590
Q 3334 3776 3161 3846
Q 2989 3917 2630 3917
L 2227 3917
L 2227 838
Q 2227 550 2272 412
Q 2317 275 2451 233
Q 2586 192 2861 192
L 2861 0
z
" transform="scale(0.015625)"/>
       <path id="STIXTwoText-43" d="M 2330 -70
Q 1670 -70 1222 211
Q 774 493 547 985
Q 320 1478 320 2099
Q 320 2797 589 3283
Q 858 3770 1331 4026
Q 1805 4282 2419 4282
Q 2758 4282 2963 4224
Q 3168 4166 3289 4108
Q 3411 4051 3488 4051
Q 3565 4051 3606 4118
Q 3648 4186 3706 4282
L 3898 4282
L 3898 2816
L 3680 2816
Q 3578 3443 3248 3724
Q 2918 4006 2426 4006
Q 1734 4006 1360 3513
Q 986 3021 986 2163
Q 986 1523 1181 1120
Q 1376 717 1721 525
Q 2067 333 2515 333
Q 2957 333 3289 496
Q 3622 659 3891 954
L 4045 819
Q 3872 563 3632 361
Q 3392 160 3072 45
Q 2752 -70 2330 -70
z
" transform="scale(0.015625)"/>
       <path id="STIXTwoText-73" d="M 269 -51
L 250 1050
L 416 1050
Q 518 557 716 361
Q 915 166 1267 166
Q 1510 166 1664 265
Q 1818 365 1818 589
Q 1818 742 1763 844
Q 1709 947 1555 1052
Q 1402 1158 1101 1306
Q 806 1453 620 1590
Q 435 1728 345 1894
Q 256 2061 256 2298
Q 256 2694 541 2899
Q 826 3104 1235 3104
Q 1478 3104 1632 3049
Q 1786 2995 1907 2938
L 1914 2938
L 2022 3072
L 2150 3072
L 2170 2093
L 1997 2093
Q 1894 2547 1708 2716
Q 1523 2886 1229 2886
Q 1011 2886 860 2784
Q 710 2682 710 2464
Q 710 2278 883 2131
Q 1056 1984 1459 1779
Q 1754 1626 1952 1482
Q 2150 1338 2252 1168
Q 2355 998 2355 762
Q 2355 461 2208 278
Q 2061 96 1814 13
Q 1568 -70 1280 -70
Q 1005 -70 841 -12
Q 678 45 550 96
L 538 96
L 403 -51
L 269 -51
z
" transform="scale(0.015625)"/>
       <path id="STIXTwoText-6e" d="M 3552 0
L 2074 0
L 2074 179
Q 2304 179 2403 220
Q 2502 262 2524 364
Q 2547 467 2547 646
L 2547 1805
Q 2547 2189 2460 2381
Q 2374 2573 2240 2633
Q 2106 2694 1958 2694
Q 1773 2694 1625 2620
Q 1478 2547 1360 2444
Q 1242 2342 1139 2253
L 1094 2566
L 1190 2566
Q 1453 2797 1686 2950
Q 1920 3104 2221 3104
Q 2656 3104 2867 2809
Q 3078 2515 3078 1965
L 3078 646
Q 3078 467 3107 364
Q 3136 262 3238 220
Q 3341 179 3552 179
L 3552 0
z
M 1670 0
L 205 0
L 205 179
Q 422 179 515 220
Q 608 262 630 364
Q 653 467 653 646
L 653 2445
Q 653 2618 582 2672
Q 512 2726 384 2726
Q 301 2726 256 2720
Q 211 2714 211 2714
L 211 2899
L 1024 3085
L 1171 3085
L 1165 2496
L 1184 2362
L 1184 646
Q 1184 467 1209 364
Q 1235 262 1337 220
Q 1440 179 1670 179
L 1670 0
z
" transform="scale(0.015625)"/>
      </defs>
      <use xlink:href="#STIXTwoText-54"/>
      <use xlink:href="#STIXTwoText-6f" x="60.299988"/>
      <use xlink:href="#STIXTwoText-74" x="111.699982"/>
      <use xlink:href="#STIXTwoText-61" x="143.199966"/>
      <use xlink:href="#STIXTwoText-6c" x="191.199951"/>
      <use xlink:href="#STIXTwoText-20" x="219.499939"/>
      <use xlink:href="#STIXTwoText-43" x="242.999924"/>
      <use xlink:href="#STIXTwoText-6f" x="309.999908"/>
      <use xlink:href="#STIXTwoText-6c" x="361.399902"/>
      <use xlink:href="#STIXTwoText-6c" x="389.69989"/>
      <use xlink:href="#STIXTwoText-69" x="417.999878"/>
      <use xlink:href="#STIXTwoText-73" x="446.499863"/>
      <use xlink:href="#STIXTwoText-69" x="485.999847"/>
      <use xlink:href="#STIXTwoText-6f" x="514.499832"/>
      <use xlink:href="#STIXTwoText-6e" x="565.899826"/>
      <use xlink:href="#STIXTwoText-73" x="623.499817"/>
     </g>
    </g>
   </g>
   <g id="line2d_18">
    <path d="M 54 240.29602
L 101.15493 237.125897
L 148.309859 234.847371
L 195.464789 231.578182
L 242.619718 220.779951
L 289.774648 205.622801
L 336.929577 162.826143
L 384.084507 44.64
" clip-path="url(#pfe754e56da)" style="fill: none; stroke-dasharray: 5.55,2.4; stroke-dashoffset: 0; stroke: #7287fd; stroke-width: 1.5"/>
   </g>
   <g id="line2d_19">
    <path d="M 54 239.998821
L 101.15493 239.602555
L 148.309859 238.909091
L 195.464789 235.045504
L 242.619718 224.643538
L 289.774648 210.179853
L 336.929577 174.81317
L 384.084507 80.700147
" clip-path="url(#pfe754e56da)" style="fill: none; stroke-dasharray: 5.55,2.4; stroke-dashoffset: 0; stroke: #40a02b; stroke-width: 1.5"/>
   </g>
   <g id="line2d_20">
    <path d="M 54 246.24
L 101.15493 246.24
L 148.309859 246.24
L 195.464789 246.24
L 242.619718 245.942801
L 289.774648 245.546536
L 336.929577 237.720295
L 384.084507 232.965111
" clip-path="url(#pfe754e56da)" style="fill: none; stroke: #fe640b; stroke-width: 1.5; stroke-linecap: round"/>
   </g>
   <g id="line2d_21">
    <path d="M 54 246.24
L 101.15493 246.24
L 148.309859 246.24
L 195.464789 246.140934
L 242.619718 246.041867
L 289.774648 245.843735
L 336.929577 239.107224
L 384.084507 232.271646
" clip-path="url(#pfe754e56da)" style="fill: none; stroke: #d20f39; stroke-width: 1.5; stroke-linecap: round"/>
   </g>
   <g id="patch_3">
    <path d="M 54 256.32
L 54 34.56
" style="fill: none; stroke: #ffffff; stroke-width: 0.8; stroke-linejoin: miter; stroke-linecap: square"/>
   </g>
   <g id="patch_4">
    <path d="M 388.8 256.32
L 388.8 34.56
" style="fill: none; stroke: #ffffff; stroke-width: 0.8; stroke-linejoin: miter; stroke-linecap: square"/>
   </g>
   <g id="patch_5">
    <path d="M 54 256.32
L 388.8 256.32
" style="fill: none; stroke: #ffffff; stroke-width: 0.8; stroke-linejoin: miter; stroke-linecap: square"/>
   </g>
   <g id="patch_6">
    <path d="M 54 34.56
L 388.8 34.56
" style="fill: none; stroke: #ffffff; stroke-width: 0.8; stroke-linejoin: miter; stroke-linecap: square"/>
   </g>
   <g id="legend_1">
    <g id="patch_7">
     <path d="M 61.7 107.16
L 253.98 107.16
Q 256.18 107.16 256.18 104.96
L 256.18 42.26
Q 256.18 40.06 253.98 40.06
L 61.7 40.06
Q 59.5 40.06 59.5 42.26
L 59.5 104.96
Q 59.5 107.16 61.7 107.16
z
" style="fill: #eff1f5; opacity: 0.8; stroke: #7c7f93; stroke-linejoin: miter"/>
    </g>
    <g id="line2d_22">
     <path d="M 63.9 48.42
L 74.9 48.42
L 85.9 48.42
" style="fill: none; stroke-dasharray: 5.55,2.4; stroke-dashoffset: 0; stroke: #7287fd; stroke-width: 1.5"/>
    </g>
    <g id="text_20">
     <!-- $\mathit{Interrobot}$        Path Tracking -->
     <g style="fill: #4c4f69" transform="translate(94.7 52.27) scale(0.11 -0.11)">
      <defs>
       <path id="STIXGeneral-Italic-49" d="M 2458 4179
L 2458 4077
Q 2189 4045 2102 3961
Q 2016 3878 1933 3584
L 1165 838
Q 1069 499 1069 352
Q 1069 224 1149 179
Q 1229 134 1510 102
L 1510 0
L -51 0
L -51 102
Q 218 154 317 237
Q 416 320 486 582
L 1254 3405
Q 1338 3699 1338 3802
Q 1338 3930 1235 3997
Q 1133 4064 877 4077
L 877 4179
L 2458 4179
z
" transform="scale(0.015625)"/>
       <path id="STIXGeneral-Italic-6e" d="M 2944 749
L 3034 666
Q 2707 218 2534 80
Q 2362 -58 2138 -58
Q 2010 -58 1923 28
Q 1837 115 1837 288
Q 1837 390 1939 768
L 2221 1805
Q 2310 2150 2310 2310
Q 2310 2496 2157 2496
Q 1971 2496 1750 2275
Q 1530 2054 1210 1587
Q 998 1274 899 1024
Q 800 774 570 0
L 90 0
L 704 2240
Q 717 2304 717 2349
Q 717 2445 630 2480
Q 544 2515 301 2522
L 301 2624
Q 550 2675 857 2729
Q 1165 2784 1338 2822
L 1363 2810
L 934 1414
Q 1408 2170 1753 2496
Q 2099 2822 2413 2822
Q 2611 2822 2720 2716
Q 2829 2611 2829 2432
Q 2829 2272 2765 2048
L 2406 749
Q 2317 429 2317 358
Q 2317 243 2419 243
Q 2541 243 2810 582
Q 2854 634 2944 749
z
" transform="scale(0.015625)"/>
       <path id="STIXGeneral-Italic-74" d="M 1894 2739
L 1862 2534
L 1325 2534
L 768 435
Q 755 384 755 346
Q 755 243 851 243
Q 928 243 1030 342
Q 1133 442 1370 749
L 1453 704
Q 1158 256 969 93
Q 781 -70 538 -70
Q 243 -70 243 166
Q 243 230 346 640
L 845 2534
L 365 2534
L 358 2573
Q 358 2688 570 2733
Q 730 2771 992 2979
Q 1254 3187 1421 3437
Q 1459 3494 1510 3494
Q 1568 3494 1568 3443
Q 1568 3411 1562 3398
L 1382 2739
L 1894 2739
z
" transform="scale(0.015625)"/>
       <path id="STIXGeneral-Italic-65" d="M 2291 698
L 2368 621
Q 1805 -70 1062 -70
Q 672 -70 435 170
Q 198 410 198 806
Q 198 1555 796 2188
Q 1395 2822 2112 2822
Q 2362 2822 2499 2707
Q 2637 2592 2637 2387
Q 2637 1965 2147 1632
Q 1658 1299 819 1190
Q 755 1062 755 800
Q 755 538 918 378
Q 1082 218 1350 218
Q 1562 218 1754 317
Q 1946 416 2291 698
z
M 973 1613
L 864 1331
Q 1581 1504 1894 1805
Q 2214 2112 2214 2426
Q 2214 2675 1990 2675
Q 1722 2675 1430 2364
Q 1139 2054 973 1613
z
" transform="scale(0.015625)"/>
       <path id="STIXGeneral-Italic-72" d="M 1126 1427
L 1229 1651
Q 1446 2131 1830 2534
Q 2106 2822 2336 2822
Q 2470 2822 2553 2732
Q 2637 2643 2637 2496
Q 2637 2349 2557 2249
Q 2477 2150 2336 2150
Q 2214 2150 2112 2317
Q 2061 2406 2010 2406
Q 1837 2406 1485 1805
Q 1267 1434 1136 1104
Q 1005 774 774 0
L 288 0
L 806 1869
Q 909 2246 909 2394
Q 909 2560 666 2560
Q 614 2560 467 2541
L 467 2650
L 1459 2822
L 1478 2810
L 1126 1427
z
" transform="scale(0.015625)"/>
       <path id="STIXGeneral-Italic-6f" d="M 2995 1926
Q 2995 1562 2812 1168
Q 2630 774 2317 461
Q 1786 -70 1114 -70
Q 666 -70 419 163
Q 173 397 173 819
Q 173 1350 496 1856
Q 819 2362 1325 2630
Q 1683 2822 2093 2822
Q 2490 2822 2742 2582
Q 2995 2342 2995 1926
z
M 2458 2086
Q 2458 2374 2336 2531
Q 2214 2688 2003 2688
Q 1574 2688 1184 2106
Q 710 1382 710 646
Q 710 365 844 214
Q 979 64 1210 64
Q 1600 64 1984 595
Q 2202 890 2330 1302
Q 2458 1715 2458 2086
z
" transform="scale(0.015625)"/>
       <path id="STIXGeneral-Italic-62" d="M 1043 1856
L 1050 1856
Q 1370 2387 1654 2604
Q 1939 2822 2285 2822
Q 2618 2822 2822 2617
Q 3027 2413 3027 2054
Q 3027 1562 2726 1062
Q 2426 563 1942 246
Q 1459 -70 979 -70
Q 685 -70 416 32
Q 147 134 147 269
L 147 307
L 1056 3654
Q 1114 3885 1114 3955
Q 1114 4058 1053 4080
Q 992 4102 704 4115
L 704 4224
Q 1184 4282 1683 4371
L 1715 4339
L 1581 3814
L 1043 1856
z
M 2483 1958
Q 2483 2509 2035 2509
Q 1594 2509 1158 1773
Q 954 1427 826 1008
Q 698 589 698 294
Q 698 77 992 77
Q 1414 77 1779 454
Q 2074 762 2278 1187
Q 2483 1613 2483 1958
z
" transform="scale(0.015625)"/>
       <path id="STIXTwoText-68" d="M 3558 0
L 2086 0
L 2086 186
Q 2310 186 2406 230
Q 2502 275 2528 371
Q 2554 467 2554 621
L 2554 1728
Q 2554 1990 2515 2211
Q 2477 2432 2352 2563
Q 2227 2694 1965 2694
Q 1766 2694 1561 2588
Q 1357 2483 1094 2227
L 1101 2579
L 1190 2579
Q 1491 2861 1731 2982
Q 1971 3104 2227 3104
Q 2502 3104 2672 2995
Q 2842 2886 2931 2710
Q 3021 2534 3053 2326
Q 3085 2118 3085 1920
L 3085 646
Q 3085 390 3171 288
Q 3258 186 3558 186
L 3558 0
z
M 1645 0
L 192 0
L 192 186
Q 442 186 541 256
Q 640 326 640 595
L 640 3872
Q 640 4038 547 4083
Q 454 4128 326 4128
Q 250 4128 195 4121
Q 141 4115 141 4115
L 141 4294
L 998 4518
L 1171 4518
L 1171 621
Q 1171 454 1196 358
Q 1222 262 1324 224
Q 1427 186 1645 186
L 1645 0
z
" transform="scale(0.015625)"/>
       <path id="STIXTwoText-63" d="M 2611 947
L 2733 858
Q 2611 602 2454 390
Q 2298 179 2067 57
Q 1837 -64 1491 -64
Q 1094 -64 806 128
Q 518 320 364 662
Q 211 1005 211 1446
Q 211 1952 380 2323
Q 550 2694 873 2899
Q 1197 3104 1658 3104
Q 2112 3104 2371 2905
Q 2630 2707 2630 2426
Q 2630 2285 2563 2211
Q 2496 2138 2362 2138
Q 2221 2138 2147 2211
Q 2074 2285 2029 2393
Q 1984 2502 1936 2611
Q 1888 2720 1801 2793
Q 1715 2867 1549 2867
Q 1158 2867 937 2582
Q 717 2298 717 1747
Q 717 1165 957 790
Q 1197 416 1690 416
Q 2003 416 2198 544
Q 2394 672 2611 947
z
" transform="scale(0.015625)"/>
       <path id="STIXTwoText-6b" d="M 1645 0
L 192 0
L 192 186
Q 480 186 560 266
Q 640 346 640 608
L 640 3808
Q 640 4013 592 4073
Q 544 4134 384 4134
Q 320 4134 243 4128
Q 166 4122 166 4122
L 166 4294
L 998 4518
L 1171 4518
L 1171 1696
L 1210 1696
L 2035 2515
Q 2054 2534 2102 2588
Q 2150 2643 2150 2720
Q 2150 2784 2086 2809
Q 2022 2835 1837 2835
L 1837 3027
L 3219 3027
L 3219 2835
Q 3066 2835 2947 2806
Q 2829 2778 2707 2698
Q 2586 2618 2410 2470
Q 2234 2323 1965 2086
L 1645 1824
L 2771 557
Q 2925 384 3024 304
Q 3123 224 3219 205
Q 3315 186 3450 186
L 3450 0
L 2035 0
L 2035 186
Q 2176 186 2230 202
Q 2285 218 2285 262
Q 2285 307 2262 348
Q 2240 390 2214 416
L 1210 1555
L 1171 1555
L 1171 582
Q 1171 339 1257 262
Q 1344 186 1645 186
L 1645 0
z
" transform="scale(0.015625)"/>
       <path id="STIXTwoText-67" d="M 1222 -1504
Q 806 -1504 566 -1401
Q 326 -1299 230 -1136
Q 134 -973 134 -800
Q 134 -640 265 -464
Q 397 -288 653 -38
L 653 32
L 845 -6
Q 723 -211 678 -342
Q 634 -474 634 -582
Q 634 -858 870 -998
Q 1107 -1139 1594 -1139
Q 1971 -1139 2204 -1043
Q 2438 -947 2544 -806
Q 2650 -666 2650 -531
Q 2650 -358 2538 -265
Q 2426 -173 2253 -134
Q 2080 -96 1888 -86
Q 1696 -77 1536 -77
Q 1248 -70 1101 -70
Q 954 -70 890 -67
Q 826 -64 774 -64
L 710 -32
Q 614 0 518 70
Q 422 141 358 240
Q 294 339 294 448
Q 294 563 361 688
Q 429 813 550 937
Q 672 1062 819 1178
L 819 1235
L 986 1114
Q 954 1082 909 998
Q 864 915 832 822
Q 800 730 800 666
Q 800 570 867 515
Q 934 461 1097 435
Q 1261 410 1555 410
Q 1958 410 2281 371
Q 2605 333 2790 173
Q 2976 13 2976 -352
Q 2976 -672 2819 -893
Q 2662 -1114 2403 -1248
Q 2144 -1382 1833 -1443
Q 1523 -1504 1222 -1504
z
M 1517 998
Q 1350 998 1206 1030
Q 1062 1062 928 1107
L 858 1171
Q 691 1261 572 1382
Q 454 1504 390 1673
Q 326 1843 326 2061
Q 326 2381 473 2614
Q 621 2848 883 2976
Q 1146 3104 1485 3104
Q 1677 3104 1846 3069
Q 2016 3034 2163 2963
Q 2310 2893 2419 2797
L 2419 2630
Q 2490 2534 2570 2374
Q 2650 2214 2650 1971
Q 2650 1677 2506 1456
Q 2362 1235 2109 1116
Q 1856 998 1517 998
z
M 1523 1222
Q 1766 1222 1923 1388
Q 2080 1555 2080 2010
Q 2080 2400 1913 2637
Q 1747 2874 1440 2874
Q 1190 2874 1040 2682
Q 890 2490 890 2086
Q 890 1677 1050 1449
Q 1210 1222 1523 1222
z
M 3021 2989
L 3021 2643
L 2330 2662
L 2106 2938
L 3021 2989
z
" transform="scale(0.015625)"/>
      </defs>
      <use xlink:href="#STIXGeneral-Italic-49" transform="translate(0 0.40625)"/>
      <use xlink:href="#STIXGeneral-Italic-6e" transform="translate(33.299988 0.40625)"/>
      <use xlink:href="#STIXGeneral-Italic-74" transform="translate(83.299973 0.40625)"/>
      <use xlink:href="#STIXGeneral-Italic-65" transform="translate(111.09996 0.40625)"/>
      <use xlink:href="#STIXGeneral-Italic-72" transform="translate(155.499954 0.40625)"/>
      <use xlink:href="#STIXGeneral-Italic-72" transform="translate(194.399948 0.40625)"/>
      <use xlink:href="#STIXGeneral-Italic-6f" transform="translate(233.299942 0.40625)"/>
      <use xlink:href="#STIXGeneral-Italic-62" transform="translate(283.299927 0.40625)"/>
      <use xlink:href="#STIXGeneral-Italic-6f" transform="translate(333.299911 0.40625)"/>
      <use xlink:href="#STIXGeneral-Italic-74" transform="translate(383.299896 0.40625)"/>
      <use xlink:href="#STIXTwoText-20" transform="translate(411.099884 0.40625)"/>
      <use xlink:href="#STIXTwoText-20" transform="translate(434.599869 0.40625)"/>
      <use xlink:href="#STIXTwoText-20" transform="translate(458.099854 0.40625)"/>
      <use xlink:href="#STIXTwoText-20" transform="translate(481.599838 0.40625)"/>
      <use xlink:href="#STIXTwoText-20" transform="translate(505.099823 0.40625)"/>
      <use xlink:href="#STIXTwoText-20" transform="translate(528.599808 0.40625)"/>
      <use xlink:href="#STIXTwoText-20" transform="translate(552.099792 0.40625)"/>
      <use xlink:href="#STIXTwoText-20" transform="translate(575.599777 0.40625)"/>
      <use xlink:href="#STIXTwoText-50" transform="translate(599.099762 0.40625)"/>
      <use xlink:href="#STIXTwoText-61" transform="translate(655.999756 0.40625)"/>
      <use xlink:href="#STIXTwoText-74" transform="translate(703.999741 0.40625)"/>
      <use xlink:href="#STIXTwoText-68" transform="translate(735.499725 0.40625)"/>
      <use xlink:href="#STIXTwoText-20" transform="translate(793.199722 0.40625)"/>
      <use xlink:href="#STIXTwoText-54" transform="translate(816.699707 0.40625)"/>
      <use xlink:href="#STIXTwoText-72" transform="translate(876.999695 0.40625)"/>
      <use xlink:href="#STIXTwoText-61" transform="translate(914.99968 0.40625)"/>
      <use xlink:href="#STIXTwoText-63" transform="translate(962.999664 0.40625)"/>
      <use xlink:href="#STIXTwoText-6b" transform="translate(1007.599655 0.40625)"/>
      <use xlink:href="#STIXTwoText-69" transform="translate(1061.799652 0.40625)"/>
      <use xlink:href="#STIXTwoText-6e" transform="translate(1090.299637 0.40625)"/>
      <use xlink:href="#STIXTwoText-67" transform="translate(1147.899628 0.40625)"/>
     </g>
    </g>
    <g id="line2d_23">
     <path d="M 63.9 64.37
L 74.9 64.37
L 85.9 64.37
" style="fill: none; stroke-dasharray: 5.55,2.4; stroke-dashoffset: 0; stroke: #40a02b; stroke-width: 1.5"/>
    </g>
    <g id="text_21">
     <!-- $\mathit{Interrobot}$        Waypoint Tracking -->
     <g style="fill: #4c4f69" transform="translate(94.7 68.22) scale(0.11 -0.11)">
      <defs>
       <path id="STIXTwoText-57" d="M 4256 -38
L 4083 -38
L 3085 2598
L 2982 2816
L 2771 3405
Q 2669 3686 2585 3814
Q 2502 3942 2393 3977
Q 2285 4013 2099 4013
L 2099 4205
L 3770 4205
L 3770 4013
Q 3283 4013 3283 3795
Q 3283 3718 3321 3616
Q 3360 3514 3392 3424
L 4058 1696
L 4269 1062
L 4301 1062
L 5030 3187
Q 5062 3290 5088 3386
Q 5114 3482 5130 3574
Q 5146 3667 5146 3744
Q 5146 3891 5043 3952
Q 4941 4013 4717 4013
L 4717 4205
L 6035 4205
L 6035 4013
Q 5811 4006 5696 3910
Q 5581 3814 5491 3571
L 4256 -38
z
M 2131 -38
L 1971 -38
L 640 3315
Q 493 3718 339 3862
Q 186 4006 -64 4013
L -64 4205
L 1587 4205
L 1587 4013
Q 1344 4013 1254 3958
Q 1165 3904 1165 3802
Q 1165 3680 1254 3450
L 1997 1581
L 2195 1043
L 2227 1043
L 2982 2995
L 3283 2502
L 3098 2502
L 2131 -38
z
" transform="scale(0.015625)"/>
       <path id="STIXTwoText-70" d="M 1760 -1408
L 141 -1408
L 141 -1229
Q 442 -1229 525 -1129
Q 608 -1030 608 -762
L 608 2406
Q 608 2592 566 2662
Q 525 2733 365 2733
Q 301 2733 230 2726
Q 160 2720 160 2720
L 160 2906
L 966 3085
L 1126 3085
L 1126 2547
L 1146 2547
Q 1376 2816 1616 2960
Q 1856 3104 2138 3104
Q 2458 3104 2698 2921
Q 2938 2739 3075 2416
Q 3213 2093 3213 1670
Q 3213 1126 3024 739
Q 2835 352 2515 144
Q 2195 -64 1811 -64
Q 1632 -64 1469 -22
Q 1306 19 1165 115
L 1139 115
L 1139 -723
Q 1139 -928 1190 -1037
Q 1242 -1146 1376 -1184
Q 1510 -1222 1760 -1222
L 1760 -1408
z
M 1843 186
Q 2182 186 2406 506
Q 2630 826 2630 1491
Q 2630 2099 2432 2384
Q 2234 2669 1875 2669
Q 1619 2669 1424 2534
Q 1229 2400 1139 2278
L 1139 608
Q 1203 544 1299 441
Q 1395 339 1529 262
Q 1664 186 1843 186
z
" transform="scale(0.015625)"/>
      </defs>
      <use xlink:href="#STIXGeneral-Italic-49" transform="translate(0 0.40625)"/>
      <use xlink:href="#STIXGeneral-Italic-6e" transform="translate(33.299988 0.40625)"/>
      <use xlink:href="#STIXGeneral-Italic-74" transform="translate(83.299973 0.40625)"/>
      <use xlink:href="#STIXGeneral-Italic-65" transform="translate(111.09996 0.40625)"/>
      <use xlink:href="#STIXGeneral-Italic-72" transform="translate(155.499954 0.40625)"/>
      <use xlink:href="#STIXGeneral-Italic-72" transform="translate(194.399948 0.40625)"/>
      <use xlink:href="#STIXGeneral-Italic-6f" transform="translate(233.299942 0.40625)"/>
      <use xlink:href="#STIXGeneral-Italic-62" transform="translate(283.299927 0.40625)"/>
      <use xlink:href="#STIXGeneral-Italic-6f" transform="translate(333.299911 0.40625)"/>
      <use xlink:href="#STIXGeneral-Italic-74" transform="translate(383.299896 0.40625)"/>
      <use xlink:href="#STIXTwoText-20" transform="translate(411.099884 0.40625)"/>
      <use xlink:href="#STIXTwoText-20" transform="translate(434.599869 0.40625)"/>
      <use xlink:href="#STIXTwoText-20" transform="translate(458.099854 0.40625)"/>
      <use xlink:href="#STIXTwoText-20" transform="translate(481.599838 0.40625)"/>
      <use xlink:href="#STIXTwoText-20" transform="translate(505.099823 0.40625)"/>
      <use xlink:href="#STIXTwoText-20" transform="translate(528.599808 0.40625)"/>
      <use xlink:href="#STIXTwoText-20" transform="translate(552.099792 0.40625)"/>
      <use xlink:href="#STIXTwoText-20" transform="translate(575.599777 0.40625)"/>
      <use xlink:href="#STIXTwoText-57" transform="translate(599.099762 0.40625)"/>
      <use xlink:href="#STIXTwoText-61" transform="translate(693.499756 0.40625)"/>
      <use xlink:href="#STIXTwoText-79" transform="translate(741.499741 0.40625)"/>
      <use xlink:href="#STIXTwoText-70" transform="translate(789.799728 0.40625)"/>
      <use xlink:href="#STIXTwoText-6f" transform="translate(843.499725 0.40625)"/>
      <use xlink:href="#STIXTwoText-69" transform="translate(894.899719 0.40625)"/>
      <use xlink:href="#STIXTwoText-6e" transform="translate(923.399704 0.40625)"/>
      <use xlink:href="#STIXTwoText-74" transform="translate(980.999695 0.40625)"/>
      <use xlink:href="#STIXTwoText-20" transform="translate(1012.49968 0.40625)"/>
      <use xlink:href="#STIXTwoText-54" transform="translate(1035.999664 0.40625)"/>
      <use xlink:href="#STIXTwoText-72" transform="translate(1096.299652 0.40625)"/>
      <use xlink:href="#STIXTwoText-61" transform="translate(1134.299637 0.40625)"/>
      <use xlink:href="#STIXTwoText-63" transform="translate(1182.299622 0.40625)"/>
      <use xlink:href="#STIXTwoText-6b" transform="translate(1226.899612 0.40625)"/>
      <use xlink:href="#STIXTwoText-69" transform="translate(1281.099609 0.40625)"/>
      <use xlink:href="#STIXTwoText-6e" transform="translate(1309.599594 0.40625)"/>
      <use xlink:href="#STIXTwoText-67" transform="translate(1367.199585 0.40625)"/>
     </g>
    </g>
    <g id="line2d_24">
     <path d="M 63.9 80.32
L 74.9 80.32
L 85.9 80.32
" style="fill: none; stroke: #fe640b; stroke-width: 1.5; stroke-linecap: round"/>
    </g>
    <g id="text_22">
     <!-- $\mathit{Environment}$    Path Tracking -->
     <g style="fill: #4c4f69" transform="translate(94.7 84.17) scale(0.11 -0.11)">
      <defs>
       <path id="STIXGeneral-Italic-45" d="M 4058 4179
L 3859 3194
L 3718 3206
Q 3738 3366 3738 3501
Q 3738 3789 3501 3878
Q 3264 3968 2509 3968
Q 2240 3968 2157 3939
Q 2074 3910 2042 3802
L 1619 2310
L 2118 2310
Q 2541 2310 2681 2412
Q 2822 2515 3008 2931
L 3123 2906
L 2688 1421
L 2560 1453
Q 2605 1651 2605 1786
Q 2605 1939 2560 1984
Q 2451 2080 2061 2080
L 1562 2080
L 1357 1363
Q 1126 550 1126 429
Q 1126 211 1632 211
Q 2458 211 2931 461
Q 3174 589 3533 1088
L 3635 1037
L 3238 0
L -6 0
L -6 102
Q 269 154 352 227
Q 435 301 512 576
L 1299 3405
Q 1370 3642 1370 3814
Q 1370 3942 1270 3996
Q 1171 4051 877 4077
L 877 4179
L 4058 4179
z
" transform="scale(0.015625)"/>
       <path id="STIXGeneral-Italic-76" d="M 1325 448
L 1523 653
Q 1869 1005 2134 1456
Q 2400 1907 2400 2131
Q 2400 2208 2285 2317
Q 2125 2458 2125 2605
Q 2125 2701 2195 2761
Q 2266 2822 2368 2822
Q 2522 2822 2624 2704
Q 2726 2586 2726 2445
Q 2726 2074 2323 1453
Q 1971 909 1562 474
Q 1504 416 1421 326
Q 1338 237 1299 192
Q 1261 147 1200 86
Q 1139 26 1110 -3
Q 1082 -32 1043 -64
Q 1005 -96 979 -105
Q 954 -115 928 -115
Q 870 -115 870 58
L 870 211
Q 870 1094 717 1990
Q 653 2355 579 2470
Q 506 2586 326 2586
Q 198 2586 128 2579
L 128 2662
Q 480 2720 845 2797
Q 915 2822 973 2822
Q 1011 2822 1033 2739
Q 1056 2656 1165 2093
Q 1280 1510 1325 448
z
" transform="scale(0.015625)"/>
       <path id="STIXGeneral-Italic-69" d="M 1690 3834
Q 1690 3699 1597 3603
Q 1504 3507 1376 3507
Q 1235 3507 1152 3600
Q 1069 3693 1069 3846
Q 1069 3994 1155 4090
Q 1242 4186 1370 4186
Q 1498 4186 1594 4080
Q 1690 3974 1690 3834
z
M 1421 730
L 1504 659
Q 1235 243 1049 86
Q 864 -70 627 -70
Q 314 -70 314 282
Q 314 467 454 992
L 762 2125
Q 819 2330 819 2406
Q 819 2502 745 2528
Q 672 2554 410 2560
L 410 2662
Q 704 2688 1434 2822
L 1459 2803
L 858 608
Q 794 390 794 326
Q 794 230 883 230
Q 1043 230 1421 730
z
" transform="scale(0.015625)"/>
       <path id="STIXGeneral-Italic-6d" d="M 4506 672
L 4474 627
Q 3981 -58 3552 -58
Q 3296 -58 3296 237
Q 3296 333 3379 659
L 3750 2112
Q 3795 2291 3795 2355
Q 3795 2413 3756 2451
Q 3718 2490 3667 2490
Q 3366 2490 2829 1741
Q 2592 1408 2457 1072
Q 2323 736 2138 0
L 1658 0
L 1830 595
Q 2266 2099 2266 2330
Q 2266 2490 2125 2490
Q 1965 2490 1702 2237
Q 1440 1984 1171 1574
Q 1011 1325 899 1043
Q 787 762 557 0
L 77 0
L 352 922
Q 704 2093 704 2381
Q 704 2522 442 2522
L 282 2522
L 282 2624
L 1318 2822
L 1338 2810
L 966 1472
Q 1798 2822 2374 2822
Q 2560 2822 2659 2720
Q 2758 2618 2758 2438
Q 2758 2195 2502 1466
Q 2842 2003 3069 2275
Q 3296 2547 3526 2694
Q 3731 2822 3930 2822
Q 4102 2822 4201 2710
Q 4301 2598 4301 2419
Q 4301 2336 4282 2240
L 3846 634
Q 3782 390 3782 346
Q 3782 243 3859 243
Q 4000 243 4275 582
L 4410 749
L 4506 672
z
" transform="scale(0.015625)"/>
      </defs>
      <use xlink:href="#STIXGeneral-Italic-45" transform="translate(0 0.40625)"/>
      <use xlink:href="#STIXGeneral-Italic-6e" transform="translate(61.099991 0.40625)"/>
      <use xlink:href="#STIXGeneral-Italic-76" transform="translate(111.099976 0.40625)"/>
      <use xlink:href="#STIXGeneral-Italic-69" transform="translate(155.499969 0.40625)"/>
      <use xlink:href="#STIXGeneral-Italic-72" transform="translate(183.299957 0.40625)"/>
      <use xlink:href="#STIXGeneral-Italic-6f" transform="translate(222.199951 0.40625)"/>
      <use xlink:href="#STIXGeneral-Italic-6e" transform="translate(272.199936 0.40625)"/>
      <use xlink:href="#STIXGeneral-Italic-6d" transform="translate(322.199921 0.40625)"/>
      <use xlink:href="#STIXGeneral-Italic-65" transform="translate(394.399902 0.40625)"/>
      <use xlink:href="#STIXGeneral-Italic-6e" transform="translate(438.799896 0.40625)"/>
      <use xlink:href="#STIXGeneral-Italic-74" transform="translate(488.799881 0.40625)"/>
      <use xlink:href="#STIXTwoText-20" transform="translate(516.599869 0.40625)"/>
      <use xlink:href="#STIXTwoText-20" transform="translate(540.099854 0.40625)"/>
      <use xlink:href="#STIXTwoText-20" transform="translate(563.599838 0.40625)"/>
      <use xlink:href="#STIXTwoText-20" transform="translate(587.099823 0.40625)"/>
      <use xlink:href="#STIXTwoText-50" transform="translate(610.599808 0.40625)"/>
      <use xlink:href="#STIXTwoText-61" transform="translate(667.499802 0.40625)"/>
      <use xlink:href="#STIXTwoText-74" transform="translate(715.499786 0.40625)"/>
      <use xlink:href="#STIXTwoText-68" transform="translate(746.999771 0.40625)"/>
      <use xlink:href="#STIXTwoText-20" transform="translate(804.699768 0.40625)"/>
      <use xlink:href="#STIXTwoText-54" transform="translate(828.199753 0.40625)"/>
      <use xlink:href="#STIXTwoText-72" transform="translate(888.499741 0.40625)"/>
      <use xlink:href="#STIXTwoText-61" transform="translate(926.499725 0.40625)"/>
      <use xlink:href="#STIXTwoText-63" transform="translate(974.49971 0.40625)"/>
      <use xlink:href="#STIXTwoText-6b" transform="translate(1019.099701 0.40625)"/>
      <use xlink:href="#STIXTwoText-69" transform="translate(1073.299698 0.40625)"/>
      <use xlink:href="#STIXTwoText-6e" transform="translate(1101.799683 0.40625)"/>
      <use xlink:href="#STIXTwoText-67" transform="translate(1159.399673 0.40625)"/>
     </g>
    </g>
    <g id="line2d_25">
     <path d="M 63.9 96.27
L 74.9 96.27
L 85.9 96.27
" style="fill: none; stroke: #d20f39; stroke-width: 1.5; stroke-linecap: round"/>
    </g>
    <g id="text_23">
     <!-- $\mathit{Environment}$    Waypoint Tracking -->
     <g style="fill: #4c4f69" transform="translate(94.7 100.12) scale(0.11 -0.11)">
      <use xlink:href="#STIXGeneral-Italic-45" transform="translate(0 0.40625)"/>
      <use xlink:href="#STIXGeneral-Italic-6e" transform="translate(61.099991 0.40625)"/>
      <use xlink:href="#STIXGeneral-Italic-76" transform="translate(111.099976 0.40625)"/>
      <use xlink:href="#STIXGeneral-Italic-69" transform="translate(155.499969 0.40625)"/>
      <use xlink:href="#STIXGeneral-Italic-72" transform="translate(183.299957 0.40625)"/>
      <use xlink:href="#STIXGeneral-Italic-6f" transform="translate(222.199951 0.40625)"/>
      <use xlink:href="#STIXGeneral-Italic-6e" transform="translate(272.199936 0.40625)"/>
      <use xlink:href="#STIXGeneral-Italic-6d" transform="translate(322.199921 0.40625)"/>
      <use xlink:href="#STIXGeneral-Italic-65" transform="translate(394.399902 0.40625)"/>
      <use xlink:href="#STIXGeneral-Italic-6e" transform="translate(438.799896 0.40625)"/>
      <use xlink:href="#STIXGeneral-Italic-74" transform="translate(488.799881 0.40625)"/>
      <use xlink:href="#STIXTwoText-20" transform="translate(516.599869 0.40625)"/>
      <use xlink:href="#STIXTwoText-20" transform="translate(540.099854 0.40625)"/>
      <use xlink:href="#STIXTwoText-20" transform="translate(563.599838 0.40625)"/>
      <use xlink:href="#STIXTwoText-20" transform="translate(587.099823 0.40625)"/>
      <use xlink:href="#STIXTwoText-57" transform="translate(610.599808 0.40625)"/>
      <use xlink:href="#STIXTwoText-61" transform="translate(704.999802 0.40625)"/>
      <use xlink:href="#STIXTwoText-79" transform="translate(752.999786 0.40625)"/>
      <use xlink:href="#STIXTwoText-70" transform="translate(801.299774 0.40625)"/>
      <use xlink:href="#STIXTwoText-6f" transform="translate(854.999771 0.40625)"/>
      <use xlink:href="#STIXTwoText-69" transform="translate(906.399765 0.40625)"/>
      <use xlink:href="#STIXTwoText-6e" transform="translate(934.89975 0.40625)"/>
      <use xlink:href="#STIXTwoText-74" transform="translate(992.499741 0.40625)"/>
      <use xlink:href="#STIXTwoText-20" transform="translate(1023.999725 0.40625)"/>
      <use xlink:href="#STIXTwoText-54" transform="translate(1047.49971 0.40625)"/>
      <use xlink:href="#STIXTwoText-72" transform="translate(1107.799698 0.40625)"/>
      <use xlink:href="#STIXTwoText-61" transform="translate(1145.799683 0.40625)"/>
      <use xlink:href="#STIXTwoText-63" transform="translate(1193.799667 0.40625)"/>
      <use xlink:href="#STIXTwoText-6b" transform="translate(1238.399658 0.40625)"/>
      <use xlink:href="#STIXTwoText-69" transform="translate(1292.599655 0.40625)"/>
      <use xlink:href="#STIXTwoText-6e" transform="translate(1321.09964 0.40625)"/>
      <use xlink:href="#STIXTwoText-67" transform="translate(1378.699631 0.40625)"/>
     </g>
    </g>
   </g>
  </g>
 </g>
 <defs>
  <clipPath id="pfe754e56da">
   <rect x="54" y="34.56" width="334.8" height="221.76"/>
  </clipPath>
 </defs>
</svg>
