<?xml version="1.0" encoding="utf-8" standalone="no"?>
<!DOCTYPE svg PUBLIC "-//W3C//DTD SVG 1.1//EN"
  "http://www.w3.org/Graphics/SVG/1.1/DTD/svg11.dtd">
<svg xmlns:xlink="http://www.w3.org/1999/xlink" width="324pt" height="324pt" viewBox="0 0 324 324" xmlns="http://www.w3.org/2000/svg" version="1.1">
 <metadata>
  <rdf:RDF xmlns:dc="http://purl.org/dc/elements/1.1/" xmlns:cc="http://creativecommons.org/ns#" xmlns:rdf="http://www.w3.org/1999/02/22-rdf-syntax-ns#">
   <cc:Work>
    <dc:type rdf:resource="http://purl.org/dc/dcmitype/StillImage"/>
    <dc:date>1980-01-01T00:00:00+00:00</dc:date>
    <dc:format>image/svg+xml</dc:format>
    <dc:creator>
     <cc:Agent>
      <dc:title>Matplotlib v3.8.4, https://matplotlib.org/</dc:title>
     </cc:Agent>
    </dc:creator>
   </cc:Work>
  </rdf:RDF>
 </metadata>
 <defs>
  <style type="text/css">*{stroke-linejoin: round; stroke-linecap: butt}</style>
 </defs>
 <g id="figure_1">
  <g id="patch_1">
   <path d="M 0 324
L 324 324
L 324 0
L 0 0
z
" style="fill: #ffffff"/>
  </g>
  <g id="axes_1">
   <g id="patch_2">
    <path d="M 51.6 246.427143
L 254.371429 246.427143
L 254.371429 43.655714
L 51.6 43.655714
z
" style="fill: #eff1f5"/>
   </g>
   <g id="matplotlib.axis_1">
    <g id="text_1">
     <!-- External -->
     <g style="fill: #4c4f69" transform="translate(131.367902 284.898393) scale(0.12 -0.12)">
      <defs>
       <path id="STIXTwoText-45" d="M 3648 0
L 230 0
L 230 192
Q 493 192 624 227
Q 755 262 803 384
Q 851 506 851 755
L 851 3424
Q 851 3667 803 3795
Q 755 3923 624 3968
Q 493 4013 230 4013
L 230 4205
L 3590 4205
L 3629 3155
L 3424 3155
Q 3379 3475 3286 3638
Q 3194 3802 2986 3859
Q 2778 3917 2381 3917
L 1440 3917
L 1440 2291
L 2189 2291
Q 2483 2291 2636 2342
Q 2790 2394 2848 2534
Q 2906 2675 2906 2931
L 3110 2931
L 3110 1446
L 2906 1446
Q 2906 1709 2848 1837
Q 2790 1965 2636 2003
Q 2483 2042 2189 2042
L 1440 2042
L 1440 282
L 2266 282
Q 2637 282 2864 317
Q 3091 352 3222 448
Q 3354 544 3440 723
Q 3526 902 3622 1190
L 3827 1190
L 3648 0
z
" transform="scale(0.015625)"/>
       <path id="STIXTwoText-78" d="M 3085 0
L 1747 0
L 1747 186
Q 1914 186 1981 214
Q 2048 243 2048 326
Q 2048 390 2003 461
L 1600 1082
L 1440 1363
L 1338 1453
L 634 2458
Q 525 2618 448 2701
Q 371 2784 288 2813
Q 205 2842 70 2842
L 70 3027
L 1446 3027
L 1446 2848
Q 1139 2848 1139 2701
Q 1139 2650 1177 2579
Q 1216 2509 1289 2397
Q 1363 2285 1472 2106
L 1651 1773
L 1754 1715
L 2573 557
Q 2707 365 2806 275
Q 2906 186 3085 186
L 3085 0
z
M 1056 0
L -13 0
L -13 186
Q 154 186 262 253
Q 371 320 531 506
L 1338 1555
L 1536 1306
L 1446 1306
L 922 550
Q 877 474 822 397
Q 768 320 768 282
Q 768 230 832 208
Q 896 186 1056 186
L 1056 0
z
M 2464 2541
L 1754 1626
L 1568 1824
L 1651 1824
L 1952 2259
Q 2080 2438 2131 2528
Q 2182 2618 2182 2694
Q 2182 2765 2128 2806
Q 2074 2848 1920 2848
L 1920 3027
L 2976 3027
L 2976 2842
Q 2816 2842 2694 2762
Q 2573 2682 2464 2541
z
" transform="scale(0.015625)"/>
       <path id="STIXTwoText-74" d="M 1875 576
L 1997 474
Q 1875 301 1769 182
Q 1664 64 1536 0
Q 1408 -64 1203 -64
Q 883 -64 736 125
Q 589 314 589 742
L 589 2726
L 237 2726
L 237 2874
Q 461 3014 624 3254
Q 787 3494 960 3904
L 1120 3904
L 1120 2995
L 1843 2995
L 1843 2726
L 1120 2726
L 1120 922
Q 1120 582 1181 448
Q 1242 314 1427 314
Q 1581 314 1667 378
Q 1754 442 1875 576
z
" transform="scale(0.015625)"/>
       <path id="STIXTwoText-65" d="M 1581 -64
Q 1197 -64 886 118
Q 576 301 397 656
Q 218 1011 218 1523
Q 218 2061 400 2409
Q 582 2758 889 2931
Q 1197 3104 1568 3104
Q 2093 3104 2413 2739
Q 2733 2374 2758 1702
L 678 1702
L 672 1939
L 2157 1939
Q 2150 2176 2073 2384
Q 1997 2592 1849 2720
Q 1702 2848 1472 2848
Q 1101 2848 915 2557
Q 730 2266 730 1734
Q 730 1293 870 998
Q 1011 704 1241 560
Q 1472 416 1734 416
Q 1997 416 2160 486
Q 2323 557 2438 669
Q 2554 781 2656 915
L 2778 826
Q 2694 646 2585 483
Q 2477 320 2339 198
Q 2202 77 2016 6
Q 1830 -64 1581 -64
z
" transform="scale(0.015625)"/>
       <path id="STIXTwoText-72" d="M 1786 0
L 186 0
L 186 186
Q 397 186 496 221
Q 595 256 624 349
Q 653 442 653 621
L 653 2381
Q 653 2554 624 2640
Q 595 2726 422 2726
Q 326 2726 275 2720
Q 224 2714 224 2714
L 224 2893
L 1018 3085
L 1171 3085
L 1171 2426
L 1190 2426
Q 1357 2662 1485 2816
Q 1613 2970 1737 3046
Q 1862 3123 2016 3123
Q 2202 3123 2294 3027
Q 2387 2931 2387 2765
Q 2387 2586 2300 2502
Q 2214 2419 2106 2419
Q 2003 2419 1923 2473
Q 1843 2528 1785 2582
Q 1728 2637 1690 2637
Q 1581 2637 1440 2470
Q 1299 2304 1184 2112
L 1184 653
Q 1184 454 1235 352
Q 1286 250 1417 218
Q 1549 186 1786 186
L 1786 0
z
" transform="scale(0.015625)"/>
       <path id="STIXTwoText-6e" d="M 3552 0
L 2074 0
L 2074 179
Q 2304 179 2403 220
Q 2502 262 2524 364
Q 2547 467 2547 646
L 2547 1805
Q 2547 2189 2460 2381
Q 2374 2573 2240 2633
Q 2106 2694 1958 2694
Q 1773 2694 1625 2620
Q 1478 2547 1360 2444
Q 1242 2342 1139 2253
L 1094 2566
L 1190 2566
Q 1453 2797 1686 2950
Q 1920 3104 2221 3104
Q 2656 3104 2867 2809
Q 3078 2515 3078 1965
L 3078 646
Q 3078 467 3107 364
Q 3136 262 3238 220
Q 3341 179 3552 179
L 3552 0
z
M 1670 0
L 205 0
L 205 179
Q 422 179 515 220
Q 608 262 630 364
Q 653 467 653 646
L 653 2445
Q 653 2618 582 2672
Q 512 2726 384 2726
Q 301 2726 256 2720
Q 211 2714 211 2714
L 211 2899
L 1024 3085
L 1171 3085
L 1165 2496
L 1184 2362
L 1184 646
Q 1184 467 1209 364
Q 1235 262 1337 220
Q 1440 179 1670 179
L 1670 0
z
" transform="scale(0.015625)"/>
       <path id="STIXTwoText-61" d="M 1005 -45
Q 634 -45 438 160
Q 243 365 243 672
Q 243 928 361 1104
Q 480 1280 675 1401
Q 870 1523 1097 1606
Q 1325 1690 1542 1747
Q 1760 1805 1926 1856
L 1926 2138
Q 1926 2554 1782 2730
Q 1638 2906 1350 2906
Q 1075 2906 998 2790
Q 922 2675 922 2387
Q 922 2240 848 2166
Q 774 2093 640 2093
Q 544 2093 457 2166
Q 371 2240 371 2400
Q 371 2579 508 2739
Q 646 2899 899 3001
Q 1152 3104 1498 3104
Q 2022 3104 2240 2861
Q 2458 2618 2458 2118
L 2458 666
Q 2458 467 2502 409
Q 2547 352 2650 352
Q 2739 352 2812 397
Q 2886 442 2950 512
L 3046 410
Q 2886 179 2742 73
Q 2598 -32 2355 -32
Q 2131 -32 2064 96
Q 1997 224 1965 461
L 1926 538
L 1926 1645
Q 1638 1574 1382 1478
Q 1126 1382 966 1228
Q 806 1075 806 826
Q 806 589 934 448
Q 1062 307 1267 307
Q 1434 307 1616 390
Q 1798 474 1971 627
L 2022 397
L 1946 397
Q 1798 269 1660 166
Q 1523 64 1366 9
Q 1210 -45 1005 -45
z
" transform="scale(0.015625)"/>
       <path id="STIXTwoText-6c" d="M 1664 0
L 192 0
L 192 186
Q 403 186 499 227
Q 595 269 617 368
Q 640 467 640 646
L 640 3859
Q 640 4058 566 4096
Q 493 4134 371 4134
Q 288 4134 227 4128
Q 166 4122 166 4122
L 166 4294
L 1011 4518
L 1171 4518
L 1171 646
Q 1171 461 1200 361
Q 1229 262 1331 224
Q 1434 186 1664 186
L 1664 0
z
" transform="scale(0.015625)"/>
      </defs>
      <use xlink:href="#STIXTwoText-45"/>
      <use xlink:href="#STIXTwoText-78" x="62.599991"/>
      <use xlink:href="#STIXTwoText-74" x="110.499985"/>
      <use xlink:href="#STIXTwoText-65" x="141.999969"/>
      <use xlink:href="#STIXTwoText-72" x="188.399963"/>
      <use xlink:href="#STIXTwoText-6e" x="226.399948"/>
      <use xlink:href="#STIXTwoText-61" x="283.999939"/>
      <use xlink:href="#STIXTwoText-6c" x="331.999924"/>
     </g>
    </g>
   </g>
   <g id="matplotlib.axis_2">
    <g id="text_2">
     <!-- Internal -->
     <g style="fill: #4c4f69" transform="translate(18.96 165.627054) rotate(-90) scale(0.12 -0.12)">
      <defs>
       <path id="STIXTwoText-49" d="M 2061 0
L 218 0
L 218 192
Q 506 192 640 240
Q 774 288 812 425
Q 851 563 851 838
L 851 3360
Q 851 3610 819 3754
Q 787 3898 656 3955
Q 525 4013 218 4013
L 218 4205
L 2061 4205
L 2061 4013
Q 1760 4013 1625 3955
Q 1491 3898 1462 3754
Q 1434 3610 1434 3360
L 1434 838
Q 1434 563 1472 425
Q 1510 288 1644 240
Q 1779 192 2061 192
L 2061 0
z
" transform="scale(0.015625)"/>
      </defs>
      <use xlink:href="#STIXTwoText-49"/>
      <use xlink:href="#STIXTwoText-6e" x="35.699997"/>
      <use xlink:href="#STIXTwoText-74" x="93.299988"/>
      <use xlink:href="#STIXTwoText-65" x="124.799973"/>
      <use xlink:href="#STIXTwoText-72" x="171.199966"/>
      <use xlink:href="#STIXTwoText-6e" x="209.199951"/>
      <use xlink:href="#STIXTwoText-61" x="266.799942"/>
      <use xlink:href="#STIXTwoText-6c" x="314.799927"/>
     </g>
    </g>
   </g>
   <g id="QuadMesh_1">
    <path d="M 51.6 246.427143
L 76.946429 246.427143
L 76.946429 221.080714
L 51.6 221.080714
L 51.6 246.427143
" clip-path="url(#pad7e5ac83d)" style="fill: #ebccbd"/>
    <path d="M 76.946429 246.427143
L 102.292857 246.427143
L 102.292857 221.080714
L 76.946429 221.080714
L 76.946429 246.427143
" clip-path="url(#pad7e5ac83d)" style="fill: #afbaf6"/>
    <path d="M 102.292857 246.427143
L 127.639286 246.427143
L 127.639286 221.080714
L 102.292857 221.080714
L 102.292857 246.427143
" clip-path="url(#pad7e5ac83d)" style="fill: #c3cbf3"/>
    <path d="M 127.639286 246.427143
L 152.985714 246.427143
L 152.985714 221.080714
L 127.639286 221.080714
L 127.639286 246.427143
" clip-path="url(#pad7e5ac83d)" style="fill: #c3cbf3"/>
    <path d="M 152.985714 246.427143
L 178.332143 246.427143
L 178.332143 221.080714
L 152.985714 221.080714
L 152.985714 246.427143
" clip-path="url(#pad7e5ac83d)" style="fill: #f49e6e"/>
    <path d="M 178.332143 246.427143
L 203.678571 246.427143
L 203.678571 221.080714
L 178.332143 221.080714
L 178.332143 246.427143
" clip-path="url(#pad7e5ac83d)" style="fill: #fe640b"/>
    <path d="M 203.678571 246.427143
L 229.025 246.427143
L 229.025 221.080714
L 203.678571 221.080714
L 203.678571 246.427143
" clip-path="url(#pad7e5ac83d)" style="fill: #fc701f"/>
    <path d="M 229.025 246.427143
L 254.371429 246.427143
L 254.371429 221.080714
L 229.025 221.080714
L 229.025 246.427143
" clip-path="url(#pad7e5ac83d)" style="fill: #fe640b"/>
    <path d="M 51.6 221.080714
L 76.946429 221.080714
L 76.946429 195.734286
L 51.6 195.734286
L 51.6 221.080714
" clip-path="url(#pad7e5ac83d)" style="fill: #7c90fc"/>
    <path d="M 76.946429 221.080714
L 102.292857 221.080714
L 102.292857 195.734286
L 76.946429 195.734286
L 76.946429 221.080714
" clip-path="url(#pad7e5ac83d)" style="fill: #8698fb"/>
    <path d="M 102.292857 221.080714
L 127.639286 221.080714
L 127.639286 195.734286
L 102.292857 195.734286
L 102.292857 221.080714
" clip-path="url(#pad7e5ac83d)" style="fill: #7c90fc"/>
    <path d="M 127.639286 221.080714
L 152.985714 221.080714
L 152.985714 195.734286
L 127.639286 195.734286
L 127.639286 221.080714
" clip-path="url(#pad7e5ac83d)" style="fill: #7c90fc"/>
    <path d="M 152.985714 221.080714
L 178.332143 221.080714
L 178.332143 195.734286
L 152.985714 195.734286
L 152.985714 221.080714
" clip-path="url(#pad7e5ac83d)" style="fill: #8698fb"/>
    <path d="M 178.332143 221.080714
L 203.678571 221.080714
L 203.678571 195.734286
L 178.332143 195.734286
L 178.332143 221.080714
" clip-path="url(#pad7e5ac83d)" style="fill: #90a1f9"/>
    <path d="M 203.678571 221.080714
L 229.025 221.080714
L 229.025 195.734286
L 203.678571 195.734286
L 203.678571 221.080714
" clip-path="url(#pad7e5ac83d)" style="fill: #afbaf6"/>
    <path d="M 229.025 221.080714
L 254.371429 221.080714
L 254.371429 195.734286
L 229.025 195.734286
L 229.025 221.080714
" clip-path="url(#pad7e5ac83d)" style="fill: #b9c3f4"/>
    <path d="M 51.6 195.734286
L 76.946429 195.734286
L 76.946429 170.387857
L 51.6 170.387857
L 51.6 195.734286
" clip-path="url(#pad7e5ac83d)" style="fill: #7c90fc"/>
    <path d="M 76.946429 195.734286
L 102.292857 195.734286
L 102.292857 170.387857
L 76.946429 170.387857
L 76.946429 195.734286
" clip-path="url(#pad7e5ac83d)" style="fill: #7287fd"/>
    <path d="M 102.292857 195.734286
L 127.639286 195.734286
L 127.639286 170.387857
L 102.292857 170.387857
L 102.292857 195.734286
" clip-path="url(#pad7e5ac83d)" style="fill: #7c90fc"/>
    <path d="M 127.639286 195.734286
L 152.985714 195.734286
L 152.985714 170.387857
L 127.639286 170.387857
L 127.639286 195.734286
" clip-path="url(#pad7e5ac83d)" style="fill: #7c90fc"/>
    <path d="M 152.985714 195.734286
L 178.332143 195.734286
L 178.332143 170.387857
L 152.985714 170.387857
L 152.985714 195.734286
" clip-path="url(#pad7e5ac83d)" style="fill: #7287fd"/>
    <path d="M 178.332143 195.734286
L 203.678571 195.734286
L 203.678571 170.387857
L 178.332143 170.387857
L 178.332143 195.734286
" clip-path="url(#pad7e5ac83d)" style="fill: #7c90fc"/>
    <path d="M 203.678571 195.734286
L 229.025 195.734286
L 229.025 170.387857
L 203.678571 170.387857
L 203.678571 195.734286
" clip-path="url(#pad7e5ac83d)" style="fill: #8698fb"/>
    <path d="M 229.025 195.734286
L 254.371429 195.734286
L 254.371429 170.387857
L 229.025 170.387857
L 229.025 195.734286
" clip-path="url(#pad7e5ac83d)" style="fill: #90a1f9"/>
    <path d="M 51.6 170.387857
L 76.946429 170.387857
L 76.946429 145.041429
L 51.6 145.041429
L 51.6 170.387857
" clip-path="url(#pad7e5ac83d)" style="fill: #7c90fc"/>
    <path d="M 76.946429 170.387857
L 102.292857 170.387857
L 102.292857 145.041429
L 76.946429 145.041429
L 76.946429 170.387857
" clip-path="url(#pad7e5ac83d)" style="fill: #7287fd"/>
    <path d="M 102.292857 170.387857
L 127.639286 170.387857
L 127.639286 145.041429
L 102.292857 145.041429
L 102.292857 170.387857
" clip-path="url(#pad7e5ac83d)" style="fill: #7287fd"/>
    <path d="M 127.639286 170.387857
L 152.985714 170.387857
L 152.985714 145.041429
L 127.639286 145.041429
L 127.639286 170.387857
" clip-path="url(#pad7e5ac83d)" style="fill: #7287fd"/>
    <path d="M 152.985714 170.387857
L 178.332143 170.387857
L 178.332143 145.041429
L 152.985714 145.041429
L 152.985714 170.387857
" clip-path="url(#pad7e5ac83d)" style="fill: #7c90fc"/>
    <path d="M 178.332143 170.387857
L 203.678571 170.387857
L 203.678571 145.041429
L 178.332143 145.041429
L 178.332143 170.387857
" clip-path="url(#pad7e5ac83d)" style="fill: #7287fd"/>
    <path d="M 203.678571 170.387857
L 229.025 170.387857
L 229.025 145.041429
L 203.678571 145.041429
L 203.678571 170.387857
" clip-path="url(#pad7e5ac83d)" style="fill: #7287fd"/>
    <path d="M 229.025 170.387857
L 254.371429 170.387857
L 254.371429 145.041429
L 229.025 145.041429
L 229.025 170.387857
" clip-path="url(#pad7e5ac83d)" style="fill: #7c90fc"/>
    <path d="M 51.6 145.041429
L 76.946429 145.041429
L 76.946429 119.695
L 51.6 119.695
L 51.6 145.041429
" clip-path="url(#pad7e5ac83d)" style="fill: #7c90fc"/>
    <path d="M 76.946429 145.041429
L 102.292857 145.041429
L 102.292857 119.695
L 76.946429 119.695
L 76.946429 145.041429
" clip-path="url(#pad7e5ac83d)" style="fill: #7287fd"/>
    <path d="M 102.292857 145.041429
L 127.639286 145.041429
L 127.639286 119.695
L 102.292857 119.695
L 102.292857 145.041429
" clip-path="url(#pad7e5ac83d)" style="fill: #7287fd"/>
    <path d="M 127.639286 145.041429
L 152.985714 145.041429
L 152.985714 119.695
L 127.639286 119.695
L 127.639286 145.041429
" clip-path="url(#pad7e5ac83d)" style="fill: #7287fd"/>
    <path d="M 152.985714 145.041429
L 178.332143 145.041429
L 178.332143 119.695
L 152.985714 119.695
L 152.985714 145.041429
" clip-path="url(#pad7e5ac83d)" style="fill: #7287fd"/>
    <path d="M 178.332143 145.041429
L 203.678571 145.041429
L 203.678571 119.695
L 178.332143 119.695
L 178.332143 145.041429
" clip-path="url(#pad7e5ac83d)" style="fill: #7287fd"/>
    <path d="M 203.678571 145.041429
L 229.025 145.041429
L 229.025 119.695
L 203.678571 119.695
L 203.678571 145.041429
" clip-path="url(#pad7e5ac83d)" style="fill: #7287fd"/>
    <path d="M 229.025 145.041429
L 254.371429 145.041429
L 254.371429 119.695
L 229.025 119.695
L 229.025 145.041429
" clip-path="url(#pad7e5ac83d)" style="fill: #7287fd"/>
    <path d="M 51.6 119.695
L 76.946429 119.695
L 76.946429 94.348571
L 51.6 94.348571
L 51.6 119.695
" clip-path="url(#pad7e5ac83d)" style="fill: #7c90fc"/>
    <path d="M 76.946429 119.695
L 102.292857 119.695
L 102.292857 94.348571
L 76.946429 94.348571
L 76.946429 119.695
" clip-path="url(#pad7e5ac83d)" style="fill: #7287fd"/>
    <path d="M 102.292857 119.695
L 127.639286 119.695
L 127.639286 94.348571
L 102.292857 94.348571
L 102.292857 119.695
" clip-path="url(#pad7e5ac83d)" style="fill: #7287fd"/>
    <path d="M 127.639286 119.695
L 152.985714 119.695
L 152.985714 94.348571
L 127.639286 94.348571
L 127.639286 119.695
" clip-path="url(#pad7e5ac83d)" style="fill: #7287fd"/>
    <path d="M 152.985714 119.695
L 178.332143 119.695
L 178.332143 94.348571
L 152.985714 94.348571
L 152.985714 119.695
" clip-path="url(#pad7e5ac83d)" style="fill: #7287fd"/>
    <path d="M 178.332143 119.695
L 203.678571 119.695
L 203.678571 94.348571
L 178.332143 94.348571
L 178.332143 119.695
" clip-path="url(#pad7e5ac83d)" style="fill: #7287fd"/>
    <path d="M 203.678571 119.695
L 229.025 119.695
L 229.025 94.348571
L 203.678571 94.348571
L 203.678571 119.695
" clip-path="url(#pad7e5ac83d)" style="fill: #7287fd"/>
    <path d="M 229.025 119.695
L 254.371429 119.695
L 254.371429 94.348571
L 229.025 94.348571
L 229.025 119.695
" clip-path="url(#pad7e5ac83d)" style="fill: #7287fd"/>
    <path d="M 51.6 94.348571
L 76.946429 94.348571
L 76.946429 69.002143
L 51.6 69.002143
L 51.6 94.348571
" clip-path="url(#pad7e5ac83d)" style="fill: #7c90fc"/>
    <path d="M 76.946429 94.348571
L 102.292857 94.348571
L 102.292857 69.002143
L 76.946429 69.002143
L 76.946429 94.348571
" clip-path="url(#pad7e5ac83d)" style="fill: #7287fd"/>
    <path d="M 102.292857 94.348571
L 127.639286 94.348571
L 127.639286 69.002143
L 102.292857 69.002143
L 102.292857 94.348571
" clip-path="url(#pad7e5ac83d)" style="fill: #7287fd"/>
    <path d="M 127.639286 94.348571
L 152.985714 94.348571
L 152.985714 69.002143
L 127.639286 69.002143
L 127.639286 94.348571
" clip-path="url(#pad7e5ac83d)" style="fill: #7287fd"/>
    <path d="M 152.985714 94.348571
L 178.332143 94.348571
L 178.332143 69.002143
L 152.985714 69.002143
L 152.985714 94.348571
" clip-path="url(#pad7e5ac83d)" style="fill: #7287fd"/>
    <path d="M 178.332143 94.348571
L 203.678571 94.348571
L 203.678571 69.002143
L 178.332143 69.002143
L 178.332143 94.348571
" clip-path="url(#pad7e5ac83d)" style="fill: #7287fd"/>
    <path d="M 203.678571 94.348571
L 229.025 94.348571
L 229.025 69.002143
L 203.678571 69.002143
L 203.678571 94.348571
" clip-path="url(#pad7e5ac83d)" style="fill: #7287fd"/>
    <path d="M 229.025 94.348571
L 254.371429 94.348571
L 254.371429 69.002143
L 229.025 69.002143
L 229.025 94.348571
" clip-path="url(#pad7e5ac83d)" style="fill: #7287fd"/>
    <path d="M 51.6 69.002143
L 76.946429 69.002143
L 76.946429 43.655714
L 51.6 43.655714
L 51.6 69.002143
" clip-path="url(#pad7e5ac83d)" style="fill: #7c90fc"/>
    <path d="M 76.946429 69.002143
L 102.292857 69.002143
L 102.292857 43.655714
L 76.946429 43.655714
L 76.946429 69.002143
" clip-path="url(#pad7e5ac83d)" style="fill: #7287fd"/>
    <path d="M 102.292857 69.002143
L 127.639286 69.002143
L 127.639286 43.655714
L 102.292857 43.655714
L 102.292857 69.002143
" clip-path="url(#pad7e5ac83d)" style="fill: #7287fd"/>
    <path d="M 127.639286 69.002143
L 152.985714 69.002143
L 152.985714 43.655714
L 127.639286 43.655714
L 127.639286 69.002143
" clip-path="url(#pad7e5ac83d)" style="fill: #7287fd"/>
    <path d="M 152.985714 69.002143
L 178.332143 69.002143
L 178.332143 43.655714
L 152.985714 43.655714
L 152.985714 69.002143
" clip-path="url(#pad7e5ac83d)" style="fill: #7287fd"/>
    <path d="M 178.332143 69.002143
L 203.678571 69.002143
L 203.678571 43.655714
L 178.332143 43.655714
L 178.332143 69.002143
" clip-path="url(#pad7e5ac83d)" style="fill: #7287fd"/>
    <path d="M 203.678571 69.002143
L 229.025 69.002143
L 229.025 43.655714
L 203.678571 43.655714
L 203.678571 69.002143
" clip-path="url(#pad7e5ac83d)" style="fill: #7287fd"/>
    <path d="M 229.025 69.002143
L 254.371429 69.002143
L 254.371429 43.655714
L 229.025 43.655714
L 229.025 69.002143
" clip-path="url(#pad7e5ac83d)" style="fill: #7287fd"/>
   </g>
   <g id="LineCollection_1">
    <path d="M 22.632653 221.080714
L 325 221.080714
" clip-path="url(#pad7e5ac83d)" style="fill: none; stroke: #ffffff"/>
   </g>
   <g id="LineCollection_2">
    <path d="M 76.946429 275.39449
L 76.946429 -1
" clip-path="url(#pad7e5ac83d)" style="fill: none; stroke: #ffffff"/>
   </g>
   <g id="LineCollection_3">
    <path d="M 22.632653 195.734286
L 325 195.734286
" clip-path="url(#pad7e5ac83d)" style="fill: none; stroke: #ffffff"/>
   </g>
   <g id="LineCollection_4">
    <path d="M 102.292857 275.39449
L 102.292857 -1
" clip-path="url(#pad7e5ac83d)" style="fill: none; stroke: #ffffff"/>
   </g>
   <g id="LineCollection_5">
    <path d="M 22.632653 170.387857
L 325 170.387857
" clip-path="url(#pad7e5ac83d)" style="fill: none; stroke: #ffffff"/>
   </g>
   <g id="LineCollection_6">
    <path d="M 127.639286 275.39449
L 127.639286 -1
" clip-path="url(#pad7e5ac83d)" style="fill: none; stroke: #ffffff"/>
   </g>
   <g id="LineCollection_7">
    <path d="M 22.632653 145.041429
L 325 145.041429
" clip-path="url(#pad7e5ac83d)" style="fill: none; stroke: #ffffff"/>
   </g>
   <g id="LineCollection_8">
    <path d="M 152.985714 275.39449
L 152.985714 -1
" clip-path="url(#pad7e5ac83d)" style="fill: none; stroke: #ffffff"/>
   </g>
   <g id="LineCollection_9">
    <path d="M 22.632653 119.695
L 325 119.695
" clip-path="url(#pad7e5ac83d)" style="fill: none; stroke: #ffffff"/>
   </g>
   <g id="LineCollection_10">
    <path d="M 178.332143 275.39449
L 178.332143 -1
" clip-path="url(#pad7e5ac83d)" style="fill: none; stroke: #ffffff"/>
   </g>
   <g id="LineCollection_11">
    <path d="M 22.632653 94.348571
L 325 94.348571
" clip-path="url(#pad7e5ac83d)" style="fill: none; stroke: #ffffff"/>
   </g>
   <g id="LineCollection_12">
    <path d="M 203.678571 275.39449
L 203.678571 -1
" clip-path="url(#pad7e5ac83d)" style="fill: none; stroke: #ffffff"/>
   </g>
   <g id="LineCollection_13">
    <path d="M 22.632653 69.002143
L 325 69.002143
" clip-path="url(#pad7e5ac83d)" style="fill: none; stroke: #ffffff"/>
   </g>
   <g id="LineCollection_14">
    <path d="M 229.025 275.39449
L 229.025 -1
" clip-path="url(#pad7e5ac83d)" style="fill: none; stroke: #ffffff"/>
   </g>
   <g id="LineCollection_15">
    <path d="M 22.632653 43.655714
L 325 43.655714
" clip-path="url(#pad7e5ac83d)" style="fill: none; stroke: #ffffff"/>
   </g>
   <g id="LineCollection_16">
    <path d="M 254.371429 275.39449
L 254.371429 -1
" clip-path="url(#pad7e5ac83d)" style="fill: none; stroke: #ffffff"/>
   </g>
   <g id="patch_3">
    <path d="M 51.6 246.427143
L 51.6 43.655714
" style="fill: none; stroke: #ffffff; stroke-width: 0.8; stroke-linejoin: miter; stroke-linecap: square"/>
   </g>
   <g id="patch_4">
    <path d="M 254.371429 246.427143
L 254.371429 43.655714
" style="fill: none; stroke: #ffffff; stroke-width: 0.8; stroke-linejoin: miter; stroke-linecap: square"/>
   </g>
   <g id="patch_5">
    <path d="M 51.6 246.427143
L 254.371429 246.427143
" style="fill: none; stroke: #ffffff; stroke-width: 0.8; stroke-linejoin: miter; stroke-linecap: square"/>
   </g>
   <g id="patch_6">
    <path d="M 51.6 43.655714
L 254.371429 43.655714
" style="fill: none; stroke: #ffffff; stroke-width: 0.8; stroke-linejoin: miter; stroke-linecap: square"/>
   </g>
   <g id="text_3">
    <!-- 1 -->
    <g style="fill: #4c4f69" transform="translate(58.862755 264.210816) scale(0.12 -0.12)">
     <defs>
      <path id="JetBrainsMonoNFM-Regular-31" d="M 576 0
L 576 525
L 1843 525
L 1843 4173
L 576 3226
L 576 3885
L 1632 4672
L 2419 4672
L 2419 525
L 3456 525
L 3456 0
L 576 0
z
" transform="scale(0.015625)"/>
     </defs>
     <use xlink:href="#JetBrainsMonoNFM-Regular-31"/>
    </g>
   </g>
   <g id="text_4">
    <!-- 2 -->
    <g style="fill: #4c4f69" transform="translate(84.571276 264.210816) scale(0.12 -0.12)">
     <defs>
      <path id="JetBrainsMonoNFM-Regular-32" d="M 550 0
L 550 531
L 2106 2195
Q 2445 2554 2585 2835
Q 2726 3117 2726 3386
Q 2726 3770 2505 3997
Q 2285 4224 1907 4224
Q 1517 4224 1289 3990
Q 1062 3757 1062 3360
L 486 3360
Q 506 3994 890 4365
Q 1274 4736 1907 4736
Q 2554 4736 2934 4371
Q 3315 4006 3315 3379
Q 3315 3046 3132 2675
Q 2950 2304 2509 1843
L 1248 525
L 3373 525
L 3373 0
L 550 0
z
" transform="scale(0.015625)"/>
     </defs>
     <use xlink:href="#JetBrainsMonoNFM-Regular-32"/>
    </g>
   </g>
   <g id="text_5">
    <!-- 3 -->
    <g style="fill: #4c4f69" transform="translate(110.279796 264.210816) scale(0.12 -0.12)">
     <defs>
      <path id="JetBrainsMonoNFM-Regular-33" d="M 1850 -64
Q 1203 -64 825 297
Q 448 659 448 1280
L 1024 1280
Q 1024 896 1248 672
Q 1472 448 1856 448
Q 2240 448 2464 672
Q 2688 896 2688 1280
L 2688 1600
Q 2688 1984 2464 2208
Q 2240 2432 1856 2432
L 1350 2432
L 1350 2931
L 2496 4147
L 576 4147
L 576 4672
L 3149 4672
L 3149 4134
L 2022 2938
Q 2598 2893 2931 2537
Q 3264 2182 3264 1600
L 3264 1280
Q 3264 659 2883 297
Q 2502 -64 1850 -64
z
" transform="scale(0.015625)"/>
     </defs>
     <use xlink:href="#JetBrainsMonoNFM-Regular-33"/>
    </g>
   </g>
   <g id="text_6">
    <!-- 5 -->
    <g style="fill: #4c4f69" transform="translate(135.988316 264.210816) scale(0.12 -0.12)">
     <defs>
      <path id="JetBrainsMonoNFM-Regular-35" d="M 1882 -64
Q 1235 -64 857 297
Q 480 659 480 1280
L 1056 1280
Q 1056 896 1280 672
Q 1504 448 1888 448
Q 2272 448 2496 672
Q 2720 896 2720 1280
L 2720 1568
Q 2720 1952 2502 2176
Q 2285 2400 1914 2400
L 640 2400
L 640 4672
L 3130 4672
L 3130 4147
L 1178 4147
L 1190 2925
L 1946 2925
Q 2592 2925 2944 2569
Q 3296 2214 3296 1568
L 3296 1280
Q 3296 659 2915 297
Q 2534 -64 1882 -64
z
" transform="scale(0.015625)"/>
     </defs>
     <use xlink:href="#JetBrainsMonoNFM-Regular-35"/>
    </g>
   </g>
   <g id="text_7">
    <!-- 8 -->
    <g style="fill: #4c4f69" transform="translate(161.696837 264.210816) scale(0.12 -0.12)">
     <defs>
      <path id="JetBrainsMonoNFM-Regular-38" d="M 1920 -64
Q 1478 -64 1139 109
Q 800 282 611 592
Q 422 902 422 1306
Q 422 1747 675 2067
Q 928 2387 1350 2458
L 1350 2477
Q 986 2560 768 2845
Q 550 3130 550 3501
Q 550 3866 723 4144
Q 896 4422 1206 4579
Q 1517 4736 1920 4736
Q 2330 4736 2637 4579
Q 2944 4422 3117 4144
Q 3290 3866 3290 3501
Q 3290 3130 3072 2845
Q 2854 2560 2490 2477
L 2490 2458
Q 2912 2387 3165 2067
Q 3418 1747 3418 1306
Q 3418 902 3229 592
Q 3040 282 2704 109
Q 2368 -64 1920 -64
z
M 1920 2701
Q 2278 2701 2496 2912
Q 2714 3123 2714 3462
Q 2714 3802 2496 4013
Q 2278 4224 1920 4224
Q 1568 4224 1347 4013
Q 1126 3802 1126 3462
Q 1126 3123 1347 2912
Q 1568 2701 1920 2701
z
M 1920 454
Q 2330 454 2586 694
Q 2842 934 2842 1318
Q 2842 1709 2586 1949
Q 2330 2189 1920 2189
Q 1510 2189 1254 1949
Q 998 1709 998 1318
Q 998 934 1254 694
Q 1510 454 1920 454
z
" transform="scale(0.015625)"/>
     </defs>
     <use xlink:href="#JetBrainsMonoNFM-Regular-38"/>
    </g>
   </g>
   <g id="text_8">
    <!-- 13 -->
    <g style="fill: #4c4f69" transform="translate(183.805357 264.210816) scale(0.12 -0.12)">
     <use xlink:href="#JetBrainsMonoNFM-Regular-31"/>
     <use xlink:href="#JetBrainsMonoNFM-Regular-33" x="59.999985"/>
    </g>
   </g>
   <g id="text_9">
    <!-- 21 -->
    <g style="fill: #4c4f69" transform="translate(209.513878 264.210816) scale(0.12 -0.12)">
     <use xlink:href="#JetBrainsMonoNFM-Regular-32"/>
     <use xlink:href="#JetBrainsMonoNFM-Regular-31" x="59.999985"/>
    </g>
   </g>
   <g id="text_10">
    <!-- 34 -->
    <g style="fill: #4c4f69" transform="translate(235.222398 264.210816) scale(0.12 -0.12)">
     <defs>
      <path id="JetBrainsMonoNFM-Regular-34" d="M 2560 0
L 2560 1024
L 448 1024
L 448 1926
L 2150 4672
L 2803 4672
L 1024 1798
L 1024 1549
L 2560 1549
L 2560 2688
L 3136 2688
L 3136 0
L 2560 0
z
" transform="scale(0.015625)"/>
     </defs>
     <use xlink:href="#JetBrainsMonoNFM-Regular-33"/>
     <use xlink:href="#JetBrainsMonoNFM-Regular-34" x="59.999985"/>
    </g>
   </g>
   <g id="text_11">
    <!-- 1 -->
    <g style="fill: #4c4f69" transform="translate(37.137245 238.864388) scale(0.12 -0.12)">
     <use xlink:href="#JetBrainsMonoNFM-Regular-31"/>
    </g>
   </g>
   <g id="text_12">
    <!-- 2 -->
    <g style="fill: #4c4f69" transform="translate(37.137245 213.155867) scale(0.12 -0.12)">
     <use xlink:href="#JetBrainsMonoNFM-Regular-32"/>
    </g>
   </g>
   <g id="text_13">
    <!-- 3 -->
    <g style="fill: #4c4f69" transform="translate(37.137245 187.447347) scale(0.12 -0.12)">
     <use xlink:href="#JetBrainsMonoNFM-Regular-33"/>
    </g>
   </g>
   <g id="text_14">
    <!-- 5 -->
    <g style="fill: #4c4f69" transform="translate(37.137245 161.738827) scale(0.12 -0.12)">
     <use xlink:href="#JetBrainsMonoNFM-Regular-35"/>
    </g>
   </g>
   <g id="text_15">
    <!-- 8 -->
    <g style="fill: #4c4f69" transform="translate(37.137245 136.030306) scale(0.12 -0.12)">
     <use xlink:href="#JetBrainsMonoNFM-Regular-38"/>
    </g>
   </g>
   <g id="text_16">
    <!-- 13 -->
    <g style="fill: #4c4f69" transform="translate(33.537245 110.321786) scale(0.12 -0.12)">
     <use xlink:href="#JetBrainsMonoNFM-Regular-31"/>
     <use xlink:href="#JetBrainsMonoNFM-Regular-33" x="59.999985"/>
    </g>
   </g>
   <g id="text_17">
    <!-- 21 -->
    <g style="fill: #4c4f69" transform="translate(33.537245 84.613265) scale(0.12 -0.12)">
     <use xlink:href="#JetBrainsMonoNFM-Regular-32"/>
     <use xlink:href="#JetBrainsMonoNFM-Regular-31" x="59.999985"/>
    </g>
   </g>
   <g id="text_18">
    <!-- 34 -->
    <g style="fill: #4c4f69" transform="translate(33.537245 58.904745) scale(0.12 -0.12)">
     <use xlink:href="#JetBrainsMonoNFM-Regular-33"/>
     <use xlink:href="#JetBrainsMonoNFM-Regular-34" x="59.999985"/>
    </g>
   </g>
  </g>
  <g id="axes_2">
   <g id="patch_7">
    <path d="M 257.971429 246.427143
L 268.11 246.427143
L 268.11 43.655714
L 257.971429 43.655714
z
" style="fill: #eff1f5"/>
   </g>
   <g id="matplotlib.axis_3"/>
   <g id="matplotlib.axis_4">
    <g id="ytick_1">
     <g id="line2d_1">
      <path d="M 257.971429 224.371852
L 268.11 224.371852
" clip-path="url(#p454c999aa3)" style="fill: none; stroke: #ffffff; stroke-width: 0.8; stroke-linecap: round"/>
     </g>
     <g id="line2d_2">
      <defs>
       <path id="m53aecad0b4" d="M 0 0
L 3.5 0
" style="stroke: #4c4f69; stroke-width: 0.8"/>
      </defs>
      <g>
       <use xlink:href="#m53aecad0b4" x="268.11" y="224.371852" style="fill: #4c4f69; stroke: #4c4f69; stroke-width: 0.8"/>
      </g>
     </g>
     <g id="text_19">
      <!-- 125 -->
      <g style="fill: #4c4f69" transform="translate(275.11 228.021852) scale(0.1 -0.1)">
       <use xlink:href="#JetBrainsMonoNFM-Regular-31"/>
       <use xlink:href="#JetBrainsMonoNFM-Regular-32" x="59.999985"/>
       <use xlink:href="#JetBrainsMonoNFM-Regular-35" x="119.999969"/>
      </g>
     </g>
    </g>
    <g id="ytick_2">
     <g id="line2d_3">
      <path d="M 257.971429 196.292523
L 268.11 196.292523
" clip-path="url(#p454c999aa3)" style="fill: none; stroke: #ffffff; stroke-width: 0.8; stroke-linecap: round"/>
     </g>
     <g id="line2d_4">
      <g>
       <use xlink:href="#m53aecad0b4" x="268.11" y="196.292523" style="fill: #4c4f69; stroke: #4c4f69; stroke-width: 0.8"/>
      </g>
     </g>
     <g id="text_20">
      <!-- 150 -->
      <g style="fill: #4c4f69" transform="translate(275.11 199.942523) scale(0.1 -0.1)">
       <defs>
        <path id="JetBrainsMonoNFM-Regular-30" d="M 1920 -64
Q 1274 -64 893 310
Q 512 685 512 1312
L 512 3360
Q 512 3987 893 4361
Q 1274 4736 1920 4736
Q 2566 4736 2947 4361
Q 3328 3987 3328 3360
L 3328 1312
Q 3328 896 3155 585
Q 2982 275 2665 105
Q 2349 -64 1920 -64
z
M 1920 429
Q 2304 429 2537 675
Q 2771 922 2771 1312
L 2771 3360
Q 2771 3750 2537 3996
Q 2304 4243 1920 4243
Q 1536 4243 1302 3996
Q 1069 3750 1069 3360
L 1069 1312
Q 1069 922 1302 675
Q 1536 429 1920 429
z
M 1920 1984
Q 1747 1984 1641 2080
Q 1536 2176 1536 2355
Q 1536 2528 1641 2621
Q 1747 2714 1920 2714
Q 2093 2714 2198 2621
Q 2304 2528 2304 2355
Q 2304 2176 2198 2080
Q 2093 1984 1920 1984
z
" transform="scale(0.015625)"/>
       </defs>
       <use xlink:href="#JetBrainsMonoNFM-Regular-31"/>
       <use xlink:href="#JetBrainsMonoNFM-Regular-35" x="59.999985"/>
       <use xlink:href="#JetBrainsMonoNFM-Regular-30" x="119.999969"/>
      </g>
     </g>
    </g>
    <g id="ytick_3">
     <g id="line2d_5">
      <path d="M 257.971429 168.213195
L 268.11 168.213195
" clip-path="url(#p454c999aa3)" style="fill: none; stroke: #ffffff; stroke-width: 0.8; stroke-linecap: round"/>
     </g>
     <g id="line2d_6">
      <g>
       <use xlink:href="#m53aecad0b4" x="268.11" y="168.213195" style="fill: #4c4f69; stroke: #4c4f69; stroke-width: 0.8"/>
      </g>
     </g>
     <g id="text_21">
      <!-- 175 -->
      <g style="fill: #4c4f69" transform="translate(275.11 171.863195) scale(0.1 -0.1)">
       <defs>
        <path id="JetBrainsMonoNFM-Regular-37" d="M 1216 0
L 2880 4147
L 1101 4147
L 1101 3392
L 525 3392
L 525 4672
L 3494 4672
L 3494 4134
L 1843 0
L 1216 0
z
" transform="scale(0.015625)"/>
       </defs>
       <use xlink:href="#JetBrainsMonoNFM-Regular-31"/>
       <use xlink:href="#JetBrainsMonoNFM-Regular-37" x="59.999985"/>
       <use xlink:href="#JetBrainsMonoNFM-Regular-35" x="119.999969"/>
      </g>
     </g>
    </g>
    <g id="ytick_4">
     <g id="line2d_7">
      <path d="M 257.971429 140.133866
L 268.11 140.133866
" clip-path="url(#p454c999aa3)" style="fill: none; stroke: #ffffff; stroke-width: 0.8; stroke-linecap: round"/>
     </g>
     <g id="line2d_8">
      <g>
       <use xlink:href="#m53aecad0b4" x="268.11" y="140.133866" style="fill: #4c4f69; stroke: #4c4f69; stroke-width: 0.8"/>
      </g>
     </g>
     <g id="text_22">
      <!-- 200 -->
      <g style="fill: #4c4f69" transform="translate(275.11 143.783866) scale(0.1 -0.1)">
       <use xlink:href="#JetBrainsMonoNFM-Regular-32"/>
       <use xlink:href="#JetBrainsMonoNFM-Regular-30" x="59.999985"/>
       <use xlink:href="#JetBrainsMonoNFM-Regular-30" x="119.999969"/>
      </g>
     </g>
    </g>
    <g id="ytick_5">
     <g id="line2d_9">
      <path d="M 257.971429 112.054538
L 268.11 112.054538
" clip-path="url(#p454c999aa3)" style="fill: none; stroke: #ffffff; stroke-width: 0.8; stroke-linecap: round"/>
     </g>
     <g id="line2d_10">
      <g>
       <use xlink:href="#m53aecad0b4" x="268.11" y="112.054538" style="fill: #4c4f69; stroke: #4c4f69; stroke-width: 0.8"/>
      </g>
     </g>
     <g id="text_23">
      <!-- 225 -->
      <g style="fill: #4c4f69" transform="translate(275.11 115.704538) scale(0.1 -0.1)">
       <use xlink:href="#JetBrainsMonoNFM-Regular-32"/>
       <use xlink:href="#JetBrainsMonoNFM-Regular-32" x="59.999985"/>
       <use xlink:href="#JetBrainsMonoNFM-Regular-35" x="119.999969"/>
      </g>
     </g>
    </g>
    <g id="ytick_6">
     <g id="line2d_11">
      <path d="M 257.971429 83.975209
L 268.11 83.975209
" clip-path="url(#p454c999aa3)" style="fill: none; stroke: #ffffff; stroke-width: 0.8; stroke-linecap: round"/>
     </g>
     <g id="line2d_12">
      <g>
       <use xlink:href="#m53aecad0b4" x="268.11" y="83.975209" style="fill: #4c4f69; stroke: #4c4f69; stroke-width: 0.8"/>
      </g>
     </g>
     <g id="text_24">
      <!-- 250 -->
      <g style="fill: #4c4f69" transform="translate(275.11 87.625209) scale(0.1 -0.1)">
       <use xlink:href="#JetBrainsMonoNFM-Regular-32"/>
       <use xlink:href="#JetBrainsMonoNFM-Regular-35" x="59.999985"/>
       <use xlink:href="#JetBrainsMonoNFM-Regular-30" x="119.999969"/>
      </g>
     </g>
    </g>
    <g id="ytick_7">
     <g id="line2d_13">
      <path d="M 257.971429 55.895881
L 268.11 55.895881
" clip-path="url(#p454c999aa3)" style="fill: none; stroke: #ffffff; stroke-width: 0.8; stroke-linecap: round"/>
     </g>
     <g id="line2d_14">
      <g>
       <use xlink:href="#m53aecad0b4" x="268.11" y="55.895881" style="fill: #4c4f69; stroke: #4c4f69; stroke-width: 0.8"/>
      </g>
     </g>
     <g id="text_25">
      <!-- 275 -->
      <g style="fill: #4c4f69" transform="translate(275.11 59.545881) scale(0.1 -0.1)">
       <use xlink:href="#JetBrainsMonoNFM-Regular-32"/>
       <use xlink:href="#JetBrainsMonoNFM-Regular-37" x="59.999985"/>
       <use xlink:href="#JetBrainsMonoNFM-Regular-35" x="119.999969"/>
      </g>
     </g>
    </g>
    <g id="text_26">
     <!-- Distance Travelled [$m$] -->
     <g style="fill: #4c4f69" transform="translate(304.59 86.181429) rotate(-270) scale(0.12 -0.12)">
      <defs>
       <path id="STIXTwoText-44" d="M 2054 0
L 224 0
L 224 192
Q 506 192 640 233
Q 774 275 812 406
Q 851 538 851 794
L 851 3475
Q 851 3712 793 3824
Q 736 3936 601 3974
Q 467 4013 224 4013
L 224 4205
L 1984 4205
Q 2483 4205 2915 4099
Q 3347 3994 3667 3750
Q 3987 3507 4169 3110
Q 4352 2714 4352 2125
Q 4352 1574 4189 1171
Q 4026 768 3722 509
Q 3418 250 2995 125
Q 2573 0 2054 0
z
M 1818 243
Q 2400 243 2816 400
Q 3232 557 3456 953
Q 3680 1350 3680 2067
Q 3680 2982 3213 3462
Q 2746 3942 1754 3942
Q 1677 3942 1603 3942
Q 1530 3942 1440 3930
L 1440 262
Q 1536 256 1629 249
Q 1722 243 1818 243
z
" transform="scale(0.015625)"/>
       <path id="STIXTwoText-69" d="M 1645 0
L 205 0
L 205 179
Q 422 179 515 220
Q 608 262 630 364
Q 653 467 653 646
L 653 2432
Q 653 2637 582 2685
Q 512 2733 371 2733
Q 307 2733 259 2726
Q 211 2720 211 2720
L 211 2906
L 1018 3085
L 1184 3085
L 1184 646
Q 1184 461 1209 358
Q 1235 256 1334 217
Q 1434 179 1645 179
L 1645 0
z
M 928 3584
Q 768 3584 665 3693
Q 563 3802 563 3949
Q 563 4096 662 4201
Q 762 4307 928 4307
Q 1094 4307 1193 4201
Q 1293 4096 1293 3949
Q 1293 3802 1193 3693
Q 1094 3584 928 3584
z
" transform="scale(0.015625)"/>
       <path id="STIXTwoText-73" d="M 269 -51
L 250 1050
L 416 1050
Q 518 557 716 361
Q 915 166 1267 166
Q 1510 166 1664 265
Q 1818 365 1818 589
Q 1818 742 1763 844
Q 1709 947 1555 1052
Q 1402 1158 1101 1306
Q 806 1453 620 1590
Q 435 1728 345 1894
Q 256 2061 256 2298
Q 256 2694 541 2899
Q 826 3104 1235 3104
Q 1478 3104 1632 3049
Q 1786 2995 1907 2938
L 1914 2938
L 2022 3072
L 2150 3072
L 2170 2093
L 1997 2093
Q 1894 2547 1708 2716
Q 1523 2886 1229 2886
Q 1011 2886 860 2784
Q 710 2682 710 2464
Q 710 2278 883 2131
Q 1056 1984 1459 1779
Q 1754 1626 1952 1482
Q 2150 1338 2252 1168
Q 2355 998 2355 762
Q 2355 461 2208 278
Q 2061 96 1814 13
Q 1568 -70 1280 -70
Q 1005 -70 841 -12
Q 678 45 550 96
L 538 96
L 403 -51
L 269 -51
z
" transform="scale(0.015625)"/>
       <path id="STIXTwoText-63" d="M 2611 947
L 2733 858
Q 2611 602 2454 390
Q 2298 179 2067 57
Q 1837 -64 1491 -64
Q 1094 -64 806 128
Q 518 320 364 662
Q 211 1005 211 1446
Q 211 1952 380 2323
Q 550 2694 873 2899
Q 1197 3104 1658 3104
Q 2112 3104 2371 2905
Q 2630 2707 2630 2426
Q 2630 2285 2563 2211
Q 2496 2138 2362 2138
Q 2221 2138 2147 2211
Q 2074 2285 2029 2393
Q 1984 2502 1936 2611
Q 1888 2720 1801 2793
Q 1715 2867 1549 2867
Q 1158 2867 937 2582
Q 717 2298 717 1747
Q 717 1165 957 790
Q 1197 416 1690 416
Q 2003 416 2198 544
Q 2394 672 2611 947
z
" transform="scale(0.015625)"/>
       <path id="STIXTwoText-20" transform="scale(0.015625)"/>
       <path id="STIXTwoText-54" d="M 2861 0
L 1005 0
L 1005 192
Q 1274 192 1408 233
Q 1542 275 1587 412
Q 1632 550 1632 838
L 1632 3917
L 1222 3917
Q 870 3917 694 3846
Q 518 3776 441 3590
Q 365 3405 294 3053
L 96 3053
L 166 4205
L 3706 4205
L 3757 3053
L 3558 3053
Q 3488 3405 3411 3590
Q 3334 3776 3161 3846
Q 2989 3917 2630 3917
L 2227 3917
L 2227 838
Q 2227 550 2272 412
Q 2317 275 2451 233
Q 2586 192 2861 192
L 2861 0
z
" transform="scale(0.015625)"/>
       <path id="STIXTwoText-76" d="M 1696 -38
L 1389 -38
L 435 2374
Q 352 2573 288 2672
Q 224 2771 141 2806
Q 58 2842 -83 2842
L -83 3027
L 1267 3027
L 1267 2842
Q 1082 2842 1008 2800
Q 934 2758 934 2682
Q 934 2618 953 2560
Q 973 2502 998 2432
L 1542 1005
L 1664 621
L 1702 621
L 1837 1011
L 2387 2458
Q 2394 2483 2413 2537
Q 2432 2592 2432 2669
Q 2432 2778 2336 2810
Q 2240 2842 2067 2842
L 2067 3027
L 3187 3027
L 3187 2842
Q 3002 2842 2902 2755
Q 2803 2669 2707 2419
L 1696 -38
z
" transform="scale(0.015625)"/>
       <path id="STIXTwoText-64" d="M 1306 -51
Q 947 -51 700 141
Q 454 333 332 662
Q 211 992 211 1402
Q 211 1933 409 2313
Q 608 2694 944 2899
Q 1280 3104 1683 3104
Q 1837 3104 1987 3065
Q 2138 3027 2278 2950
L 2304 2950
L 2304 3789
Q 2304 4000 2256 4064
Q 2208 4128 2022 4128
Q 1978 4128 1917 4121
Q 1856 4115 1856 4115
L 1856 4294
L 2662 4518
L 2835 4518
L 2835 685
Q 2835 435 2905 361
Q 2976 288 3155 288
L 3290 288
L 3290 115
L 2470 -32
L 2323 -32
L 2323 410
L 2298 410
Q 2118 250 1872 99
Q 1626 -51 1306 -51
z
M 1606 410
Q 1830 410 1984 470
Q 2138 531 2304 646
L 2304 2336
Q 2266 2534 2118 2691
Q 1971 2848 1670 2848
Q 1267 2848 1017 2553
Q 768 2259 768 1651
Q 768 992 982 701
Q 1197 410 1606 410
z
" transform="scale(0.015625)"/>
       <path id="STIXTwoText-5b" d="M 1920 -1190
L 582 -1190
L 582 4685
L 1920 4685
L 1920 4493
L 1088 4493
L 1088 -998
L 1920 -998
L 1920 -1190
z
" transform="scale(0.015625)"/>
       <path id="DejaVuSans-Oblique-6d" d="M 5747 2113
L 5338 0
L 4763 0
L 5166 2094
Q 5191 2228 5203 2325
Q 5216 2422 5216 2491
Q 5216 2772 5059 2928
Q 4903 3084 4622 3084
Q 4203 3084 3875 2770
Q 3547 2456 3450 1953
L 3066 0
L 2491 0
L 2900 2094
Q 2925 2209 2937 2307
Q 2950 2406 2950 2484
Q 2950 2769 2794 2926
Q 2638 3084 2363 3084
Q 1938 3084 1609 2770
Q 1281 2456 1184 1953
L 800 0
L 225 0
L 909 3500
L 1484 3500
L 1375 2956
Q 1609 3263 1923 3423
Q 2238 3584 2597 3584
Q 2978 3584 3223 3384
Q 3469 3184 3519 2828
Q 3781 3197 4126 3390
Q 4472 3584 4856 3584
Q 5306 3584 5551 3325
Q 5797 3066 5797 2591
Q 5797 2488 5784 2364
Q 5772 2241 5747 2113
z
" transform="scale(0.015625)"/>
       <path id="STIXTwoText-5d" d="M 1638 -1190
L 301 -1190
L 301 -998
L 1133 -998
L 1133 4493
L 301 4493
L 301 4685
L 1638 4685
L 1638 -1190
z
" transform="scale(0.015625)"/>
      </defs>
      <use xlink:href="#STIXTwoText-44" transform="translate(0 0.796875)"/>
      <use xlink:href="#STIXTwoText-69" transform="translate(72.999985 0.796875)"/>
      <use xlink:href="#STIXTwoText-73" transform="translate(101.499969 0.796875)"/>
      <use xlink:href="#STIXTwoText-74" transform="translate(140.999954 0.796875)"/>
      <use xlink:href="#STIXTwoText-61" transform="translate(172.499939 0.796875)"/>
      <use xlink:href="#STIXTwoText-6e" transform="translate(220.499924 0.796875)"/>
      <use xlink:href="#STIXTwoText-63" transform="translate(278.099915 0.796875)"/>
      <use xlink:href="#STIXTwoText-65" transform="translate(322.699905 0.796875)"/>
      <use xlink:href="#STIXTwoText-20" transform="translate(369.099899 0.796875)"/>
      <use xlink:href="#STIXTwoText-54" transform="translate(392.599884 0.796875)"/>
      <use xlink:href="#STIXTwoText-72" transform="translate(452.899872 0.796875)"/>
      <use xlink:href="#STIXTwoText-61" transform="translate(490.899857 0.796875)"/>
      <use xlink:href="#STIXTwoText-76" transform="translate(538.899841 0.796875)"/>
      <use xlink:href="#STIXTwoText-65" transform="translate(586.999832 0.796875)"/>
      <use xlink:href="#STIXTwoText-6c" transform="translate(633.399826 0.796875)"/>
      <use xlink:href="#STIXTwoText-6c" transform="translate(661.699814 0.796875)"/>
      <use xlink:href="#STIXTwoText-65" transform="translate(689.999802 0.796875)"/>
      <use xlink:href="#STIXTwoText-64" transform="translate(736.399796 0.796875)"/>
      <use xlink:href="#STIXTwoText-20" transform="translate(790.299789 0.796875)"/>
      <use xlink:href="#STIXTwoText-5b" transform="translate(813.799774 0.796875)"/>
      <use xlink:href="#DejaVuSans-Oblique-6d" transform="translate(848.499771 0.796875)"/>
      <use xlink:href="#STIXTwoText-5d" transform="translate(945.91188 0.796875)"/>
     </g>
    </g>
   </g>
   <g id="QuadMesh_2">
    <path d="M 257.971429 246.427143
L 268.11 246.427143
L 268.11 237.978333
L 257.971429 237.978333
L 257.971429 246.427143
" clip-path="url(#p454c999aa3)" style="fill: #7287fd"/>
    <path d="M 257.971429 237.978333
L 268.11 237.978333
L 268.11 229.529524
L 257.971429 229.529524
L 257.971429 237.978333
" clip-path="url(#p454c999aa3)" style="fill: #7c90fc"/>
    <path d="M 257.971429 229.529524
L 268.11 229.529524
L 268.11 221.080714
L 257.971429 221.080714
L 257.971429 229.529524
" clip-path="url(#p454c999aa3)" style="fill: #8698fb"/>
    <path d="M 257.971429 221.080714
L 268.11 221.080714
L 268.11 212.631905
L 257.971429 212.631905
L 257.971429 221.080714
" clip-path="url(#p454c999aa3)" style="fill: #90a1f9"/>
    <path d="M 257.971429 212.631905
L 268.11 212.631905
L 268.11 204.183095
L 257.971429 204.183095
L 257.971429 212.631905
" clip-path="url(#p454c999aa3)" style="fill: #9aa9f8"/>
    <path d="M 257.971429 204.183095
L 268.11 204.183095
L 268.11 195.734286
L 257.971429 195.734286
L 257.971429 204.183095
" clip-path="url(#p454c999aa3)" style="fill: #a4b2f7"/>
    <path d="M 257.971429 195.734286
L 268.11 195.734286
L 268.11 187.285476
L 257.971429 187.285476
L 257.971429 195.734286
" clip-path="url(#p454c999aa3)" style="fill: #afbaf6"/>
    <path d="M 257.971429 187.285476
L 268.11 187.285476
L 268.11 178.836667
L 257.971429 178.836667
L 257.971429 187.285476
" clip-path="url(#p454c999aa3)" style="fill: #b9c3f4"/>
    <path d="M 257.971429 178.836667
L 268.11 178.836667
L 268.11 170.387857
L 257.971429 170.387857
L 257.971429 178.836667
" clip-path="url(#p454c999aa3)" style="fill: #c3cbf3"/>
    <path d="M 257.971429 170.387857
L 268.11 170.387857
L 268.11 161.939048
L 257.971429 161.939048
L 257.971429 170.387857
" clip-path="url(#p454c999aa3)" style="fill: #cdd4f2"/>
    <path d="M 257.971429 161.939048
L 268.11 161.939048
L 268.11 153.490238
L 257.971429 153.490238
L 257.971429 161.939048
" clip-path="url(#p454c999aa3)" style="fill: #d7dcf1"/>
    <path d="M 257.971429 153.490238
L 268.11 153.490238
L 268.11 145.041429
L 257.971429 145.041429
L 257.971429 153.490238
" clip-path="url(#p454c999aa3)" style="fill: #e1e5f0"/>
    <path d="M 257.971429 145.041429
L 268.11 145.041429
L 268.11 136.592619
L 257.971429 136.592619
L 257.971429 145.041429
" clip-path="url(#p454c999aa3)" style="fill: #e7e3e5"/>
    <path d="M 257.971429 136.592619
L 268.11 136.592619
L 268.11 128.14381
L 257.971429 128.14381
L 257.971429 136.592619
" clip-path="url(#p454c999aa3)" style="fill: #e9d8d1"/>
    <path d="M 257.971429 128.14381
L 268.11 128.14381
L 268.11 119.695
L 257.971429 119.695
L 257.971429 128.14381
" clip-path="url(#p454c999aa3)" style="fill: #ebccbd"/>
    <path d="M 257.971429 119.695
L 268.11 119.695
L 268.11 111.24619
L 257.971429 111.24619
L 257.971429 119.695
" clip-path="url(#p454c999aa3)" style="fill: #edc1aa"/>
    <path d="M 257.971429 111.24619
L 268.11 111.24619
L 268.11 102.797381
L 257.971429 102.797381
L 257.971429 111.24619
" clip-path="url(#p454c999aa3)" style="fill: #efb596"/>
    <path d="M 257.971429 102.797381
L 268.11 102.797381
L 268.11 94.348571
L 257.971429 94.348571
L 257.971429 102.797381
" clip-path="url(#p454c999aa3)" style="fill: #f1a982"/>
    <path d="M 257.971429 94.348571
L 268.11 94.348571
L 268.11 85.899762
L 257.971429 85.899762
L 257.971429 94.348571
" clip-path="url(#p454c999aa3)" style="fill: #f49e6e"/>
    <path d="M 257.971429 85.899762
L 268.11 85.899762
L 268.11 77.450952
L 257.971429 77.450952
L 257.971429 85.899762
" clip-path="url(#p454c999aa3)" style="fill: #f6925a"/>
    <path d="M 257.971429 77.450952
L 268.11 77.450952
L 268.11 69.002143
L 257.971429 69.002143
L 257.971429 77.450952
" clip-path="url(#p454c999aa3)" style="fill: #f88746"/>
    <path d="M 257.971429 69.002143
L 268.11 69.002143
L 268.11 60.553333
L 257.971429 60.553333
L 257.971429 69.002143
" clip-path="url(#p454c999aa3)" style="fill: #fa7b33"/>
    <path d="M 257.971429 60.553333
L 268.11 60.553333
L 268.11 52.104524
L 257.971429 52.104524
L 257.971429 60.553333
" clip-path="url(#p454c999aa3)" style="fill: #fc701f"/>
    <path d="M 257.971429 52.104524
L 268.11 52.104524
L 268.11 43.655714
L 257.971429 43.655714
L 257.971429 52.104524
" clip-path="url(#p454c999aa3)" style="fill: #fe640b"/>
   </g>
   <g id="LineCollection_17"/>
   <g id="patch_8">
    <path d="M 257.971429 246.427143
L 263.040714 246.427143
L 268.11 246.427143
L 268.11 43.655714
L 263.040714 43.655714
L 257.971429 43.655714
L 257.971429 246.427143
z
" style="fill: none; stroke: #ffffff; stroke-width: 0.8; stroke-linejoin: miter; stroke-linecap: square"/>
   </g>
  </g>
 </g>
 <defs>
  <clipPath id="pad7e5ac83d">
   <rect x="51.6" y="43.655714" width="202.771429" height="202.771429"/>
  </clipPath>
  <clipPath id="p454c999aa3">
   <rect x="257.971429" y="43.655714" width="10.138571" height="202.771429"/>
  </clipPath>
 </defs>
</svg>
