<?xml version="1.0" encoding="utf-8" standalone="no"?>
<!DOCTYPE svg PUBLIC "-//W3C//DTD SVG 1.1//EN"
  "http://www.w3.org/Graphics/SVG/1.1/DTD/svg11.dtd">
<svg xmlns:xlink="http://www.w3.org/1999/xlink" width="324pt" height="324pt" viewBox="0 0 324 324" xmlns="http://www.w3.org/2000/svg" version="1.1">
 <metadata>
  <rdf:RDF xmlns:dc="http://purl.org/dc/elements/1.1/" xmlns:cc="http://creativecommons.org/ns#" xmlns:rdf="http://www.w3.org/1999/02/22-rdf-syntax-ns#">
   <cc:Work>
    <dc:type rdf:resource="http://purl.org/dc/dcmitype/StillImage"/>
    <dc:date>1980-01-01T00:00:00+00:00</dc:date>
    <dc:format>image/svg+xml</dc:format>
    <dc:creator>
     <cc:Agent>
      <dc:title>Matplotlib v3.8.4, https://matplotlib.org/</dc:title>
     </cc:Agent>
    </dc:creator>
   </cc:Work>
  </rdf:RDF>
 </metadata>
 <defs>
  <style type="text/css">*{stroke-linejoin: round; stroke-linecap: butt}</style>
 </defs>
 <g id="figure_1">
  <g id="patch_1">
   <path d="M 0 324
L 324 324
L 324 0
L 0 0
z
" style="fill: #ffffff"/>
  </g>
  <g id="axes_1">
   <g id="patch_2">
    <path d="M 51.6 249.298571
L 260.114286 249.298571
L 260.114286 40.784286
L 51.6 40.784286
z
" style="fill: #eff1f5"/>
   </g>
   <g id="matplotlib.axis_1">
    <g id="text_1">
     <!-- External -->
     <g style="fill: #4c4f69" transform="translate(134.23933 287.769821) scale(0.12 -0.12)">
      <defs>
       <path id="STIXTwoText-45" d="M 3648 0
L 230 0
L 230 192
Q 493 192 624 227
Q 755 262 803 384
Q 851 506 851 755
L 851 3424
Q 851 3667 803 3795
Q 755 3923 624 3968
Q 493 4013 230 4013
L 230 4205
L 3590 4205
L 3629 3155
L 3424 3155
Q 3379 3475 3286 3638
Q 3194 3802 2986 3859
Q 2778 3917 2381 3917
L 1440 3917
L 1440 2291
L 2189 2291
Q 2483 2291 2636 2342
Q 2790 2394 2848 2534
Q 2906 2675 2906 2931
L 3110 2931
L 3110 1446
L 2906 1446
Q 2906 1709 2848 1837
Q 2790 1965 2636 2003
Q 2483 2042 2189 2042
L 1440 2042
L 1440 282
L 2266 282
Q 2637 282 2864 317
Q 3091 352 3222 448
Q 3354 544 3440 723
Q 3526 902 3622 1190
L 3827 1190
L 3648 0
z
" transform="scale(0.015625)"/>
       <path id="STIXTwoText-78" d="M 3085 0
L 1747 0
L 1747 186
Q 1914 186 1981 214
Q 2048 243 2048 326
Q 2048 390 2003 461
L 1600 1082
L 1440 1363
L 1338 1453
L 634 2458
Q 525 2618 448 2701
Q 371 2784 288 2813
Q 205 2842 70 2842
L 70 3027
L 1446 3027
L 1446 2848
Q 1139 2848 1139 2701
Q 1139 2650 1177 2579
Q 1216 2509 1289 2397
Q 1363 2285 1472 2106
L 1651 1773
L 1754 1715
L 2573 557
Q 2707 365 2806 275
Q 2906 186 3085 186
L 3085 0
z
M 1056 0
L -13 0
L -13 186
Q 154 186 262 253
Q 371 320 531 506
L 1338 1555
L 1536 1306
L 1446 1306
L 922 550
Q 877 474 822 397
Q 768 320 768 282
Q 768 230 832 208
Q 896 186 1056 186
L 1056 0
z
M 2464 2541
L 1754 1626
L 1568 1824
L 1651 1824
L 1952 2259
Q 2080 2438 2131 2528
Q 2182 2618 2182 2694
Q 2182 2765 2128 2806
Q 2074 2848 1920 2848
L 1920 3027
L 2976 3027
L 2976 2842
Q 2816 2842 2694 2762
Q 2573 2682 2464 2541
z
" transform="scale(0.015625)"/>
       <path id="STIXTwoText-74" d="M 1875 576
L 1997 474
Q 1875 301 1769 182
Q 1664 64 1536 0
Q 1408 -64 1203 -64
Q 883 -64 736 125
Q 589 314 589 742
L 589 2726
L 237 2726
L 237 2874
Q 461 3014 624 3254
Q 787 3494 960 3904
L 1120 3904
L 1120 2995
L 1843 2995
L 1843 2726
L 1120 2726
L 1120 922
Q 1120 582 1181 448
Q 1242 314 1427 314
Q 1581 314 1667 378
Q 1754 442 1875 576
z
" transform="scale(0.015625)"/>
       <path id="STIXTwoText-65" d="M 1581 -64
Q 1197 -64 886 118
Q 576 301 397 656
Q 218 1011 218 1523
Q 218 2061 400 2409
Q 582 2758 889 2931
Q 1197 3104 1568 3104
Q 2093 3104 2413 2739
Q 2733 2374 2758 1702
L 678 1702
L 672 1939
L 2157 1939
Q 2150 2176 2073 2384
Q 1997 2592 1849 2720
Q 1702 2848 1472 2848
Q 1101 2848 915 2557
Q 730 2266 730 1734
Q 730 1293 870 998
Q 1011 704 1241 560
Q 1472 416 1734 416
Q 1997 416 2160 486
Q 2323 557 2438 669
Q 2554 781 2656 915
L 2778 826
Q 2694 646 2585 483
Q 2477 320 2339 198
Q 2202 77 2016 6
Q 1830 -64 1581 -64
z
" transform="scale(0.015625)"/>
       <path id="STIXTwoText-72" d="M 1786 0
L 186 0
L 186 186
Q 397 186 496 221
Q 595 256 624 349
Q 653 442 653 621
L 653 2381
Q 653 2554 624 2640
Q 595 2726 422 2726
Q 326 2726 275 2720
Q 224 2714 224 2714
L 224 2893
L 1018 3085
L 1171 3085
L 1171 2426
L 1190 2426
Q 1357 2662 1485 2816
Q 1613 2970 1737 3046
Q 1862 3123 2016 3123
Q 2202 3123 2294 3027
Q 2387 2931 2387 2765
Q 2387 2586 2300 2502
Q 2214 2419 2106 2419
Q 2003 2419 1923 2473
Q 1843 2528 1785 2582
Q 1728 2637 1690 2637
Q 1581 2637 1440 2470
Q 1299 2304 1184 2112
L 1184 653
Q 1184 454 1235 352
Q 1286 250 1417 218
Q 1549 186 1786 186
L 1786 0
z
" transform="scale(0.015625)"/>
       <path id="STIXTwoText-6e" d="M 3552 0
L 2074 0
L 2074 179
Q 2304 179 2403 220
Q 2502 262 2524 364
Q 2547 467 2547 646
L 2547 1805
Q 2547 2189 2460 2381
Q 2374 2573 2240 2633
Q 2106 2694 1958 2694
Q 1773 2694 1625 2620
Q 1478 2547 1360 2444
Q 1242 2342 1139 2253
L 1094 2566
L 1190 2566
Q 1453 2797 1686 2950
Q 1920 3104 2221 3104
Q 2656 3104 2867 2809
Q 3078 2515 3078 1965
L 3078 646
Q 3078 467 3107 364
Q 3136 262 3238 220
Q 3341 179 3552 179
L 3552 0
z
M 1670 0
L 205 0
L 205 179
Q 422 179 515 220
Q 608 262 630 364
Q 653 467 653 646
L 653 2445
Q 653 2618 582 2672
Q 512 2726 384 2726
Q 301 2726 256 2720
Q 211 2714 211 2714
L 211 2899
L 1024 3085
L 1171 3085
L 1165 2496
L 1184 2362
L 1184 646
Q 1184 467 1209 364
Q 1235 262 1337 220
Q 1440 179 1670 179
L 1670 0
z
" transform="scale(0.015625)"/>
       <path id="STIXTwoText-61" d="M 1005 -45
Q 634 -45 438 160
Q 243 365 243 672
Q 243 928 361 1104
Q 480 1280 675 1401
Q 870 1523 1097 1606
Q 1325 1690 1542 1747
Q 1760 1805 1926 1856
L 1926 2138
Q 1926 2554 1782 2730
Q 1638 2906 1350 2906
Q 1075 2906 998 2790
Q 922 2675 922 2387
Q 922 2240 848 2166
Q 774 2093 640 2093
Q 544 2093 457 2166
Q 371 2240 371 2400
Q 371 2579 508 2739
Q 646 2899 899 3001
Q 1152 3104 1498 3104
Q 2022 3104 2240 2861
Q 2458 2618 2458 2118
L 2458 666
Q 2458 467 2502 409
Q 2547 352 2650 352
Q 2739 352 2812 397
Q 2886 442 2950 512
L 3046 410
Q 2886 179 2742 73
Q 2598 -32 2355 -32
Q 2131 -32 2064 96
Q 1997 224 1965 461
L 1926 538
L 1926 1645
Q 1638 1574 1382 1478
Q 1126 1382 966 1228
Q 806 1075 806 826
Q 806 589 934 448
Q 1062 307 1267 307
Q 1434 307 1616 390
Q 1798 474 1971 627
L 2022 397
L 1946 397
Q 1798 269 1660 166
Q 1523 64 1366 9
Q 1210 -45 1005 -45
z
" transform="scale(0.015625)"/>
       <path id="STIXTwoText-6c" d="M 1664 0
L 192 0
L 192 186
Q 403 186 499 227
Q 595 269 617 368
Q 640 467 640 646
L 640 3859
Q 640 4058 566 4096
Q 493 4134 371 4134
Q 288 4134 227 4128
Q 166 4122 166 4122
L 166 4294
L 1011 4518
L 1171 4518
L 1171 646
Q 1171 461 1200 361
Q 1229 262 1331 224
Q 1434 186 1664 186
L 1664 0
z
" transform="scale(0.015625)"/>
      </defs>
      <use xlink:href="#STIXTwoText-45"/>
      <use xlink:href="#STIXTwoText-78" x="62.599991"/>
      <use xlink:href="#STIXTwoText-74" x="110.499985"/>
      <use xlink:href="#STIXTwoText-65" x="141.999969"/>
      <use xlink:href="#STIXTwoText-72" x="188.399963"/>
      <use xlink:href="#STIXTwoText-6e" x="226.399948"/>
      <use xlink:href="#STIXTwoText-61" x="283.999939"/>
      <use xlink:href="#STIXTwoText-6c" x="331.999924"/>
     </g>
    </g>
   </g>
   <g id="matplotlib.axis_2">
    <g id="text_2">
     <!-- Internal -->
     <g style="fill: #4c4f69" transform="translate(18.96 165.627054) rotate(-90) scale(0.12 -0.12)">
      <defs>
       <path id="STIXTwoText-49" d="M 2061 0
L 218 0
L 218 192
Q 506 192 640 240
Q 774 288 812 425
Q 851 563 851 838
L 851 3360
Q 851 3610 819 3754
Q 787 3898 656 3955
Q 525 4013 218 4013
L 218 4205
L 2061 4205
L 2061 4013
Q 1760 4013 1625 3955
Q 1491 3898 1462 3754
Q 1434 3610 1434 3360
L 1434 838
Q 1434 563 1472 425
Q 1510 288 1644 240
Q 1779 192 2061 192
L 2061 0
z
" transform="scale(0.015625)"/>
      </defs>
      <use xlink:href="#STIXTwoText-49"/>
      <use xlink:href="#STIXTwoText-6e" x="35.699997"/>
      <use xlink:href="#STIXTwoText-74" x="93.299988"/>
      <use xlink:href="#STIXTwoText-65" x="124.799973"/>
      <use xlink:href="#STIXTwoText-72" x="171.199966"/>
      <use xlink:href="#STIXTwoText-6e" x="209.199951"/>
      <use xlink:href="#STIXTwoText-61" x="266.799942"/>
      <use xlink:href="#STIXTwoText-6c" x="314.799927"/>
     </g>
    </g>
   </g>
   <g id="QuadMesh_1">
    <path d="M 51.6 249.298571
L 77.664286 249.298571
L 77.664286 223.234286
L 51.6 223.234286
L 51.6 249.298571
" clip-path="url(#p1494f13d6e)" style="fill: #f6925a"/>
    <path d="M 77.664286 249.298571
L 103.728571 249.298571
L 103.728571 223.234286
L 77.664286 223.234286
L 77.664286 249.298571
" clip-path="url(#p1494f13d6e)" style="fill: #d7dcf1"/>
    <path d="M 103.728571 249.298571
L 129.792857 249.298571
L 129.792857 223.234286
L 103.728571 223.234286
L 103.728571 249.298571
" clip-path="url(#p1494f13d6e)" style="fill: #d7dcf1"/>
    <path d="M 129.792857 249.298571
L 155.857143 249.298571
L 155.857143 223.234286
L 129.792857 223.234286
L 129.792857 249.298571
" clip-path="url(#p1494f13d6e)" style="fill: #cdd4f2"/>
    <path d="M 155.857143 249.298571
L 181.921429 249.298571
L 181.921429 223.234286
L 155.857143 223.234286
L 155.857143 249.298571
" clip-path="url(#p1494f13d6e)" style="fill: #f49e6e"/>
    <path d="M 181.921429 249.298571
L 207.985714 249.298571
L 207.985714 223.234286
L 181.921429 223.234286
L 181.921429 249.298571
" clip-path="url(#p1494f13d6e)" style="fill: #f49e6e"/>
    <path d="M 207.985714 249.298571
L 234.05 249.298571
L 234.05 223.234286
L 207.985714 223.234286
L 207.985714 249.298571
" clip-path="url(#p1494f13d6e)" style="fill: #fe640b"/>
    <path d="M 234.05 249.298571
L 260.114286 249.298571
L 260.114286 223.234286
L 234.05 223.234286
L 234.05 249.298571
" clip-path="url(#p1494f13d6e)" style="fill: #fe640b"/>
    <path d="M 51.6 223.234286
L 77.664286 223.234286
L 77.664286 197.17
L 51.6 197.17
L 51.6 223.234286
" clip-path="url(#p1494f13d6e)" style="fill: #a4b2f7"/>
    <path d="M 77.664286 223.234286
L 103.728571 223.234286
L 103.728571 197.17
L 77.664286 197.17
L 77.664286 223.234286
" clip-path="url(#p1494f13d6e)" style="fill: #90a1f9"/>
    <path d="M 103.728571 223.234286
L 129.792857 223.234286
L 129.792857 197.17
L 103.728571 197.17
L 103.728571 223.234286
" clip-path="url(#p1494f13d6e)" style="fill: #e1e5f0"/>
    <path d="M 129.792857 223.234286
L 155.857143 223.234286
L 155.857143 197.17
L 129.792857 197.17
L 129.792857 223.234286
" clip-path="url(#p1494f13d6e)" style="fill: #b9c3f4"/>
    <path d="M 155.857143 223.234286
L 181.921429 223.234286
L 181.921429 197.17
L 155.857143 197.17
L 155.857143 223.234286
" clip-path="url(#p1494f13d6e)" style="fill: #9aa9f8"/>
    <path d="M 181.921429 223.234286
L 207.985714 223.234286
L 207.985714 197.17
L 181.921429 197.17
L 181.921429 223.234286
" clip-path="url(#p1494f13d6e)" style="fill: #a4b2f7"/>
    <path d="M 207.985714 223.234286
L 234.05 223.234286
L 234.05 197.17
L 207.985714 197.17
L 207.985714 223.234286
" clip-path="url(#p1494f13d6e)" style="fill: #d7dcf1"/>
    <path d="M 234.05 223.234286
L 260.114286 223.234286
L 260.114286 197.17
L 234.05 197.17
L 234.05 223.234286
" clip-path="url(#p1494f13d6e)" style="fill: #ebccbd"/>
    <path d="M 51.6 197.17
L 77.664286 197.17
L 77.664286 171.105714
L 51.6 171.105714
L 51.6 197.17
" clip-path="url(#p1494f13d6e)" style="fill: #a4b2f7"/>
    <path d="M 77.664286 197.17
L 103.728571 197.17
L 103.728571 171.105714
L 77.664286 171.105714
L 77.664286 197.17
" clip-path="url(#p1494f13d6e)" style="fill: #b9c3f4"/>
    <path d="M 103.728571 197.17
L 129.792857 197.17
L 129.792857 171.105714
L 103.728571 171.105714
L 103.728571 197.17
" clip-path="url(#p1494f13d6e)" style="fill: #e1e5f0"/>
    <path d="M 129.792857 197.17
L 155.857143 197.17
L 155.857143 171.105714
L 129.792857 171.105714
L 129.792857 197.17
" clip-path="url(#p1494f13d6e)" style="fill: #9aa9f8"/>
    <path d="M 155.857143 197.17
L 181.921429 197.17
L 181.921429 171.105714
L 155.857143 171.105714
L 155.857143 197.17
" clip-path="url(#p1494f13d6e)" style="fill: #afbaf6"/>
    <path d="M 181.921429 197.17
L 207.985714 197.17
L 207.985714 171.105714
L 181.921429 171.105714
L 181.921429 197.17
" clip-path="url(#p1494f13d6e)" style="fill: #90a1f9"/>
    <path d="M 207.985714 197.17
L 234.05 197.17
L 234.05 171.105714
L 207.985714 171.105714
L 207.985714 197.17
" clip-path="url(#p1494f13d6e)" style="fill: #cdd4f2"/>
    <path d="M 234.05 197.17
L 260.114286 197.17
L 260.114286 171.105714
L 234.05 171.105714
L 234.05 197.17
" clip-path="url(#p1494f13d6e)" style="fill: #a4b2f7"/>
    <path d="M 51.6 171.105714
L 77.664286 171.105714
L 77.664286 145.041429
L 51.6 145.041429
L 51.6 171.105714
" clip-path="url(#p1494f13d6e)" style="fill: #afbaf6"/>
    <path d="M 77.664286 171.105714
L 103.728571 171.105714
L 103.728571 145.041429
L 77.664286 145.041429
L 77.664286 171.105714
" clip-path="url(#p1494f13d6e)" style="fill: #afbaf6"/>
    <path d="M 103.728571 171.105714
L 129.792857 171.105714
L 129.792857 145.041429
L 103.728571 145.041429
L 103.728571 171.105714
" clip-path="url(#p1494f13d6e)" style="fill: #8698fb"/>
    <path d="M 129.792857 171.105714
L 155.857143 171.105714
L 155.857143 145.041429
L 129.792857 145.041429
L 129.792857 171.105714
" clip-path="url(#p1494f13d6e)" style="fill: #8698fb"/>
    <path d="M 155.857143 171.105714
L 181.921429 171.105714
L 181.921429 145.041429
L 155.857143 145.041429
L 155.857143 171.105714
" clip-path="url(#p1494f13d6e)" style="fill: #afbaf6"/>
    <path d="M 181.921429 171.105714
L 207.985714 171.105714
L 207.985714 145.041429
L 181.921429 145.041429
L 181.921429 171.105714
" clip-path="url(#p1494f13d6e)" style="fill: #90a1f9"/>
    <path d="M 207.985714 171.105714
L 234.05 171.105714
L 234.05 145.041429
L 207.985714 145.041429
L 207.985714 171.105714
" clip-path="url(#p1494f13d6e)" style="fill: #7c90fc"/>
    <path d="M 234.05 171.105714
L 260.114286 171.105714
L 260.114286 145.041429
L 234.05 145.041429
L 234.05 171.105714
" clip-path="url(#p1494f13d6e)" style="fill: #8698fb"/>
    <path d="M 51.6 145.041429
L 77.664286 145.041429
L 77.664286 118.977143
L 51.6 118.977143
L 51.6 145.041429
" clip-path="url(#p1494f13d6e)" style="fill: #cdd4f2"/>
    <path d="M 77.664286 145.041429
L 103.728571 145.041429
L 103.728571 118.977143
L 77.664286 118.977143
L 77.664286 145.041429
" clip-path="url(#p1494f13d6e)" style="fill: #9aa9f8"/>
    <path d="M 103.728571 145.041429
L 129.792857 145.041429
L 129.792857 118.977143
L 103.728571 118.977143
L 103.728571 145.041429
" clip-path="url(#p1494f13d6e)" style="fill: #7c90fc"/>
    <path d="M 129.792857 145.041429
L 155.857143 145.041429
L 155.857143 118.977143
L 129.792857 118.977143
L 129.792857 145.041429
" clip-path="url(#p1494f13d6e)" style="fill: #7c90fc"/>
    <path d="M 155.857143 145.041429
L 181.921429 145.041429
L 181.921429 118.977143
L 155.857143 118.977143
L 155.857143 145.041429
" clip-path="url(#p1494f13d6e)" style="fill: #90a1f9"/>
    <path d="M 181.921429 145.041429
L 207.985714 145.041429
L 207.985714 118.977143
L 181.921429 118.977143
L 181.921429 145.041429
" clip-path="url(#p1494f13d6e)" style="fill: #7c90fc"/>
    <path d="M 207.985714 145.041429
L 234.05 145.041429
L 234.05 118.977143
L 207.985714 118.977143
L 207.985714 145.041429
" clip-path="url(#p1494f13d6e)" style="fill: #9aa9f8"/>
    <path d="M 234.05 145.041429
L 260.114286 145.041429
L 260.114286 118.977143
L 234.05 118.977143
L 234.05 145.041429
" clip-path="url(#p1494f13d6e)" style="fill: #a4b2f7"/>
    <path d="M 51.6 118.977143
L 77.664286 118.977143
L 77.664286 92.912857
L 51.6 92.912857
L 51.6 118.977143
" clip-path="url(#p1494f13d6e)" style="fill: #9aa9f8"/>
    <path d="M 77.664286 118.977143
L 103.728571 118.977143
L 103.728571 92.912857
L 77.664286 92.912857
L 77.664286 118.977143
" clip-path="url(#p1494f13d6e)" style="fill: #7c90fc"/>
    <path d="M 103.728571 118.977143
L 129.792857 118.977143
L 129.792857 92.912857
L 103.728571 92.912857
L 103.728571 118.977143
" clip-path="url(#p1494f13d6e)" style="fill: #9aa9f8"/>
    <path d="M 129.792857 118.977143
L 155.857143 118.977143
L 155.857143 92.912857
L 129.792857 92.912857
L 129.792857 118.977143
" clip-path="url(#p1494f13d6e)" style="fill: #7287fd"/>
    <path d="M 155.857143 118.977143
L 181.921429 118.977143
L 181.921429 92.912857
L 155.857143 92.912857
L 155.857143 118.977143
" clip-path="url(#p1494f13d6e)" style="fill: #7c90fc"/>
    <path d="M 181.921429 118.977143
L 207.985714 118.977143
L 207.985714 92.912857
L 181.921429 92.912857
L 181.921429 118.977143
" clip-path="url(#p1494f13d6e)" style="fill: #7c90fc"/>
    <path d="M 207.985714 118.977143
L 234.05 118.977143
L 234.05 92.912857
L 207.985714 92.912857
L 207.985714 118.977143
" clip-path="url(#p1494f13d6e)" style="fill: #8698fb"/>
    <path d="M 234.05 118.977143
L 260.114286 118.977143
L 260.114286 92.912857
L 234.05 92.912857
L 234.05 118.977143
" clip-path="url(#p1494f13d6e)" style="fill: #7c90fc"/>
    <path d="M 51.6 92.912857
L 77.664286 92.912857
L 77.664286 66.848571
L 51.6 66.848571
L 51.6 92.912857
" clip-path="url(#p1494f13d6e)" style="fill: #cdd4f2"/>
    <path d="M 77.664286 92.912857
L 103.728571 92.912857
L 103.728571 66.848571
L 77.664286 66.848571
L 77.664286 92.912857
" clip-path="url(#p1494f13d6e)" style="fill: #90a1f9"/>
    <path d="M 103.728571 92.912857
L 129.792857 92.912857
L 129.792857 66.848571
L 103.728571 66.848571
L 103.728571 92.912857
" clip-path="url(#p1494f13d6e)" style="fill: #7c90fc"/>
    <path d="M 129.792857 92.912857
L 155.857143 92.912857
L 155.857143 66.848571
L 129.792857 66.848571
L 129.792857 92.912857
" clip-path="url(#p1494f13d6e)" style="fill: #7287fd"/>
    <path d="M 155.857143 92.912857
L 181.921429 92.912857
L 181.921429 66.848571
L 155.857143 66.848571
L 155.857143 92.912857
" clip-path="url(#p1494f13d6e)" style="fill: #7287fd"/>
    <path d="M 181.921429 92.912857
L 207.985714 92.912857
L 207.985714 66.848571
L 181.921429 66.848571
L 181.921429 92.912857
" clip-path="url(#p1494f13d6e)" style="fill: #7c90fc"/>
    <path d="M 207.985714 92.912857
L 234.05 92.912857
L 234.05 66.848571
L 207.985714 66.848571
L 207.985714 92.912857
" clip-path="url(#p1494f13d6e)" style="fill: #7c90fc"/>
    <path d="M 234.05 92.912857
L 260.114286 92.912857
L 260.114286 66.848571
L 234.05 66.848571
L 234.05 92.912857
" clip-path="url(#p1494f13d6e)" style="fill: #7c90fc"/>
    <path d="M 51.6 66.848571
L 77.664286 66.848571
L 77.664286 40.784286
L 51.6 40.784286
L 51.6 66.848571
" clip-path="url(#p1494f13d6e)" style="fill: #9aa9f8"/>
    <path d="M 77.664286 66.848571
L 103.728571 66.848571
L 103.728571 40.784286
L 77.664286 40.784286
L 77.664286 66.848571
" clip-path="url(#p1494f13d6e)" style="fill: #8698fb"/>
    <path d="M 103.728571 66.848571
L 129.792857 66.848571
L 129.792857 40.784286
L 103.728571 40.784286
L 103.728571 66.848571
" clip-path="url(#p1494f13d6e)" style="fill: #7c90fc"/>
    <path d="M 129.792857 66.848571
L 155.857143 66.848571
L 155.857143 40.784286
L 129.792857 40.784286
L 129.792857 66.848571
" clip-path="url(#p1494f13d6e)" style="fill: #8698fb"/>
    <path d="M 155.857143 66.848571
L 181.921429 66.848571
L 181.921429 40.784286
L 155.857143 40.784286
L 155.857143 66.848571
" clip-path="url(#p1494f13d6e)" style="fill: #7c90fc"/>
    <path d="M 181.921429 66.848571
L 207.985714 66.848571
L 207.985714 40.784286
L 181.921429 40.784286
L 181.921429 66.848571
" clip-path="url(#p1494f13d6e)" style="fill: #90a1f9"/>
    <path d="M 207.985714 66.848571
L 234.05 66.848571
L 234.05 40.784286
L 207.985714 40.784286
L 207.985714 66.848571
" clip-path="url(#p1494f13d6e)" style="fill: #7c90fc"/>
    <path d="M 234.05 66.848571
L 260.114286 66.848571
L 260.114286 40.784286
L 234.05 40.784286
L 234.05 66.848571
" clip-path="url(#p1494f13d6e)" style="fill: #8698fb"/>
   </g>
   <g id="LineCollection_1">
    <path d="M 21.812245 223.234286
L 325 223.234286
" clip-path="url(#p1494f13d6e)" style="fill: none; stroke: #ffffff"/>
   </g>
   <g id="LineCollection_2">
    <path d="M 77.664286 279.086327
L 77.664286 -1
" clip-path="url(#p1494f13d6e)" style="fill: none; stroke: #ffffff"/>
   </g>
   <g id="LineCollection_3">
    <path d="M 21.812245 197.17
L 325 197.17
" clip-path="url(#p1494f13d6e)" style="fill: none; stroke: #ffffff"/>
   </g>
   <g id="LineCollection_4">
    <path d="M 103.728571 279.086327
L 103.728571 -1
" clip-path="url(#p1494f13d6e)" style="fill: none; stroke: #ffffff"/>
   </g>
   <g id="LineCollection_5">
    <path d="M 21.812245 171.105714
L 325 171.105714
" clip-path="url(#p1494f13d6e)" style="fill: none; stroke: #ffffff"/>
   </g>
   <g id="LineCollection_6">
    <path d="M 129.792857 279.086327
L 129.792857 -1
" clip-path="url(#p1494f13d6e)" style="fill: none; stroke: #ffffff"/>
   </g>
   <g id="LineCollection_7">
    <path d="M 21.812245 145.041429
L 325 145.041429
" clip-path="url(#p1494f13d6e)" style="fill: none; stroke: #ffffff"/>
   </g>
   <g id="LineCollection_8">
    <path d="M 155.857143 279.086327
L 155.857143 -1
" clip-path="url(#p1494f13d6e)" style="fill: none; stroke: #ffffff"/>
   </g>
   <g id="LineCollection_9">
    <path d="M 21.812245 118.977143
L 325 118.977143
" clip-path="url(#p1494f13d6e)" style="fill: none; stroke: #ffffff"/>
   </g>
   <g id="LineCollection_10">
    <path d="M 181.921429 279.086327
L 181.921429 -1
" clip-path="url(#p1494f13d6e)" style="fill: none; stroke: #ffffff"/>
   </g>
   <g id="LineCollection_11">
    <path d="M 21.812245 92.912857
L 325 92.912857
" clip-path="url(#p1494f13d6e)" style="fill: none; stroke: #ffffff"/>
   </g>
   <g id="LineCollection_12">
    <path d="M 207.985714 279.086327
L 207.985714 -1
" clip-path="url(#p1494f13d6e)" style="fill: none; stroke: #ffffff"/>
   </g>
   <g id="LineCollection_13">
    <path d="M 21.812245 66.848571
L 325 66.848571
" clip-path="url(#p1494f13d6e)" style="fill: none; stroke: #ffffff"/>
   </g>
   <g id="LineCollection_14">
    <path d="M 234.05 279.086327
L 234.05 -1
" clip-path="url(#p1494f13d6e)" style="fill: none; stroke: #ffffff"/>
   </g>
   <g id="LineCollection_15">
    <path d="M 21.812245 40.784286
L 325 40.784286
" clip-path="url(#p1494f13d6e)" style="fill: none; stroke: #ffffff"/>
   </g>
   <g id="LineCollection_16">
    <path d="M 260.114286 279.086327
L 260.114286 -1
" clip-path="url(#p1494f13d6e)" style="fill: none; stroke: #ffffff"/>
   </g>
   <g id="patch_3">
    <path d="M 51.6 249.298571
L 51.6 40.784286
" style="fill: none; stroke: #ffffff; stroke-width: 0.8; stroke-linejoin: miter; stroke-linecap: square"/>
   </g>
   <g id="patch_4">
    <path d="M 260.114286 249.298571
L 260.114286 40.784286
" style="fill: none; stroke: #ffffff; stroke-width: 0.8; stroke-linejoin: miter; stroke-linecap: square"/>
   </g>
   <g id="patch_5">
    <path d="M 51.6 249.298571
L 260.114286 249.298571
" style="fill: none; stroke: #ffffff; stroke-width: 0.8; stroke-linejoin: miter; stroke-linecap: square"/>
   </g>
   <g id="patch_6">
    <path d="M 51.6 40.784286
L 260.114286 40.784286
" style="fill: none; stroke: #ffffff; stroke-width: 0.8; stroke-linejoin: miter; stroke-linecap: square"/>
   </g>
   <g id="text_3">
    <!-- 1 -->
    <g style="fill: #4c4f69" transform="translate(59.170408 267.492449) scale(0.12 -0.12)">
     <defs>
      <path id="JetBrainsMonoNFM-Regular-31" d="M 576 0
L 576 525
L 1843 525
L 1843 4173
L 576 3226
L 576 3885
L 1632 4672
L 2419 4672
L 2419 525
L 3456 525
L 3456 0
L 576 0
z
" transform="scale(0.015625)"/>
     </defs>
     <use xlink:href="#JetBrainsMonoNFM-Regular-31"/>
    </g>
   </g>
   <g id="text_4">
    <!-- 2 -->
    <g style="fill: #4c4f69" transform="translate(85.607041 267.492449) scale(0.12 -0.12)">
     <defs>
      <path id="JetBrainsMonoNFM-Regular-32" d="M 550 0
L 550 531
L 2106 2195
Q 2445 2554 2585 2835
Q 2726 3117 2726 3386
Q 2726 3770 2505 3997
Q 2285 4224 1907 4224
Q 1517 4224 1289 3990
Q 1062 3757 1062 3360
L 486 3360
Q 506 3994 890 4365
Q 1274 4736 1907 4736
Q 2554 4736 2934 4371
Q 3315 4006 3315 3379
Q 3315 3046 3132 2675
Q 2950 2304 2509 1843
L 1248 525
L 3373 525
L 3373 0
L 550 0
z
" transform="scale(0.015625)"/>
     </defs>
     <use xlink:href="#JetBrainsMonoNFM-Regular-32"/>
    </g>
   </g>
   <g id="text_5">
    <!-- 3 -->
    <g style="fill: #4c4f69" transform="translate(112.043673 267.492449) scale(0.12 -0.12)">
     <defs>
      <path id="JetBrainsMonoNFM-Regular-33" d="M 1850 -64
Q 1203 -64 825 297
Q 448 659 448 1280
L 1024 1280
Q 1024 896 1248 672
Q 1472 448 1856 448
Q 2240 448 2464 672
Q 2688 896 2688 1280
L 2688 1600
Q 2688 1984 2464 2208
Q 2240 2432 1856 2432
L 1350 2432
L 1350 2931
L 2496 4147
L 576 4147
L 576 4672
L 3149 4672
L 3149 4134
L 2022 2938
Q 2598 2893 2931 2537
Q 3264 2182 3264 1600
L 3264 1280
Q 3264 659 2883 297
Q 2502 -64 1850 -64
z
" transform="scale(0.015625)"/>
     </defs>
     <use xlink:href="#JetBrainsMonoNFM-Regular-33"/>
    </g>
   </g>
   <g id="text_6">
    <!-- 5 -->
    <g style="fill: #4c4f69" transform="translate(138.480306 267.492449) scale(0.12 -0.12)">
     <defs>
      <path id="JetBrainsMonoNFM-Regular-35" d="M 1882 -64
Q 1235 -64 857 297
Q 480 659 480 1280
L 1056 1280
Q 1056 896 1280 672
Q 1504 448 1888 448
Q 2272 448 2496 672
Q 2720 896 2720 1280
L 2720 1568
Q 2720 1952 2502 2176
Q 2285 2400 1914 2400
L 640 2400
L 640 4672
L 3130 4672
L 3130 4147
L 1178 4147
L 1190 2925
L 1946 2925
Q 2592 2925 2944 2569
Q 3296 2214 3296 1568
L 3296 1280
Q 3296 659 2915 297
Q 2534 -64 1882 -64
z
" transform="scale(0.015625)"/>
     </defs>
     <use xlink:href="#JetBrainsMonoNFM-Regular-35"/>
    </g>
   </g>
   <g id="text_7">
    <!-- 8 -->
    <g style="fill: #4c4f69" transform="translate(164.916939 267.492449) scale(0.12 -0.12)">
     <defs>
      <path id="JetBrainsMonoNFM-Regular-38" d="M 1920 -64
Q 1478 -64 1139 109
Q 800 282 611 592
Q 422 902 422 1306
Q 422 1747 675 2067
Q 928 2387 1350 2458
L 1350 2477
Q 986 2560 768 2845
Q 550 3130 550 3501
Q 550 3866 723 4144
Q 896 4422 1206 4579
Q 1517 4736 1920 4736
Q 2330 4736 2637 4579
Q 2944 4422 3117 4144
Q 3290 3866 3290 3501
Q 3290 3130 3072 2845
Q 2854 2560 2490 2477
L 2490 2458
Q 2912 2387 3165 2067
Q 3418 1747 3418 1306
Q 3418 902 3229 592
Q 3040 282 2704 109
Q 2368 -64 1920 -64
z
M 1920 2701
Q 2278 2701 2496 2912
Q 2714 3123 2714 3462
Q 2714 3802 2496 4013
Q 2278 4224 1920 4224
Q 1568 4224 1347 4013
Q 1126 3802 1126 3462
Q 1126 3123 1347 2912
Q 1568 2701 1920 2701
z
M 1920 454
Q 2330 454 2586 694
Q 2842 934 2842 1318
Q 2842 1709 2586 1949
Q 2330 2189 1920 2189
Q 1510 2189 1254 1949
Q 998 1709 998 1318
Q 998 934 1254 694
Q 1510 454 1920 454
z
" transform="scale(0.015625)"/>
     </defs>
     <use xlink:href="#JetBrainsMonoNFM-Regular-38"/>
    </g>
   </g>
   <g id="text_8">
    <!-- 13 -->
    <g style="fill: #4c4f69" transform="translate(187.753571 267.492449) scale(0.12 -0.12)">
     <use xlink:href="#JetBrainsMonoNFM-Regular-31"/>
     <use xlink:href="#JetBrainsMonoNFM-Regular-33" x="59.999985"/>
    </g>
   </g>
   <g id="text_9">
    <!-- 21 -->
    <g style="fill: #4c4f69" transform="translate(214.190204 267.492449) scale(0.12 -0.12)">
     <use xlink:href="#JetBrainsMonoNFM-Regular-32"/>
     <use xlink:href="#JetBrainsMonoNFM-Regular-31" x="59.999985"/>
    </g>
   </g>
   <g id="text_10">
    <!-- 34 -->
    <g style="fill: #4c4f69" transform="translate(240.626837 267.492449) scale(0.12 -0.12)">
     <defs>
      <path id="JetBrainsMonoNFM-Regular-34" d="M 2560 0
L 2560 1024
L 448 1024
L 448 1926
L 2150 4672
L 2803 4672
L 1024 1798
L 1024 1549
L 2560 1549
L 2560 2688
L 3136 2688
L 3136 0
L 2560 0
z
" transform="scale(0.015625)"/>
     </defs>
     <use xlink:href="#JetBrainsMonoNFM-Regular-33"/>
     <use xlink:href="#JetBrainsMonoNFM-Regular-34" x="59.999985"/>
    </g>
   </g>
   <g id="text_11">
    <!-- 1 -->
    <g style="fill: #4c4f69" transform="translate(36.829592 241.428163) scale(0.12 -0.12)">
     <use xlink:href="#JetBrainsMonoNFM-Regular-31"/>
    </g>
   </g>
   <g id="text_12">
    <!-- 2 -->
    <g style="fill: #4c4f69" transform="translate(36.829592 214.991531) scale(0.12 -0.12)">
     <use xlink:href="#JetBrainsMonoNFM-Regular-32"/>
    </g>
   </g>
   <g id="text_13">
    <!-- 3 -->
    <g style="fill: #4c4f69" transform="translate(36.829592 188.554898) scale(0.12 -0.12)">
     <use xlink:href="#JetBrainsMonoNFM-Regular-33"/>
    </g>
   </g>
   <g id="text_14">
    <!-- 5 -->
    <g style="fill: #4c4f69" transform="translate(36.829592 162.118265) scale(0.12 -0.12)">
     <use xlink:href="#JetBrainsMonoNFM-Regular-35"/>
    </g>
   </g>
   <g id="text_15">
    <!-- 8 -->
    <g style="fill: #4c4f69" transform="translate(36.829592 135.681633) scale(0.12 -0.12)">
     <use xlink:href="#JetBrainsMonoNFM-Regular-38"/>
    </g>
   </g>
   <g id="text_16">
    <!-- 13 -->
    <g style="fill: #4c4f69" transform="translate(33.229592 109.245) scale(0.12 -0.12)">
     <use xlink:href="#JetBrainsMonoNFM-Regular-31"/>
     <use xlink:href="#JetBrainsMonoNFM-Regular-33" x="59.999985"/>
    </g>
   </g>
   <g id="text_17">
    <!-- 21 -->
    <g style="fill: #4c4f69" transform="translate(33.229592 82.808367) scale(0.12 -0.12)">
     <use xlink:href="#JetBrainsMonoNFM-Regular-32"/>
     <use xlink:href="#JetBrainsMonoNFM-Regular-31" x="59.999985"/>
    </g>
   </g>
   <g id="text_18">
    <!-- 34 -->
    <g style="fill: #4c4f69" transform="translate(33.229592 56.371735) scale(0.12 -0.12)">
     <use xlink:href="#JetBrainsMonoNFM-Regular-33"/>
     <use xlink:href="#JetBrainsMonoNFM-Regular-34" x="59.999985"/>
    </g>
   </g>
  </g>
  <g id="axes_2">
   <g id="patch_7">
    <path d="M 263.714286 249.298571
L 274.14 249.298571
L 274.14 40.784286
L 263.714286 40.784286
z
" style="fill: #eff1f5"/>
   </g>
   <g id="matplotlib.axis_3"/>
   <g id="matplotlib.axis_4">
    <g id="ytick_1">
     <g id="line2d_1">
      <path d="M 263.714286 231.192289
L 274.14 231.192289
" clip-path="url(#pa2b5b9e6ca)" style="fill: none; stroke: #ffffff; stroke-width: 0.8; stroke-linecap: round"/>
     </g>
     <g id="line2d_2">
      <defs>
       <path id="m86ba0b7e2f" d="M 0 0
L 3.5 0
" style="stroke: #4c4f69; stroke-width: 0.8"/>
      </defs>
      <g>
       <use xlink:href="#m86ba0b7e2f" x="274.14" y="231.192289" style="fill: #4c4f69; stroke: #4c4f69; stroke-width: 0.8"/>
      </g>
     </g>
     <g id="text_19">
      <!-- 10 -->
      <g style="fill: #4c4f69" transform="translate(281.14 234.842289) scale(0.1 -0.1)">
       <defs>
        <path id="JetBrainsMonoNFM-Regular-30" d="M 1920 -64
Q 1274 -64 893 310
Q 512 685 512 1312
L 512 3360
Q 512 3987 893 4361
Q 1274 4736 1920 4736
Q 2566 4736 2947 4361
Q 3328 3987 3328 3360
L 3328 1312
Q 3328 896 3155 585
Q 2982 275 2665 105
Q 2349 -64 1920 -64
z
M 1920 429
Q 2304 429 2537 675
Q 2771 922 2771 1312
L 2771 3360
Q 2771 3750 2537 3996
Q 2304 4243 1920 4243
Q 1536 4243 1302 3996
Q 1069 3750 1069 3360
L 1069 1312
Q 1069 922 1302 675
Q 1536 429 1920 429
z
M 1920 1984
Q 1747 1984 1641 2080
Q 1536 2176 1536 2355
Q 1536 2528 1641 2621
Q 1747 2714 1920 2714
Q 2093 2714 2198 2621
Q 2304 2528 2304 2355
Q 2304 2176 2198 2080
Q 2093 1984 1920 1984
z
" transform="scale(0.015625)"/>
       </defs>
       <use xlink:href="#JetBrainsMonoNFM-Regular-31"/>
       <use xlink:href="#JetBrainsMonoNFM-Regular-30" x="59.999985"/>
      </g>
     </g>
    </g>
    <g id="ytick_2">
     <g id="line2d_3">
      <path d="M 263.714286 201.988607
L 274.14 201.988607
" clip-path="url(#pa2b5b9e6ca)" style="fill: none; stroke: #ffffff; stroke-width: 0.8; stroke-linecap: round"/>
     </g>
     <g id="line2d_4">
      <g>
       <use xlink:href="#m86ba0b7e2f" x="274.14" y="201.988607" style="fill: #4c4f69; stroke: #4c4f69; stroke-width: 0.8"/>
      </g>
     </g>
     <g id="text_20">
      <!-- 15 -->
      <g style="fill: #4c4f69" transform="translate(281.14 205.638607) scale(0.1 -0.1)">
       <use xlink:href="#JetBrainsMonoNFM-Regular-31"/>
       <use xlink:href="#JetBrainsMonoNFM-Regular-35" x="59.999985"/>
      </g>
     </g>
    </g>
    <g id="ytick_3">
     <g id="line2d_5">
      <path d="M 263.714286 172.784926
L 274.14 172.784926
" clip-path="url(#pa2b5b9e6ca)" style="fill: none; stroke: #ffffff; stroke-width: 0.8; stroke-linecap: round"/>
     </g>
     <g id="line2d_6">
      <g>
       <use xlink:href="#m86ba0b7e2f" x="274.14" y="172.784926" style="fill: #4c4f69; stroke: #4c4f69; stroke-width: 0.8"/>
      </g>
     </g>
     <g id="text_21">
      <!-- 20 -->
      <g style="fill: #4c4f69" transform="translate(281.14 176.434926) scale(0.1 -0.1)">
       <use xlink:href="#JetBrainsMonoNFM-Regular-32"/>
       <use xlink:href="#JetBrainsMonoNFM-Regular-30" x="59.999985"/>
      </g>
     </g>
    </g>
    <g id="ytick_4">
     <g id="line2d_7">
      <path d="M 263.714286 143.581244
L 274.14 143.581244
" clip-path="url(#pa2b5b9e6ca)" style="fill: none; stroke: #ffffff; stroke-width: 0.8; stroke-linecap: round"/>
     </g>
     <g id="line2d_8">
      <g>
       <use xlink:href="#m86ba0b7e2f" x="274.14" y="143.581244" style="fill: #4c4f69; stroke: #4c4f69; stroke-width: 0.8"/>
      </g>
     </g>
     <g id="text_22">
      <!-- 25 -->
      <g style="fill: #4c4f69" transform="translate(281.14 147.231244) scale(0.1 -0.1)">
       <use xlink:href="#JetBrainsMonoNFM-Regular-32"/>
       <use xlink:href="#JetBrainsMonoNFM-Regular-35" x="59.999985"/>
      </g>
     </g>
    </g>
    <g id="ytick_5">
     <g id="line2d_9">
      <path d="M 263.714286 114.377563
L 274.14 114.377563
" clip-path="url(#pa2b5b9e6ca)" style="fill: none; stroke: #ffffff; stroke-width: 0.8; stroke-linecap: round"/>
     </g>
     <g id="line2d_10">
      <g>
       <use xlink:href="#m86ba0b7e2f" x="274.14" y="114.377563" style="fill: #4c4f69; stroke: #4c4f69; stroke-width: 0.8"/>
      </g>
     </g>
     <g id="text_23">
      <!-- 30 -->
      <g style="fill: #4c4f69" transform="translate(281.14 118.027563) scale(0.1 -0.1)">
       <use xlink:href="#JetBrainsMonoNFM-Regular-33"/>
       <use xlink:href="#JetBrainsMonoNFM-Regular-30" x="59.999985"/>
      </g>
     </g>
    </g>
    <g id="ytick_6">
     <g id="line2d_11">
      <path d="M 263.714286 85.173882
L 274.14 85.173882
" clip-path="url(#pa2b5b9e6ca)" style="fill: none; stroke: #ffffff; stroke-width: 0.8; stroke-linecap: round"/>
     </g>
     <g id="line2d_12">
      <g>
       <use xlink:href="#m86ba0b7e2f" x="274.14" y="85.173882" style="fill: #4c4f69; stroke: #4c4f69; stroke-width: 0.8"/>
      </g>
     </g>
     <g id="text_24">
      <!-- 35 -->
      <g style="fill: #4c4f69" transform="translate(281.14 88.823882) scale(0.1 -0.1)">
       <use xlink:href="#JetBrainsMonoNFM-Regular-33"/>
       <use xlink:href="#JetBrainsMonoNFM-Regular-35" x="59.999985"/>
      </g>
     </g>
    </g>
    <g id="ytick_7">
     <g id="line2d_13">
      <path d="M 263.714286 55.9702
L 274.14 55.9702
" clip-path="url(#pa2b5b9e6ca)" style="fill: none; stroke: #ffffff; stroke-width: 0.8; stroke-linecap: round"/>
     </g>
     <g id="line2d_14">
      <g>
       <use xlink:href="#m86ba0b7e2f" x="274.14" y="55.9702" style="fill: #4c4f69; stroke: #4c4f69; stroke-width: 0.8"/>
      </g>
     </g>
     <g id="text_25">
      <!-- 40 -->
      <g style="fill: #4c4f69" transform="translate(281.14 59.6202) scale(0.1 -0.1)">
       <use xlink:href="#JetBrainsMonoNFM-Regular-34"/>
       <use xlink:href="#JetBrainsMonoNFM-Regular-30" x="59.999985"/>
      </g>
     </g>
    </g>
    <g id="text_26">
     <!-- Finished At Difference [$s$] -->
     <g style="fill: #4c4f69" transform="translate(304.62 78.501429) rotate(-270) scale(0.12 -0.12)">
      <defs>
       <path id="STIXTwoText-46" d="M 2106 0
L 230 0
L 230 192
Q 493 192 624 230
Q 755 269 803 387
Q 851 506 851 742
L 851 3482
Q 851 3706 793 3818
Q 736 3930 598 3971
Q 461 4013 230 4013
L 230 4205
L 3635 4205
L 3674 3155
L 3469 3155
Q 3424 3386 3376 3533
Q 3328 3680 3232 3763
Q 3136 3846 2953 3881
Q 2771 3917 2458 3917
L 1440 3917
L 1440 2298
L 2195 2298
Q 2470 2298 2617 2349
Q 2765 2400 2819 2537
Q 2874 2675 2874 2931
L 3091 2931
L 3091 1446
L 2874 1446
Q 2874 1709 2819 1837
Q 2765 1965 2617 2006
Q 2470 2048 2195 2048
L 1440 2048
L 1440 704
Q 1440 486 1501 377
Q 1562 269 1709 230
Q 1856 192 2106 192
L 2106 0
z
" transform="scale(0.015625)"/>
       <path id="STIXTwoText-69" d="M 1645 0
L 205 0
L 205 179
Q 422 179 515 220
Q 608 262 630 364
Q 653 467 653 646
L 653 2432
Q 653 2637 582 2685
Q 512 2733 371 2733
Q 307 2733 259 2726
Q 211 2720 211 2720
L 211 2906
L 1018 3085
L 1184 3085
L 1184 646
Q 1184 461 1209 358
Q 1235 256 1334 217
Q 1434 179 1645 179
L 1645 0
z
M 928 3584
Q 768 3584 665 3693
Q 563 3802 563 3949
Q 563 4096 662 4201
Q 762 4307 928 4307
Q 1094 4307 1193 4201
Q 1293 4096 1293 3949
Q 1293 3802 1193 3693
Q 1094 3584 928 3584
z
" transform="scale(0.015625)"/>
       <path id="STIXTwoText-73" d="M 269 -51
L 250 1050
L 416 1050
Q 518 557 716 361
Q 915 166 1267 166
Q 1510 166 1664 265
Q 1818 365 1818 589
Q 1818 742 1763 844
Q 1709 947 1555 1052
Q 1402 1158 1101 1306
Q 806 1453 620 1590
Q 435 1728 345 1894
Q 256 2061 256 2298
Q 256 2694 541 2899
Q 826 3104 1235 3104
Q 1478 3104 1632 3049
Q 1786 2995 1907 2938
L 1914 2938
L 2022 3072
L 2150 3072
L 2170 2093
L 1997 2093
Q 1894 2547 1708 2716
Q 1523 2886 1229 2886
Q 1011 2886 860 2784
Q 710 2682 710 2464
Q 710 2278 883 2131
Q 1056 1984 1459 1779
Q 1754 1626 1952 1482
Q 2150 1338 2252 1168
Q 2355 998 2355 762
Q 2355 461 2208 278
Q 2061 96 1814 13
Q 1568 -70 1280 -70
Q 1005 -70 841 -12
Q 678 45 550 96
L 538 96
L 403 -51
L 269 -51
z
" transform="scale(0.015625)"/>
       <path id="STIXTwoText-68" d="M 3558 0
L 2086 0
L 2086 186
Q 2310 186 2406 230
Q 2502 275 2528 371
Q 2554 467 2554 621
L 2554 1728
Q 2554 1990 2515 2211
Q 2477 2432 2352 2563
Q 2227 2694 1965 2694
Q 1766 2694 1561 2588
Q 1357 2483 1094 2227
L 1101 2579
L 1190 2579
Q 1491 2861 1731 2982
Q 1971 3104 2227 3104
Q 2502 3104 2672 2995
Q 2842 2886 2931 2710
Q 3021 2534 3053 2326
Q 3085 2118 3085 1920
L 3085 646
Q 3085 390 3171 288
Q 3258 186 3558 186
L 3558 0
z
M 1645 0
L 192 0
L 192 186
Q 442 186 541 256
Q 640 326 640 595
L 640 3872
Q 640 4038 547 4083
Q 454 4128 326 4128
Q 250 4128 195 4121
Q 141 4115 141 4115
L 141 4294
L 998 4518
L 1171 4518
L 1171 621
Q 1171 454 1196 358
Q 1222 262 1324 224
Q 1427 186 1645 186
L 1645 0
z
" transform="scale(0.015625)"/>
       <path id="STIXTwoText-64" d="M 1306 -51
Q 947 -51 700 141
Q 454 333 332 662
Q 211 992 211 1402
Q 211 1933 409 2313
Q 608 2694 944 2899
Q 1280 3104 1683 3104
Q 1837 3104 1987 3065
Q 2138 3027 2278 2950
L 2304 2950
L 2304 3789
Q 2304 4000 2256 4064
Q 2208 4128 2022 4128
Q 1978 4128 1917 4121
Q 1856 4115 1856 4115
L 1856 4294
L 2662 4518
L 2835 4518
L 2835 685
Q 2835 435 2905 361
Q 2976 288 3155 288
L 3290 288
L 3290 115
L 2470 -32
L 2323 -32
L 2323 410
L 2298 410
Q 2118 250 1872 99
Q 1626 -51 1306 -51
z
M 1606 410
Q 1830 410 1984 470
Q 2138 531 2304 646
L 2304 2336
Q 2266 2534 2118 2691
Q 1971 2848 1670 2848
Q 1267 2848 1017 2553
Q 768 2259 768 1651
Q 768 992 982 701
Q 1197 410 1606 410
z
" transform="scale(0.015625)"/>
       <path id="STIXTwoText-20" transform="scale(0.015625)"/>
       <path id="STIXTwoText-41" d="M 1363 0
L 19 0
L 19 192
Q 198 192 307 249
Q 416 307 518 483
Q 621 659 774 1024
L 2131 4237
L 2394 4237
L 3910 762
Q 4051 448 4182 320
Q 4314 192 4570 192
L 4570 0
L 2848 0
L 2848 192
Q 2944 192 3046 205
Q 3149 218 3219 269
Q 3290 320 3290 429
Q 3290 499 3267 592
Q 3245 685 3181 826
L 2906 1466
L 2861 1594
L 2131 3450
L 2112 3450
L 1363 1594
L 1318 1466
L 1005 723
Q 979 646 956 572
Q 934 499 934 410
Q 934 275 1036 233
Q 1139 192 1363 192
L 1363 0
z
M 3002 1402
L 1222 1402
L 1318 1658
L 2906 1658
L 3002 1402
z
" transform="scale(0.015625)"/>
       <path id="STIXTwoText-44" d="M 2054 0
L 224 0
L 224 192
Q 506 192 640 233
Q 774 275 812 406
Q 851 538 851 794
L 851 3475
Q 851 3712 793 3824
Q 736 3936 601 3974
Q 467 4013 224 4013
L 224 4205
L 1984 4205
Q 2483 4205 2915 4099
Q 3347 3994 3667 3750
Q 3987 3507 4169 3110
Q 4352 2714 4352 2125
Q 4352 1574 4189 1171
Q 4026 768 3722 509
Q 3418 250 2995 125
Q 2573 0 2054 0
z
M 1818 243
Q 2400 243 2816 400
Q 3232 557 3456 953
Q 3680 1350 3680 2067
Q 3680 2982 3213 3462
Q 2746 3942 1754 3942
Q 1677 3942 1603 3942
Q 1530 3942 1440 3930
L 1440 262
Q 1536 256 1629 249
Q 1722 243 1818 243
z
" transform="scale(0.015625)"/>
       <path id="STIXTwoText-66" d="M 1837 0
L 115 0
L 115 186
Q 352 186 464 227
Q 576 269 614 390
Q 653 512 653 762
L 653 2797
Q 653 3162 669 3395
Q 685 3629 729 3789
Q 774 3949 858 4096
Q 986 4320 1181 4441
Q 1376 4563 1709 4563
Q 1920 4563 2080 4512
Q 2240 4461 2333 4361
Q 2426 4262 2426 4115
Q 2426 3974 2349 3907
Q 2272 3840 2163 3840
Q 2042 3840 1965 3920
Q 1888 4000 1818 4090
Q 1754 4179 1680 4252
Q 1606 4326 1491 4326
Q 1312 4326 1248 4163
Q 1184 4000 1184 3597
L 1184 762
Q 1184 512 1235 390
Q 1286 269 1427 227
Q 1568 186 1837 186
L 1837 0
z
M 1965 2726
L 166 2726
L 166 2995
L 1965 2995
L 1965 2726
z
" transform="scale(0.015625)"/>
       <path id="STIXTwoText-63" d="M 2611 947
L 2733 858
Q 2611 602 2454 390
Q 2298 179 2067 57
Q 1837 -64 1491 -64
Q 1094 -64 806 128
Q 518 320 364 662
Q 211 1005 211 1446
Q 211 1952 380 2323
Q 550 2694 873 2899
Q 1197 3104 1658 3104
Q 2112 3104 2371 2905
Q 2630 2707 2630 2426
Q 2630 2285 2563 2211
Q 2496 2138 2362 2138
Q 2221 2138 2147 2211
Q 2074 2285 2029 2393
Q 1984 2502 1936 2611
Q 1888 2720 1801 2793
Q 1715 2867 1549 2867
Q 1158 2867 937 2582
Q 717 2298 717 1747
Q 717 1165 957 790
Q 1197 416 1690 416
Q 2003 416 2198 544
Q 2394 672 2611 947
z
" transform="scale(0.015625)"/>
       <path id="STIXTwoText-5b" d="M 1920 -1190
L 582 -1190
L 582 4685
L 1920 4685
L 1920 4493
L 1088 4493
L 1088 -998
L 1920 -998
L 1920 -1190
z
" transform="scale(0.015625)"/>
       <path id="DejaVuSans-Oblique-73" d="M 3200 3397
L 3091 2853
Q 2863 2978 2609 3040
Q 2356 3103 2088 3103
Q 1634 3103 1373 2948
Q 1113 2794 1113 2528
Q 1113 2219 1719 2053
Q 1766 2041 1788 2034
L 1972 1978
Q 2547 1819 2739 1644
Q 2931 1469 2931 1166
Q 2931 609 2489 259
Q 2047 -91 1331 -91
Q 1053 -91 747 -37
Q 441 16 72 128
L 184 722
Q 500 559 806 475
Q 1113 391 1394 391
Q 1816 391 2080 572
Q 2344 753 2344 1031
Q 2344 1331 1650 1516
L 1591 1531
L 1394 1581
Q 956 1697 753 1886
Q 550 2075 550 2369
Q 550 2928 970 3256
Q 1391 3584 2113 3584
Q 2397 3584 2667 3537
Q 2938 3491 3200 3397
z
" transform="scale(0.015625)"/>
       <path id="STIXTwoText-5d" d="M 1638 -1190
L 301 -1190
L 301 -998
L 1133 -998
L 1133 4493
L 301 4493
L 301 4685
L 1638 4685
L 1638 -1190
z
" transform="scale(0.015625)"/>
      </defs>
      <use xlink:href="#STIXTwoText-46" transform="translate(0 0.796875)"/>
      <use xlink:href="#STIXTwoText-69" transform="translate(58.799988 0.796875)"/>
      <use xlink:href="#STIXTwoText-6e" transform="translate(87.299973 0.796875)"/>
      <use xlink:href="#STIXTwoText-69" transform="translate(144.899963 0.796875)"/>
      <use xlink:href="#STIXTwoText-73" transform="translate(173.399948 0.796875)"/>
      <use xlink:href="#STIXTwoText-68" transform="translate(212.899933 0.796875)"/>
      <use xlink:href="#STIXTwoText-65" transform="translate(270.59993 0.796875)"/>
      <use xlink:href="#STIXTwoText-64" transform="translate(316.999924 0.796875)"/>
      <use xlink:href="#STIXTwoText-20" transform="translate(370.899918 0.796875)"/>
      <use xlink:href="#STIXTwoText-41" transform="translate(394.399902 0.796875)"/>
      <use xlink:href="#STIXTwoText-74" transform="translate(466.19989 0.796875)"/>
      <use xlink:href="#STIXTwoText-20" transform="translate(497.699875 0.796875)"/>
      <use xlink:href="#STIXTwoText-44" transform="translate(521.19986 0.796875)"/>
      <use xlink:href="#STIXTwoText-69" transform="translate(594.199844 0.796875)"/>
      <use xlink:href="#STIXTwoText-66" transform="translate(622.699829 0.796875)"/>
      <use xlink:href="#STIXTwoText-66" transform="translate(653.399826 0.796875)"/>
      <use xlink:href="#STIXTwoText-65" transform="translate(684.099823 0.796875)"/>
      <use xlink:href="#STIXTwoText-72" transform="translate(730.499817 0.796875)"/>
      <use xlink:href="#STIXTwoText-65" transform="translate(768.499802 0.796875)"/>
      <use xlink:href="#STIXTwoText-6e" transform="translate(814.899796 0.796875)"/>
      <use xlink:href="#STIXTwoText-63" transform="translate(872.499786 0.796875)"/>
      <use xlink:href="#STIXTwoText-65" transform="translate(917.099777 0.796875)"/>
      <use xlink:href="#STIXTwoText-20" transform="translate(963.499771 0.796875)"/>
      <use xlink:href="#STIXTwoText-5b" transform="translate(986.999756 0.796875)"/>
      <use xlink:href="#DejaVuSans-Oblique-73" transform="translate(1021.699753 0.796875)"/>
      <use xlink:href="#STIXTwoText-5d" transform="translate(1073.799362 0.796875)"/>
     </g>
    </g>
   </g>
   <g id="QuadMesh_2">
    <path d="M 263.714286 249.298571
L 274.14 249.298571
L 274.14 240.610476
L 263.714286 240.610476
L 263.714286 249.298571
" clip-path="url(#pa2b5b9e6ca)" style="fill: #7287fd"/>
    <path d="M 263.714286 240.610476
L 274.14 240.610476
L 274.14 231.922381
L 263.714286 231.922381
L 263.714286 240.610476
" clip-path="url(#pa2b5b9e6ca)" style="fill: #7c90fc"/>
    <path d="M 263.714286 231.922381
L 274.14 231.922381
L 274.14 223.234286
L 263.714286 223.234286
L 263.714286 231.922381
" clip-path="url(#pa2b5b9e6ca)" style="fill: #8698fb"/>
    <path d="M 263.714286 223.234286
L 274.14 223.234286
L 274.14 214.54619
L 263.714286 214.54619
L 263.714286 223.234286
" clip-path="url(#pa2b5b9e6ca)" style="fill: #90a1f9"/>
    <path d="M 263.714286 214.54619
L 274.14 214.54619
L 274.14 205.858095
L 263.714286 205.858095
L 263.714286 214.54619
" clip-path="url(#pa2b5b9e6ca)" style="fill: #9aa9f8"/>
    <path d="M 263.714286 205.858095
L 274.14 205.858095
L 274.14 197.17
L 263.714286 197.17
L 263.714286 205.858095
" clip-path="url(#pa2b5b9e6ca)" style="fill: #a4b2f7"/>
    <path d="M 263.714286 197.17
L 274.14 197.17
L 274.14 188.481905
L 263.714286 188.481905
L 263.714286 197.17
" clip-path="url(#pa2b5b9e6ca)" style="fill: #afbaf6"/>
    <path d="M 263.714286 188.481905
L 274.14 188.481905
L 274.14 179.79381
L 263.714286 179.79381
L 263.714286 188.481905
" clip-path="url(#pa2b5b9e6ca)" style="fill: #b9c3f4"/>
    <path d="M 263.714286 179.79381
L 274.14 179.79381
L 274.14 171.105714
L 263.714286 171.105714
L 263.714286 179.79381
" clip-path="url(#pa2b5b9e6ca)" style="fill: #c3cbf3"/>
    <path d="M 263.714286 171.105714
L 274.14 171.105714
L 274.14 162.417619
L 263.714286 162.417619
L 263.714286 171.105714
" clip-path="url(#pa2b5b9e6ca)" style="fill: #cdd4f2"/>
    <path d="M 263.714286 162.417619
L 274.14 162.417619
L 274.14 153.729524
L 263.714286 153.729524
L 263.714286 162.417619
" clip-path="url(#pa2b5b9e6ca)" style="fill: #d7dcf1"/>
    <path d="M 263.714286 153.729524
L 274.14 153.729524
L 274.14 145.041429
L 263.714286 145.041429
L 263.714286 153.729524
" clip-path="url(#pa2b5b9e6ca)" style="fill: #e1e5f0"/>
    <path d="M 263.714286 145.041429
L 274.14 145.041429
L 274.14 136.353333
L 263.714286 136.353333
L 263.714286 145.041429
" clip-path="url(#pa2b5b9e6ca)" style="fill: #e7e3e5"/>
    <path d="M 263.714286 136.353333
L 274.14 136.353333
L 274.14 127.665238
L 263.714286 127.665238
L 263.714286 136.353333
" clip-path="url(#pa2b5b9e6ca)" style="fill: #e9d8d1"/>
    <path d="M 263.714286 127.665238
L 274.14 127.665238
L 274.14 118.977143
L 263.714286 118.977143
L 263.714286 127.665238
" clip-path="url(#pa2b5b9e6ca)" style="fill: #ebccbd"/>
    <path d="M 263.714286 118.977143
L 274.14 118.977143
L 274.14 110.289048
L 263.714286 110.289048
L 263.714286 118.977143
" clip-path="url(#pa2b5b9e6ca)" style="fill: #edc1aa"/>
    <path d="M 263.714286 110.289048
L 274.14 110.289048
L 274.14 101.600952
L 263.714286 101.600952
L 263.714286 110.289048
" clip-path="url(#pa2b5b9e6ca)" style="fill: #efb596"/>
    <path d="M 263.714286 101.600952
L 274.14 101.600952
L 274.14 92.912857
L 263.714286 92.912857
L 263.714286 101.600952
" clip-path="url(#pa2b5b9e6ca)" style="fill: #f1a982"/>
    <path d="M 263.714286 92.912857
L 274.14 92.912857
L 274.14 84.224762
L 263.714286 84.224762
L 263.714286 92.912857
" clip-path="url(#pa2b5b9e6ca)" style="fill: #f49e6e"/>
    <path d="M 263.714286 84.224762
L 274.14 84.224762
L 274.14 75.536667
L 263.714286 75.536667
L 263.714286 84.224762
" clip-path="url(#pa2b5b9e6ca)" style="fill: #f6925a"/>
    <path d="M 263.714286 75.536667
L 274.14 75.536667
L 274.14 66.848571
L 263.714286 66.848571
L 263.714286 75.536667
" clip-path="url(#pa2b5b9e6ca)" style="fill: #f88746"/>
    <path d="M 263.714286 66.848571
L 274.14 66.848571
L 274.14 58.160476
L 263.714286 58.160476
L 263.714286 66.848571
" clip-path="url(#pa2b5b9e6ca)" style="fill: #fa7b33"/>
    <path d="M 263.714286 58.160476
L 274.14 58.160476
L 274.14 49.472381
L 263.714286 49.472381
L 263.714286 58.160476
" clip-path="url(#pa2b5b9e6ca)" style="fill: #fc701f"/>
    <path d="M 263.714286 49.472381
L 274.14 49.472381
L 274.14 40.784286
L 263.714286 40.784286
L 263.714286 49.472381
" clip-path="url(#pa2b5b9e6ca)" style="fill: #fe640b"/>
   </g>
   <g id="LineCollection_17"/>
   <g id="patch_8">
    <path d="M 263.714286 249.298571
L 268.927143 249.298571
L 274.14 249.298571
L 274.14 40.784286
L 268.927143 40.784286
L 263.714286 40.784286
L 263.714286 249.298571
z
" style="fill: none; stroke: #ffffff; stroke-width: 0.8; stroke-linejoin: miter; stroke-linecap: square"/>
   </g>
  </g>
 </g>
 <defs>
  <clipPath id="p1494f13d6e">
   <rect x="51.6" y="40.784286" width="208.514286" height="208.514286"/>
  </clipPath>
  <clipPath id="pa2b5b9e6ca">
   <rect x="263.714286" y="40.784286" width="10.425714" height="208.514286"/>
  </clipPath>
 </defs>
</svg>
