<?xml version="1.0" encoding="utf-8" standalone="no"?>
<!DOCTYPE svg PUBLIC "-//W3C//DTD SVG 1.1//EN"
  "http://www.w3.org/Graphics/SVG/1.1/DTD/svg11.dtd">
<svg xmlns:xlink="http://www.w3.org/1999/xlink" width="324pt" height="324pt" viewBox="0 0 324 324" xmlns="http://www.w3.org/2000/svg" version="1.1">
 <metadata>
  <rdf:RDF xmlns:dc="http://purl.org/dc/elements/1.1/" xmlns:cc="http://creativecommons.org/ns#" xmlns:rdf="http://www.w3.org/1999/02/22-rdf-syntax-ns#">
   <cc:Work>
    <dc:type rdf:resource="http://purl.org/dc/dcmitype/StillImage"/>
    <dc:date>1980-01-01T00:00:00+00:00</dc:date>
    <dc:format>image/svg+xml</dc:format>
    <dc:creator>
     <cc:Agent>
      <dc:title>Matplotlib v3.8.4, https://matplotlib.org/</dc:title>
     </cc:Agent>
    </dc:creator>
   </cc:Work>
  </rdf:RDF>
 </metadata>
 <defs>
  <style type="text/css">*{stroke-linejoin: round; stroke-linecap: butt}</style>
 </defs>
 <g id="figure_1">
  <g id="patch_1">
   <path d="M 0 324
L 324 324
L 324 0
L 0 0
z
" style="fill: #ffffff"/>
  </g>
  <g id="axes_1">
   <g id="patch_2">
    <path d="M 51.6 246.427143
L 254.371429 246.427143
L 254.371429 43.655714
L 51.6 43.655714
z
" style="fill: #eff1f5"/>
   </g>
   <g id="matplotlib.axis_1">
    <g id="text_1">
     <!-- External -->
     <g style="fill: #4c4f69" transform="translate(131.367902 284.898393) scale(0.12 -0.12)">
      <defs>
       <path id="STIXTwoText-45" d="M 3648 0
L 230 0
L 230 192
Q 493 192 624 227
Q 755 262 803 384
Q 851 506 851 755
L 851 3424
Q 851 3667 803 3795
Q 755 3923 624 3968
Q 493 4013 230 4013
L 230 4205
L 3590 4205
L 3629 3155
L 3424 3155
Q 3379 3475 3286 3638
Q 3194 3802 2986 3859
Q 2778 3917 2381 3917
L 1440 3917
L 1440 2291
L 2189 2291
Q 2483 2291 2636 2342
Q 2790 2394 2848 2534
Q 2906 2675 2906 2931
L 3110 2931
L 3110 1446
L 2906 1446
Q 2906 1709 2848 1837
Q 2790 1965 2636 2003
Q 2483 2042 2189 2042
L 1440 2042
L 1440 282
L 2266 282
Q 2637 282 2864 317
Q 3091 352 3222 448
Q 3354 544 3440 723
Q 3526 902 3622 1190
L 3827 1190
L 3648 0
z
" transform="scale(0.015625)"/>
       <path id="STIXTwoText-78" d="M 3085 0
L 1747 0
L 1747 186
Q 1914 186 1981 214
Q 2048 243 2048 326
Q 2048 390 2003 461
L 1600 1082
L 1440 1363
L 1338 1453
L 634 2458
Q 525 2618 448 2701
Q 371 2784 288 2813
Q 205 2842 70 2842
L 70 3027
L 1446 3027
L 1446 2848
Q 1139 2848 1139 2701
Q 1139 2650 1177 2579
Q 1216 2509 1289 2397
Q 1363 2285 1472 2106
L 1651 1773
L 1754 1715
L 2573 557
Q 2707 365 2806 275
Q 2906 186 3085 186
L 3085 0
z
M 1056 0
L -13 0
L -13 186
Q 154 186 262 253
Q 371 320 531 506
L 1338 1555
L 1536 1306
L 1446 1306
L 922 550
Q 877 474 822 397
Q 768 320 768 282
Q 768 230 832 208
Q 896 186 1056 186
L 1056 0
z
M 2464 2541
L 1754 1626
L 1568 1824
L 1651 1824
L 1952 2259
Q 2080 2438 2131 2528
Q 2182 2618 2182 2694
Q 2182 2765 2128 2806
Q 2074 2848 1920 2848
L 1920 3027
L 2976 3027
L 2976 2842
Q 2816 2842 2694 2762
Q 2573 2682 2464 2541
z
" transform="scale(0.015625)"/>
       <path id="STIXTwoText-74" d="M 1875 576
L 1997 474
Q 1875 301 1769 182
Q 1664 64 1536 0
Q 1408 -64 1203 -64
Q 883 -64 736 125
Q 589 314 589 742
L 589 2726
L 237 2726
L 237 2874
Q 461 3014 624 3254
Q 787 3494 960 3904
L 1120 3904
L 1120 2995
L 1843 2995
L 1843 2726
L 1120 2726
L 1120 922
Q 1120 582 1181 448
Q 1242 314 1427 314
Q 1581 314 1667 378
Q 1754 442 1875 576
z
" transform="scale(0.015625)"/>
       <path id="STIXTwoText-65" d="M 1581 -64
Q 1197 -64 886 118
Q 576 301 397 656
Q 218 1011 218 1523
Q 218 2061 400 2409
Q 582 2758 889 2931
Q 1197 3104 1568 3104
Q 2093 3104 2413 2739
Q 2733 2374 2758 1702
L 678 1702
L 672 1939
L 2157 1939
Q 2150 2176 2073 2384
Q 1997 2592 1849 2720
Q 1702 2848 1472 2848
Q 1101 2848 915 2557
Q 730 2266 730 1734
Q 730 1293 870 998
Q 1011 704 1241 560
Q 1472 416 1734 416
Q 1997 416 2160 486
Q 2323 557 2438 669
Q 2554 781 2656 915
L 2778 826
Q 2694 646 2585 483
Q 2477 320 2339 198
Q 2202 77 2016 6
Q 1830 -64 1581 -64
z
" transform="scale(0.015625)"/>
       <path id="STIXTwoText-72" d="M 1786 0
L 186 0
L 186 186
Q 397 186 496 221
Q 595 256 624 349
Q 653 442 653 621
L 653 2381
Q 653 2554 624 2640
Q 595 2726 422 2726
Q 326 2726 275 2720
Q 224 2714 224 2714
L 224 2893
L 1018 3085
L 1171 3085
L 1171 2426
L 1190 2426
Q 1357 2662 1485 2816
Q 1613 2970 1737 3046
Q 1862 3123 2016 3123
Q 2202 3123 2294 3027
Q 2387 2931 2387 2765
Q 2387 2586 2300 2502
Q 2214 2419 2106 2419
Q 2003 2419 1923 2473
Q 1843 2528 1785 2582
Q 1728 2637 1690 2637
Q 1581 2637 1440 2470
Q 1299 2304 1184 2112
L 1184 653
Q 1184 454 1235 352
Q 1286 250 1417 218
Q 1549 186 1786 186
L 1786 0
z
" transform="scale(0.015625)"/>
       <path id="STIXTwoText-6e" d="M 3552 0
L 2074 0
L 2074 179
Q 2304 179 2403 220
Q 2502 262 2524 364
Q 2547 467 2547 646
L 2547 1805
Q 2547 2189 2460 2381
Q 2374 2573 2240 2633
Q 2106 2694 1958 2694
Q 1773 2694 1625 2620
Q 1478 2547 1360 2444
Q 1242 2342 1139 2253
L 1094 2566
L 1190 2566
Q 1453 2797 1686 2950
Q 1920 3104 2221 3104
Q 2656 3104 2867 2809
Q 3078 2515 3078 1965
L 3078 646
Q 3078 467 3107 364
Q 3136 262 3238 220
Q 3341 179 3552 179
L 3552 0
z
M 1670 0
L 205 0
L 205 179
Q 422 179 515 220
Q 608 262 630 364
Q 653 467 653 646
L 653 2445
Q 653 2618 582 2672
Q 512 2726 384 2726
Q 301 2726 256 2720
Q 211 2714 211 2714
L 211 2899
L 1024 3085
L 1171 3085
L 1165 2496
L 1184 2362
L 1184 646
Q 1184 467 1209 364
Q 1235 262 1337 220
Q 1440 179 1670 179
L 1670 0
z
" transform="scale(0.015625)"/>
       <path id="STIXTwoText-61" d="M 1005 -45
Q 634 -45 438 160
Q 243 365 243 672
Q 243 928 361 1104
Q 480 1280 675 1401
Q 870 1523 1097 1606
Q 1325 1690 1542 1747
Q 1760 1805 1926 1856
L 1926 2138
Q 1926 2554 1782 2730
Q 1638 2906 1350 2906
Q 1075 2906 998 2790
Q 922 2675 922 2387
Q 922 2240 848 2166
Q 774 2093 640 2093
Q 544 2093 457 2166
Q 371 2240 371 2400
Q 371 2579 508 2739
Q 646 2899 899 3001
Q 1152 3104 1498 3104
Q 2022 3104 2240 2861
Q 2458 2618 2458 2118
L 2458 666
Q 2458 467 2502 409
Q 2547 352 2650 352
Q 2739 352 2812 397
Q 2886 442 2950 512
L 3046 410
Q 2886 179 2742 73
Q 2598 -32 2355 -32
Q 2131 -32 2064 96
Q 1997 224 1965 461
L 1926 538
L 1926 1645
Q 1638 1574 1382 1478
Q 1126 1382 966 1228
Q 806 1075 806 826
Q 806 589 934 448
Q 1062 307 1267 307
Q 1434 307 1616 390
Q 1798 474 1971 627
L 2022 397
L 1946 397
Q 1798 269 1660 166
Q 1523 64 1366 9
Q 1210 -45 1005 -45
z
" transform="scale(0.015625)"/>
       <path id="STIXTwoText-6c" d="M 1664 0
L 192 0
L 192 186
Q 403 186 499 227
Q 595 269 617 368
Q 640 467 640 646
L 640 3859
Q 640 4058 566 4096
Q 493 4134 371 4134
Q 288 4134 227 4128
Q 166 4122 166 4122
L 166 4294
L 1011 4518
L 1171 4518
L 1171 646
Q 1171 461 1200 361
Q 1229 262 1331 224
Q 1434 186 1664 186
L 1664 0
z
" transform="scale(0.015625)"/>
      </defs>
      <use xlink:href="#STIXTwoText-45"/>
      <use xlink:href="#STIXTwoText-78" x="62.599991"/>
      <use xlink:href="#STIXTwoText-74" x="110.499985"/>
      <use xlink:href="#STIXTwoText-65" x="141.999969"/>
      <use xlink:href="#STIXTwoText-72" x="188.399963"/>
      <use xlink:href="#STIXTwoText-6e" x="226.399948"/>
      <use xlink:href="#STIXTwoText-61" x="283.999939"/>
      <use xlink:href="#STIXTwoText-6c" x="331.999924"/>
     </g>
    </g>
   </g>
   <g id="matplotlib.axis_2">
    <g id="text_2">
     <!-- Internal -->
     <g style="fill: #4c4f69" transform="translate(18.96 165.627054) rotate(-90) scale(0.12 -0.12)">
      <defs>
       <path id="STIXTwoText-49" d="M 2061 0
L 218 0
L 218 192
Q 506 192 640 240
Q 774 288 812 425
Q 851 563 851 838
L 851 3360
Q 851 3610 819 3754
Q 787 3898 656 3955
Q 525 4013 218 4013
L 218 4205
L 2061 4205
L 2061 4013
Q 1760 4013 1625 3955
Q 1491 3898 1462 3754
Q 1434 3610 1434 3360
L 1434 838
Q 1434 563 1472 425
Q 1510 288 1644 240
Q 1779 192 2061 192
L 2061 0
z
" transform="scale(0.015625)"/>
      </defs>
      <use xlink:href="#STIXTwoText-49"/>
      <use xlink:href="#STIXTwoText-6e" x="35.699997"/>
      <use xlink:href="#STIXTwoText-74" x="93.299988"/>
      <use xlink:href="#STIXTwoText-65" x="124.799973"/>
      <use xlink:href="#STIXTwoText-72" x="171.199966"/>
      <use xlink:href="#STIXTwoText-6e" x="209.199951"/>
      <use xlink:href="#STIXTwoText-61" x="266.799942"/>
      <use xlink:href="#STIXTwoText-6c" x="314.799927"/>
     </g>
    </g>
   </g>
   <g id="QuadMesh_1">
    <path d="M 51.6 246.427143
L 76.946429 246.427143
L 76.946429 221.080714
L 51.6 221.080714
L 51.6 246.427143
" clip-path="url(#pf93df3cbc0)" style="fill: #efb596"/>
    <path d="M 76.946429 246.427143
L 102.292857 246.427143
L 102.292857 221.080714
L 76.946429 221.080714
L 76.946429 246.427143
" clip-path="url(#pf93df3cbc0)" style="fill: #efb596"/>
    <path d="M 102.292857 246.427143
L 127.639286 246.427143
L 127.639286 221.080714
L 102.292857 221.080714
L 102.292857 246.427143
" clip-path="url(#pf93df3cbc0)" style="fill: #f1a982"/>
    <path d="M 127.639286 246.427143
L 152.985714 246.427143
L 152.985714 221.080714
L 127.639286 221.080714
L 127.639286 246.427143
" clip-path="url(#pf93df3cbc0)" style="fill: #f49e6e"/>
    <path d="M 152.985714 246.427143
L 178.332143 246.427143
L 178.332143 221.080714
L 152.985714 221.080714
L 152.985714 246.427143
" clip-path="url(#pf93df3cbc0)" style="fill: #fa7b33"/>
    <path d="M 178.332143 246.427143
L 203.678571 246.427143
L 203.678571 221.080714
L 178.332143 221.080714
L 178.332143 246.427143
" clip-path="url(#pf93df3cbc0)" style="fill: #fe640b"/>
    <path d="M 203.678571 246.427143
L 229.025 246.427143
L 229.025 221.080714
L 203.678571 221.080714
L 203.678571 246.427143
" clip-path="url(#pf93df3cbc0)" style="fill: #fe640b"/>
    <path d="M 229.025 246.427143
L 254.371429 246.427143
L 254.371429 221.080714
L 229.025 221.080714
L 229.025 246.427143
" clip-path="url(#pf93df3cbc0)" style="fill: #fc701f"/>
    <path d="M 51.6 221.080714
L 76.946429 221.080714
L 76.946429 195.734286
L 51.6 195.734286
L 51.6 221.080714
" clip-path="url(#pf93df3cbc0)" style="fill: #e1e5f0"/>
    <path d="M 76.946429 221.080714
L 102.292857 221.080714
L 102.292857 195.734286
L 76.946429 195.734286
L 76.946429 221.080714
" clip-path="url(#pf93df3cbc0)" style="fill: #e1e5f0"/>
    <path d="M 102.292857 221.080714
L 127.639286 221.080714
L 127.639286 195.734286
L 102.292857 195.734286
L 102.292857 221.080714
" clip-path="url(#pf93df3cbc0)" style="fill: #e1e5f0"/>
    <path d="M 127.639286 221.080714
L 152.985714 221.080714
L 152.985714 195.734286
L 127.639286 195.734286
L 127.639286 221.080714
" clip-path="url(#pf93df3cbc0)" style="fill: #d7dcf1"/>
    <path d="M 152.985714 221.080714
L 178.332143 221.080714
L 178.332143 195.734286
L 152.985714 195.734286
L 152.985714 221.080714
" clip-path="url(#pf93df3cbc0)" style="fill: #e7e3e5"/>
    <path d="M 178.332143 221.080714
L 203.678571 221.080714
L 203.678571 195.734286
L 178.332143 195.734286
L 178.332143 221.080714
" clip-path="url(#pf93df3cbc0)" style="fill: #edc1aa"/>
    <path d="M 203.678571 221.080714
L 229.025 221.080714
L 229.025 195.734286
L 203.678571 195.734286
L 203.678571 221.080714
" clip-path="url(#pf93df3cbc0)" style="fill: #f49e6e"/>
    <path d="M 229.025 221.080714
L 254.371429 221.080714
L 254.371429 195.734286
L 229.025 195.734286
L 229.025 221.080714
" clip-path="url(#pf93df3cbc0)" style="fill: #f6925a"/>
    <path d="M 51.6 195.734286
L 76.946429 195.734286
L 76.946429 170.387857
L 51.6 170.387857
L 51.6 195.734286
" clip-path="url(#pf93df3cbc0)" style="fill: #cdd4f2"/>
    <path d="M 76.946429 195.734286
L 102.292857 195.734286
L 102.292857 170.387857
L 76.946429 170.387857
L 76.946429 195.734286
" clip-path="url(#pf93df3cbc0)" style="fill: #afbaf6"/>
    <path d="M 102.292857 195.734286
L 127.639286 195.734286
L 127.639286 170.387857
L 102.292857 170.387857
L 102.292857 195.734286
" clip-path="url(#pf93df3cbc0)" style="fill: #cdd4f2"/>
    <path d="M 127.639286 195.734286
L 152.985714 195.734286
L 152.985714 170.387857
L 127.639286 170.387857
L 127.639286 195.734286
" clip-path="url(#pf93df3cbc0)" style="fill: #c3cbf3"/>
    <path d="M 152.985714 195.734286
L 178.332143 195.734286
L 178.332143 170.387857
L 152.985714 170.387857
L 152.985714 195.734286
" clip-path="url(#pf93df3cbc0)" style="fill: #b9c3f4"/>
    <path d="M 178.332143 195.734286
L 203.678571 195.734286
L 203.678571 170.387857
L 178.332143 170.387857
L 178.332143 195.734286
" clip-path="url(#pf93df3cbc0)" style="fill: #cdd4f2"/>
    <path d="M 203.678571 195.734286
L 229.025 195.734286
L 229.025 170.387857
L 203.678571 170.387857
L 203.678571 195.734286
" clip-path="url(#pf93df3cbc0)" style="fill: #e7e3e5"/>
    <path d="M 229.025 195.734286
L 254.371429 195.734286
L 254.371429 170.387857
L 229.025 170.387857
L 229.025 195.734286
" clip-path="url(#pf93df3cbc0)" style="fill: #e7e3e5"/>
    <path d="M 51.6 170.387857
L 76.946429 170.387857
L 76.946429 145.041429
L 51.6 145.041429
L 51.6 170.387857
" clip-path="url(#pf93df3cbc0)" style="fill: #cdd4f2"/>
    <path d="M 76.946429 170.387857
L 102.292857 170.387857
L 102.292857 145.041429
L 76.946429 145.041429
L 76.946429 170.387857
" clip-path="url(#pf93df3cbc0)" style="fill: #afbaf6"/>
    <path d="M 102.292857 170.387857
L 127.639286 170.387857
L 127.639286 145.041429
L 102.292857 145.041429
L 102.292857 170.387857
" clip-path="url(#pf93df3cbc0)" style="fill: #afbaf6"/>
    <path d="M 127.639286 170.387857
L 152.985714 170.387857
L 152.985714 145.041429
L 127.639286 145.041429
L 127.639286 170.387857
" clip-path="url(#pf93df3cbc0)" style="fill: #afbaf6"/>
    <path d="M 152.985714 170.387857
L 178.332143 170.387857
L 178.332143 145.041429
L 152.985714 145.041429
L 152.985714 170.387857
" clip-path="url(#pf93df3cbc0)" style="fill: #a4b2f7"/>
    <path d="M 178.332143 170.387857
L 203.678571 170.387857
L 203.678571 145.041429
L 178.332143 145.041429
L 178.332143 170.387857
" clip-path="url(#pf93df3cbc0)" style="fill: #9aa9f8"/>
    <path d="M 203.678571 170.387857
L 229.025 170.387857
L 229.025 145.041429
L 203.678571 145.041429
L 203.678571 170.387857
" clip-path="url(#pf93df3cbc0)" style="fill: #a4b2f7"/>
    <path d="M 229.025 170.387857
L 254.371429 170.387857
L 254.371429 145.041429
L 229.025 145.041429
L 229.025 170.387857
" clip-path="url(#pf93df3cbc0)" style="fill: #afbaf6"/>
    <path d="M 51.6 145.041429
L 76.946429 145.041429
L 76.946429 119.695
L 51.6 119.695
L 51.6 145.041429
" clip-path="url(#pf93df3cbc0)" style="fill: #b9c3f4"/>
    <path d="M 76.946429 145.041429
L 102.292857 145.041429
L 102.292857 119.695
L 76.946429 119.695
L 76.946429 145.041429
" clip-path="url(#pf93df3cbc0)" style="fill: #afbaf6"/>
    <path d="M 102.292857 145.041429
L 127.639286 145.041429
L 127.639286 119.695
L 102.292857 119.695
L 102.292857 145.041429
" clip-path="url(#pf93df3cbc0)" style="fill: #9aa9f8"/>
    <path d="M 127.639286 145.041429
L 152.985714 145.041429
L 152.985714 119.695
L 127.639286 119.695
L 127.639286 145.041429
" clip-path="url(#pf93df3cbc0)" style="fill: #90a1f9"/>
    <path d="M 152.985714 145.041429
L 178.332143 145.041429
L 178.332143 119.695
L 152.985714 119.695
L 152.985714 145.041429
" clip-path="url(#pf93df3cbc0)" style="fill: #a4b2f7"/>
    <path d="M 178.332143 145.041429
L 203.678571 145.041429
L 203.678571 119.695
L 178.332143 119.695
L 178.332143 145.041429
" clip-path="url(#pf93df3cbc0)" style="fill: #8698fb"/>
    <path d="M 203.678571 145.041429
L 229.025 145.041429
L 229.025 119.695
L 203.678571 119.695
L 203.678571 145.041429
" clip-path="url(#pf93df3cbc0)" style="fill: #8698fb"/>
    <path d="M 229.025 145.041429
L 254.371429 145.041429
L 254.371429 119.695
L 229.025 119.695
L 229.025 145.041429
" clip-path="url(#pf93df3cbc0)" style="fill: #8698fb"/>
    <path d="M 51.6 119.695
L 76.946429 119.695
L 76.946429 94.348571
L 51.6 94.348571
L 51.6 119.695
" clip-path="url(#pf93df3cbc0)" style="fill: #c3cbf3"/>
    <path d="M 76.946429 119.695
L 102.292857 119.695
L 102.292857 94.348571
L 76.946429 94.348571
L 76.946429 119.695
" clip-path="url(#pf93df3cbc0)" style="fill: #9aa9f8"/>
    <path d="M 102.292857 119.695
L 127.639286 119.695
L 127.639286 94.348571
L 102.292857 94.348571
L 102.292857 119.695
" clip-path="url(#pf93df3cbc0)" style="fill: #9aa9f8"/>
    <path d="M 127.639286 119.695
L 152.985714 119.695
L 152.985714 94.348571
L 127.639286 94.348571
L 127.639286 119.695
" clip-path="url(#pf93df3cbc0)" style="fill: #8698fb"/>
    <path d="M 152.985714 119.695
L 178.332143 119.695
L 178.332143 94.348571
L 152.985714 94.348571
L 152.985714 119.695
" clip-path="url(#pf93df3cbc0)" style="fill: #8698fb"/>
    <path d="M 178.332143 119.695
L 203.678571 119.695
L 203.678571 94.348571
L 178.332143 94.348571
L 178.332143 119.695
" clip-path="url(#pf93df3cbc0)" style="fill: #90a1f9"/>
    <path d="M 203.678571 119.695
L 229.025 119.695
L 229.025 94.348571
L 203.678571 94.348571
L 203.678571 119.695
" clip-path="url(#pf93df3cbc0)" style="fill: #7c90fc"/>
    <path d="M 229.025 119.695
L 254.371429 119.695
L 254.371429 94.348571
L 229.025 94.348571
L 229.025 119.695
" clip-path="url(#pf93df3cbc0)" style="fill: #7c90fc"/>
    <path d="M 51.6 94.348571
L 76.946429 94.348571
L 76.946429 69.002143
L 51.6 69.002143
L 51.6 94.348571
" clip-path="url(#pf93df3cbc0)" style="fill: #b9c3f4"/>
    <path d="M 76.946429 94.348571
L 102.292857 94.348571
L 102.292857 69.002143
L 76.946429 69.002143
L 76.946429 94.348571
" clip-path="url(#pf93df3cbc0)" style="fill: #9aa9f8"/>
    <path d="M 102.292857 94.348571
L 127.639286 94.348571
L 127.639286 69.002143
L 102.292857 69.002143
L 102.292857 94.348571
" clip-path="url(#pf93df3cbc0)" style="fill: #9aa9f8"/>
    <path d="M 127.639286 94.348571
L 152.985714 94.348571
L 152.985714 69.002143
L 127.639286 69.002143
L 127.639286 94.348571
" clip-path="url(#pf93df3cbc0)" style="fill: #8698fb"/>
    <path d="M 152.985714 94.348571
L 178.332143 94.348571
L 178.332143 69.002143
L 152.985714 69.002143
L 152.985714 94.348571
" clip-path="url(#pf93df3cbc0)" style="fill: #7c90fc"/>
    <path d="M 178.332143 94.348571
L 203.678571 94.348571
L 203.678571 69.002143
L 178.332143 69.002143
L 178.332143 94.348571
" clip-path="url(#pf93df3cbc0)" style="fill: #7c90fc"/>
    <path d="M 203.678571 94.348571
L 229.025 94.348571
L 229.025 69.002143
L 203.678571 69.002143
L 203.678571 94.348571
" clip-path="url(#pf93df3cbc0)" style="fill: #7c90fc"/>
    <path d="M 229.025 94.348571
L 254.371429 94.348571
L 254.371429 69.002143
L 229.025 69.002143
L 229.025 94.348571
" clip-path="url(#pf93df3cbc0)" style="fill: #7c90fc"/>
    <path d="M 51.6 69.002143
L 76.946429 69.002143
L 76.946429 43.655714
L 51.6 43.655714
L 51.6 69.002143
" clip-path="url(#pf93df3cbc0)" style="fill: #b9c3f4"/>
    <path d="M 76.946429 69.002143
L 102.292857 69.002143
L 102.292857 43.655714
L 76.946429 43.655714
L 76.946429 69.002143
" clip-path="url(#pf93df3cbc0)" style="fill: #9aa9f8"/>
    <path d="M 102.292857 69.002143
L 127.639286 69.002143
L 127.639286 43.655714
L 102.292857 43.655714
L 102.292857 69.002143
" clip-path="url(#pf93df3cbc0)" style="fill: #90a1f9"/>
    <path d="M 127.639286 69.002143
L 152.985714 69.002143
L 152.985714 43.655714
L 127.639286 43.655714
L 127.639286 69.002143
" clip-path="url(#pf93df3cbc0)" style="fill: #7c90fc"/>
    <path d="M 152.985714 69.002143
L 178.332143 69.002143
L 178.332143 43.655714
L 152.985714 43.655714
L 152.985714 69.002143
" clip-path="url(#pf93df3cbc0)" style="fill: #7287fd"/>
    <path d="M 178.332143 69.002143
L 203.678571 69.002143
L 203.678571 43.655714
L 178.332143 43.655714
L 178.332143 69.002143
" clip-path="url(#pf93df3cbc0)" style="fill: #7287fd"/>
    <path d="M 203.678571 69.002143
L 229.025 69.002143
L 229.025 43.655714
L 203.678571 43.655714
L 203.678571 69.002143
" clip-path="url(#pf93df3cbc0)" style="fill: #7287fd"/>
    <path d="M 229.025 69.002143
L 254.371429 69.002143
L 254.371429 43.655714
L 229.025 43.655714
L 229.025 69.002143
" clip-path="url(#pf93df3cbc0)" style="fill: #7c90fc"/>
   </g>
   <g id="LineCollection_1">
    <path d="M 22.632653 221.080714
L 325 221.080714
" clip-path="url(#pf93df3cbc0)" style="fill: none; stroke: #ffffff"/>
   </g>
   <g id="LineCollection_2">
    <path d="M 76.946429 275.39449
L 76.946429 -1
" clip-path="url(#pf93df3cbc0)" style="fill: none; stroke: #ffffff"/>
   </g>
   <g id="LineCollection_3">
    <path d="M 22.632653 195.734286
L 325 195.734286
" clip-path="url(#pf93df3cbc0)" style="fill: none; stroke: #ffffff"/>
   </g>
   <g id="LineCollection_4">
    <path d="M 102.292857 275.39449
L 102.292857 -1
" clip-path="url(#pf93df3cbc0)" style="fill: none; stroke: #ffffff"/>
   </g>
   <g id="LineCollection_5">
    <path d="M 22.632653 170.387857
L 325 170.387857
" clip-path="url(#pf93df3cbc0)" style="fill: none; stroke: #ffffff"/>
   </g>
   <g id="LineCollection_6">
    <path d="M 127.639286 275.39449
L 127.639286 -1
" clip-path="url(#pf93df3cbc0)" style="fill: none; stroke: #ffffff"/>
   </g>
   <g id="LineCollection_7">
    <path d="M 22.632653 145.041429
L 325 145.041429
" clip-path="url(#pf93df3cbc0)" style="fill: none; stroke: #ffffff"/>
   </g>
   <g id="LineCollection_8">
    <path d="M 152.985714 275.39449
L 152.985714 -1
" clip-path="url(#pf93df3cbc0)" style="fill: none; stroke: #ffffff"/>
   </g>
   <g id="LineCollection_9">
    <path d="M 22.632653 119.695
L 325 119.695
" clip-path="url(#pf93df3cbc0)" style="fill: none; stroke: #ffffff"/>
   </g>
   <g id="LineCollection_10">
    <path d="M 178.332143 275.39449
L 178.332143 -1
" clip-path="url(#pf93df3cbc0)" style="fill: none; stroke: #ffffff"/>
   </g>
   <g id="LineCollection_11">
    <path d="M 22.632653 94.348571
L 325 94.348571
" clip-path="url(#pf93df3cbc0)" style="fill: none; stroke: #ffffff"/>
   </g>
   <g id="LineCollection_12">
    <path d="M 203.678571 275.39449
L 203.678571 -1
" clip-path="url(#pf93df3cbc0)" style="fill: none; stroke: #ffffff"/>
   </g>
   <g id="LineCollection_13">
    <path d="M 22.632653 69.002143
L 325 69.002143
" clip-path="url(#pf93df3cbc0)" style="fill: none; stroke: #ffffff"/>
   </g>
   <g id="LineCollection_14">
    <path d="M 229.025 275.39449
L 229.025 -1
" clip-path="url(#pf93df3cbc0)" style="fill: none; stroke: #ffffff"/>
   </g>
   <g id="LineCollection_15">
    <path d="M 22.632653 43.655714
L 325 43.655714
" clip-path="url(#pf93df3cbc0)" style="fill: none; stroke: #ffffff"/>
   </g>
   <g id="LineCollection_16">
    <path d="M 254.371429 275.39449
L 254.371429 -1
" clip-path="url(#pf93df3cbc0)" style="fill: none; stroke: #ffffff"/>
   </g>
   <g id="patch_3">
    <path d="M 51.6 246.427143
L 51.6 43.655714
" style="fill: none; stroke: #ffffff; stroke-width: 0.8; stroke-linejoin: miter; stroke-linecap: square"/>
   </g>
   <g id="patch_4">
    <path d="M 254.371429 246.427143
L 254.371429 43.655714
" style="fill: none; stroke: #ffffff; stroke-width: 0.8; stroke-linejoin: miter; stroke-linecap: square"/>
   </g>
   <g id="patch_5">
    <path d="M 51.6 246.427143
L 254.371429 246.427143
" style="fill: none; stroke: #ffffff; stroke-width: 0.8; stroke-linejoin: miter; stroke-linecap: square"/>
   </g>
   <g id="patch_6">
    <path d="M 51.6 43.655714
L 254.371429 43.655714
" style="fill: none; stroke: #ffffff; stroke-width: 0.8; stroke-linejoin: miter; stroke-linecap: square"/>
   </g>
   <g id="text_3">
    <!-- 1 -->
    <g style="fill: #4c4f69" transform="translate(58.862755 264.210816) scale(0.12 -0.12)">
     <defs>
      <path id="JetBrainsMonoNFM-Regular-31" d="M 576 0
L 576 525
L 1843 525
L 1843 4173
L 576 3226
L 576 3885
L 1632 4672
L 2419 4672
L 2419 525
L 3456 525
L 3456 0
L 576 0
z
" transform="scale(0.015625)"/>
     </defs>
     <use xlink:href="#JetBrainsMonoNFM-Regular-31"/>
    </g>
   </g>
   <g id="text_4">
    <!-- 2 -->
    <g style="fill: #4c4f69" transform="translate(84.571276 264.210816) scale(0.12 -0.12)">
     <defs>
      <path id="JetBrainsMonoNFM-Regular-32" d="M 550 0
L 550 531
L 2106 2195
Q 2445 2554 2585 2835
Q 2726 3117 2726 3386
Q 2726 3770 2505 3997
Q 2285 4224 1907 4224
Q 1517 4224 1289 3990
Q 1062 3757 1062 3360
L 486 3360
Q 506 3994 890 4365
Q 1274 4736 1907 4736
Q 2554 4736 2934 4371
Q 3315 4006 3315 3379
Q 3315 3046 3132 2675
Q 2950 2304 2509 1843
L 1248 525
L 3373 525
L 3373 0
L 550 0
z
" transform="scale(0.015625)"/>
     </defs>
     <use xlink:href="#JetBrainsMonoNFM-Regular-32"/>
    </g>
   </g>
   <g id="text_5">
    <!-- 3 -->
    <g style="fill: #4c4f69" transform="translate(110.279796 264.210816) scale(0.12 -0.12)">
     <defs>
      <path id="JetBrainsMonoNFM-Regular-33" d="M 1850 -64
Q 1203 -64 825 297
Q 448 659 448 1280
L 1024 1280
Q 1024 896 1248 672
Q 1472 448 1856 448
Q 2240 448 2464 672
Q 2688 896 2688 1280
L 2688 1600
Q 2688 1984 2464 2208
Q 2240 2432 1856 2432
L 1350 2432
L 1350 2931
L 2496 4147
L 576 4147
L 576 4672
L 3149 4672
L 3149 4134
L 2022 2938
Q 2598 2893 2931 2537
Q 3264 2182 3264 1600
L 3264 1280
Q 3264 659 2883 297
Q 2502 -64 1850 -64
z
" transform="scale(0.015625)"/>
     </defs>
     <use xlink:href="#JetBrainsMonoNFM-Regular-33"/>
    </g>
   </g>
   <g id="text_6">
    <!-- 5 -->
    <g style="fill: #4c4f69" transform="translate(135.988316 264.210816) scale(0.12 -0.12)">
     <defs>
      <path id="JetBrainsMonoNFM-Regular-35" d="M 1882 -64
Q 1235 -64 857 297
Q 480 659 480 1280
L 1056 1280
Q 1056 896 1280 672
Q 1504 448 1888 448
Q 2272 448 2496 672
Q 2720 896 2720 1280
L 2720 1568
Q 2720 1952 2502 2176
Q 2285 2400 1914 2400
L 640 2400
L 640 4672
L 3130 4672
L 3130 4147
L 1178 4147
L 1190 2925
L 1946 2925
Q 2592 2925 2944 2569
Q 3296 2214 3296 1568
L 3296 1280
Q 3296 659 2915 297
Q 2534 -64 1882 -64
z
" transform="scale(0.015625)"/>
     </defs>
     <use xlink:href="#JetBrainsMonoNFM-Regular-35"/>
    </g>
   </g>
   <g id="text_7">
    <!-- 8 -->
    <g style="fill: #4c4f69" transform="translate(161.696837 264.210816) scale(0.12 -0.12)">
     <defs>
      <path id="JetBrainsMonoNFM-Regular-38" d="M 1920 -64
Q 1478 -64 1139 109
Q 800 282 611 592
Q 422 902 422 1306
Q 422 1747 675 2067
Q 928 2387 1350 2458
L 1350 2477
Q 986 2560 768 2845
Q 550 3130 550 3501
Q 550 3866 723 4144
Q 896 4422 1206 4579
Q 1517 4736 1920 4736
Q 2330 4736 2637 4579
Q 2944 4422 3117 4144
Q 3290 3866 3290 3501
Q 3290 3130 3072 2845
Q 2854 2560 2490 2477
L 2490 2458
Q 2912 2387 3165 2067
Q 3418 1747 3418 1306
Q 3418 902 3229 592
Q 3040 282 2704 109
Q 2368 -64 1920 -64
z
M 1920 2701
Q 2278 2701 2496 2912
Q 2714 3123 2714 3462
Q 2714 3802 2496 4013
Q 2278 4224 1920 4224
Q 1568 4224 1347 4013
Q 1126 3802 1126 3462
Q 1126 3123 1347 2912
Q 1568 2701 1920 2701
z
M 1920 454
Q 2330 454 2586 694
Q 2842 934 2842 1318
Q 2842 1709 2586 1949
Q 2330 2189 1920 2189
Q 1510 2189 1254 1949
Q 998 1709 998 1318
Q 998 934 1254 694
Q 1510 454 1920 454
z
" transform="scale(0.015625)"/>
     </defs>
     <use xlink:href="#JetBrainsMonoNFM-Regular-38"/>
    </g>
   </g>
   <g id="text_8">
    <!-- 13 -->
    <g style="fill: #4c4f69" transform="translate(183.805357 264.210816) scale(0.12 -0.12)">
     <use xlink:href="#JetBrainsMonoNFM-Regular-31"/>
     <use xlink:href="#JetBrainsMonoNFM-Regular-33" x="59.999985"/>
    </g>
   </g>
   <g id="text_9">
    <!-- 21 -->
    <g style="fill: #4c4f69" transform="translate(209.513878 264.210816) scale(0.12 -0.12)">
     <use xlink:href="#JetBrainsMonoNFM-Regular-32"/>
     <use xlink:href="#JetBrainsMonoNFM-Regular-31" x="59.999985"/>
    </g>
   </g>
   <g id="text_10">
    <!-- 34 -->
    <g style="fill: #4c4f69" transform="translate(235.222398 264.210816) scale(0.12 -0.12)">
     <defs>
      <path id="JetBrainsMonoNFM-Regular-34" d="M 2560 0
L 2560 1024
L 448 1024
L 448 1926
L 2150 4672
L 2803 4672
L 1024 1798
L 1024 1549
L 2560 1549
L 2560 2688
L 3136 2688
L 3136 0
L 2560 0
z
" transform="scale(0.015625)"/>
     </defs>
     <use xlink:href="#JetBrainsMonoNFM-Regular-33"/>
     <use xlink:href="#JetBrainsMonoNFM-Regular-34" x="59.999985"/>
    </g>
   </g>
   <g id="text_11">
    <!-- 1 -->
    <g style="fill: #4c4f69" transform="translate(37.137245 238.864388) scale(0.12 -0.12)">
     <use xlink:href="#JetBrainsMonoNFM-Regular-31"/>
    </g>
   </g>
   <g id="text_12">
    <!-- 2 -->
    <g style="fill: #4c4f69" transform="translate(37.137245 213.155867) scale(0.12 -0.12)">
     <use xlink:href="#JetBrainsMonoNFM-Regular-32"/>
    </g>
   </g>
   <g id="text_13">
    <!-- 3 -->
    <g style="fill: #4c4f69" transform="translate(37.137245 187.447347) scale(0.12 -0.12)">
     <use xlink:href="#JetBrainsMonoNFM-Regular-33"/>
    </g>
   </g>
   <g id="text_14">
    <!-- 5 -->
    <g style="fill: #4c4f69" transform="translate(37.137245 161.738827) scale(0.12 -0.12)">
     <use xlink:href="#JetBrainsMonoNFM-Regular-35"/>
    </g>
   </g>
   <g id="text_15">
    <!-- 8 -->
    <g style="fill: #4c4f69" transform="translate(37.137245 136.030306) scale(0.12 -0.12)">
     <use xlink:href="#JetBrainsMonoNFM-Regular-38"/>
    </g>
   </g>
   <g id="text_16">
    <!-- 13 -->
    <g style="fill: #4c4f69" transform="translate(33.537245 110.321786) scale(0.12 -0.12)">
     <use xlink:href="#JetBrainsMonoNFM-Regular-31"/>
     <use xlink:href="#JetBrainsMonoNFM-Regular-33" x="59.999985"/>
    </g>
   </g>
   <g id="text_17">
    <!-- 21 -->
    <g style="fill: #4c4f69" transform="translate(33.537245 84.613265) scale(0.12 -0.12)">
     <use xlink:href="#JetBrainsMonoNFM-Regular-32"/>
     <use xlink:href="#JetBrainsMonoNFM-Regular-31" x="59.999985"/>
    </g>
   </g>
   <g id="text_18">
    <!-- 34 -->
    <g style="fill: #4c4f69" transform="translate(33.537245 58.904745) scale(0.12 -0.12)">
     <use xlink:href="#JetBrainsMonoNFM-Regular-33"/>
     <use xlink:href="#JetBrainsMonoNFM-Regular-34" x="59.999985"/>
    </g>
   </g>
  </g>
  <g id="axes_2">
   <g id="patch_7">
    <path d="M 257.971429 246.427143
L 268.11 246.427143
L 268.11 43.655714
L 257.971429 43.655714
z
" style="fill: #eff1f5"/>
   </g>
   <g id="matplotlib.axis_3"/>
   <g id="matplotlib.axis_4">
    <g id="ytick_1">
     <g id="line2d_1">
      <path d="M 257.971429 229.526188
L 268.11 229.526188
" clip-path="url(#p6ba85bd562)" style="fill: none; stroke: #ffffff; stroke-width: 0.8; stroke-linecap: round"/>
     </g>
     <g id="line2d_2">
      <defs>
       <path id="mae06e755ae" d="M 0 0
L 3.5 0
" style="stroke: #4c4f69; stroke-width: 0.8"/>
      </defs>
      <g>
       <use xlink:href="#mae06e755ae" x="268.11" y="229.526188" style="fill: #4c4f69; stroke: #4c4f69; stroke-width: 0.8"/>
      </g>
     </g>
     <g id="text_19">
      <!-- −19 -->
      <g style="fill: #4c4f69" transform="translate(275.11 233.176188) scale(0.1 -0.1)">
       <defs>
        <path id="JetBrainsMonoNFM-Regular-2212" d="M 896 1856
L 896 2368
L 2944 2368
L 2944 1856
L 896 1856
z
" transform="scale(0.015625)"/>
        <path id="JetBrainsMonoNFM-Regular-39" d="M 1248 0
L 2400 2003
L 2381 2016
Q 2317 1914 2144 1853
Q 1971 1792 1766 1792
Q 1363 1792 1059 1974
Q 755 2157 582 2477
Q 410 2797 410 3219
Q 410 3674 602 4013
Q 794 4352 1133 4544
Q 1472 4736 1914 4736
Q 2368 4736 2707 4547
Q 3046 4358 3238 4022
Q 3430 3686 3430 3245
Q 3430 2938 3315 2614
Q 3200 2291 3002 1939
L 1920 0
L 1248 0
z
M 1920 2240
Q 2336 2240 2595 2515
Q 2854 2790 2854 3232
Q 2854 3674 2595 3949
Q 2336 4224 1920 4224
Q 1504 4224 1245 3949
Q 986 3674 986 3232
Q 986 2790 1245 2515
Q 1504 2240 1920 2240
z
" transform="scale(0.015625)"/>
       </defs>
       <use xlink:href="#JetBrainsMonoNFM-Regular-2212"/>
       <use xlink:href="#JetBrainsMonoNFM-Regular-31" x="59.999985"/>
       <use xlink:href="#JetBrainsMonoNFM-Regular-39" x="119.999969"/>
      </g>
     </g>
    </g>
    <g id="ytick_2">
     <g id="line2d_3">
      <path d="M 257.971429 203.385452
L 268.11 203.385452
" clip-path="url(#p6ba85bd562)" style="fill: none; stroke: #ffffff; stroke-width: 0.8; stroke-linecap: round"/>
     </g>
     <g id="line2d_4">
      <g>
       <use xlink:href="#mae06e755ae" x="268.11" y="203.385452" style="fill: #4c4f69; stroke: #4c4f69; stroke-width: 0.8"/>
      </g>
     </g>
     <g id="text_20">
      <!-- −18 -->
      <g style="fill: #4c4f69" transform="translate(275.11 207.035452) scale(0.1 -0.1)">
       <use xlink:href="#JetBrainsMonoNFM-Regular-2212"/>
       <use xlink:href="#JetBrainsMonoNFM-Regular-31" x="59.999985"/>
       <use xlink:href="#JetBrainsMonoNFM-Regular-38" x="119.999969"/>
      </g>
     </g>
    </g>
    <g id="ytick_3">
     <g id="line2d_5">
      <path d="M 257.971429 177.244716
L 268.11 177.244716
" clip-path="url(#p6ba85bd562)" style="fill: none; stroke: #ffffff; stroke-width: 0.8; stroke-linecap: round"/>
     </g>
     <g id="line2d_6">
      <g>
       <use xlink:href="#mae06e755ae" x="268.11" y="177.244716" style="fill: #4c4f69; stroke: #4c4f69; stroke-width: 0.8"/>
      </g>
     </g>
     <g id="text_21">
      <!-- −17 -->
      <g style="fill: #4c4f69" transform="translate(275.11 180.894716) scale(0.1 -0.1)">
       <defs>
        <path id="JetBrainsMonoNFM-Regular-37" d="M 1216 0
L 2880 4147
L 1101 4147
L 1101 3392
L 525 3392
L 525 4672
L 3494 4672
L 3494 4134
L 1843 0
L 1216 0
z
" transform="scale(0.015625)"/>
       </defs>
       <use xlink:href="#JetBrainsMonoNFM-Regular-2212"/>
       <use xlink:href="#JetBrainsMonoNFM-Regular-31" x="59.999985"/>
       <use xlink:href="#JetBrainsMonoNFM-Regular-37" x="119.999969"/>
      </g>
     </g>
    </g>
    <g id="ytick_4">
     <g id="line2d_7">
      <path d="M 257.971429 151.103979
L 268.11 151.103979
" clip-path="url(#p6ba85bd562)" style="fill: none; stroke: #ffffff; stroke-width: 0.8; stroke-linecap: round"/>
     </g>
     <g id="line2d_8">
      <g>
       <use xlink:href="#mae06e755ae" x="268.11" y="151.103979" style="fill: #4c4f69; stroke: #4c4f69; stroke-width: 0.8"/>
      </g>
     </g>
     <g id="text_22">
      <!-- −16 -->
      <g style="fill: #4c4f69" transform="translate(275.11 154.753979) scale(0.1 -0.1)">
       <defs>
        <path id="JetBrainsMonoNFM-Regular-36" d="M 1926 -64
Q 1478 -64 1136 125
Q 794 314 602 650
Q 410 986 410 1427
Q 410 1734 525 2057
Q 640 2381 838 2733
L 1920 4672
L 2560 4672
L 1408 2669
L 1427 2656
Q 1510 2765 1676 2822
Q 1843 2880 2042 2880
Q 2458 2880 2768 2697
Q 3078 2515 3254 2195
Q 3430 1875 3430 1453
Q 3430 1005 3238 662
Q 3046 320 2710 128
Q 2374 -64 1926 -64
z
M 1920 448
Q 2336 448 2595 723
Q 2854 998 2854 1440
Q 2854 1882 2595 2157
Q 2336 2432 1920 2432
Q 1504 2432 1245 2157
Q 986 1882 986 1440
Q 986 998 1245 723
Q 1504 448 1920 448
z
" transform="scale(0.015625)"/>
       </defs>
       <use xlink:href="#JetBrainsMonoNFM-Regular-2212"/>
       <use xlink:href="#JetBrainsMonoNFM-Regular-31" x="59.999985"/>
       <use xlink:href="#JetBrainsMonoNFM-Regular-36" x="119.999969"/>
      </g>
     </g>
    </g>
    <g id="ytick_5">
     <g id="line2d_9">
      <path d="M 257.971429 124.963243
L 268.11 124.963243
" clip-path="url(#p6ba85bd562)" style="fill: none; stroke: #ffffff; stroke-width: 0.8; stroke-linecap: round"/>
     </g>
     <g id="line2d_10">
      <g>
       <use xlink:href="#mae06e755ae" x="268.11" y="124.963243" style="fill: #4c4f69; stroke: #4c4f69; stroke-width: 0.8"/>
      </g>
     </g>
     <g id="text_23">
      <!-- −15 -->
      <g style="fill: #4c4f69" transform="translate(275.11 128.613243) scale(0.1 -0.1)">
       <use xlink:href="#JetBrainsMonoNFM-Regular-2212"/>
       <use xlink:href="#JetBrainsMonoNFM-Regular-31" x="59.999985"/>
       <use xlink:href="#JetBrainsMonoNFM-Regular-35" x="119.999969"/>
      </g>
     </g>
    </g>
    <g id="ytick_6">
     <g id="line2d_11">
      <path d="M 257.971429 98.822506
L 268.11 98.822506
" clip-path="url(#p6ba85bd562)" style="fill: none; stroke: #ffffff; stroke-width: 0.8; stroke-linecap: round"/>
     </g>
     <g id="line2d_12">
      <g>
       <use xlink:href="#mae06e755ae" x="268.11" y="98.822506" style="fill: #4c4f69; stroke: #4c4f69; stroke-width: 0.8"/>
      </g>
     </g>
     <g id="text_24">
      <!-- −14 -->
      <g style="fill: #4c4f69" transform="translate(275.11 102.472506) scale(0.1 -0.1)">
       <use xlink:href="#JetBrainsMonoNFM-Regular-2212"/>
       <use xlink:href="#JetBrainsMonoNFM-Regular-31" x="59.999985"/>
       <use xlink:href="#JetBrainsMonoNFM-Regular-34" x="119.999969"/>
      </g>
     </g>
    </g>
    <g id="ytick_7">
     <g id="line2d_13">
      <path d="M 257.971429 72.68177
L 268.11 72.68177
" clip-path="url(#p6ba85bd562)" style="fill: none; stroke: #ffffff; stroke-width: 0.8; stroke-linecap: round"/>
     </g>
     <g id="line2d_14">
      <g>
       <use xlink:href="#mae06e755ae" x="268.11" y="72.68177" style="fill: #4c4f69; stroke: #4c4f69; stroke-width: 0.8"/>
      </g>
     </g>
     <g id="text_25">
      <!-- −13 -->
      <g style="fill: #4c4f69" transform="translate(275.11 76.33177) scale(0.1 -0.1)">
       <use xlink:href="#JetBrainsMonoNFM-Regular-2212"/>
       <use xlink:href="#JetBrainsMonoNFM-Regular-31" x="59.999985"/>
       <use xlink:href="#JetBrainsMonoNFM-Regular-33" x="119.999969"/>
      </g>
     </g>
    </g>
    <g id="ytick_8">
     <g id="line2d_15">
      <path d="M 257.971429 46.541033
L 268.11 46.541033
" clip-path="url(#p6ba85bd562)" style="fill: none; stroke: #ffffff; stroke-width: 0.8; stroke-linecap: round"/>
     </g>
     <g id="line2d_16">
      <g>
       <use xlink:href="#mae06e755ae" x="268.11" y="46.541033" style="fill: #4c4f69; stroke: #4c4f69; stroke-width: 0.8"/>
      </g>
     </g>
     <g id="text_26">
      <!-- −12 -->
      <g style="fill: #4c4f69" transform="translate(275.11 50.191033) scale(0.1 -0.1)">
       <use xlink:href="#JetBrainsMonoNFM-Regular-2212"/>
       <use xlink:href="#JetBrainsMonoNFM-Regular-31" x="59.999985"/>
       <use xlink:href="#JetBrainsMonoNFM-Regular-32" x="119.999969"/>
      </g>
     </g>
    </g>
    <g id="text_27">
     <!-- Log Dimensionless Jerk [$m/s^3$] -->
     <g style="fill: #4c4f69" transform="translate(302.19 65.061429) rotate(-270) scale(0.12 -0.12)">
      <defs>
       <path id="STIXTwoText-4c" d="M 3443 0
L 269 0
L 269 192
Q 525 192 649 237
Q 774 282 812 410
Q 851 538 851 787
L 851 3392
Q 851 3642 812 3776
Q 774 3910 649 3961
Q 525 4013 269 4013
L 269 4205
L 2067 4205
L 2067 4013
Q 1811 4013 1673 3958
Q 1536 3904 1488 3769
Q 1440 3635 1440 3386
L 1440 608
Q 1440 397 1542 333
Q 1645 269 1926 269
L 2221 269
Q 2541 269 2739 317
Q 2938 365 3056 480
Q 3174 595 3254 784
Q 3334 973 3430 1248
L 3635 1248
L 3443 0
z
" transform="scale(0.015625)"/>
       <path id="STIXTwoText-6f" d="M 1651 -64
Q 979 -64 598 355
Q 218 774 218 1549
Q 218 2016 397 2365
Q 576 2714 899 2909
Q 1222 3104 1651 3104
Q 2310 3104 2691 2694
Q 3072 2285 3072 1574
Q 3072 1037 2889 672
Q 2707 307 2387 121
Q 2067 -64 1651 -64
z
M 1677 192
Q 1939 192 2118 313
Q 2298 435 2390 729
Q 2483 1024 2483 1542
Q 2483 2131 2268 2496
Q 2054 2861 1626 2861
Q 1261 2861 1037 2553
Q 813 2246 813 1632
Q 813 870 1040 528
Q 1267 186 1677 192
z
" transform="scale(0.015625)"/>
       <path id="STIXTwoText-67" d="M 1222 -1504
Q 806 -1504 566 -1401
Q 326 -1299 230 -1136
Q 134 -973 134 -800
Q 134 -640 265 -464
Q 397 -288 653 -38
L 653 32
L 845 -6
Q 723 -211 678 -342
Q 634 -474 634 -582
Q 634 -858 870 -998
Q 1107 -1139 1594 -1139
Q 1971 -1139 2204 -1043
Q 2438 -947 2544 -806
Q 2650 -666 2650 -531
Q 2650 -358 2538 -265
Q 2426 -173 2253 -134
Q 2080 -96 1888 -86
Q 1696 -77 1536 -77
Q 1248 -70 1101 -70
Q 954 -70 890 -67
Q 826 -64 774 -64
L 710 -32
Q 614 0 518 70
Q 422 141 358 240
Q 294 339 294 448
Q 294 563 361 688
Q 429 813 550 937
Q 672 1062 819 1178
L 819 1235
L 986 1114
Q 954 1082 909 998
Q 864 915 832 822
Q 800 730 800 666
Q 800 570 867 515
Q 934 461 1097 435
Q 1261 410 1555 410
Q 1958 410 2281 371
Q 2605 333 2790 173
Q 2976 13 2976 -352
Q 2976 -672 2819 -893
Q 2662 -1114 2403 -1248
Q 2144 -1382 1833 -1443
Q 1523 -1504 1222 -1504
z
M 1517 998
Q 1350 998 1206 1030
Q 1062 1062 928 1107
L 858 1171
Q 691 1261 572 1382
Q 454 1504 390 1673
Q 326 1843 326 2061
Q 326 2381 473 2614
Q 621 2848 883 2976
Q 1146 3104 1485 3104
Q 1677 3104 1846 3069
Q 2016 3034 2163 2963
Q 2310 2893 2419 2797
L 2419 2630
Q 2490 2534 2570 2374
Q 2650 2214 2650 1971
Q 2650 1677 2506 1456
Q 2362 1235 2109 1116
Q 1856 998 1517 998
z
M 1523 1222
Q 1766 1222 1923 1388
Q 2080 1555 2080 2010
Q 2080 2400 1913 2637
Q 1747 2874 1440 2874
Q 1190 2874 1040 2682
Q 890 2490 890 2086
Q 890 1677 1050 1449
Q 1210 1222 1523 1222
z
M 3021 2989
L 3021 2643
L 2330 2662
L 2106 2938
L 3021 2989
z
" transform="scale(0.015625)"/>
       <path id="STIXTwoText-20" transform="scale(0.015625)"/>
       <path id="STIXTwoText-44" d="M 2054 0
L 224 0
L 224 192
Q 506 192 640 233
Q 774 275 812 406
Q 851 538 851 794
L 851 3475
Q 851 3712 793 3824
Q 736 3936 601 3974
Q 467 4013 224 4013
L 224 4205
L 1984 4205
Q 2483 4205 2915 4099
Q 3347 3994 3667 3750
Q 3987 3507 4169 3110
Q 4352 2714 4352 2125
Q 4352 1574 4189 1171
Q 4026 768 3722 509
Q 3418 250 2995 125
Q 2573 0 2054 0
z
M 1818 243
Q 2400 243 2816 400
Q 3232 557 3456 953
Q 3680 1350 3680 2067
Q 3680 2982 3213 3462
Q 2746 3942 1754 3942
Q 1677 3942 1603 3942
Q 1530 3942 1440 3930
L 1440 262
Q 1536 256 1629 249
Q 1722 243 1818 243
z
" transform="scale(0.015625)"/>
       <path id="STIXTwoText-69" d="M 1645 0
L 205 0
L 205 179
Q 422 179 515 220
Q 608 262 630 364
Q 653 467 653 646
L 653 2432
Q 653 2637 582 2685
Q 512 2733 371 2733
Q 307 2733 259 2726
Q 211 2720 211 2720
L 211 2906
L 1018 3085
L 1184 3085
L 1184 646
Q 1184 461 1209 358
Q 1235 256 1334 217
Q 1434 179 1645 179
L 1645 0
z
M 928 3584
Q 768 3584 665 3693
Q 563 3802 563 3949
Q 563 4096 662 4201
Q 762 4307 928 4307
Q 1094 4307 1193 4201
Q 1293 4096 1293 3949
Q 1293 3802 1193 3693
Q 1094 3584 928 3584
z
" transform="scale(0.015625)"/>
       <path id="STIXTwoText-6d" d="M 3520 0
L 2003 0
L 2003 186
Q 2234 186 2336 230
Q 2438 275 2467 396
Q 2496 518 2496 742
L 2496 2010
Q 2496 2419 2352 2556
Q 2208 2694 1984 2694
Q 1805 2694 1648 2617
Q 1491 2541 1363 2438
Q 1235 2336 1146 2246
L 1094 2566
L 1190 2566
Q 1453 2790 1696 2947
Q 1939 3104 2266 3104
Q 2554 3104 2730 2937
Q 2906 2771 2995 2522
Q 3008 2502 3014 2480
Q 3021 2458 3027 2432
L 3027 742
Q 3027 525 3056 403
Q 3085 282 3187 234
Q 3290 186 3520 186
L 3520 0
z
M 1664 0
L 205 0
L 205 186
Q 410 186 502 221
Q 595 256 624 355
Q 653 454 653 646
L 653 2438
Q 653 2611 585 2668
Q 518 2726 384 2726
Q 314 2726 262 2720
Q 211 2714 211 2714
L 211 2899
L 1011 3085
L 1165 3085
L 1165 2496
L 1184 2355
L 1184 621
Q 1184 442 1222 349
Q 1261 256 1363 221
Q 1466 186 1664 186
L 1664 0
z
M 5306 0
L 3859 0
L 3859 186
Q 4077 186 4173 243
Q 4269 301 4291 425
Q 4314 550 4314 742
L 4314 1971
Q 4314 2266 4240 2419
Q 4166 2573 4041 2633
Q 3917 2694 3763 2694
Q 3552 2694 3347 2544
Q 3142 2394 2976 2253
L 2906 2573
L 3002 2573
Q 3264 2835 3513 2969
Q 3763 3104 4019 3104
Q 4397 3104 4621 2867
Q 4845 2630 4845 2048
L 4845 742
Q 4845 544 4867 419
Q 4890 294 4989 240
Q 5088 186 5306 186
L 5306 0
z
" transform="scale(0.015625)"/>
       <path id="STIXTwoText-73" d="M 269 -51
L 250 1050
L 416 1050
Q 518 557 716 361
Q 915 166 1267 166
Q 1510 166 1664 265
Q 1818 365 1818 589
Q 1818 742 1763 844
Q 1709 947 1555 1052
Q 1402 1158 1101 1306
Q 806 1453 620 1590
Q 435 1728 345 1894
Q 256 2061 256 2298
Q 256 2694 541 2899
Q 826 3104 1235 3104
Q 1478 3104 1632 3049
Q 1786 2995 1907 2938
L 1914 2938
L 2022 3072
L 2150 3072
L 2170 2093
L 1997 2093
Q 1894 2547 1708 2716
Q 1523 2886 1229 2886
Q 1011 2886 860 2784
Q 710 2682 710 2464
Q 710 2278 883 2131
Q 1056 1984 1459 1779
Q 1754 1626 1952 1482
Q 2150 1338 2252 1168
Q 2355 998 2355 762
Q 2355 461 2208 278
Q 2061 96 1814 13
Q 1568 -70 1280 -70
Q 1005 -70 841 -12
Q 678 45 550 96
L 538 96
L 403 -51
L 269 -51
z
" transform="scale(0.015625)"/>
       <path id="STIXTwoText-4a" d="M 762 -77
Q 557 -77 381 -22
Q 205 32 102 144
Q 0 256 0 429
Q 0 576 73 659
Q 147 742 282 742
Q 397 742 467 681
Q 538 621 586 534
Q 634 448 678 358
Q 723 269 777 208
Q 832 147 922 147
Q 1107 147 1164 300
Q 1222 454 1222 787
L 1222 3360
Q 1222 3610 1193 3754
Q 1165 3898 1033 3955
Q 902 4013 595 4013
L 595 4205
L 2400 4205
L 2400 4013
Q 2138 4013 2010 3955
Q 1882 3898 1846 3754
Q 1811 3610 1811 3360
L 1811 973
Q 1811 659 1734 454
Q 1658 250 1517 131
Q 1376 13 1184 -32
Q 992 -77 762 -77
z
" transform="scale(0.015625)"/>
       <path id="STIXTwoText-6b" d="M 1645 0
L 192 0
L 192 186
Q 480 186 560 266
Q 640 346 640 608
L 640 3808
Q 640 4013 592 4073
Q 544 4134 384 4134
Q 320 4134 243 4128
Q 166 4122 166 4122
L 166 4294
L 998 4518
L 1171 4518
L 1171 1696
L 1210 1696
L 2035 2515
Q 2054 2534 2102 2588
Q 2150 2643 2150 2720
Q 2150 2784 2086 2809
Q 2022 2835 1837 2835
L 1837 3027
L 3219 3027
L 3219 2835
Q 3066 2835 2947 2806
Q 2829 2778 2707 2698
Q 2586 2618 2410 2470
Q 2234 2323 1965 2086
L 1645 1824
L 2771 557
Q 2925 384 3024 304
Q 3123 224 3219 205
Q 3315 186 3450 186
L 3450 0
L 2035 0
L 2035 186
Q 2176 186 2230 202
Q 2285 218 2285 262
Q 2285 307 2262 348
Q 2240 390 2214 416
L 1210 1555
L 1171 1555
L 1171 582
Q 1171 339 1257 262
Q 1344 186 1645 186
L 1645 0
z
" transform="scale(0.015625)"/>
       <path id="STIXTwoText-5b" d="M 1920 -1190
L 582 -1190
L 582 4685
L 1920 4685
L 1920 4493
L 1088 4493
L 1088 -998
L 1920 -998
L 1920 -1190
z
" transform="scale(0.015625)"/>
       <path id="DejaVuSans-Oblique-6d" d="M 5747 2113
L 5338 0
L 4763 0
L 5166 2094
Q 5191 2228 5203 2325
Q 5216 2422 5216 2491
Q 5216 2772 5059 2928
Q 4903 3084 4622 3084
Q 4203 3084 3875 2770
Q 3547 2456 3450 1953
L 3066 0
L 2491 0
L 2900 2094
Q 2925 2209 2937 2307
Q 2950 2406 2950 2484
Q 2950 2769 2794 2926
Q 2638 3084 2363 3084
Q 1938 3084 1609 2770
Q 1281 2456 1184 1953
L 800 0
L 225 0
L 909 3500
L 1484 3500
L 1375 2956
Q 1609 3263 1923 3423
Q 2238 3584 2597 3584
Q 2978 3584 3223 3384
Q 3469 3184 3519 2828
Q 3781 3197 4126 3390
Q 4472 3584 4856 3584
Q 5306 3584 5551 3325
Q 5797 3066 5797 2591
Q 5797 2488 5784 2364
Q 5772 2241 5747 2113
z
" transform="scale(0.015625)"/>
       <path id="DejaVuSans-2f" d="M 1625 4666
L 2156 4666
L 531 -594
L 0 -594
L 1625 4666
z
" transform="scale(0.015625)"/>
       <path id="DejaVuSans-Oblique-73" d="M 3200 3397
L 3091 2853
Q 2863 2978 2609 3040
Q 2356 3103 2088 3103
Q 1634 3103 1373 2948
Q 1113 2794 1113 2528
Q 1113 2219 1719 2053
Q 1766 2041 1788 2034
L 1972 1978
Q 2547 1819 2739 1644
Q 2931 1469 2931 1166
Q 2931 609 2489 259
Q 2047 -91 1331 -91
Q 1053 -91 747 -37
Q 441 16 72 128
L 184 722
Q 500 559 806 475
Q 1113 391 1394 391
Q 1816 391 2080 572
Q 2344 753 2344 1031
Q 2344 1331 1650 1516
L 1591 1531
L 1394 1581
Q 956 1697 753 1886
Q 550 2075 550 2369
Q 550 2928 970 3256
Q 1391 3584 2113 3584
Q 2397 3584 2667 3537
Q 2938 3491 3200 3397
z
" transform="scale(0.015625)"/>
       <path id="DejaVuSans-33" d="M 2597 2516
Q 3050 2419 3304 2112
Q 3559 1806 3559 1356
Q 3559 666 3084 287
Q 2609 -91 1734 -91
Q 1441 -91 1130 -33
Q 819 25 488 141
L 488 750
Q 750 597 1062 519
Q 1375 441 1716 441
Q 2309 441 2620 675
Q 2931 909 2931 1356
Q 2931 1769 2642 2001
Q 2353 2234 1838 2234
L 1294 2234
L 1294 2753
L 1863 2753
Q 2328 2753 2575 2939
Q 2822 3125 2822 3475
Q 2822 3834 2567 4026
Q 2313 4219 1838 4219
Q 1578 4219 1281 4162
Q 984 4106 628 3988
L 628 4550
Q 988 4650 1302 4700
Q 1616 4750 1894 4750
Q 2613 4750 3031 4423
Q 3450 4097 3450 3541
Q 3450 3153 3228 2886
Q 3006 2619 2597 2516
z
" transform="scale(0.015625)"/>
       <path id="STIXTwoText-5d" d="M 1638 -1190
L 301 -1190
L 301 -998
L 1133 -998
L 1133 4493
L 301 4493
L 301 4685
L 1638 4685
L 1638 -1190
z
" transform="scale(0.015625)"/>
      </defs>
      <use xlink:href="#STIXTwoText-4c" transform="translate(0 0.765625)"/>
      <use xlink:href="#STIXTwoText-6f" transform="translate(58.499985 0.765625)"/>
      <use xlink:href="#STIXTwoText-67" transform="translate(109.899979 0.765625)"/>
      <use xlink:href="#STIXTwoText-20" transform="translate(158.299973 0.765625)"/>
      <use xlink:href="#STIXTwoText-44" transform="translate(181.799957 0.765625)"/>
      <use xlink:href="#STIXTwoText-69" transform="translate(254.799942 0.765625)"/>
      <use xlink:href="#STIXTwoText-6d" transform="translate(283.299927 0.765625)"/>
      <use xlink:href="#STIXTwoText-65" transform="translate(368.499908 0.765625)"/>
      <use xlink:href="#STIXTwoText-6e" transform="translate(414.899902 0.765625)"/>
      <use xlink:href="#STIXTwoText-73" transform="translate(472.499893 0.765625)"/>
      <use xlink:href="#STIXTwoText-69" transform="translate(511.999878 0.765625)"/>
      <use xlink:href="#STIXTwoText-6f" transform="translate(540.499863 0.765625)"/>
      <use xlink:href="#STIXTwoText-6e" transform="translate(591.899857 0.765625)"/>
      <use xlink:href="#STIXTwoText-6c" transform="translate(649.499847 0.765625)"/>
      <use xlink:href="#STIXTwoText-65" transform="translate(677.799835 0.765625)"/>
      <use xlink:href="#STIXTwoText-73" transform="translate(724.199829 0.765625)"/>
      <use xlink:href="#STIXTwoText-73" transform="translate(763.699814 0.765625)"/>
      <use xlink:href="#STIXTwoText-20" transform="translate(803.199799 0.765625)"/>
      <use xlink:href="#STIXTwoText-4a" transform="translate(826.699783 0.765625)"/>
      <use xlink:href="#STIXTwoText-65" transform="translate(866.299774 0.765625)"/>
      <use xlink:href="#STIXTwoText-72" transform="translate(912.699768 0.765625)"/>
      <use xlink:href="#STIXTwoText-6b" transform="translate(950.699753 0.765625)"/>
      <use xlink:href="#STIXTwoText-20" transform="translate(1004.89975 0.765625)"/>
      <use xlink:href="#STIXTwoText-5b" transform="translate(1028.399734 0.765625)"/>
      <use xlink:href="#DejaVuSans-Oblique-6d" transform="translate(1063.099731 0.765625)"/>
      <use xlink:href="#DejaVuSans-2f" transform="translate(1160.511841 0.765625)"/>
      <use xlink:href="#DejaVuSans-Oblique-73" transform="translate(1194.203247 0.765625)"/>
      <use xlink:href="#DejaVuSans-33" transform="translate(1250.952752 39.046875) scale(0.7)"/>
      <use xlink:href="#STIXTwoText-5d" transform="translate(1298.22326 0.765625)"/>
     </g>
    </g>
   </g>
   <g id="QuadMesh_2">
    <path d="M 257.971429 246.427143
L 268.11 246.427143
L 268.11 237.978333
L 257.971429 237.978333
L 257.971429 246.427143
" clip-path="url(#p6ba85bd562)" style="fill: #fe640b"/>
    <path d="M 257.971429 237.978333
L 268.11 237.978333
L 268.11 229.529524
L 257.971429 229.529524
L 257.971429 237.978333
" clip-path="url(#p6ba85bd562)" style="fill: #fc701f"/>
    <path d="M 257.971429 229.529524
L 268.11 229.529524
L 268.11 221.080714
L 257.971429 221.080714
L 257.971429 229.529524
" clip-path="url(#p6ba85bd562)" style="fill: #fa7b33"/>
    <path d="M 257.971429 221.080714
L 268.11 221.080714
L 268.11 212.631905
L 257.971429 212.631905
L 257.971429 221.080714
" clip-path="url(#p6ba85bd562)" style="fill: #f88746"/>
    <path d="M 257.971429 212.631905
L 268.11 212.631905
L 268.11 204.183095
L 257.971429 204.183095
L 257.971429 212.631905
" clip-path="url(#p6ba85bd562)" style="fill: #f6925a"/>
    <path d="M 257.971429 204.183095
L 268.11 204.183095
L 268.11 195.734286
L 257.971429 195.734286
L 257.971429 204.183095
" clip-path="url(#p6ba85bd562)" style="fill: #f49e6e"/>
    <path d="M 257.971429 195.734286
L 268.11 195.734286
L 268.11 187.285476
L 257.971429 187.285476
L 257.971429 195.734286
" clip-path="url(#p6ba85bd562)" style="fill: #f1a982"/>
    <path d="M 257.971429 187.285476
L 268.11 187.285476
L 268.11 178.836667
L 257.971429 178.836667
L 257.971429 187.285476
" clip-path="url(#p6ba85bd562)" style="fill: #efb596"/>
    <path d="M 257.971429 178.836667
L 268.11 178.836667
L 268.11 170.387857
L 257.971429 170.387857
L 257.971429 178.836667
" clip-path="url(#p6ba85bd562)" style="fill: #edc1aa"/>
    <path d="M 257.971429 170.387857
L 268.11 170.387857
L 268.11 161.939048
L 257.971429 161.939048
L 257.971429 170.387857
" clip-path="url(#p6ba85bd562)" style="fill: #ebccbd"/>
    <path d="M 257.971429 161.939048
L 268.11 161.939048
L 268.11 153.490238
L 257.971429 153.490238
L 257.971429 161.939048
" clip-path="url(#p6ba85bd562)" style="fill: #e9d8d1"/>
    <path d="M 257.971429 153.490238
L 268.11 153.490238
L 268.11 145.041429
L 257.971429 145.041429
L 257.971429 153.490238
" clip-path="url(#p6ba85bd562)" style="fill: #e7e3e5"/>
    <path d="M 257.971429 145.041429
L 268.11 145.041429
L 268.11 136.592619
L 257.971429 136.592619
L 257.971429 145.041429
" clip-path="url(#p6ba85bd562)" style="fill: #e1e5f0"/>
    <path d="M 257.971429 136.592619
L 268.11 136.592619
L 268.11 128.14381
L 257.971429 128.14381
L 257.971429 136.592619
" clip-path="url(#p6ba85bd562)" style="fill: #d7dcf1"/>
    <path d="M 257.971429 128.14381
L 268.11 128.14381
L 268.11 119.695
L 257.971429 119.695
L 257.971429 128.14381
" clip-path="url(#p6ba85bd562)" style="fill: #cdd4f2"/>
    <path d="M 257.971429 119.695
L 268.11 119.695
L 268.11 111.24619
L 257.971429 111.24619
L 257.971429 119.695
" clip-path="url(#p6ba85bd562)" style="fill: #c3cbf3"/>
    <path d="M 257.971429 111.24619
L 268.11 111.24619
L 268.11 102.797381
L 257.971429 102.797381
L 257.971429 111.24619
" clip-path="url(#p6ba85bd562)" style="fill: #b9c3f4"/>
    <path d="M 257.971429 102.797381
L 268.11 102.797381
L 268.11 94.348571
L 257.971429 94.348571
L 257.971429 102.797381
" clip-path="url(#p6ba85bd562)" style="fill: #afbaf6"/>
    <path d="M 257.971429 94.348571
L 268.11 94.348571
L 268.11 85.899762
L 257.971429 85.899762
L 257.971429 94.348571
" clip-path="url(#p6ba85bd562)" style="fill: #a4b2f7"/>
    <path d="M 257.971429 85.899762
L 268.11 85.899762
L 268.11 77.450952
L 257.971429 77.450952
L 257.971429 85.899762
" clip-path="url(#p6ba85bd562)" style="fill: #9aa9f8"/>
    <path d="M 257.971429 77.450952
L 268.11 77.450952
L 268.11 69.002143
L 257.971429 69.002143
L 257.971429 77.450952
" clip-path="url(#p6ba85bd562)" style="fill: #90a1f9"/>
    <path d="M 257.971429 69.002143
L 268.11 69.002143
L 268.11 60.553333
L 257.971429 60.553333
L 257.971429 69.002143
" clip-path="url(#p6ba85bd562)" style="fill: #8698fb"/>
    <path d="M 257.971429 60.553333
L 268.11 60.553333
L 268.11 52.104524
L 257.971429 52.104524
L 257.971429 60.553333
" clip-path="url(#p6ba85bd562)" style="fill: #7c90fc"/>
    <path d="M 257.971429 52.104524
L 268.11 52.104524
L 268.11 43.655714
L 257.971429 43.655714
L 257.971429 52.104524
" clip-path="url(#p6ba85bd562)" style="fill: #7287fd"/>
   </g>
   <g id="LineCollection_17"/>
   <g id="patch_8">
    <path d="M 257.971429 246.427143
L 263.040714 246.427143
L 268.11 246.427143
L 268.11 43.655714
L 263.040714 43.655714
L 257.971429 43.655714
L 257.971429 246.427143
z
" style="fill: none; stroke: #ffffff; stroke-width: 0.8; stroke-linejoin: miter; stroke-linecap: square"/>
   </g>
  </g>
 </g>
 <defs>
  <clipPath id="pf93df3cbc0">
   <rect x="51.6" y="43.655714" width="202.771429" height="202.771429"/>
  </clipPath>
  <clipPath id="p6ba85bd562">
   <rect x="257.971429" y="43.655714" width="10.138571" height="202.771429"/>
  </clipPath>
 </defs>
</svg>
