<?xml version="1.0" encoding="utf-8" standalone="no"?>
<!DOCTYPE svg PUBLIC "-//W3C//DTD SVG 1.1//EN"
  "http://www.w3.org/Graphics/SVG/1.1/DTD/svg11.dtd">
<svg xmlns:xlink="http://www.w3.org/1999/xlink" width="432pt" height="288pt" viewBox="0 0 432 288" xmlns="http://www.w3.org/2000/svg" version="1.1">
 <metadata>
  <rdf:RDF xmlns:dc="http://purl.org/dc/elements/1.1/" xmlns:cc="http://creativecommons.org/ns#" xmlns:rdf="http://www.w3.org/1999/02/22-rdf-syntax-ns#">
   <cc:Work>
    <dc:type rdf:resource="http://purl.org/dc/dcmitype/StillImage"/>
    <dc:date>1980-01-01T00:00:00+00:00</dc:date>
    <dc:format>image/svg+xml</dc:format>
    <dc:creator>
     <cc:Agent>
      <dc:title>Matplotlib v3.8.4, https://matplotlib.org/</dc:title>
     </cc:Agent>
    </dc:creator>
   </cc:Work>
  </rdf:RDF>
 </metadata>
 <defs>
  <style type="text/css">*{stroke-linejoin: round; stroke-linecap: butt}</style>
 </defs>
 <g id="figure_1">
  <g id="patch_1">
   <path d="M 0 288
L 432 288
L 432 0
L 0 0
z
" style="fill: #ffffff"/>
  </g>
  <g id="axes_1">
   <g id="patch_2">
    <path d="M 54 256.32
L 388.8 256.32
L 388.8 34.56
L 54 34.56
z
" style="fill: #eff1f5"/>
   </g>
   <g id="matplotlib.axis_1">
    <g id="xtick_1">
     <g id="line2d_1">
      <path d="M 54 256.32
L 54 34.56
" clip-path="url(#pae5630aada)" style="fill: none; stroke: #ffffff; stroke-width: 0.8; stroke-linecap: round"/>
     </g>
     <g id="text_1">
      <!-- 0 -->
      <g style="fill: #262626" transform="translate(51 270.62) scale(0.1 -0.1)">
       <defs>
        <path id="JetBrainsMonoNFM-Regular-30" d="M 1920 -64
Q 1274 -64 893 310
Q 512 685 512 1312
L 512 3360
Q 512 3987 893 4361
Q 1274 4736 1920 4736
Q 2566 4736 2947 4361
Q 3328 3987 3328 3360
L 3328 1312
Q 3328 896 3155 585
Q 2982 275 2665 105
Q 2349 -64 1920 -64
z
M 1920 429
Q 2304 429 2537 675
Q 2771 922 2771 1312
L 2771 3360
Q 2771 3750 2537 3996
Q 2304 4243 1920 4243
Q 1536 4243 1302 3996
Q 1069 3750 1069 3360
L 1069 1312
Q 1069 922 1302 675
Q 1536 429 1920 429
z
M 1920 1984
Q 1747 1984 1641 2080
Q 1536 2176 1536 2355
Q 1536 2528 1641 2621
Q 1747 2714 1920 2714
Q 2093 2714 2198 2621
Q 2304 2528 2304 2355
Q 2304 2176 2198 2080
Q 2093 1984 1920 1984
z
" transform="scale(0.015625)"/>
       </defs>
       <use xlink:href="#JetBrainsMonoNFM-Regular-30"/>
      </g>
     </g>
    </g>
    <g id="xtick_2">
     <g id="line2d_2">
      <path d="M 101.15493 256.32
L 101.15493 34.56
" clip-path="url(#pae5630aada)" style="fill: none; stroke: #ffffff; stroke-width: 0.8; stroke-linecap: round"/>
     </g>
     <g id="text_2">
      <!-- 10 -->
      <g style="fill: #262626" transform="translate(95.15493 270.62) scale(0.1 -0.1)">
       <defs>
        <path id="JetBrainsMonoNFM-Regular-31" d="M 576 0
L 576 525
L 1843 525
L 1843 4173
L 576 3226
L 576 3885
L 1632 4672
L 2419 4672
L 2419 525
L 3456 525
L 3456 0
L 576 0
z
" transform="scale(0.015625)"/>
       </defs>
       <use xlink:href="#JetBrainsMonoNFM-Regular-31"/>
       <use xlink:href="#JetBrainsMonoNFM-Regular-30" x="59.999985"/>
      </g>
     </g>
    </g>
    <g id="xtick_3">
     <g id="line2d_3">
      <path d="M 148.309859 256.32
L 148.309859 34.56
" clip-path="url(#pae5630aada)" style="fill: none; stroke: #ffffff; stroke-width: 0.8; stroke-linecap: round"/>
     </g>
     <g id="text_3">
      <!-- 20 -->
      <g style="fill: #262626" transform="translate(142.309859 270.62) scale(0.1 -0.1)">
       <defs>
        <path id="JetBrainsMonoNFM-Regular-32" d="M 550 0
L 550 531
L 2106 2195
Q 2445 2554 2585 2835
Q 2726 3117 2726 3386
Q 2726 3770 2505 3997
Q 2285 4224 1907 4224
Q 1517 4224 1289 3990
Q 1062 3757 1062 3360
L 486 3360
Q 506 3994 890 4365
Q 1274 4736 1907 4736
Q 2554 4736 2934 4371
Q 3315 4006 3315 3379
Q 3315 3046 3132 2675
Q 2950 2304 2509 1843
L 1248 525
L 3373 525
L 3373 0
L 550 0
z
" transform="scale(0.015625)"/>
       </defs>
       <use xlink:href="#JetBrainsMonoNFM-Regular-32"/>
       <use xlink:href="#JetBrainsMonoNFM-Regular-30" x="59.999985"/>
      </g>
     </g>
    </g>
    <g id="xtick_4">
     <g id="line2d_4">
      <path d="M 195.464789 256.32
L 195.464789 34.56
" clip-path="url(#pae5630aada)" style="fill: none; stroke: #ffffff; stroke-width: 0.8; stroke-linecap: round"/>
     </g>
     <g id="text_4">
      <!-- 30 -->
      <g style="fill: #262626" transform="translate(189.464789 270.62) scale(0.1 -0.1)">
       <defs>
        <path id="JetBrainsMonoNFM-Regular-33" d="M 1850 -64
Q 1203 -64 825 297
Q 448 659 448 1280
L 1024 1280
Q 1024 896 1248 672
Q 1472 448 1856 448
Q 2240 448 2464 672
Q 2688 896 2688 1280
L 2688 1600
Q 2688 1984 2464 2208
Q 2240 2432 1856 2432
L 1350 2432
L 1350 2931
L 2496 4147
L 576 4147
L 576 4672
L 3149 4672
L 3149 4134
L 2022 2938
Q 2598 2893 2931 2537
Q 3264 2182 3264 1600
L 3264 1280
Q 3264 659 2883 297
Q 2502 -64 1850 -64
z
" transform="scale(0.015625)"/>
       </defs>
       <use xlink:href="#JetBrainsMonoNFM-Regular-33"/>
       <use xlink:href="#JetBrainsMonoNFM-Regular-30" x="59.999985"/>
      </g>
     </g>
    </g>
    <g id="xtick_5">
     <g id="line2d_5">
      <path d="M 242.619718 256.32
L 242.619718 34.56
" clip-path="url(#pae5630aada)" style="fill: none; stroke: #ffffff; stroke-width: 0.8; stroke-linecap: round"/>
     </g>
     <g id="text_5">
      <!-- 40 -->
      <g style="fill: #262626" transform="translate(236.619718 270.62) scale(0.1 -0.1)">
       <defs>
        <path id="JetBrainsMonoNFM-Regular-34" d="M 2560 0
L 2560 1024
L 448 1024
L 448 1926
L 2150 4672
L 2803 4672
L 1024 1798
L 1024 1549
L 2560 1549
L 2560 2688
L 3136 2688
L 3136 0
L 2560 0
z
" transform="scale(0.015625)"/>
       </defs>
       <use xlink:href="#JetBrainsMonoNFM-Regular-34"/>
       <use xlink:href="#JetBrainsMonoNFM-Regular-30" x="59.999985"/>
      </g>
     </g>
    </g>
    <g id="xtick_6">
     <g id="line2d_6">
      <path d="M 289.774648 256.32
L 289.774648 34.56
" clip-path="url(#pae5630aada)" style="fill: none; stroke: #ffffff; stroke-width: 0.8; stroke-linecap: round"/>
     </g>
     <g id="text_6">
      <!-- 50 -->
      <g style="fill: #262626" transform="translate(283.774648 270.62) scale(0.1 -0.1)">
       <defs>
        <path id="JetBrainsMonoNFM-Regular-35" d="M 1882 -64
Q 1235 -64 857 297
Q 480 659 480 1280
L 1056 1280
Q 1056 896 1280 672
Q 1504 448 1888 448
Q 2272 448 2496 672
Q 2720 896 2720 1280
L 2720 1568
Q 2720 1952 2502 2176
Q 2285 2400 1914 2400
L 640 2400
L 640 4672
L 3130 4672
L 3130 4147
L 1178 4147
L 1190 2925
L 1946 2925
Q 2592 2925 2944 2569
Q 3296 2214 3296 1568
L 3296 1280
Q 3296 659 2915 297
Q 2534 -64 1882 -64
z
" transform="scale(0.015625)"/>
       </defs>
       <use xlink:href="#JetBrainsMonoNFM-Regular-35"/>
       <use xlink:href="#JetBrainsMonoNFM-Regular-30" x="59.999985"/>
      </g>
     </g>
    </g>
    <g id="xtick_7">
     <g id="line2d_7">
      <path d="M 336.929577 256.32
L 336.929577 34.56
" clip-path="url(#pae5630aada)" style="fill: none; stroke: #ffffff; stroke-width: 0.8; stroke-linecap: round"/>
     </g>
     <g id="text_7">
      <!-- 60 -->
      <g style="fill: #262626" transform="translate(330.929577 270.62) scale(0.1 -0.1)">
       <defs>
        <path id="JetBrainsMonoNFM-Regular-36" d="M 1926 -64
Q 1478 -64 1136 125
Q 794 314 602 650
Q 410 986 410 1427
Q 410 1734 525 2057
Q 640 2381 838 2733
L 1920 4672
L 2560 4672
L 1408 2669
L 1427 2656
Q 1510 2765 1676 2822
Q 1843 2880 2042 2880
Q 2458 2880 2768 2697
Q 3078 2515 3254 2195
Q 3430 1875 3430 1453
Q 3430 1005 3238 662
Q 3046 320 2710 128
Q 2374 -64 1926 -64
z
M 1920 448
Q 2336 448 2595 723
Q 2854 998 2854 1440
Q 2854 1882 2595 2157
Q 2336 2432 1920 2432
Q 1504 2432 1245 2157
Q 986 1882 986 1440
Q 986 998 1245 723
Q 1504 448 1920 448
z
" transform="scale(0.015625)"/>
       </defs>
       <use xlink:href="#JetBrainsMonoNFM-Regular-36"/>
       <use xlink:href="#JetBrainsMonoNFM-Regular-30" x="59.999985"/>
      </g>
     </g>
    </g>
    <g id="xtick_8">
     <g id="line2d_8">
      <path d="M 384.084507 256.32
L 384.084507 34.56
" clip-path="url(#pae5630aada)" style="fill: none; stroke: #ffffff; stroke-width: 0.8; stroke-linecap: round"/>
     </g>
     <g id="text_8">
      <!-- 70 -->
      <g style="fill: #262626" transform="translate(378.084507 270.62) scale(0.1 -0.1)">
       <defs>
        <path id="JetBrainsMonoNFM-Regular-37" d="M 1216 0
L 2880 4147
L 1101 4147
L 1101 3392
L 525 3392
L 525 4672
L 3494 4672
L 3494 4134
L 1843 0
L 1216 0
z
" transform="scale(0.015625)"/>
       </defs>
       <use xlink:href="#JetBrainsMonoNFM-Regular-37"/>
       <use xlink:href="#JetBrainsMonoNFM-Regular-30" x="59.999985"/>
      </g>
     </g>
    </g>
    <g id="text_9">
     <!-- Failure Probability $[\%]$ -->
     <g style="fill: #262626" transform="translate(163.92 284.94) scale(0.12 -0.12)">
      <defs>
       <path id="STIXTwoText-46" d="M 2106 0
L 230 0
L 230 192
Q 493 192 624 230
Q 755 269 803 387
Q 851 506 851 742
L 851 3482
Q 851 3706 793 3818
Q 736 3930 598 3971
Q 461 4013 230 4013
L 230 4205
L 3635 4205
L 3674 3155
L 3469 3155
Q 3424 3386 3376 3533
Q 3328 3680 3232 3763
Q 3136 3846 2953 3881
Q 2771 3917 2458 3917
L 1440 3917
L 1440 2298
L 2195 2298
Q 2470 2298 2617 2349
Q 2765 2400 2819 2537
Q 2874 2675 2874 2931
L 3091 2931
L 3091 1446
L 2874 1446
Q 2874 1709 2819 1837
Q 2765 1965 2617 2006
Q 2470 2048 2195 2048
L 1440 2048
L 1440 704
Q 1440 486 1501 377
Q 1562 269 1709 230
Q 1856 192 2106 192
L 2106 0
z
" transform="scale(0.015625)"/>
       <path id="STIXTwoText-61" d="M 1005 -45
Q 634 -45 438 160
Q 243 365 243 672
Q 243 928 361 1104
Q 480 1280 675 1401
Q 870 1523 1097 1606
Q 1325 1690 1542 1747
Q 1760 1805 1926 1856
L 1926 2138
Q 1926 2554 1782 2730
Q 1638 2906 1350 2906
Q 1075 2906 998 2790
Q 922 2675 922 2387
Q 922 2240 848 2166
Q 774 2093 640 2093
Q 544 2093 457 2166
Q 371 2240 371 2400
Q 371 2579 508 2739
Q 646 2899 899 3001
Q 1152 3104 1498 3104
Q 2022 3104 2240 2861
Q 2458 2618 2458 2118
L 2458 666
Q 2458 467 2502 409
Q 2547 352 2650 352
Q 2739 352 2812 397
Q 2886 442 2950 512
L 3046 410
Q 2886 179 2742 73
Q 2598 -32 2355 -32
Q 2131 -32 2064 96
Q 1997 224 1965 461
L 1926 538
L 1926 1645
Q 1638 1574 1382 1478
Q 1126 1382 966 1228
Q 806 1075 806 826
Q 806 589 934 448
Q 1062 307 1267 307
Q 1434 307 1616 390
Q 1798 474 1971 627
L 2022 397
L 1946 397
Q 1798 269 1660 166
Q 1523 64 1366 9
Q 1210 -45 1005 -45
z
" transform="scale(0.015625)"/>
       <path id="STIXTwoText-69" d="M 1645 0
L 205 0
L 205 179
Q 422 179 515 220
Q 608 262 630 364
Q 653 467 653 646
L 653 2432
Q 653 2637 582 2685
Q 512 2733 371 2733
Q 307 2733 259 2726
Q 211 2720 211 2720
L 211 2906
L 1018 3085
L 1184 3085
L 1184 646
Q 1184 461 1209 358
Q 1235 256 1334 217
Q 1434 179 1645 179
L 1645 0
z
M 928 3584
Q 768 3584 665 3693
Q 563 3802 563 3949
Q 563 4096 662 4201
Q 762 4307 928 4307
Q 1094 4307 1193 4201
Q 1293 4096 1293 3949
Q 1293 3802 1193 3693
Q 1094 3584 928 3584
z
" transform="scale(0.015625)"/>
       <path id="STIXTwoText-6c" d="M 1664 0
L 192 0
L 192 186
Q 403 186 499 227
Q 595 269 617 368
Q 640 467 640 646
L 640 3859
Q 640 4058 566 4096
Q 493 4134 371 4134
Q 288 4134 227 4128
Q 166 4122 166 4122
L 166 4294
L 1011 4518
L 1171 4518
L 1171 646
Q 1171 461 1200 361
Q 1229 262 1331 224
Q 1434 186 1664 186
L 1664 0
z
" transform="scale(0.015625)"/>
       <path id="STIXTwoText-75" d="M 1421 -64
Q 1024 -64 803 195
Q 582 454 582 1107
L 582 2406
Q 582 2579 547 2659
Q 512 2739 416 2761
Q 320 2784 147 2784
L 147 2963
L 973 3059
L 1114 3059
L 1114 1190
Q 1114 864 1187 681
Q 1261 499 1392 422
Q 1523 346 1690 346
Q 1933 346 2109 454
Q 2285 563 2477 730
L 2477 2413
Q 2477 2586 2432 2662
Q 2387 2739 2275 2761
Q 2163 2784 1958 2784
L 1958 2963
L 2854 3059
L 3008 3059
L 3008 710
Q 3008 429 3085 358
Q 3162 288 3392 288
L 3456 288
L 3456 115
L 2643 -32
L 2502 -32
L 2502 461
L 2470 461
Q 2304 294 2141 176
Q 1978 58 1802 -3
Q 1626 -64 1421 -64
z
" transform="scale(0.015625)"/>
       <path id="STIXTwoText-72" d="M 1786 0
L 186 0
L 186 186
Q 397 186 496 221
Q 595 256 624 349
Q 653 442 653 621
L 653 2381
Q 653 2554 624 2640
Q 595 2726 422 2726
Q 326 2726 275 2720
Q 224 2714 224 2714
L 224 2893
L 1018 3085
L 1171 3085
L 1171 2426
L 1190 2426
Q 1357 2662 1485 2816
Q 1613 2970 1737 3046
Q 1862 3123 2016 3123
Q 2202 3123 2294 3027
Q 2387 2931 2387 2765
Q 2387 2586 2300 2502
Q 2214 2419 2106 2419
Q 2003 2419 1923 2473
Q 1843 2528 1785 2582
Q 1728 2637 1690 2637
Q 1581 2637 1440 2470
Q 1299 2304 1184 2112
L 1184 653
Q 1184 454 1235 352
Q 1286 250 1417 218
Q 1549 186 1786 186
L 1786 0
z
" transform="scale(0.015625)"/>
       <path id="STIXTwoText-65" d="M 1581 -64
Q 1197 -64 886 118
Q 576 301 397 656
Q 218 1011 218 1523
Q 218 2061 400 2409
Q 582 2758 889 2931
Q 1197 3104 1568 3104
Q 2093 3104 2413 2739
Q 2733 2374 2758 1702
L 678 1702
L 672 1939
L 2157 1939
Q 2150 2176 2073 2384
Q 1997 2592 1849 2720
Q 1702 2848 1472 2848
Q 1101 2848 915 2557
Q 730 2266 730 1734
Q 730 1293 870 998
Q 1011 704 1241 560
Q 1472 416 1734 416
Q 1997 416 2160 486
Q 2323 557 2438 669
Q 2554 781 2656 915
L 2778 826
Q 2694 646 2585 483
Q 2477 320 2339 198
Q 2202 77 2016 6
Q 1830 -64 1581 -64
z
" transform="scale(0.015625)"/>
       <path id="STIXTwoText-20" transform="scale(0.015625)"/>
       <path id="STIXTwoText-50" d="M 2086 0
L 282 0
L 282 192
Q 531 192 652 237
Q 774 282 812 413
Q 851 544 851 813
L 851 3565
Q 851 3846 732 3929
Q 614 4013 307 4013
L 307 4205
L 1901 4205
Q 2208 4205 2493 4157
Q 2778 4109 2998 3993
Q 3219 3878 3350 3670
Q 3482 3462 3482 3142
Q 3482 2771 3341 2518
Q 3200 2266 2960 2112
Q 2720 1958 2419 1894
Q 2118 1830 1805 1830
Q 1709 1830 1600 1843
Q 1491 1856 1440 1882
L 1440 787
Q 1440 525 1494 397
Q 1549 269 1689 230
Q 1830 192 2086 192
L 2086 0
z
M 1786 2093
Q 2131 2093 2368 2179
Q 2605 2266 2726 2474
Q 2848 2682 2848 3053
Q 2848 3488 2595 3721
Q 2342 3955 1824 3955
Q 1728 3955 1635 3948
Q 1542 3942 1440 3930
L 1440 2118
Q 1491 2112 1590 2102
Q 1690 2093 1786 2093
z
" transform="scale(0.015625)"/>
       <path id="STIXTwoText-6f" d="M 1651 -64
Q 979 -64 598 355
Q 218 774 218 1549
Q 218 2016 397 2365
Q 576 2714 899 2909
Q 1222 3104 1651 3104
Q 2310 3104 2691 2694
Q 3072 2285 3072 1574
Q 3072 1037 2889 672
Q 2707 307 2387 121
Q 2067 -64 1651 -64
z
M 1677 192
Q 1939 192 2118 313
Q 2298 435 2390 729
Q 2483 1024 2483 1542
Q 2483 2131 2268 2496
Q 2054 2861 1626 2861
Q 1261 2861 1037 2553
Q 813 2246 813 1632
Q 813 870 1040 528
Q 1267 186 1677 192
z
" transform="scale(0.015625)"/>
       <path id="STIXTwoText-62" d="M 877 4518
L 1043 4518
L 1043 2560
L 1062 2560
Q 1229 2765 1478 2934
Q 1728 3104 2048 3104
Q 2368 3104 2608 2921
Q 2848 2739 2982 2419
Q 3117 2099 3117 1683
Q 3117 1114 2918 723
Q 2720 333 2374 134
Q 2029 -64 1581 -64
Q 1171 -64 899 32
Q 627 128 512 192
L 512 3789
Q 512 4006 464 4067
Q 416 4128 230 4128
Q 154 4128 102 4121
Q 51 4115 51 4115
L 51 4294
L 877 4518
z
M 1043 2278
L 1043 499
Q 1133 390 1286 294
Q 1440 198 1696 198
Q 2003 198 2185 371
Q 2368 544 2451 835
Q 2534 1126 2534 1478
Q 2534 1786 2470 2058
Q 2406 2330 2240 2499
Q 2074 2669 1766 2669
Q 1523 2669 1328 2531
Q 1133 2394 1043 2278
z
" transform="scale(0.015625)"/>
       <path id="STIXTwoText-74" d="M 1875 576
L 1997 474
Q 1875 301 1769 182
Q 1664 64 1536 0
Q 1408 -64 1203 -64
Q 883 -64 736 125
Q 589 314 589 742
L 589 2726
L 237 2726
L 237 2874
Q 461 3014 624 3254
Q 787 3494 960 3904
L 1120 3904
L 1120 2995
L 1843 2995
L 1843 2726
L 1120 2726
L 1120 922
Q 1120 582 1181 448
Q 1242 314 1427 314
Q 1581 314 1667 378
Q 1754 442 1875 576
z
" transform="scale(0.015625)"/>
       <path id="STIXTwoText-79" d="M 493 -1504
Q 294 -1504 166 -1427
Q 38 -1350 38 -1171
Q 38 -1024 124 -960
Q 211 -896 333 -896
Q 499 -896 630 -966
Q 762 -1037 826 -1037
Q 915 -1037 1017 -899
Q 1120 -762 1219 -570
Q 1318 -378 1379 -208
Q 1440 -38 1440 32
Q 1440 96 1373 262
Q 1306 429 1248 557
L 307 2611
Q 262 2720 179 2781
Q 96 2842 -77 2842
L -77 3027
L 1293 3027
L 1293 2835
Q 1075 2835 1001 2793
Q 928 2752 928 2669
Q 928 2605 960 2531
Q 992 2458 1018 2387
L 1645 979
L 1728 666
L 1773 666
L 2394 2522
Q 2406 2554 2416 2602
Q 2426 2650 2426 2682
Q 2426 2778 2326 2810
Q 2227 2842 2067 2842
L 2067 3027
L 3155 3027
L 3155 2842
Q 2963 2842 2873 2755
Q 2784 2669 2714 2483
L 1715 -141
Q 1530 -627 1354 -928
Q 1178 -1229 973 -1366
Q 768 -1504 493 -1504
z
" transform="scale(0.015625)"/>
       <path id="STIXGeneral-Regular-5b" d="M 1914 -998
L 563 -998
L 563 4237
L 1914 4237
L 1914 4077
L 1382 4077
Q 1216 4077 1133 4006
Q 1050 3936 1050 3770
L 1050 -493
Q 1050 -838 1382 -838
L 1914 -838
L 1914 -998
z
" transform="scale(0.015625)"/>
       <path id="STIXGeneral-Regular-25" d="M 4390 1363
Q 4390 781 4070 329
Q 3750 -122 3341 -122
Q 3014 -122 2790 134
Q 2566 390 2566 762
Q 2566 1274 2940 1693
Q 3315 2112 3776 2112
Q 4070 2112 4230 1917
Q 4390 1722 4390 1363
z
M 4243 1376
Q 4243 1626 4131 1779
Q 4019 1933 3840 1933
Q 3654 1933 3526 1786
Q 3315 1562 3171 1187
Q 3027 813 3027 486
Q 3027 301 3129 176
Q 3232 51 3386 51
Q 3718 51 3980 457
Q 4243 864 4243 1376
z
M 3974 4518
L 1222 -115
L 922 -115
L 3443 4096
Q 3264 3891 3094 3811
Q 2925 3731 2669 3731
Q 2445 3731 2182 3821
Q 2208 3674 2208 3539
Q 2208 3206 2067 2873
Q 1926 2541 1696 2323
Q 1453 2086 1146 2086
Q 826 2086 608 2339
Q 390 2592 390 2963
Q 390 3507 761 3916
Q 1133 4326 1626 4326
Q 1792 4326 2010 4147
Q 2310 3898 2624 3898
Q 2918 3898 3084 3994
Q 3251 4090 3693 4518
L 3974 4518
z
M 2054 3642
Q 2054 3782 2025 3833
Q 1997 3885 1894 3936
Q 1747 4006 1613 4154
Q 1414 4058 1331 3984
Q 1248 3910 1152 3750
Q 845 3264 845 2707
Q 845 2509 944 2384
Q 1043 2259 1210 2259
Q 1549 2259 1801 2675
Q 2054 3091 2054 3642
z
" transform="scale(0.015625)"/>
       <path id="STIXGeneral-Regular-5d" d="M 1568 -998
L 218 -998
L 218 -838
L 781 -838
Q 947 -838 1014 -768
Q 1082 -698 1082 -544
L 1082 3731
Q 1082 4077 755 4077
L 218 4077
L 218 4237
L 1568 4237
L 1568 -998
z
" transform="scale(0.015625)"/>
      </defs>
      <use xlink:href="#STIXTwoText-46" transform="translate(0 0.40625)"/>
      <use xlink:href="#STIXTwoText-61" transform="translate(58.799988 0.40625)"/>
      <use xlink:href="#STIXTwoText-69" transform="translate(106.799973 0.40625)"/>
      <use xlink:href="#STIXTwoText-6c" transform="translate(135.299957 0.40625)"/>
      <use xlink:href="#STIXTwoText-75" transform="translate(163.599945 0.40625)"/>
      <use xlink:href="#STIXTwoText-72" transform="translate(220.59993 0.40625)"/>
      <use xlink:href="#STIXTwoText-65" transform="translate(258.599915 0.40625)"/>
      <use xlink:href="#STIXTwoText-20" transform="translate(304.999908 0.40625)"/>
      <use xlink:href="#STIXTwoText-50" transform="translate(328.499893 0.40625)"/>
      <use xlink:href="#STIXTwoText-72" transform="translate(385.399887 0.40625)"/>
      <use xlink:href="#STIXTwoText-6f" transform="translate(423.399872 0.40625)"/>
      <use xlink:href="#STIXTwoText-62" transform="translate(474.799866 0.40625)"/>
      <use xlink:href="#STIXTwoText-61" transform="translate(526.999863 0.40625)"/>
      <use xlink:href="#STIXTwoText-62" transform="translate(574.999847 0.40625)"/>
      <use xlink:href="#STIXTwoText-69" transform="translate(627.199844 0.40625)"/>
      <use xlink:href="#STIXTwoText-6c" transform="translate(655.699829 0.40625)"/>
      <use xlink:href="#STIXTwoText-69" transform="translate(683.999817 0.40625)"/>
      <use xlink:href="#STIXTwoText-74" transform="translate(712.499802 0.40625)"/>
      <use xlink:href="#STIXTwoText-79" transform="translate(743.999786 0.40625)"/>
      <use xlink:href="#STIXTwoText-20" transform="translate(792.299774 0.40625)"/>
      <use xlink:href="#STIXGeneral-Regular-5b" transform="translate(815.799759 0.40625)"/>
      <use xlink:href="#STIXGeneral-Regular-25" transform="translate(849.099747 0.40625)"/>
      <use xlink:href="#STIXGeneral-Regular-5d" transform="translate(923.799728 0.40625)"/>
     </g>
    </g>
   </g>
   <g id="matplotlib.axis_2">
    <g id="ytick_1">
     <g id="line2d_9">
      <path d="M 54 254.656325
L 388.8 254.656325
" clip-path="url(#pae5630aada)" style="fill: none; stroke: #ffffff; stroke-width: 0.8; stroke-linecap: round"/>
     </g>
     <g id="text_10">
      <!-- 60 -->
      <g style="fill: #262626" transform="translate(35 258.306325) scale(0.1 -0.1)">
       <use xlink:href="#JetBrainsMonoNFM-Regular-36"/>
       <use xlink:href="#JetBrainsMonoNFM-Regular-30" x="59.999985"/>
      </g>
     </g>
    </g>
    <g id="ytick_2">
     <g id="line2d_10">
      <path d="M 54 227.833586
L 388.8 227.833586
" clip-path="url(#pae5630aada)" style="fill: none; stroke: #ffffff; stroke-width: 0.8; stroke-linecap: round"/>
     </g>
     <g id="text_11">
      <!-- 80 -->
      <g style="fill: #262626" transform="translate(35 231.483586) scale(0.1 -0.1)">
       <defs>
        <path id="JetBrainsMonoNFM-Regular-38" d="M 1920 -64
Q 1478 -64 1139 109
Q 800 282 611 592
Q 422 902 422 1306
Q 422 1747 675 2067
Q 928 2387 1350 2458
L 1350 2477
Q 986 2560 768 2845
Q 550 3130 550 3501
Q 550 3866 723 4144
Q 896 4422 1206 4579
Q 1517 4736 1920 4736
Q 2330 4736 2637 4579
Q 2944 4422 3117 4144
Q 3290 3866 3290 3501
Q 3290 3130 3072 2845
Q 2854 2560 2490 2477
L 2490 2458
Q 2912 2387 3165 2067
Q 3418 1747 3418 1306
Q 3418 902 3229 592
Q 3040 282 2704 109
Q 2368 -64 1920 -64
z
M 1920 2701
Q 2278 2701 2496 2912
Q 2714 3123 2714 3462
Q 2714 3802 2496 4013
Q 2278 4224 1920 4224
Q 1568 4224 1347 4013
Q 1126 3802 1126 3462
Q 1126 3123 1347 2912
Q 1568 2701 1920 2701
z
M 1920 454
Q 2330 454 2586 694
Q 2842 934 2842 1318
Q 2842 1709 2586 1949
Q 2330 2189 1920 2189
Q 1510 2189 1254 1949
Q 998 1709 998 1318
Q 998 934 1254 694
Q 1510 454 1920 454
z
" transform="scale(0.015625)"/>
       </defs>
       <use xlink:href="#JetBrainsMonoNFM-Regular-38"/>
       <use xlink:href="#JetBrainsMonoNFM-Regular-30" x="59.999985"/>
      </g>
     </g>
    </g>
    <g id="ytick_3">
     <g id="line2d_11">
      <path d="M 54 201.010848
L 388.8 201.010848
" clip-path="url(#pae5630aada)" style="fill: none; stroke: #ffffff; stroke-width: 0.8; stroke-linecap: round"/>
     </g>
     <g id="text_12">
      <!-- 100 -->
      <g style="fill: #262626" transform="translate(29 204.660848) scale(0.1 -0.1)">
       <use xlink:href="#JetBrainsMonoNFM-Regular-31"/>
       <use xlink:href="#JetBrainsMonoNFM-Regular-30" x="59.999985"/>
       <use xlink:href="#JetBrainsMonoNFM-Regular-30" x="119.999969"/>
      </g>
     </g>
    </g>
    <g id="ytick_4">
     <g id="line2d_12">
      <path d="M 54 174.188109
L 388.8 174.188109
" clip-path="url(#pae5630aada)" style="fill: none; stroke: #ffffff; stroke-width: 0.8; stroke-linecap: round"/>
     </g>
     <g id="text_13">
      <!-- 120 -->
      <g style="fill: #262626" transform="translate(29 177.838109) scale(0.1 -0.1)">
       <use xlink:href="#JetBrainsMonoNFM-Regular-31"/>
       <use xlink:href="#JetBrainsMonoNFM-Regular-32" x="59.999985"/>
       <use xlink:href="#JetBrainsMonoNFM-Regular-30" x="119.999969"/>
      </g>
     </g>
    </g>
    <g id="ytick_5">
     <g id="line2d_13">
      <path d="M 54 147.365371
L 388.8 147.365371
" clip-path="url(#pae5630aada)" style="fill: none; stroke: #ffffff; stroke-width: 0.8; stroke-linecap: round"/>
     </g>
     <g id="text_14">
      <!-- 140 -->
      <g style="fill: #262626" transform="translate(29 151.015371) scale(0.1 -0.1)">
       <use xlink:href="#JetBrainsMonoNFM-Regular-31"/>
       <use xlink:href="#JetBrainsMonoNFM-Regular-34" x="59.999985"/>
       <use xlink:href="#JetBrainsMonoNFM-Regular-30" x="119.999969"/>
      </g>
     </g>
    </g>
    <g id="ytick_6">
     <g id="line2d_14">
      <path d="M 54 120.542632
L 388.8 120.542632
" clip-path="url(#pae5630aada)" style="fill: none; stroke: #ffffff; stroke-width: 0.8; stroke-linecap: round"/>
     </g>
     <g id="text_15">
      <!-- 160 -->
      <g style="fill: #262626" transform="translate(29 124.192632) scale(0.1 -0.1)">
       <use xlink:href="#JetBrainsMonoNFM-Regular-31"/>
       <use xlink:href="#JetBrainsMonoNFM-Regular-36" x="59.999985"/>
       <use xlink:href="#JetBrainsMonoNFM-Regular-30" x="119.999969"/>
      </g>
     </g>
    </g>
    <g id="ytick_7">
     <g id="line2d_15">
      <path d="M 54 93.719893
L 388.8 93.719893
" clip-path="url(#pae5630aada)" style="fill: none; stroke: #ffffff; stroke-width: 0.8; stroke-linecap: round"/>
     </g>
     <g id="text_16">
      <!-- 180 -->
      <g style="fill: #262626" transform="translate(29 97.369893) scale(0.1 -0.1)">
       <use xlink:href="#JetBrainsMonoNFM-Regular-31"/>
       <use xlink:href="#JetBrainsMonoNFM-Regular-38" x="59.999985"/>
       <use xlink:href="#JetBrainsMonoNFM-Regular-30" x="119.999969"/>
      </g>
     </g>
    </g>
    <g id="ytick_8">
     <g id="line2d_16">
      <path d="M 54 66.897155
L 388.8 66.897155
" clip-path="url(#pae5630aada)" style="fill: none; stroke: #ffffff; stroke-width: 0.8; stroke-linecap: round"/>
     </g>
     <g id="text_17">
      <!-- 200 -->
      <g style="fill: #262626" transform="translate(29 70.547155) scale(0.1 -0.1)">
       <use xlink:href="#JetBrainsMonoNFM-Regular-32"/>
       <use xlink:href="#JetBrainsMonoNFM-Regular-30" x="59.999985"/>
       <use xlink:href="#JetBrainsMonoNFM-Regular-30" x="119.999969"/>
      </g>
     </g>
    </g>
    <g id="ytick_9">
     <g id="line2d_17">
      <path d="M 54 40.074416
L 388.8 40.074416
" clip-path="url(#pae5630aada)" style="fill: none; stroke: #ffffff; stroke-width: 0.8; stroke-linecap: round"/>
     </g>
     <g id="text_18">
      <!-- 220 -->
      <g style="fill: #262626" transform="translate(29 43.724416) scale(0.1 -0.1)">
       <use xlink:href="#JetBrainsMonoNFM-Regular-32"/>
       <use xlink:href="#JetBrainsMonoNFM-Regular-32" x="59.999985"/>
       <use xlink:href="#JetBrainsMonoNFM-Regular-30" x="119.999969"/>
      </g>
     </g>
    </g>
    <g id="text_19">
     <!-- Mean of Perpendicular Path Deviation $[m]$ -->
     <g style="fill: #262626" transform="translate(22.36 252.54) rotate(-90) scale(0.12 -0.12)">
      <defs>
       <path id="STIXTwoText-4d" d="M 1683 0
L 179 0
L 179 192
Q 442 192 570 240
Q 698 288 742 448
Q 787 608 787 934
L 787 3424
Q 787 3667 742 3792
Q 698 3917 573 3965
Q 448 4013 192 4013
L 192 4205
L 1498 4205
L 2848 986
L 2874 986
L 4218 4205
L 5434 4205
L 5434 4013
Q 5210 4013 5088 3965
Q 4966 3917 4921 3792
Q 4877 3667 4877 3430
L 4877 762
Q 4877 531 4921 406
Q 4966 282 5088 237
Q 5210 192 5440 192
L 5440 0
L 3738 0
L 3738 192
Q 3987 192 4108 237
Q 4230 282 4268 406
Q 4307 531 4307 762
L 4307 3520
L 4282 3520
L 2790 0
L 2637 0
L 1126 3514
L 1101 3514
L 1101 934
Q 1101 608 1145 448
Q 1190 288 1315 240
Q 1440 192 1683 192
L 1683 0
z
" transform="scale(0.015625)"/>
       <path id="STIXTwoText-6e" d="M 3552 0
L 2074 0
L 2074 179
Q 2304 179 2403 220
Q 2502 262 2524 364
Q 2547 467 2547 646
L 2547 1805
Q 2547 2189 2460 2381
Q 2374 2573 2240 2633
Q 2106 2694 1958 2694
Q 1773 2694 1625 2620
Q 1478 2547 1360 2444
Q 1242 2342 1139 2253
L 1094 2566
L 1190 2566
Q 1453 2797 1686 2950
Q 1920 3104 2221 3104
Q 2656 3104 2867 2809
Q 3078 2515 3078 1965
L 3078 646
Q 3078 467 3107 364
Q 3136 262 3238 220
Q 3341 179 3552 179
L 3552 0
z
M 1670 0
L 205 0
L 205 179
Q 422 179 515 220
Q 608 262 630 364
Q 653 467 653 646
L 653 2445
Q 653 2618 582 2672
Q 512 2726 384 2726
Q 301 2726 256 2720
Q 211 2714 211 2714
L 211 2899
L 1024 3085
L 1171 3085
L 1165 2496
L 1184 2362
L 1184 646
Q 1184 467 1209 364
Q 1235 262 1337 220
Q 1440 179 1670 179
L 1670 0
z
" transform="scale(0.015625)"/>
       <path id="STIXTwoText-66" d="M 1837 0
L 115 0
L 115 186
Q 352 186 464 227
Q 576 269 614 390
Q 653 512 653 762
L 653 2797
Q 653 3162 669 3395
Q 685 3629 729 3789
Q 774 3949 858 4096
Q 986 4320 1181 4441
Q 1376 4563 1709 4563
Q 1920 4563 2080 4512
Q 2240 4461 2333 4361
Q 2426 4262 2426 4115
Q 2426 3974 2349 3907
Q 2272 3840 2163 3840
Q 2042 3840 1965 3920
Q 1888 4000 1818 4090
Q 1754 4179 1680 4252
Q 1606 4326 1491 4326
Q 1312 4326 1248 4163
Q 1184 4000 1184 3597
L 1184 762
Q 1184 512 1235 390
Q 1286 269 1427 227
Q 1568 186 1837 186
L 1837 0
z
M 1965 2726
L 166 2726
L 166 2995
L 1965 2995
L 1965 2726
z
" transform="scale(0.015625)"/>
       <path id="STIXTwoText-70" d="M 1760 -1408
L 141 -1408
L 141 -1229
Q 442 -1229 525 -1129
Q 608 -1030 608 -762
L 608 2406
Q 608 2592 566 2662
Q 525 2733 365 2733
Q 301 2733 230 2726
Q 160 2720 160 2720
L 160 2906
L 966 3085
L 1126 3085
L 1126 2547
L 1146 2547
Q 1376 2816 1616 2960
Q 1856 3104 2138 3104
Q 2458 3104 2698 2921
Q 2938 2739 3075 2416
Q 3213 2093 3213 1670
Q 3213 1126 3024 739
Q 2835 352 2515 144
Q 2195 -64 1811 -64
Q 1632 -64 1469 -22
Q 1306 19 1165 115
L 1139 115
L 1139 -723
Q 1139 -928 1190 -1037
Q 1242 -1146 1376 -1184
Q 1510 -1222 1760 -1222
L 1760 -1408
z
M 1843 186
Q 2182 186 2406 506
Q 2630 826 2630 1491
Q 2630 2099 2432 2384
Q 2234 2669 1875 2669
Q 1619 2669 1424 2534
Q 1229 2400 1139 2278
L 1139 608
Q 1203 544 1299 441
Q 1395 339 1529 262
Q 1664 186 1843 186
z
" transform="scale(0.015625)"/>
       <path id="STIXTwoText-64" d="M 1306 -51
Q 947 -51 700 141
Q 454 333 332 662
Q 211 992 211 1402
Q 211 1933 409 2313
Q 608 2694 944 2899
Q 1280 3104 1683 3104
Q 1837 3104 1987 3065
Q 2138 3027 2278 2950
L 2304 2950
L 2304 3789
Q 2304 4000 2256 4064
Q 2208 4128 2022 4128
Q 1978 4128 1917 4121
Q 1856 4115 1856 4115
L 1856 4294
L 2662 4518
L 2835 4518
L 2835 685
Q 2835 435 2905 361
Q 2976 288 3155 288
L 3290 288
L 3290 115
L 2470 -32
L 2323 -32
L 2323 410
L 2298 410
Q 2118 250 1872 99
Q 1626 -51 1306 -51
z
M 1606 410
Q 1830 410 1984 470
Q 2138 531 2304 646
L 2304 2336
Q 2266 2534 2118 2691
Q 1971 2848 1670 2848
Q 1267 2848 1017 2553
Q 768 2259 768 1651
Q 768 992 982 701
Q 1197 410 1606 410
z
" transform="scale(0.015625)"/>
       <path id="STIXTwoText-63" d="M 2611 947
L 2733 858
Q 2611 602 2454 390
Q 2298 179 2067 57
Q 1837 -64 1491 -64
Q 1094 -64 806 128
Q 518 320 364 662
Q 211 1005 211 1446
Q 211 1952 380 2323
Q 550 2694 873 2899
Q 1197 3104 1658 3104
Q 2112 3104 2371 2905
Q 2630 2707 2630 2426
Q 2630 2285 2563 2211
Q 2496 2138 2362 2138
Q 2221 2138 2147 2211
Q 2074 2285 2029 2393
Q 1984 2502 1936 2611
Q 1888 2720 1801 2793
Q 1715 2867 1549 2867
Q 1158 2867 937 2582
Q 717 2298 717 1747
Q 717 1165 957 790
Q 1197 416 1690 416
Q 2003 416 2198 544
Q 2394 672 2611 947
z
" transform="scale(0.015625)"/>
       <path id="STIXTwoText-68" d="M 3558 0
L 2086 0
L 2086 186
Q 2310 186 2406 230
Q 2502 275 2528 371
Q 2554 467 2554 621
L 2554 1728
Q 2554 1990 2515 2211
Q 2477 2432 2352 2563
Q 2227 2694 1965 2694
Q 1766 2694 1561 2588
Q 1357 2483 1094 2227
L 1101 2579
L 1190 2579
Q 1491 2861 1731 2982
Q 1971 3104 2227 3104
Q 2502 3104 2672 2995
Q 2842 2886 2931 2710
Q 3021 2534 3053 2326
Q 3085 2118 3085 1920
L 3085 646
Q 3085 390 3171 288
Q 3258 186 3558 186
L 3558 0
z
M 1645 0
L 192 0
L 192 186
Q 442 186 541 256
Q 640 326 640 595
L 640 3872
Q 640 4038 547 4083
Q 454 4128 326 4128
Q 250 4128 195 4121
Q 141 4115 141 4115
L 141 4294
L 998 4518
L 1171 4518
L 1171 621
Q 1171 454 1196 358
Q 1222 262 1324 224
Q 1427 186 1645 186
L 1645 0
z
" transform="scale(0.015625)"/>
       <path id="STIXTwoText-44" d="M 2054 0
L 224 0
L 224 192
Q 506 192 640 233
Q 774 275 812 406
Q 851 538 851 794
L 851 3475
Q 851 3712 793 3824
Q 736 3936 601 3974
Q 467 4013 224 4013
L 224 4205
L 1984 4205
Q 2483 4205 2915 4099
Q 3347 3994 3667 3750
Q 3987 3507 4169 3110
Q 4352 2714 4352 2125
Q 4352 1574 4189 1171
Q 4026 768 3722 509
Q 3418 250 2995 125
Q 2573 0 2054 0
z
M 1818 243
Q 2400 243 2816 400
Q 3232 557 3456 953
Q 3680 1350 3680 2067
Q 3680 2982 3213 3462
Q 2746 3942 1754 3942
Q 1677 3942 1603 3942
Q 1530 3942 1440 3930
L 1440 262
Q 1536 256 1629 249
Q 1722 243 1818 243
z
" transform="scale(0.015625)"/>
       <path id="STIXTwoText-76" d="M 1696 -38
L 1389 -38
L 435 2374
Q 352 2573 288 2672
Q 224 2771 141 2806
Q 58 2842 -83 2842
L -83 3027
L 1267 3027
L 1267 2842
Q 1082 2842 1008 2800
Q 934 2758 934 2682
Q 934 2618 953 2560
Q 973 2502 998 2432
L 1542 1005
L 1664 621
L 1702 621
L 1837 1011
L 2387 2458
Q 2394 2483 2413 2537
Q 2432 2592 2432 2669
Q 2432 2778 2336 2810
Q 2240 2842 2067 2842
L 2067 3027
L 3187 3027
L 3187 2842
Q 3002 2842 2902 2755
Q 2803 2669 2707 2419
L 1696 -38
z
" transform="scale(0.015625)"/>
       <path id="STIXGeneral-Italic-6d" d="M 4506 672
L 4474 627
Q 3981 -58 3552 -58
Q 3296 -58 3296 237
Q 3296 333 3379 659
L 3750 2112
Q 3795 2291 3795 2355
Q 3795 2413 3756 2451
Q 3718 2490 3667 2490
Q 3366 2490 2829 1741
Q 2592 1408 2457 1072
Q 2323 736 2138 0
L 1658 0
L 1830 595
Q 2266 2099 2266 2330
Q 2266 2490 2125 2490
Q 1965 2490 1702 2237
Q 1440 1984 1171 1574
Q 1011 1325 899 1043
Q 787 762 557 0
L 77 0
L 352 922
Q 704 2093 704 2381
Q 704 2522 442 2522
L 282 2522
L 282 2624
L 1318 2822
L 1338 2810
L 966 1472
Q 1798 2822 2374 2822
Q 2560 2822 2659 2720
Q 2758 2618 2758 2438
Q 2758 2195 2502 1466
Q 2842 2003 3069 2275
Q 3296 2547 3526 2694
Q 3731 2822 3930 2822
Q 4102 2822 4201 2710
Q 4301 2598 4301 2419
Q 4301 2336 4282 2240
L 3846 634
Q 3782 390 3782 346
Q 3782 243 3859 243
Q 4000 243 4275 582
L 4410 749
L 4506 672
z
" transform="scale(0.015625)"/>
      </defs>
      <use xlink:href="#STIXTwoText-4d" transform="translate(0 0.703125)"/>
      <use xlink:href="#STIXTwoText-65" transform="translate(89.499985 0.703125)"/>
      <use xlink:href="#STIXTwoText-61" transform="translate(135.899979 0.703125)"/>
      <use xlink:href="#STIXTwoText-6e" transform="translate(183.899963 0.703125)"/>
      <use xlink:href="#STIXTwoText-20" transform="translate(241.499954 0.703125)"/>
      <use xlink:href="#STIXTwoText-6f" transform="translate(264.999939 0.703125)"/>
      <use xlink:href="#STIXTwoText-66" transform="translate(316.399933 0.703125)"/>
      <use xlink:href="#STIXTwoText-20" transform="translate(347.09993 0.703125)"/>
      <use xlink:href="#STIXTwoText-50" transform="translate(370.599915 0.703125)"/>
      <use xlink:href="#STIXTwoText-65" transform="translate(427.499908 0.703125)"/>
      <use xlink:href="#STIXTwoText-72" transform="translate(473.899902 0.703125)"/>
      <use xlink:href="#STIXTwoText-70" transform="translate(511.899887 0.703125)"/>
      <use xlink:href="#STIXTwoText-65" transform="translate(565.599884 0.703125)"/>
      <use xlink:href="#STIXTwoText-6e" transform="translate(611.999878 0.703125)"/>
      <use xlink:href="#STIXTwoText-64" transform="translate(669.599869 0.703125)"/>
      <use xlink:href="#STIXTwoText-69" transform="translate(723.499863 0.703125)"/>
      <use xlink:href="#STIXTwoText-63" transform="translate(751.999847 0.703125)"/>
      <use xlink:href="#STIXTwoText-75" transform="translate(796.599838 0.703125)"/>
      <use xlink:href="#STIXTwoText-6c" transform="translate(853.599823 0.703125)"/>
      <use xlink:href="#STIXTwoText-61" transform="translate(881.899811 0.703125)"/>
      <use xlink:href="#STIXTwoText-72" transform="translate(929.899796 0.703125)"/>
      <use xlink:href="#STIXTwoText-20" transform="translate(967.89978 0.703125)"/>
      <use xlink:href="#STIXTwoText-50" transform="translate(991.399765 0.703125)"/>
      <use xlink:href="#STIXTwoText-61" transform="translate(1048.299759 0.703125)"/>
      <use xlink:href="#STIXTwoText-74" transform="translate(1096.299744 0.703125)"/>
      <use xlink:href="#STIXTwoText-68" transform="translate(1127.799728 0.703125)"/>
      <use xlink:href="#STIXTwoText-20" transform="translate(1185.499725 0.703125)"/>
      <use xlink:href="#STIXTwoText-44" transform="translate(1208.99971 0.703125)"/>
      <use xlink:href="#STIXTwoText-65" transform="translate(1281.999695 0.703125)"/>
      <use xlink:href="#STIXTwoText-76" transform="translate(1328.399689 0.703125)"/>
      <use xlink:href="#STIXTwoText-69" transform="translate(1376.49968 0.703125)"/>
      <use xlink:href="#STIXTwoText-61" transform="translate(1404.999664 0.703125)"/>
      <use xlink:href="#STIXTwoText-74" transform="translate(1452.999649 0.703125)"/>
      <use xlink:href="#STIXTwoText-69" transform="translate(1484.499634 0.703125)"/>
      <use xlink:href="#STIXTwoText-6f" transform="translate(1512.999619 0.703125)"/>
      <use xlink:href="#STIXTwoText-6e" transform="translate(1564.399612 0.703125)"/>
      <use xlink:href="#STIXTwoText-20" transform="translate(1621.999603 0.703125)"/>
      <use xlink:href="#STIXGeneral-Regular-5b" transform="translate(1645.499588 0.703125)"/>
      <use xlink:href="#STIXGeneral-Italic-6d" transform="translate(1678.799576 0.703125)"/>
      <use xlink:href="#STIXGeneral-Regular-5d" transform="translate(1750.999557 0.703125)"/>
     </g>
    </g>
   </g>
   <g id="line2d_18">
    <path d="M 54 246.24
L 101.15493 243.98386
L 148.309859 239.55141
L 195.464789 231.270705
L 242.619718 216.56787
L 289.774648 188.23495
L 336.929577 160.567024
L 384.084507 62.426548
" clip-path="url(#pae5630aada)" style="fill: none; stroke: #7287fd; stroke-width: 1.5; stroke-linecap: round"/>
   </g>
   <g id="line2d_19">
    <path d="M 54 230.906548
L 101.15493 228.343176
L 148.309859 221.895616
L 195.464789 207.994105
L 242.619718 202.069246
L 289.774648 172.281797
L 336.929577 127.84617
L 384.084507 44.64
" clip-path="url(#pae5630aada)" style="fill: none; stroke: #40a02b; stroke-width: 1.5; stroke-linecap: round"/>
   </g>
   <g id="patch_3">
    <path d="M 54 256.32
L 54 34.56
" style="fill: none; stroke: #ffffff; stroke-width: 0.8; stroke-linejoin: miter; stroke-linecap: square"/>
   </g>
   <g id="patch_4">
    <path d="M 388.8 256.32
L 388.8 34.56
" style="fill: none; stroke: #ffffff; stroke-width: 0.8; stroke-linejoin: miter; stroke-linecap: square"/>
   </g>
   <g id="patch_5">
    <path d="M 54 256.32
L 388.8 256.32
" style="fill: none; stroke: #ffffff; stroke-width: 0.8; stroke-linejoin: miter; stroke-linecap: square"/>
   </g>
   <g id="patch_6">
    <path d="M 54 34.56
L 388.8 34.56
" style="fill: none; stroke: #ffffff; stroke-width: 0.8; stroke-linejoin: miter; stroke-linecap: square"/>
   </g>
   <g id="legend_1">
    <g id="patch_7">
     <path d="M 61.7 75.060625
L 186.715 75.060625
Q 188.915 75.060625 188.915 72.860625
L 188.915 42.26
Q 188.915 40.06 186.715 40.06
L 61.7 40.06
Q 59.5 40.06 59.5 42.26
L 59.5 72.860625
Q 59.5 75.060625 61.7 75.060625
z
" style="fill: #eff1f5; opacity: 0.8; stroke: #7c7f93; stroke-linejoin: miter"/>
    </g>
    <g id="line2d_20">
     <path d="M 63.9 48.375313
L 74.9 48.375313
L 85.9 48.375313
" style="fill: none; stroke: #7287fd; stroke-width: 1.5; stroke-linecap: round"/>
    </g>
    <g id="text_20">
     <!-- Path Tracking -->
     <g style="fill: #4c4f69" transform="translate(94.7 52.225313) scale(0.11 -0.11)">
      <defs>
       <path id="STIXTwoText-54" d="M 2861 0
L 1005 0
L 1005 192
Q 1274 192 1408 233
Q 1542 275 1587 412
Q 1632 550 1632 838
L 1632 3917
L 1222 3917
Q 870 3917 694 3846
Q 518 3776 441 3590
Q 365 3405 294 3053
L 96 3053
L 166 4205
L 3706 4205
L 3757 3053
L 3558 3053
Q 3488 3405 3411 3590
Q 3334 3776 3161 3846
Q 2989 3917 2630 3917
L 2227 3917
L 2227 838
Q 2227 550 2272 412
Q 2317 275 2451 233
Q 2586 192 2861 192
L 2861 0
z
" transform="scale(0.015625)"/>
       <path id="STIXTwoText-6b" d="M 1645 0
L 192 0
L 192 186
Q 480 186 560 266
Q 640 346 640 608
L 640 3808
Q 640 4013 592 4073
Q 544 4134 384 4134
Q 320 4134 243 4128
Q 166 4122 166 4122
L 166 4294
L 998 4518
L 1171 4518
L 1171 1696
L 1210 1696
L 2035 2515
Q 2054 2534 2102 2588
Q 2150 2643 2150 2720
Q 2150 2784 2086 2809
Q 2022 2835 1837 2835
L 1837 3027
L 3219 3027
L 3219 2835
Q 3066 2835 2947 2806
Q 2829 2778 2707 2698
Q 2586 2618 2410 2470
Q 2234 2323 1965 2086
L 1645 1824
L 2771 557
Q 2925 384 3024 304
Q 3123 224 3219 205
Q 3315 186 3450 186
L 3450 0
L 2035 0
L 2035 186
Q 2176 186 2230 202
Q 2285 218 2285 262
Q 2285 307 2262 348
Q 2240 390 2214 416
L 1210 1555
L 1171 1555
L 1171 582
Q 1171 339 1257 262
Q 1344 186 1645 186
L 1645 0
z
" transform="scale(0.015625)"/>
       <path id="STIXTwoText-67" d="M 1222 -1504
Q 806 -1504 566 -1401
Q 326 -1299 230 -1136
Q 134 -973 134 -800
Q 134 -640 265 -464
Q 397 -288 653 -38
L 653 32
L 845 -6
Q 723 -211 678 -342
Q 634 -474 634 -582
Q 634 -858 870 -998
Q 1107 -1139 1594 -1139
Q 1971 -1139 2204 -1043
Q 2438 -947 2544 -806
Q 2650 -666 2650 -531
Q 2650 -358 2538 -265
Q 2426 -173 2253 -134
Q 2080 -96 1888 -86
Q 1696 -77 1536 -77
Q 1248 -70 1101 -70
Q 954 -70 890 -67
Q 826 -64 774 -64
L 710 -32
Q 614 0 518 70
Q 422 141 358 240
Q 294 339 294 448
Q 294 563 361 688
Q 429 813 550 937
Q 672 1062 819 1178
L 819 1235
L 986 1114
Q 954 1082 909 998
Q 864 915 832 822
Q 800 730 800 666
Q 800 570 867 515
Q 934 461 1097 435
Q 1261 410 1555 410
Q 1958 410 2281 371
Q 2605 333 2790 173
Q 2976 13 2976 -352
Q 2976 -672 2819 -893
Q 2662 -1114 2403 -1248
Q 2144 -1382 1833 -1443
Q 1523 -1504 1222 -1504
z
M 1517 998
Q 1350 998 1206 1030
Q 1062 1062 928 1107
L 858 1171
Q 691 1261 572 1382
Q 454 1504 390 1673
Q 326 1843 326 2061
Q 326 2381 473 2614
Q 621 2848 883 2976
Q 1146 3104 1485 3104
Q 1677 3104 1846 3069
Q 2016 3034 2163 2963
Q 2310 2893 2419 2797
L 2419 2630
Q 2490 2534 2570 2374
Q 2650 2214 2650 1971
Q 2650 1677 2506 1456
Q 2362 1235 2109 1116
Q 1856 998 1517 998
z
M 1523 1222
Q 1766 1222 1923 1388
Q 2080 1555 2080 2010
Q 2080 2400 1913 2637
Q 1747 2874 1440 2874
Q 1190 2874 1040 2682
Q 890 2490 890 2086
Q 890 1677 1050 1449
Q 1210 1222 1523 1222
z
M 3021 2989
L 3021 2643
L 2330 2662
L 2106 2938
L 3021 2989
z
" transform="scale(0.015625)"/>
      </defs>
      <use xlink:href="#STIXTwoText-50"/>
      <use xlink:href="#STIXTwoText-61" x="56.899994"/>
      <use xlink:href="#STIXTwoText-74" x="104.899979"/>
      <use xlink:href="#STIXTwoText-68" x="136.399963"/>
      <use xlink:href="#STIXTwoText-20" x="194.09996"/>
      <use xlink:href="#STIXTwoText-54" x="217.599945"/>
      <use xlink:href="#STIXTwoText-72" x="277.899933"/>
      <use xlink:href="#STIXTwoText-61" x="315.899918"/>
      <use xlink:href="#STIXTwoText-63" x="363.899902"/>
      <use xlink:href="#STIXTwoText-6b" x="408.499893"/>
      <use xlink:href="#STIXTwoText-69" x="462.69989"/>
      <use xlink:href="#STIXTwoText-6e" x="491.199875"/>
      <use xlink:href="#STIXTwoText-67" x="548.799866"/>
     </g>
    </g>
    <g id="line2d_21">
     <path d="M 63.9 64.225625
L 74.9 64.225625
L 85.9 64.225625
" style="fill: none; stroke: #40a02b; stroke-width: 1.5; stroke-linecap: round"/>
    </g>
    <g id="text_21">
     <!-- Waypoint Tracking -->
     <g style="fill: #4c4f69" transform="translate(94.7 68.075625) scale(0.11 -0.11)">
      <defs>
       <path id="STIXTwoText-57" d="M 4256 -38
L 4083 -38
L 3085 2598
L 2982 2816
L 2771 3405
Q 2669 3686 2585 3814
Q 2502 3942 2393 3977
Q 2285 4013 2099 4013
L 2099 4205
L 3770 4205
L 3770 4013
Q 3283 4013 3283 3795
Q 3283 3718 3321 3616
Q 3360 3514 3392 3424
L 4058 1696
L 4269 1062
L 4301 1062
L 5030 3187
Q 5062 3290 5088 3386
Q 5114 3482 5130 3574
Q 5146 3667 5146 3744
Q 5146 3891 5043 3952
Q 4941 4013 4717 4013
L 4717 4205
L 6035 4205
L 6035 4013
Q 5811 4006 5696 3910
Q 5581 3814 5491 3571
L 4256 -38
z
M 2131 -38
L 1971 -38
L 640 3315
Q 493 3718 339 3862
Q 186 4006 -64 4013
L -64 4205
L 1587 4205
L 1587 4013
Q 1344 4013 1254 3958
Q 1165 3904 1165 3802
Q 1165 3680 1254 3450
L 1997 1581
L 2195 1043
L 2227 1043
L 2982 2995
L 3283 2502
L 3098 2502
L 2131 -38
z
" transform="scale(0.015625)"/>
      </defs>
      <use xlink:href="#STIXTwoText-57"/>
      <use xlink:href="#STIXTwoText-61" x="94.399994"/>
      <use xlink:href="#STIXTwoText-79" x="142.399979"/>
      <use xlink:href="#STIXTwoText-70" x="190.699966"/>
      <use xlink:href="#STIXTwoText-6f" x="244.399963"/>
      <use xlink:href="#STIXTwoText-69" x="295.799957"/>
      <use xlink:href="#STIXTwoText-6e" x="324.299942"/>
      <use xlink:href="#STIXTwoText-74" x="381.899933"/>
      <use xlink:href="#STIXTwoText-20" x="413.399918"/>
      <use xlink:href="#STIXTwoText-54" x="436.899902"/>
      <use xlink:href="#STIXTwoText-72" x="497.19989"/>
      <use xlink:href="#STIXTwoText-61" x="535.199875"/>
      <use xlink:href="#STIXTwoText-63" x="583.19986"/>
      <use xlink:href="#STIXTwoText-6b" x="627.79985"/>
      <use xlink:href="#STIXTwoText-69" x="681.999847"/>
      <use xlink:href="#STIXTwoText-6e" x="710.499832"/>
      <use xlink:href="#STIXTwoText-67" x="768.099823"/>
     </g>
    </g>
   </g>
  </g>
 </g>
 <defs>
  <clipPath id="pae5630aada">
   <rect x="54" y="34.56" width="334.8" height="221.76"/>
  </clipPath>
 </defs>
</svg>
