<?xml version="1.0" encoding="utf-8" standalone="no"?>
<!DOCTYPE svg PUBLIC "-//W3C//DTD SVG 1.1//EN"
  "http://www.w3.org/Graphics/SVG/1.1/DTD/svg11.dtd">
<svg xmlns:xlink="http://www.w3.org/1999/xlink" width="432pt" height="144pt" viewBox="0 0 432 144" xmlns="http://www.w3.org/2000/svg" version="1.1">
 <metadata>
  <rdf:RDF xmlns:dc="http://purl.org/dc/elements/1.1/" xmlns:cc="http://creativecommons.org/ns#" xmlns:rdf="http://www.w3.org/1999/02/22-rdf-syntax-ns#">
   <cc:Work>
    <dc:type rdf:resource="http://purl.org/dc/dcmitype/StillImage"/>
    <dc:date>1980-01-01T00:00:00+00:00</dc:date>
    <dc:format>image/svg+xml</dc:format>
    <dc:creator>
     <cc:Agent>
      <dc:title>Matplotlib v3.8.4, https://matplotlib.org/</dc:title>
     </cc:Agent>
    </dc:creator>
   </cc:Work>
  </rdf:RDF>
 </metadata>
 <defs>
  <style type="text/css">*{stroke-linejoin: round; stroke-linecap: butt}</style>
 </defs>
 <g id="figure_1">
  <g id="patch_1">
   <path d="M 0 144
L 432 144
L 432 0
L 0 0
L 0 144
z
" style="fill: none"/>
  </g>
  <g id="axes_1">
   <g id="patch_2">
    <path d="M 54.11 127.44
L 421.2 127.44
L 421.2 14.4
L 54.11 14.4
z
" style="fill: #eff1f5"/>
   </g>
   <g id="matplotlib.axis_1"/>
   <g id="matplotlib.axis_2">
    <g id="ytick_1">
     <g id="line2d_1">
      <path d="M 54.11 127.44
L 421.2 127.44
" clip-path="url(#pbda7e65683)" style="fill: none; stroke: #ffffff; stroke-width: 0.8; stroke-linecap: round"/>
     </g>
     <g id="text_1">
      <!-- 100 -->
      <g style="fill: #4c4f69" transform="translate(29.11 131.09) scale(0.1 -0.1)">
       <defs>
        <path id="JetBrainsMonoNFM-Regular-31" d="M 576 0
L 576 525
L 1843 525
L 1843 4173
L 576 3226
L 576 3885
L 1632 4672
L 2419 4672
L 2419 525
L 3456 525
L 3456 0
L 576 0
z
" transform="scale(0.015625)"/>
        <path id="JetBrainsMonoNFM-Regular-30" d="M 1920 -64
Q 1274 -64 893 310
Q 512 685 512 1312
L 512 3360
Q 512 3987 893 4361
Q 1274 4736 1920 4736
Q 2566 4736 2947 4361
Q 3328 3987 3328 3360
L 3328 1312
Q 3328 896 3155 585
Q 2982 275 2665 105
Q 2349 -64 1920 -64
z
M 1920 429
Q 2304 429 2537 675
Q 2771 922 2771 1312
L 2771 3360
Q 2771 3750 2537 3996
Q 2304 4243 1920 4243
Q 1536 4243 1302 3996
Q 1069 3750 1069 3360
L 1069 1312
Q 1069 922 1302 675
Q 1536 429 1920 429
z
M 1920 1984
Q 1747 1984 1641 2080
Q 1536 2176 1536 2355
Q 1536 2528 1641 2621
Q 1747 2714 1920 2714
Q 2093 2714 2198 2621
Q 2304 2528 2304 2355
Q 2304 2176 2198 2080
Q 2093 1984 1920 1984
z
" transform="scale(0.015625)"/>
       </defs>
       <use xlink:href="#JetBrainsMonoNFM-Regular-31"/>
       <use xlink:href="#JetBrainsMonoNFM-Regular-30" x="59.999985"/>
       <use xlink:href="#JetBrainsMonoNFM-Regular-30" x="119.999969"/>
      </g>
     </g>
    </g>
    <g id="ytick_2">
     <g id="line2d_2">
      <path d="M 54.11 99.18
L 421.2 99.18
" clip-path="url(#pbda7e65683)" style="fill: none; stroke: #ffffff; stroke-width: 0.8; stroke-linecap: round"/>
     </g>
     <g id="text_2">
      <!-- 105 -->
      <g style="fill: #4c4f69" transform="translate(29.11 102.83) scale(0.1 -0.1)">
       <defs>
        <path id="JetBrainsMonoNFM-Regular-35" d="M 1882 -64
Q 1235 -64 857 297
Q 480 659 480 1280
L 1056 1280
Q 1056 896 1280 672
Q 1504 448 1888 448
Q 2272 448 2496 672
Q 2720 896 2720 1280
L 2720 1568
Q 2720 1952 2502 2176
Q 2285 2400 1914 2400
L 640 2400
L 640 4672
L 3130 4672
L 3130 4147
L 1178 4147
L 1190 2925
L 1946 2925
Q 2592 2925 2944 2569
Q 3296 2214 3296 1568
L 3296 1280
Q 3296 659 2915 297
Q 2534 -64 1882 -64
z
" transform="scale(0.015625)"/>
       </defs>
       <use xlink:href="#JetBrainsMonoNFM-Regular-31"/>
       <use xlink:href="#JetBrainsMonoNFM-Regular-30" x="59.999985"/>
       <use xlink:href="#JetBrainsMonoNFM-Regular-35" x="119.999969"/>
      </g>
     </g>
    </g>
    <g id="ytick_3">
     <g id="line2d_3">
      <path d="M 54.11 70.92
L 421.2 70.92
" clip-path="url(#pbda7e65683)" style="fill: none; stroke: #ffffff; stroke-width: 0.8; stroke-linecap: round"/>
     </g>
     <g id="text_3">
      <!-- 110 -->
      <g style="fill: #4c4f69" transform="translate(29.11 74.57) scale(0.1 -0.1)">
       <use xlink:href="#JetBrainsMonoNFM-Regular-31"/>
       <use xlink:href="#JetBrainsMonoNFM-Regular-31" x="59.999985"/>
       <use xlink:href="#JetBrainsMonoNFM-Regular-30" x="119.999969"/>
      </g>
     </g>
    </g>
    <g id="ytick_4">
     <g id="line2d_4">
      <path d="M 54.11 42.66
L 421.2 42.66
" clip-path="url(#pbda7e65683)" style="fill: none; stroke: #ffffff; stroke-width: 0.8; stroke-linecap: round"/>
     </g>
     <g id="text_4">
      <!-- 115 -->
      <g style="fill: #4c4f69" transform="translate(29.11 46.31) scale(0.1 -0.1)">
       <use xlink:href="#JetBrainsMonoNFM-Regular-31"/>
       <use xlink:href="#JetBrainsMonoNFM-Regular-31" x="59.999985"/>
       <use xlink:href="#JetBrainsMonoNFM-Regular-35" x="119.999969"/>
      </g>
     </g>
    </g>
    <g id="ytick_5">
     <g id="line2d_5">
      <path d="M 54.11 14.4
L 421.2 14.4
" clip-path="url(#pbda7e65683)" style="fill: none; stroke: #ffffff; stroke-width: 0.8; stroke-linecap: round"/>
     </g>
     <g id="text_5">
      <!-- 120 -->
      <g style="fill: #4c4f69" transform="translate(29.11 18.05) scale(0.1 -0.1)">
       <defs>
        <path id="JetBrainsMonoNFM-Regular-32" d="M 550 0
L 550 531
L 2106 2195
Q 2445 2554 2585 2835
Q 2726 3117 2726 3386
Q 2726 3770 2505 3997
Q 2285 4224 1907 4224
Q 1517 4224 1289 3990
Q 1062 3757 1062 3360
L 486 3360
Q 506 3994 890 4365
Q 1274 4736 1907 4736
Q 2554 4736 2934 4371
Q 3315 4006 3315 3379
Q 3315 3046 3132 2675
Q 2950 2304 2509 1843
L 1248 525
L 3373 525
L 3373 0
L 550 0
z
" transform="scale(0.015625)"/>
       </defs>
       <use xlink:href="#JetBrainsMonoNFM-Regular-31"/>
       <use xlink:href="#JetBrainsMonoNFM-Regular-32" x="59.999985"/>
       <use xlink:href="#JetBrainsMonoNFM-Regular-30" x="119.999969"/>
      </g>
     </g>
    </g>
    <g id="text_6">
     <!-- Distance Travelled [$m$] -->
     <g style="fill: #4c4f69" transform="translate(22.47 128.28) rotate(-90) scale(0.12 -0.12)">
      <defs>
       <path id="STIXTwoText-44" d="M 2054 0
L 224 0
L 224 192
Q 506 192 640 233
Q 774 275 812 406
Q 851 538 851 794
L 851 3475
Q 851 3712 793 3824
Q 736 3936 601 3974
Q 467 4013 224 4013
L 224 4205
L 1984 4205
Q 2483 4205 2915 4099
Q 3347 3994 3667 3750
Q 3987 3507 4169 3110
Q 4352 2714 4352 2125
Q 4352 1574 4189 1171
Q 4026 768 3722 509
Q 3418 250 2995 125
Q 2573 0 2054 0
z
M 1818 243
Q 2400 243 2816 400
Q 3232 557 3456 953
Q 3680 1350 3680 2067
Q 3680 2982 3213 3462
Q 2746 3942 1754 3942
Q 1677 3942 1603 3942
Q 1530 3942 1440 3930
L 1440 262
Q 1536 256 1629 249
Q 1722 243 1818 243
z
" transform="scale(0.015625)"/>
       <path id="STIXTwoText-69" d="M 1645 0
L 205 0
L 205 179
Q 422 179 515 220
Q 608 262 630 364
Q 653 467 653 646
L 653 2432
Q 653 2637 582 2685
Q 512 2733 371 2733
Q 307 2733 259 2726
Q 211 2720 211 2720
L 211 2906
L 1018 3085
L 1184 3085
L 1184 646
Q 1184 461 1209 358
Q 1235 256 1334 217
Q 1434 179 1645 179
L 1645 0
z
M 928 3584
Q 768 3584 665 3693
Q 563 3802 563 3949
Q 563 4096 662 4201
Q 762 4307 928 4307
Q 1094 4307 1193 4201
Q 1293 4096 1293 3949
Q 1293 3802 1193 3693
Q 1094 3584 928 3584
z
" transform="scale(0.015625)"/>
       <path id="STIXTwoText-73" d="M 269 -51
L 250 1050
L 416 1050
Q 518 557 716 361
Q 915 166 1267 166
Q 1510 166 1664 265
Q 1818 365 1818 589
Q 1818 742 1763 844
Q 1709 947 1555 1052
Q 1402 1158 1101 1306
Q 806 1453 620 1590
Q 435 1728 345 1894
Q 256 2061 256 2298
Q 256 2694 541 2899
Q 826 3104 1235 3104
Q 1478 3104 1632 3049
Q 1786 2995 1907 2938
L 1914 2938
L 2022 3072
L 2150 3072
L 2170 2093
L 1997 2093
Q 1894 2547 1708 2716
Q 1523 2886 1229 2886
Q 1011 2886 860 2784
Q 710 2682 710 2464
Q 710 2278 883 2131
Q 1056 1984 1459 1779
Q 1754 1626 1952 1482
Q 2150 1338 2252 1168
Q 2355 998 2355 762
Q 2355 461 2208 278
Q 2061 96 1814 13
Q 1568 -70 1280 -70
Q 1005 -70 841 -12
Q 678 45 550 96
L 538 96
L 403 -51
L 269 -51
z
" transform="scale(0.015625)"/>
       <path id="STIXTwoText-74" d="M 1875 576
L 1997 474
Q 1875 301 1769 182
Q 1664 64 1536 0
Q 1408 -64 1203 -64
Q 883 -64 736 125
Q 589 314 589 742
L 589 2726
L 237 2726
L 237 2874
Q 461 3014 624 3254
Q 787 3494 960 3904
L 1120 3904
L 1120 2995
L 1843 2995
L 1843 2726
L 1120 2726
L 1120 922
Q 1120 582 1181 448
Q 1242 314 1427 314
Q 1581 314 1667 378
Q 1754 442 1875 576
z
" transform="scale(0.015625)"/>
       <path id="STIXTwoText-61" d="M 1005 -45
Q 634 -45 438 160
Q 243 365 243 672
Q 243 928 361 1104
Q 480 1280 675 1401
Q 870 1523 1097 1606
Q 1325 1690 1542 1747
Q 1760 1805 1926 1856
L 1926 2138
Q 1926 2554 1782 2730
Q 1638 2906 1350 2906
Q 1075 2906 998 2790
Q 922 2675 922 2387
Q 922 2240 848 2166
Q 774 2093 640 2093
Q 544 2093 457 2166
Q 371 2240 371 2400
Q 371 2579 508 2739
Q 646 2899 899 3001
Q 1152 3104 1498 3104
Q 2022 3104 2240 2861
Q 2458 2618 2458 2118
L 2458 666
Q 2458 467 2502 409
Q 2547 352 2650 352
Q 2739 352 2812 397
Q 2886 442 2950 512
L 3046 410
Q 2886 179 2742 73
Q 2598 -32 2355 -32
Q 2131 -32 2064 96
Q 1997 224 1965 461
L 1926 538
L 1926 1645
Q 1638 1574 1382 1478
Q 1126 1382 966 1228
Q 806 1075 806 826
Q 806 589 934 448
Q 1062 307 1267 307
Q 1434 307 1616 390
Q 1798 474 1971 627
L 2022 397
L 1946 397
Q 1798 269 1660 166
Q 1523 64 1366 9
Q 1210 -45 1005 -45
z
" transform="scale(0.015625)"/>
       <path id="STIXTwoText-6e" d="M 3552 0
L 2074 0
L 2074 179
Q 2304 179 2403 220
Q 2502 262 2524 364
Q 2547 467 2547 646
L 2547 1805
Q 2547 2189 2460 2381
Q 2374 2573 2240 2633
Q 2106 2694 1958 2694
Q 1773 2694 1625 2620
Q 1478 2547 1360 2444
Q 1242 2342 1139 2253
L 1094 2566
L 1190 2566
Q 1453 2797 1686 2950
Q 1920 3104 2221 3104
Q 2656 3104 2867 2809
Q 3078 2515 3078 1965
L 3078 646
Q 3078 467 3107 364
Q 3136 262 3238 220
Q 3341 179 3552 179
L 3552 0
z
M 1670 0
L 205 0
L 205 179
Q 422 179 515 220
Q 608 262 630 364
Q 653 467 653 646
L 653 2445
Q 653 2618 582 2672
Q 512 2726 384 2726
Q 301 2726 256 2720
Q 211 2714 211 2714
L 211 2899
L 1024 3085
L 1171 3085
L 1165 2496
L 1184 2362
L 1184 646
Q 1184 467 1209 364
Q 1235 262 1337 220
Q 1440 179 1670 179
L 1670 0
z
" transform="scale(0.015625)"/>
       <path id="STIXTwoText-63" d="M 2611 947
L 2733 858
Q 2611 602 2454 390
Q 2298 179 2067 57
Q 1837 -64 1491 -64
Q 1094 -64 806 128
Q 518 320 364 662
Q 211 1005 211 1446
Q 211 1952 380 2323
Q 550 2694 873 2899
Q 1197 3104 1658 3104
Q 2112 3104 2371 2905
Q 2630 2707 2630 2426
Q 2630 2285 2563 2211
Q 2496 2138 2362 2138
Q 2221 2138 2147 2211
Q 2074 2285 2029 2393
Q 1984 2502 1936 2611
Q 1888 2720 1801 2793
Q 1715 2867 1549 2867
Q 1158 2867 937 2582
Q 717 2298 717 1747
Q 717 1165 957 790
Q 1197 416 1690 416
Q 2003 416 2198 544
Q 2394 672 2611 947
z
" transform="scale(0.015625)"/>
       <path id="STIXTwoText-65" d="M 1581 -64
Q 1197 -64 886 118
Q 576 301 397 656
Q 218 1011 218 1523
Q 218 2061 400 2409
Q 582 2758 889 2931
Q 1197 3104 1568 3104
Q 2093 3104 2413 2739
Q 2733 2374 2758 1702
L 678 1702
L 672 1939
L 2157 1939
Q 2150 2176 2073 2384
Q 1997 2592 1849 2720
Q 1702 2848 1472 2848
Q 1101 2848 915 2557
Q 730 2266 730 1734
Q 730 1293 870 998
Q 1011 704 1241 560
Q 1472 416 1734 416
Q 1997 416 2160 486
Q 2323 557 2438 669
Q 2554 781 2656 915
L 2778 826
Q 2694 646 2585 483
Q 2477 320 2339 198
Q 2202 77 2016 6
Q 1830 -64 1581 -64
z
" transform="scale(0.015625)"/>
       <path id="STIXTwoText-20" transform="scale(0.015625)"/>
       <path id="STIXTwoText-54" d="M 2861 0
L 1005 0
L 1005 192
Q 1274 192 1408 233
Q 1542 275 1587 412
Q 1632 550 1632 838
L 1632 3917
L 1222 3917
Q 870 3917 694 3846
Q 518 3776 441 3590
Q 365 3405 294 3053
L 96 3053
L 166 4205
L 3706 4205
L 3757 3053
L 3558 3053
Q 3488 3405 3411 3590
Q 3334 3776 3161 3846
Q 2989 3917 2630 3917
L 2227 3917
L 2227 838
Q 2227 550 2272 412
Q 2317 275 2451 233
Q 2586 192 2861 192
L 2861 0
z
" transform="scale(0.015625)"/>
       <path id="STIXTwoText-72" d="M 1786 0
L 186 0
L 186 186
Q 397 186 496 221
Q 595 256 624 349
Q 653 442 653 621
L 653 2381
Q 653 2554 624 2640
Q 595 2726 422 2726
Q 326 2726 275 2720
Q 224 2714 224 2714
L 224 2893
L 1018 3085
L 1171 3085
L 1171 2426
L 1190 2426
Q 1357 2662 1485 2816
Q 1613 2970 1737 3046
Q 1862 3123 2016 3123
Q 2202 3123 2294 3027
Q 2387 2931 2387 2765
Q 2387 2586 2300 2502
Q 2214 2419 2106 2419
Q 2003 2419 1923 2473
Q 1843 2528 1785 2582
Q 1728 2637 1690 2637
Q 1581 2637 1440 2470
Q 1299 2304 1184 2112
L 1184 653
Q 1184 454 1235 352
Q 1286 250 1417 218
Q 1549 186 1786 186
L 1786 0
z
" transform="scale(0.015625)"/>
       <path id="STIXTwoText-76" d="M 1696 -38
L 1389 -38
L 435 2374
Q 352 2573 288 2672
Q 224 2771 141 2806
Q 58 2842 -83 2842
L -83 3027
L 1267 3027
L 1267 2842
Q 1082 2842 1008 2800
Q 934 2758 934 2682
Q 934 2618 953 2560
Q 973 2502 998 2432
L 1542 1005
L 1664 621
L 1702 621
L 1837 1011
L 2387 2458
Q 2394 2483 2413 2537
Q 2432 2592 2432 2669
Q 2432 2778 2336 2810
Q 2240 2842 2067 2842
L 2067 3027
L 3187 3027
L 3187 2842
Q 3002 2842 2902 2755
Q 2803 2669 2707 2419
L 1696 -38
z
" transform="scale(0.015625)"/>
       <path id="STIXTwoText-6c" d="M 1664 0
L 192 0
L 192 186
Q 403 186 499 227
Q 595 269 617 368
Q 640 467 640 646
L 640 3859
Q 640 4058 566 4096
Q 493 4134 371 4134
Q 288 4134 227 4128
Q 166 4122 166 4122
L 166 4294
L 1011 4518
L 1171 4518
L 1171 646
Q 1171 461 1200 361
Q 1229 262 1331 224
Q 1434 186 1664 186
L 1664 0
z
" transform="scale(0.015625)"/>
       <path id="STIXTwoText-64" d="M 1306 -51
Q 947 -51 700 141
Q 454 333 332 662
Q 211 992 211 1402
Q 211 1933 409 2313
Q 608 2694 944 2899
Q 1280 3104 1683 3104
Q 1837 3104 1987 3065
Q 2138 3027 2278 2950
L 2304 2950
L 2304 3789
Q 2304 4000 2256 4064
Q 2208 4128 2022 4128
Q 1978 4128 1917 4121
Q 1856 4115 1856 4115
L 1856 4294
L 2662 4518
L 2835 4518
L 2835 685
Q 2835 435 2905 361
Q 2976 288 3155 288
L 3290 288
L 3290 115
L 2470 -32
L 2323 -32
L 2323 410
L 2298 410
Q 2118 250 1872 99
Q 1626 -51 1306 -51
z
M 1606 410
Q 1830 410 1984 470
Q 2138 531 2304 646
L 2304 2336
Q 2266 2534 2118 2691
Q 1971 2848 1670 2848
Q 1267 2848 1017 2553
Q 768 2259 768 1651
Q 768 992 982 701
Q 1197 410 1606 410
z
" transform="scale(0.015625)"/>
       <path id="STIXTwoText-5b" d="M 1920 -1190
L 582 -1190
L 582 4685
L 1920 4685
L 1920 4493
L 1088 4493
L 1088 -998
L 1920 -998
L 1920 -1190
z
" transform="scale(0.015625)"/>
       <path id="STIXGeneral-Italic-6d" d="M 4506 672
L 4474 627
Q 3981 -58 3552 -58
Q 3296 -58 3296 237
Q 3296 333 3379 659
L 3750 2112
Q 3795 2291 3795 2355
Q 3795 2413 3756 2451
Q 3718 2490 3667 2490
Q 3366 2490 2829 1741
Q 2592 1408 2457 1072
Q 2323 736 2138 0
L 1658 0
L 1830 595
Q 2266 2099 2266 2330
Q 2266 2490 2125 2490
Q 1965 2490 1702 2237
Q 1440 1984 1171 1574
Q 1011 1325 899 1043
Q 787 762 557 0
L 77 0
L 352 922
Q 704 2093 704 2381
Q 704 2522 442 2522
L 282 2522
L 282 2624
L 1318 2822
L 1338 2810
L 966 1472
Q 1798 2822 2374 2822
Q 2560 2822 2659 2720
Q 2758 2618 2758 2438
Q 2758 2195 2502 1466
Q 2842 2003 3069 2275
Q 3296 2547 3526 2694
Q 3731 2822 3930 2822
Q 4102 2822 4201 2710
Q 4301 2598 4301 2419
Q 4301 2336 4282 2240
L 3846 634
Q 3782 390 3782 346
Q 3782 243 3859 243
Q 4000 243 4275 582
L 4410 749
L 4506 672
z
" transform="scale(0.015625)"/>
       <path id="STIXTwoText-5d" d="M 1638 -1190
L 301 -1190
L 301 -998
L 1133 -998
L 1133 4493
L 301 4493
L 301 4685
L 1638 4685
L 1638 -1190
z
" transform="scale(0.015625)"/>
      </defs>
      <use xlink:href="#STIXTwoText-44" transform="translate(0 0.796875)"/>
      <use xlink:href="#STIXTwoText-69" transform="translate(72.999985 0.796875)"/>
      <use xlink:href="#STIXTwoText-73" transform="translate(101.499969 0.796875)"/>
      <use xlink:href="#STIXTwoText-74" transform="translate(140.999954 0.796875)"/>
      <use xlink:href="#STIXTwoText-61" transform="translate(172.499939 0.796875)"/>
      <use xlink:href="#STIXTwoText-6e" transform="translate(220.499924 0.796875)"/>
      <use xlink:href="#STIXTwoText-63" transform="translate(278.099915 0.796875)"/>
      <use xlink:href="#STIXTwoText-65" transform="translate(322.699905 0.796875)"/>
      <use xlink:href="#STIXTwoText-20" transform="translate(369.099899 0.796875)"/>
      <use xlink:href="#STIXTwoText-54" transform="translate(392.599884 0.796875)"/>
      <use xlink:href="#STIXTwoText-72" transform="translate(452.899872 0.796875)"/>
      <use xlink:href="#STIXTwoText-61" transform="translate(490.899857 0.796875)"/>
      <use xlink:href="#STIXTwoText-76" transform="translate(538.899841 0.796875)"/>
      <use xlink:href="#STIXTwoText-65" transform="translate(586.999832 0.796875)"/>
      <use xlink:href="#STIXTwoText-6c" transform="translate(633.399826 0.796875)"/>
      <use xlink:href="#STIXTwoText-6c" transform="translate(661.699814 0.796875)"/>
      <use xlink:href="#STIXTwoText-65" transform="translate(689.999802 0.796875)"/>
      <use xlink:href="#STIXTwoText-64" transform="translate(736.399796 0.796875)"/>
      <use xlink:href="#STIXTwoText-20" transform="translate(790.299789 0.796875)"/>
      <use xlink:href="#STIXTwoText-5b" transform="translate(813.799774 0.796875)"/>
      <use xlink:href="#STIXGeneral-Italic-6d" transform="translate(848.499771 0.796875)"/>
      <use xlink:href="#STIXTwoText-5d" transform="translate(920.699753 0.796875)"/>
     </g>
    </g>
   </g>
   <g id="patch_3">
    <path d="M 70.795909 692.64
L 80.908581 692.64
L 80.908581 60.620099
L 70.795909 60.620099
z
" clip-path="url(#pbda7e65683)" style="fill: #8839ef; opacity: 0.2; stroke: #ffffff; stroke-linejoin: miter"/>
   </g>
   <g id="patch_4">
    <path d="M 80.908581 692.64
L 91.021253 692.64
L 91.021253 62.006346
L 80.908581 62.006346
z
" clip-path="url(#pbda7e65683)" style="fill: #8839ef; opacity: 0.4; stroke: #ffffff; stroke-linejoin: miter"/>
   </g>
   <g id="patch_5">
    <path d="M 91.021253 692.64
L 101.133926 692.64
L 101.133926 70.022909
L 91.021253 70.022909
z
" clip-path="url(#pbda7e65683)" style="fill: #8839ef; opacity: 0.6; stroke: #ffffff; stroke-linejoin: miter"/>
   </g>
   <g id="patch_6">
    <path d="M 101.133926 692.64
L 111.246598 692.64
L 111.246598 101.76195
L 101.133926 101.76195
z
" clip-path="url(#pbda7e65683)" style="fill: #8839ef; opacity: 0.8; stroke: #ffffff; stroke-linejoin: miter"/>
   </g>
   <g id="patch_7">
    <path d="M 111.246598 692.64
L 121.35927 692.64
L 121.35927 82.230924
L 111.246598 82.230924
z
" clip-path="url(#pbda7e65683)" style="fill: #8839ef; stroke: #ffffff; stroke-linejoin: miter"/>
   </g>
   <g id="patch_8">
    <path d="M 141.584614 692.64
L 151.697287 692.64
L 151.697287 104.104531
L 141.584614 104.104531
z
" clip-path="url(#pbda7e65683)" style="fill: #e64553; opacity: 0.2; stroke: #ffffff; stroke-linejoin: miter"/>
   </g>
   <g id="patch_9">
    <path d="M 151.697287 692.64
L 161.809959 692.64
L 161.809959 58.693395
L 151.697287 58.693395
z
" clip-path="url(#pbda7e65683)" style="fill: #e64553; opacity: 0.4; stroke: #ffffff; stroke-linejoin: miter"/>
   </g>
   <g id="patch_10">
    <path d="M 161.809959 692.64
L 171.922631 692.64
L 171.922631 85.535164
L 161.809959 85.535164
z
" clip-path="url(#pbda7e65683)" style="fill: #e64553; opacity: 0.6; stroke: #ffffff; stroke-linejoin: miter"/>
   </g>
   <g id="patch_11">
    <path d="M 171.922631 692.64
L 182.035303 692.64
L 182.035303 95.556421
L 171.922631 95.556421
z
" clip-path="url(#pbda7e65683)" style="fill: #e64553; opacity: 0.8; stroke: #ffffff; stroke-linejoin: miter"/>
   </g>
   <g id="patch_12">
    <path d="M 182.035303 692.64
L 192.147975 692.64
L 192.147975 70.922031
L 182.035303 70.922031
z
" clip-path="url(#pbda7e65683)" style="fill: #e64553; stroke: #ffffff; stroke-linejoin: miter"/>
   </g>
   <g id="patch_13">
    <path d="M 212.37332 692.64
L 222.485992 692.64
L 222.485992 61.029556
L 212.37332 61.029556
z
" clip-path="url(#pbda7e65683)" style="fill: #df8e1d; opacity: 0.2; stroke: #ffffff; stroke-linejoin: miter"/>
   </g>
   <g id="patch_14">
    <path d="M 222.485992 692.64
L 232.598664 692.64
L 232.598664 80.715543
L 222.485992 80.715543
z
" clip-path="url(#pbda7e65683)" style="fill: #df8e1d; opacity: 0.4; stroke: #ffffff; stroke-linejoin: miter"/>
   </g>
   <g id="patch_15">
    <path d="M 232.598664 692.64
L 242.711336 692.64
L 242.711336 90.384411
L 232.598664 90.384411
z
" clip-path="url(#pbda7e65683)" style="fill: #df8e1d; opacity: 0.6; stroke: #ffffff; stroke-linejoin: miter"/>
   </g>
   <g id="patch_16">
    <path d="M 242.711336 692.64
L 252.824008 692.64
L 252.824008 88.030699
L 242.711336 88.030699
z
" clip-path="url(#pbda7e65683)" style="fill: #df8e1d; opacity: 0.8; stroke: #ffffff; stroke-linejoin: miter"/>
   </g>
   <g id="patch_17">
    <path d="M 252.824008 692.64
L 262.93668 692.64
L 262.93668 81.894302
L 252.824008 81.894302
z
" clip-path="url(#pbda7e65683)" style="fill: #df8e1d; stroke: #ffffff; stroke-linejoin: miter"/>
   </g>
   <g id="patch_18">
    <path d="M 283.162025 692.64
L 293.274697 692.64
L 293.274697 46.093151
L 283.162025 46.093151
z
" clip-path="url(#pbda7e65683)" style="fill: #179299; opacity: 0.2; stroke: #ffffff; stroke-linejoin: miter"/>
   </g>
   <g id="patch_19">
    <path d="M 293.274697 692.64
L 303.387369 692.64
L 303.387369 62.304196
L 293.274697 62.304196
z
" clip-path="url(#pbda7e65683)" style="fill: #179299; opacity: 0.4; stroke: #ffffff; stroke-linejoin: miter"/>
   </g>
   <g id="patch_20">
    <path d="M 303.387369 692.64
L 313.500041 692.64
L 313.500041 81.095429
L 303.387369 81.095429
z
" clip-path="url(#pbda7e65683)" style="fill: #179299; opacity: 0.6; stroke: #ffffff; stroke-linejoin: miter"/>
   </g>
   <g id="patch_21">
    <path d="M 313.500041 692.64
L 323.612713 692.64
L 323.612713 73.846216
L 313.500041 73.846216
z
" clip-path="url(#pbda7e65683)" style="fill: #179299; opacity: 0.8; stroke: #ffffff; stroke-linejoin: miter"/>
   </g>
   <g id="patch_22">
    <path d="M 323.612713 692.64
L 333.725386 692.64
L 333.725386 60.272278
L 323.612713 60.272278
z
" clip-path="url(#pbda7e65683)" style="fill: #179299; stroke: #ffffff; stroke-linejoin: miter"/>
   </g>
   <g id="patch_23">
    <path d="M 353.95073 692.64
L 364.063402 692.64
L 364.063402 55.202059
L 353.95073 55.202059
z
" clip-path="url(#pbda7e65683)" style="fill: #7287fd; opacity: 0.2; stroke: #ffffff; stroke-linejoin: miter"/>
   </g>
   <g id="patch_24">
    <path d="M 364.063402 692.64
L 374.176074 692.64
L 374.176074 74.659721
L 364.063402 74.659721
z
" clip-path="url(#pbda7e65683)" style="fill: #7287fd; opacity: 0.4; stroke: #ffffff; stroke-linejoin: miter"/>
   </g>
   <g id="patch_25">
    <path d="M 374.176074 692.64
L 384.288747 692.64
L 384.288747 71.436165
L 374.176074 71.436165
z
" clip-path="url(#pbda7e65683)" style="fill: #7287fd; opacity: 0.6; stroke: #ffffff; stroke-linejoin: miter"/>
   </g>
   <g id="patch_26">
    <path d="M 384.288747 692.64
L 394.401419 692.64
L 394.401419 81.438248
L 384.288747 81.438248
z
" clip-path="url(#pbda7e65683)" style="fill: #7287fd; opacity: 0.8; stroke: #ffffff; stroke-linejoin: miter"/>
   </g>
   <g id="patch_27">
    <path d="M 394.401419 692.64
L 404.514091 692.64
L 404.514091 77.906393
L 394.401419 77.906393
z
" clip-path="url(#pbda7e65683)" style="fill: #7287fd; stroke: #ffffff; stroke-linejoin: miter"/>
   </g>
   <g id="patch_28">
    <path d="M 54.11 127.44
L 54.11 14.4
" style="fill: none; stroke: #ffffff; stroke-width: 0.8; stroke-linejoin: miter; stroke-linecap: square"/>
   </g>
   <g id="patch_29">
    <path d="M 421.2 127.44
L 421.2 14.4
" style="fill: none; stroke: #ffffff; stroke-width: 0.8; stroke-linejoin: miter; stroke-linecap: square"/>
   </g>
   <g id="patch_30">
    <path d="M 54.11 127.44
L 421.2 127.44
" style="fill: none; stroke: #ffffff; stroke-width: 0.8; stroke-linejoin: miter; stroke-linecap: square"/>
   </g>
   <g id="patch_31">
    <path d="M 54.11 14.4
L 421.2 14.4
" style="fill: none; stroke: #ffffff; stroke-width: 0.8; stroke-linejoin: miter; stroke-linecap: square"/>
   </g>
   <g id="text_7">
    <!-- 111.01 -->
    <g style="fill: #8839ef" transform="translate(78.07759 33.004) scale(0.1 -0.1)">
     <defs>
      <path id="JetBrainsMonoNFM-Regular-2e" d="M 1920 -64
Q 1683 -64 1539 77
Q 1395 218 1395 442
Q 1395 678 1539 825
Q 1683 973 1920 973
Q 2157 973 2301 825
Q 2445 678 2445 442
Q 2445 218 2301 77
Q 2157 -64 1920 -64
z
" transform="scale(0.015625)"/>
     </defs>
     <use xlink:href="#JetBrainsMonoNFM-Regular-31"/>
     <use xlink:href="#JetBrainsMonoNFM-Regular-31" x="59.999985"/>
     <use xlink:href="#JetBrainsMonoNFM-Regular-31" x="119.999969"/>
     <use xlink:href="#JetBrainsMonoNFM-Regular-2e" x="179.999954"/>
     <use xlink:href="#JetBrainsMonoNFM-Regular-30" x="239.999939"/>
     <use xlink:href="#JetBrainsMonoNFM-Regular-31" x="299.999924"/>
    </g>
   </g>
   <g id="text_8">
    <!-- 108.83 -->
    <g style="fill: #e64553" transform="translate(148.866295 33.004) scale(0.1 -0.1)">
     <defs>
      <path id="JetBrainsMonoNFM-Regular-38" d="M 1920 -64
Q 1478 -64 1139 109
Q 800 282 611 592
Q 422 902 422 1306
Q 422 1747 675 2067
Q 928 2387 1350 2458
L 1350 2477
Q 986 2560 768 2845
Q 550 3130 550 3501
Q 550 3866 723 4144
Q 896 4422 1206 4579
Q 1517 4736 1920 4736
Q 2330 4736 2637 4579
Q 2944 4422 3117 4144
Q 3290 3866 3290 3501
Q 3290 3130 3072 2845
Q 2854 2560 2490 2477
L 2490 2458
Q 2912 2387 3165 2067
Q 3418 1747 3418 1306
Q 3418 902 3229 592
Q 3040 282 2704 109
Q 2368 -64 1920 -64
z
M 1920 2701
Q 2278 2701 2496 2912
Q 2714 3123 2714 3462
Q 2714 3802 2496 4013
Q 2278 4224 1920 4224
Q 1568 4224 1347 4013
Q 1126 3802 1126 3462
Q 1126 3123 1347 2912
Q 1568 2701 1920 2701
z
M 1920 454
Q 2330 454 2586 694
Q 2842 934 2842 1318
Q 2842 1709 2586 1949
Q 2330 2189 1920 2189
Q 1510 2189 1254 1949
Q 998 1709 998 1318
Q 998 934 1254 694
Q 1510 454 1920 454
z
" transform="scale(0.015625)"/>
      <path id="JetBrainsMonoNFM-Regular-33" d="M 1850 -64
Q 1203 -64 825 297
Q 448 659 448 1280
L 1024 1280
Q 1024 896 1248 672
Q 1472 448 1856 448
Q 2240 448 2464 672
Q 2688 896 2688 1280
L 2688 1600
Q 2688 1984 2464 2208
Q 2240 2432 1856 2432
L 1350 2432
L 1350 2931
L 2496 4147
L 576 4147
L 576 4672
L 3149 4672
L 3149 4134
L 2022 2938
Q 2598 2893 2931 2537
Q 3264 2182 3264 1600
L 3264 1280
Q 3264 659 2883 297
Q 2502 -64 1850 -64
z
" transform="scale(0.015625)"/>
     </defs>
     <use xlink:href="#JetBrainsMonoNFM-Regular-31"/>
     <use xlink:href="#JetBrainsMonoNFM-Regular-30" x="59.999985"/>
     <use xlink:href="#JetBrainsMonoNFM-Regular-38" x="119.999969"/>
     <use xlink:href="#JetBrainsMonoNFM-Regular-2e" x="179.999954"/>
     <use xlink:href="#JetBrainsMonoNFM-Regular-38" x="239.999939"/>
     <use xlink:href="#JetBrainsMonoNFM-Regular-33" x="299.999924"/>
    </g>
   </g>
   <g id="text_9">
    <!-- 110.51 -->
    <g style="fill: #df8e1d" transform="translate(219.655 33.004) scale(0.1 -0.1)">
     <use xlink:href="#JetBrainsMonoNFM-Regular-31"/>
     <use xlink:href="#JetBrainsMonoNFM-Regular-31" x="59.999985"/>
     <use xlink:href="#JetBrainsMonoNFM-Regular-30" x="119.999969"/>
     <use xlink:href="#JetBrainsMonoNFM-Regular-2e" x="179.999954"/>
     <use xlink:href="#JetBrainsMonoNFM-Regular-35" x="239.999939"/>
     <use xlink:href="#JetBrainsMonoNFM-Regular-31" x="299.999924"/>
    </g>
   </g>
   <g id="text_10">
    <!-- 113.46 -->
    <g style="fill: #179299" transform="translate(290.443705 33.004) scale(0.1 -0.1)">
     <defs>
      <path id="JetBrainsMonoNFM-Regular-34" d="M 2560 0
L 2560 1024
L 448 1024
L 448 1926
L 2150 4672
L 2803 4672
L 1024 1798
L 1024 1549
L 2560 1549
L 2560 2688
L 3136 2688
L 3136 0
L 2560 0
z
" transform="scale(0.015625)"/>
      <path id="JetBrainsMonoNFM-Regular-36" d="M 1926 -64
Q 1478 -64 1136 125
Q 794 314 602 650
Q 410 986 410 1427
Q 410 1734 525 2057
Q 640 2381 838 2733
L 1920 4672
L 2560 4672
L 1408 2669
L 1427 2656
Q 1510 2765 1676 2822
Q 1843 2880 2042 2880
Q 2458 2880 2768 2697
Q 3078 2515 3254 2195
Q 3430 1875 3430 1453
Q 3430 1005 3238 662
Q 3046 320 2710 128
Q 2374 -64 1926 -64
z
M 1920 448
Q 2336 448 2595 723
Q 2854 998 2854 1440
Q 2854 1882 2595 2157
Q 2336 2432 1920 2432
Q 1504 2432 1245 2157
Q 986 1882 986 1440
Q 986 998 1245 723
Q 1504 448 1920 448
z
" transform="scale(0.015625)"/>
     </defs>
     <use xlink:href="#JetBrainsMonoNFM-Regular-31"/>
     <use xlink:href="#JetBrainsMonoNFM-Regular-31" x="59.999985"/>
     <use xlink:href="#JetBrainsMonoNFM-Regular-33" x="119.999969"/>
     <use xlink:href="#JetBrainsMonoNFM-Regular-2e" x="179.999954"/>
     <use xlink:href="#JetBrainsMonoNFM-Regular-34" x="239.999939"/>
     <use xlink:href="#JetBrainsMonoNFM-Regular-36" x="299.999924"/>
    </g>
   </g>
   <g id="text_11">
    <!-- 111.07 -->
    <g style="fill: #7287fd" transform="translate(361.23241 33.004) scale(0.1 -0.1)">
     <defs>
      <path id="JetBrainsMonoNFM-Regular-37" d="M 1216 0
L 2880 4147
L 1101 4147
L 1101 3392
L 525 3392
L 525 4672
L 3494 4672
L 3494 4134
L 1843 0
L 1216 0
z
" transform="scale(0.015625)"/>
     </defs>
     <use xlink:href="#JetBrainsMonoNFM-Regular-31"/>
     <use xlink:href="#JetBrainsMonoNFM-Regular-31" x="59.999985"/>
     <use xlink:href="#JetBrainsMonoNFM-Regular-31" x="119.999969"/>
     <use xlink:href="#JetBrainsMonoNFM-Regular-2e" x="179.999954"/>
     <use xlink:href="#JetBrainsMonoNFM-Regular-30" x="239.999939"/>
     <use xlink:href="#JetBrainsMonoNFM-Regular-37" x="299.999924"/>
    </g>
   </g>
  </g>
 </g>
 <defs>
  <clipPath id="pbda7e65683">
   <rect x="54.11" y="14.4" width="367.09" height="113.04"/>
  </clipPath>
 </defs>
</svg>
